<?xml version="1.0" standalone="no"?>
<!DOCTYPE svg PUBLIC "-//W3C//DTD SVG 20010904//EN"
 "http://www.w3.org/TR/2001/REC-SVG-20010904/DTD/svg10.dtd">
<svg version="1.0" xmlns="http://www.w3.org/2000/svg"
 width="705.000000pt" height="705.000000pt" viewBox="0 0 705.000000 705.000000"
 preserveAspectRatio="xMidYMid meet">
<metadata>
Created by potrace 1.14, written by Peter Selinger 2001-2017
</metadata>
<g transform="translate(0.000000,705.000000) scale(0.100000,-0.100000)"
fill="#000000" stroke="none">
<path d="M1667 6303 c-3 -5 -9 -51 -12 -103 -3 -52 -8 -117 -10 -145 -8 -130
-16 -247 -21 -315 -17 -275 -24 -362 -30 -372 -3 -4 0 -8 6 -8 6 0 8 -5 5 -10
-4 -6 -8 -34 -10 -63 -8 -120 -16 -237 -21 -307 -3 -41 -7 -104 -9 -140 -8
-104 -21 -297 -30 -445 -3 -44 -7 -113 -10 -152 -3 -40 -7 -108 -10 -150 -3
-43 -7 -107 -9 -143 -15 -210 -25 -359 -31 -455 -2 -33 -6 -100 -10 -150 -6
-87 -9 -129 -20 -315 -3 -47 -7 -110 -10 -140 -2 -30 -6 -100 -10 -155 -4 -55
-8 -125 -10 -155 -3 -30 -7 -98 -10 -150 -3 -52 -8 -117 -10 -145 -2 -27 -7
-88 -10 -135 -3 -47 -8 -121 -11 -165 -2 -44 -7 -114 -9 -155 -3 -41 -7 -102
-9 -135 -3 -33 -8 -109 -11 -170 -4 -60 -9 -128 -10 -150 -10 -113 -14 -269
-8 -259 5 5 39 28 78 50 38 21 90 51 115 66 25 15 56 33 70 41 47 26 95 54
198 116 57 33 106 61 108 61 2 0 22 11 44 25 22 14 43 25 48 25 4 0 13 -15 20
-33 40 -110 181 -182 302 -155 19 4 135 64 247 127 51 29 97 50 102 47 4 -3
11 -18 14 -34 11 -54 69 -123 131 -156 47 -24 70 -30 121 -30 69 0 105 15 325
134 58 31 155 83 215 115 61 32 142 75 180 95 39 21 95 50 125 66 30 15 57 30
60 33 3 4 39 23 80 44 41 20 120 61 175 90 55 30 154 82 220 117 66 35 158 84
205 109 47 25 103 55 125 66 22 11 42 22 45 25 3 3 30 18 60 33 30 15 96 48
145 75 50 26 144 76 210 111 66 35 143 76 170 91 28 15 102 55 165 88 63 33
138 72 165 87 28 15 93 50 145 77 52 28 127 67 165 88 39 20 111 59 160 85
340 179 360 191 390 227 23 27 45 67 49 88 1 3 4 10 8 16 21 33 8 139 -25 199
-22 39 -134 140 -407 365 -41 35 -88 74 -105 89 -16 14 -68 58 -115 96 -47 39
-96 80 -110 92 -37 32 -63 54 -111 93 -24 19 -64 53 -89 75 -26 22 -66 56 -91
77 -24 20 -55 45 -69 57 -14 11 -32 26 -40 34 -8 7 -55 47 -105 88 -49 40 -92
76 -95 79 -3 3 -59 50 -125 105 -111 92 -139 115 -184 155 -9 8 -39 33 -66 55
-28 22 -61 50 -75 62 -38 33 -64 55 -110 93 -44 36 -115 95 -160 134 -24 20
-200 168 -224 187 -6 5 -33 28 -60 51 -27 24 -58 49 -70 57 -12 8 -28 22 -36
30 -8 9 -35 32 -60 52 -25 20 -55 45 -67 55 -11 11 -40 35 -63 53 -24 19 -48
40 -54 46 -6 5 -36 30 -66 55 -30 25 -57 47 -60 50 -24 28 -179 143 -208 156
-56 24 -151 21 -208 -8 -83 -41 -139 -121 -149 -210 -1 -10 -4 -20 -6 -23 -4
-4 -126 90 -238 183 -24 20 -54 43 -65 51 -12 8 -23 18 -26 22 -3 3 -20 14
-38 23 -101 52 -223 33 -304 -46 -45 -43 -87 -128 -80 -160 3 -13 -14 -9 -36
10 -11 9 -35 28 -53 42 -18 14 -38 31 -46 38 -7 7 -13 10 -13 5 0 -4 -4 -3 -8
4 -4 6 -63 54 -132 107 -69 54 -132 102 -140 109 -8 7 -55 43 -105 81 -49 38
-102 80 -116 94 -15 13 -29 20 -32 15z m1045 -446 c30 -23 72 -55 92 -72 37
-30 44 -36 111 -90 20 -16 42 -34 49 -40 6 -5 27 -22 48 -37 69 -52 70 -54 63
-127 -11 -119 -25 -245 -28 -248 -2 -1 -32 21 -69 50 -36 29 -127 99 -202 157
-76 58 -146 112 -157 121 -11 10 -49 39 -84 65 l-64 49 4 45 c11 106 24 131
87 160 51 23 85 15 150 -33z m703 -17 c21 -8 116 -80 145 -110 5 -5 102 -87
144 -122 52 -43 190 -158 265 -222 25 -21 55 -45 66 -55 52 -42 141 -117 145
-121 3 -3 28 -24 55 -45 28 -22 52 -43 55 -46 4 -5 177 -151 220 -186 8 -6 35
-29 60 -51 25 -21 97 -81 160 -134 63 -52 125 -104 137 -114 26 -23 44 -38
108 -89 28 -22 55 -45 60 -51 6 -6 91 -78 190 -160 99 -82 182 -152 185 -155
3 -3 50 -43 105 -89 91 -75 154 -128 212 -177 11 -10 38 -32 60 -50 21 -17 48
-39 59 -50 12 -10 41 -34 65 -54 24 -20 78 -65 119 -99 41 -34 77 -66 78 -71
2 -5 10 -9 17 -9 7 0 15 -4 17 -9 2 -5 23 -25 48 -46 170 -139 187 -157 195
-204 12 -80 -18 -119 -143 -181 -48 -24 -89 -47 -92 -50 -3 -3 -34 -20 -70
-38 -36 -18 -110 -57 -165 -87 -55 -29 -131 -70 -170 -89 -38 -20 -97 -51
-130 -69 -70 -38 -306 -163 -350 -185 -16 -8 -42 -24 -57 -34 -16 -11 -28 -16
-28 -12 0 3 -6 2 -12 -4 -7 -5 -51 -30 -98 -54 -47 -25 -101 -54 -120 -65 -19
-11 -89 -48 -155 -83 -66 -34 -151 -79 -190 -100 -147 -79 -374 -199 -465
-247 -52 -28 -133 -71 -180 -95 -47 -25 -119 -63 -160 -84 -41 -22 -77 -41
-80 -44 -3 -3 -36 -22 -75 -41 -86 -45 -246 -129 -340 -179 -38 -20 -110 -59
-160 -85 -49 -27 -108 -58 -131 -71 -61 -33 -105 -36 -151 -10 -59 33 -89 120
-55 159 8 9 47 34 86 53 39 20 76 40 81 44 6 5 39 24 75 43 36 19 81 44 100
56 19 11 42 24 50 28 8 4 57 31 109 60 51 29 95 53 96 53 5 0 146 79 175 98
14 9 32 17 40 19 8 1 16 7 18 12 2 6 7 11 12 11 5 0 81 41 169 90 89 50 166
90 171 90 6 0 10 5 10 10 0 6 4 10 9 10 5 0 82 41 170 90 89 50 166 90 171 90
6 0 10 5 10 10 0 6 5 10 10 10 6 0 67 32 138 71 70 40 150 84 177 99 73 40
136 75 262 146 62 35 117 64 123 64 5 0 10 5 10 10 0 6 6 10 13 10 7 0 29 11
50 25 20 14 37 23 37 19 0 -4 8 0 18 8 9 9 44 30 77 47 33 17 80 43 105 57 25
15 72 41 105 59 223 121 234 129 276 186 67 88 65 218 -4 311 -12 16 -121 109
-242 206 -121 97 -225 181 -231 187 -6 5 -26 22 -45 37 -19 14 -158 126 -309
248 -151 122 -290 234 -309 248 -19 15 -55 44 -80 66 -64 53 -68 57 -236 191
-83 65 -155 124 -161 130 -6 5 -28 24 -50 40 -38 30 -351 281 -389 313 -11 9
-54 44 -95 77 -41 32 -80 64 -87 70 -7 5 -18 15 -25 20 -7 6 -27 21 -44 35
-247 199 -234 187 -229 223 2 18 6 51 9 74 9 91 96 145 181 113z m-139 -435
c27 -23 69 -57 264 -214 113 -91 212 -171 220 -178 8 -7 92 -74 185 -149 94
-75 181 -146 195 -157 14 -12 39 -33 55 -45 47 -36 92 -73 159 -128 33 -28
176 -142 316 -254 140 -113 257 -207 260 -210 3 -3 97 -80 210 -170 113 -91
212 -170 220 -177 8 -6 33 -27 56 -45 22 -18 57 -46 78 -63 22 -16 44 -34 50
-40 6 -5 33 -28 60 -49 73 -59 90 -123 54 -194 -10 -20 -81 -69 -138 -95 -8
-4 -31 -17 -50 -28 -19 -12 -62 -36 -96 -54 -33 -18 -72 -39 -85 -48 -24 -15
-123 -70 -189 -105 -61 -32 -152 -83 -225 -124 -38 -22 -97 -55 -130 -73 -88
-47 -135 -74 -280 -155 -127 -71 -198 -111 -280 -155 -22 -12 -76 -42 -120
-67 -44 -25 -105 -59 -135 -75 -30 -17 -134 -75 -230 -128 -96 -54 -197 -110
-225 -125 -27 -15 -111 -61 -185 -102 -74 -42 -157 -88 -185 -103 -27 -15 -81
-45 -118 -66 -38 -22 -73 -39 -77 -39 -5 0 -10 -3 -12 -7 -4 -11 -63 -43 -78
-43 -6 0 -9 3 -7 8 3 4 8 43 13 87 4 44 8 89 10 100 1 11 3 30 3 42 1 22 11
29 175 122 19 11 53 31 75 45 22 15 43 26 46 26 2 0 29 16 59 35 30 19 57 35
60 35 3 0 30 16 60 35 30 19 58 35 61 35 5 0 71 39 131 78 10 6 28 16 39 22
11 5 43 23 70 39 46 28 89 52 190 110 22 13 78 46 125 74 47 27 103 60 125 72
22 13 243 141 490 285 248 145 466 272 485 283 182 103 310 181 308 187 -2 5
-79 67 -173 140 -93 72 -185 143 -204 158 -18 15 -41 31 -50 36 -9 5 -18 12
-21 16 -3 4 -129 102 -280 219 -277 214 -305 236 -371 288 -20 15 -51 39 -69
53 -28 21 -89 68 -170 133 -9 7 -42 32 -75 57 -33 25 -62 47 -65 50 -3 3 -25
21 -50 40 -25 19 -46 38 -48 42 -2 4 -8 8 -14 8 -8 0 -100 70 -118 90 -3 3
-21 17 -40 30 -19 13 -37 27 -40 30 -3 3 -25 21 -50 40 -25 19 -46 38 -48 42
-2 4 -10 8 -17 8 -7 0 -15 4 -17 8 -1 4 -43 39 -93 77 -49 38 -92 72 -95 75
-3 3 -17 13 -32 22 -28 19 -28 14 -13 133 5 39 17 169 18 192 0 10 37 -11 73
-42z m-580 -3537 c-3 -24 -8 -68 -11 -98 -4 -30 -8 -68 -10 -83 -3 -34 -5 -37
-75 -73 -30 -16 -56 -32 -58 -36 -2 -5 -8 -8 -13 -8 -6 0 -63 -29 -128 -65
-124 -69 -159 -77 -211 -50 -64 33 -93 119 -47 141 12 6 79 44 149 85 165 96
152 88 233 134 39 21 72 41 75 44 8 9 84 51 93 51 4 0 5 -19 3 -42z"/>
</g>
</svg>
