<svg width="98" height="98" viewBox="0 0 98 98" fill="none" xmlns="http://www.w3.org/2000/svg">
<rect x="1" y="1" width="96" height="96" rx="48" fill="white"/>
<path d="M20.9945 23.1293C25.3734 13.1448 35.8841 9.38542 44.1773 16.0893C47.4157 18.7046 49.4361 22.867 53.4014 24.5373C57.1221 26.1037 61.8353 25.6425 65.8587 26.4909C74.4264 28.2861 85.9614 35.0973 85.0814 45.5921C84.696 50.1893 81.5949 55.295 80.0619 59.5965C78.3019 64.5456 77.2459 70.7372 72.5872 73.6958C64.6003 78.7752 54.9661 74.6233 47.7712 70.5278C43.8992 68.326 41.7678 66.9726 37.5984 67.7276C33.7387 68.4316 30.2627 70.8956 26.491 67.9723C23.6592 65.7776 23.4251 61.33 21.0473 58.7182C18.3686 55.7755 15.6529 55.5625 14.2608 51.1397C12.5729 45.7734 15.0598 42.4206 16.7406 37.6264C18.4214 32.8321 18.9318 27.8267 20.9945 23.1293Z" fill="#8ECAE6"/>
<g opacity="0.7">
<path d="M20.9945 23.1293C25.3734 13.1448 35.8841 9.38542 44.1773 16.0893C47.4157 18.7046 49.4361 22.867 53.4014 24.5373C57.1221 26.1037 61.8353 25.6425 65.8587 26.4909C74.4264 28.2861 85.9614 35.0973 85.0814 45.5921C84.696 50.1893 81.5949 55.295 80.0619 59.5965C78.3019 64.5456 77.2459 70.7372 72.5872 73.6958C64.6003 78.7752 54.9661 74.6233 47.7712 70.5278C43.8992 68.326 41.7678 66.9726 37.5984 67.7276C33.7387 68.4316 30.2627 70.8956 26.491 67.9723C23.6592 65.7776 23.4251 61.33 21.0473 58.7182C18.3686 55.7755 15.6529 55.5625 14.2608 51.1397C12.5729 45.7734 15.0598 42.4206 16.7406 37.6264C18.4214 32.8321 18.9318 27.8267 20.9945 23.1293Z" fill="white"/>
</g>
<path d="M54.3135 82.0323C39.2879 82.0323 27.1074 81.2735 27.1074 80.3375C27.1074 79.4014 39.2879 78.6426 54.3135 78.6426C69.339 78.6426 81.5195 79.4014 81.5195 80.3375C81.5195 81.2735 69.339 82.0323 54.3135 82.0323Z" fill="#8ECAE6"/>
<path opacity="0.8" d="M54.3135 82.0323C39.2879 82.0323 27.1074 81.2735 27.1074 80.3375C27.1074 79.4014 39.2879 78.6426 54.3135 78.6426C69.339 78.6426 81.5195 79.4014 81.5195 80.3375C81.5195 81.2735 69.339 82.0323 54.3135 82.0323Z" fill="white"/>
<path d="M33.8692 15.8887H61.2249C63.1135 15.8887 64.6445 17.4197 64.6445 19.3084V77.061C64.6445 78.9496 63.1135 80.4807 61.2249 80.4807H33.8692C31.9805 80.4807 30.4495 78.9496 30.4495 77.061V19.3084C30.4495 17.4197 31.9805 15.8887 33.8692 15.8887Z" fill="#1C282E"/>
<path d="M31.9695 22.9805H63.125V73.3869H31.9695V22.9805Z" fill="white" stroke="#1C282E" stroke-width="0.301842" stroke-miterlimit="10"/>
<path d="M42.7721 43.3924C40.1349 40.7551 40.1349 36.4793 42.7721 33.842C45.4094 31.2048 49.6852 31.2048 52.3225 33.842C54.9597 36.4793 54.9597 40.7551 52.3225 43.3924C49.6852 46.0296 45.4094 46.0296 42.7721 43.3924Z" fill="#8ECAE6"/>
<path d="M38.6801 70.2185H56.4104C56.4503 70.2188 56.4898 70.2111 56.5267 70.196C56.5637 70.1809 56.5973 70.1586 56.6256 70.1305C56.6538 70.1024 56.6763 70.0689 56.6916 70.0321C56.707 69.9952 56.7148 69.9557 56.7148 69.9158C56.7151 69.8758 56.7074 69.8361 56.6921 69.799C56.6769 69.762 56.6545 69.7283 56.6262 69.7C56.5979 69.6717 56.5642 69.6493 56.5272 69.634C56.4901 69.6188 56.4504 69.6111 56.4104 69.6113H38.6801C38.6402 69.6113 38.6007 69.6192 38.5639 69.6345C38.527 69.6499 38.4936 69.6723 38.4654 69.7006C38.4373 69.7289 38.415 69.7625 38.3999 69.7994C38.3848 69.8364 38.3772 69.8759 38.3774 69.9158C38.3774 69.9961 38.4093 70.0731 38.4661 70.1299C38.5228 70.1866 38.5998 70.2185 38.6801 70.2185Z" fill="#8ECAE6"/>
<path d="M38.103 49.168H56.9896C57.3793 49.168 57.6953 49.4839 57.6953 49.8737V52.1001C57.6953 52.4899 57.3793 52.8059 56.9896 52.8059H38.103C37.7132 52.8059 37.3972 52.4899 37.3972 52.1001V49.8737C37.3972 49.4839 37.7132 49.168 38.103 49.168Z" fill="#8ECAE6"/>
<path d="M38.103 55.9727H56.9896C57.3793 55.9727 57.6953 56.2886 57.6953 56.6784V58.9048C57.6953 59.2946 57.3793 59.6106 56.9896 59.6106H38.103C37.7132 59.6106 37.3972 59.2946 37.3972 58.9048V56.6784C37.3972 56.2886 37.7132 55.9727 38.103 55.9727Z" fill="#8ECAE6"/>
<path d="M44.1831 41.9873L46.1701 40.8433V39.8982C45.8824 39.5501 45.674 39.1435 45.5594 38.7067C45.491 38.731 45.419 38.7435 45.3464 38.7436C45.1 38.7436 44.9434 37.9798 44.917 37.4342C44.6301 36.827 45.0208 36.4715 45.0208 36.4715C45.0208 36.4715 44.8589 36.3096 44.7516 35.6601C44.6442 35.0107 45.13 35.2817 45.5084 34.6868C45.8868 34.092 46.1578 33.4443 47.4004 33.4443C47.7427 33.433 48.0806 33.525 48.37 33.7083C48.6594 33.8916 48.8869 34.1578 49.0231 34.4721C49.3324 34.4732 49.6406 34.5093 49.9418 34.5795C50.322 34.6868 50.4293 35.9312 50.1055 36.4187C49.9605 36.6851 49.8832 36.9831 49.8802 37.2864C49.9664 37.1808 50.0562 37.1526 50.1055 37.392C50.2128 37.9323 49.7799 38.6891 49.7799 38.6891L49.5564 38.6257C49.4437 39.0926 49.2265 39.5277 48.921 39.8982V40.8433L50.908 41.9873C51.1401 42.1213 51.3328 42.314 51.4669 42.5459C51.601 42.7779 51.6717 43.0411 51.6719 43.3091V43.9638C50.4901 44.8767 49.0389 45.372 47.5456 45.372C46.0522 45.372 44.601 44.8767 43.4192 43.9638V43.3091C43.4191 43.0411 43.4896 42.7777 43.6237 42.5457C43.7579 42.3136 43.9508 42.121 44.1831 41.9873Z" fill="#1C282E"/>
<path d="M55.1243 58.705C55.1698 58.7044 55.2134 58.6861 55.2457 58.654C55.263 58.6385 55.2768 58.6195 55.2862 58.5982C55.2956 58.577 55.3004 58.554 55.3003 58.5308C55.2997 58.499 55.2906 58.468 55.2739 58.441L54.9571 57.9341L55.5748 57.9535C55.5981 57.955 55.6214 57.9515 55.6433 57.9433C55.6651 57.9351 55.685 57.9224 55.7015 57.906C55.7302 57.8737 55.7461 57.8321 55.7461 57.7889C55.7461 57.7458 55.7302 57.7041 55.7015 57.6719C55.6853 57.6549 55.6656 57.6417 55.6437 57.6331C55.6218 57.6246 55.5983 57.621 55.5748 57.6226L54.9659 57.6455L55.2791 57.1404C55.2962 57.1129 55.3053 57.0812 55.3055 57.0489C55.3057 57.0256 55.3009 57.0026 55.2915 56.9814C55.2821 56.9601 55.2683 56.9411 55.251 56.9257C55.2186 56.8936 55.1751 56.8753 55.1295 56.8746C55.0995 56.8748 55.0702 56.8835 55.045 56.8997C55.0198 56.9159 54.9996 56.9389 54.987 56.9661L54.686 57.51L54.3886 56.9697C54.3745 56.9408 54.3527 56.9164 54.3258 56.899C54.2988 56.8817 54.2675 56.872 54.2355 56.8711C54.2132 56.8712 54.1912 56.876 54.1709 56.8851C54.1506 56.8942 54.1324 56.9074 54.1175 56.9239C54.0852 56.9574 54.0675 57.0023 54.0683 57.0489C54.0684 57.0791 54.0762 57.1088 54.0911 57.1351L54.4097 57.6455L53.7919 57.6226C53.7685 57.621 53.745 57.6246 53.7231 57.6331C53.7012 57.6417 53.6814 57.6549 53.6652 57.6719C53.6352 57.7031 53.6188 57.7448 53.6195 57.7881C53.6196 57.8317 53.6359 57.8737 53.6652 57.906C53.6818 57.9224 53.7017 57.9351 53.7235 57.9433C53.7453 57.9515 53.7687 57.955 53.7919 57.9535L54.4132 57.9341L54.1035 58.4357C54.0861 58.4637 54.077 58.4961 54.0771 58.529C54.0771 58.5757 54.0956 58.6205 54.1286 58.6535C54.1616 58.6865 54.2064 58.705 54.2531 58.705C54.2832 58.7046 54.3126 58.6954 54.3377 58.6785C54.3627 58.6616 54.3822 58.6378 54.3939 58.61L54.6878 58.082L54.9799 58.61C54.9929 58.6376 55.0132 58.6611 55.0387 58.6778C55.0642 58.6946 55.0938 58.704 55.1243 58.705Z" fill="#1C282E"/>
<path d="M52.2701 58.705C52.3157 58.7044 52.3592 58.6861 52.3915 58.654C52.4089 58.6385 52.4227 58.6195 52.4321 58.5983C52.4415 58.577 52.4463 58.554 52.4461 58.5308C52.4456 58.499 52.4364 58.468 52.4197 58.441L52.1029 57.9341L52.7189 57.9535C52.7424 57.9546 52.7659 57.9509 52.788 57.9428C52.81 57.9346 52.8302 57.9221 52.8474 57.906C52.8707 57.8819 52.8863 57.8513 52.8921 57.8182C52.8978 57.7852 52.8935 57.7511 52.8796 57.7206C52.8657 57.69 52.843 57.6643 52.8143 57.6468C52.7857 57.6294 52.7524 57.6209 52.7189 57.6226L52.1117 57.6455L52.425 57.1404C52.442 57.1129 52.4512 57.0812 52.4514 57.0489C52.4516 57.0256 52.4468 57.0026 52.4374 56.9814C52.428 56.9601 52.4141 56.9411 52.3968 56.9257C52.3645 56.8936 52.3209 56.8753 52.2754 56.8746C52.2454 56.8748 52.2161 56.8835 52.1908 56.8997C52.1656 56.9159 52.1455 56.939 52.1328 56.9661L51.8319 57.51L51.5344 56.9697C51.5203 56.9408 51.4986 56.9164 51.4716 56.899C51.4446 56.8817 51.4134 56.872 51.3813 56.8711C51.359 56.871 51.337 56.8757 51.3166 56.8848C51.2963 56.8939 51.2782 56.9072 51.2634 56.9239C51.2471 56.9403 51.2342 56.9598 51.2254 56.9813C51.2167 57.0027 51.2122 57.0257 51.2123 57.0489C51.213 57.0792 51.2215 57.109 51.237 57.1351L51.5555 57.6455L50.936 57.6261C50.9128 57.6246 50.8896 57.6282 50.868 57.6367C50.8464 57.6452 50.8269 57.6584 50.8111 57.6754C50.7811 57.7066 50.7646 57.7483 50.7653 57.7916C50.7654 57.8352 50.7817 57.8772 50.8111 57.9095C50.8273 57.9259 50.8469 57.9386 50.8684 57.9468C50.89 57.9549 50.913 57.9584 50.936 57.957L51.5591 57.9377L51.2493 58.4393C51.2319 58.4673 51.2228 58.4996 51.2229 58.5325C51.2229 58.5792 51.2414 58.624 51.2745 58.657C51.3075 58.69 51.3522 58.7085 51.3989 58.7085C51.4291 58.7081 51.4585 58.6989 51.4835 58.682C51.5085 58.6652 51.528 58.6413 51.5397 58.6135L51.8336 58.0855L52.1258 58.6135C52.1392 58.6404 52.1598 58.6632 52.1852 58.6793C52.2106 58.6955 52.24 58.7043 52.2701 58.705Z" fill="#1C282E"/>
<path d="M49.4146 58.705C49.4608 58.7048 49.5051 58.6865 49.5378 58.654C49.5552 58.6385 49.569 58.6195 49.5784 58.5983C49.5878 58.577 49.5926 58.554 49.5924 58.5308C49.5919 58.499 49.5827 58.468 49.566 58.441L49.2492 57.9341L49.8652 57.9535C49.8984 57.9548 49.9312 57.9462 49.9595 57.9288C49.9877 57.9115 50.0102 57.886 50.024 57.8558C50.0378 57.8256 50.0422 57.792 50.0368 57.7592C50.0314 57.7265 50.0164 57.6961 49.9937 57.6719C49.977 57.6549 49.957 57.6418 49.9348 57.6333C49.9126 57.6248 49.8889 57.6211 49.8652 57.6226L49.258 57.6455L49.5713 57.1404C49.5883 57.1129 49.5975 57.0812 49.5977 57.0489C49.5971 57.0257 49.592 57.003 49.5827 56.9818C49.5733 56.9607 49.5599 56.9416 49.5431 56.9257C49.5103 56.8931 49.4661 56.8748 49.4199 56.8746C49.3902 56.8751 49.3613 56.884 49.3364 56.9002C49.3115 56.9164 49.2916 56.9392 49.2791 56.9661L48.9782 57.51L48.6807 56.9697C48.6666 56.9408 48.6449 56.9164 48.6179 56.899C48.5909 56.8817 48.5597 56.872 48.5276 56.8711C48.5053 56.871 48.4833 56.8757 48.4629 56.8848C48.4426 56.8939 48.4244 56.9072 48.4097 56.9239C48.3934 56.9403 48.3805 56.9598 48.3717 56.9813C48.3629 57.0027 48.3585 57.0257 48.3586 57.0489C48.3593 57.0792 48.3678 57.109 48.3833 57.1351L48.7018 57.6455L48.0823 57.6226C48.0595 57.6203 48.0365 57.623 48.0149 57.6303C47.9932 57.6377 47.9733 57.6496 47.9567 57.6653C47.94 57.681 47.9269 57.7 47.9182 57.7212C47.9095 57.7424 47.9054 57.7652 47.9063 57.7881C47.9059 57.8314 47.9216 57.8734 47.9503 57.906C47.9669 57.9224 47.9868 57.9351 48.0086 57.9433C48.0304 57.9515 48.0538 57.955 48.077 57.9535L48.6983 57.9341L48.3903 58.4357C48.373 58.4637 48.3638 58.4961 48.3639 58.529C48.3645 58.5521 48.3696 58.5749 48.3789 58.596C48.3883 58.6172 48.4017 58.6363 48.4185 58.6522C48.4338 58.6687 48.4523 58.6819 48.4729 58.6909C48.4935 58.7 48.5157 58.7048 48.5382 58.705C48.5681 58.7045 48.5972 58.6952 48.6219 58.6783C48.6466 58.6614 48.6658 58.6377 48.6772 58.61L48.9729 58.082L49.265 58.61C49.2782 58.6385 49.2993 58.6626 49.3259 58.6795C49.3524 58.6964 49.3832 58.7052 49.4146 58.705Z" fill="#1C282E"/>
<path d="M46.56 58.705C46.6062 58.7048 46.6504 58.6865 46.6832 58.654C46.7164 58.6215 46.7353 58.5772 46.736 58.5308C46.7365 58.4991 46.728 58.468 46.7114 58.441L46.3946 57.9341L47.0106 57.9535C47.0341 57.9546 47.0575 57.9509 47.0796 57.9428C47.1017 57.9346 47.1219 57.9221 47.139 57.906C47.1677 57.8737 47.1836 57.8321 47.1836 57.7889C47.1836 57.7458 47.1677 57.7041 47.139 57.6719C47.122 57.6555 47.1019 57.6426 47.0798 57.6342C47.0577 57.6257 47.0342 57.6218 47.0106 57.6226L46.4016 57.6455L46.7131 57.1404C46.7302 57.1129 46.7393 57.0812 46.7395 57.0489C46.739 57.0257 46.7339 57.003 46.7245 56.9818C46.7151 56.9607 46.7017 56.9416 46.685 56.9257C46.6522 56.8931 46.6079 56.8748 46.5618 56.8746C46.5318 56.8748 46.5025 56.8835 46.4772 56.8997C46.452 56.9159 46.4319 56.939 46.4192 56.9661L46.12 57.51L45.8226 56.9697C45.8084 56.9408 45.7867 56.9164 45.7597 56.899C45.7327 56.8817 45.7015 56.872 45.6694 56.8711C45.6472 56.871 45.6251 56.8757 45.6048 56.8848C45.5844 56.8939 45.5663 56.9072 45.5515 56.9239C45.5352 56.9403 45.5223 56.9598 45.5135 56.9813C45.5048 57.0027 45.5003 57.0257 45.5005 57.0489C45.5011 57.0792 45.5096 57.109 45.5251 57.1351L45.8437 57.6455L45.2242 57.6226C45.2014 57.6203 45.1784 57.623 45.1567 57.6303C45.135 57.6377 45.1152 57.6496 45.0985 57.6653C45.0818 57.681 45.0687 57.7 45.06 57.7212C45.0513 57.7424 45.0473 57.7652 45.0482 57.7881C45.0478 57.8314 45.0635 57.8734 45.0922 57.906C45.1087 57.9224 45.1286 57.9351 45.1504 57.9433C45.1723 57.9515 45.1956 57.955 45.2189 57.9535L45.8402 57.9341L45.5322 58.4357C45.5148 58.4637 45.5057 58.4961 45.5058 58.529C45.5056 58.5522 45.5104 58.5752 45.5198 58.5965C45.5292 58.6177 45.543 58.6367 45.5603 58.6522C45.5756 58.6687 45.5941 58.6819 45.6147 58.6909C45.6353 58.7 45.6575 58.7048 45.68 58.705C45.7099 58.7045 45.739 58.6952 45.7638 58.6783C45.7885 58.6614 45.8077 58.6377 45.819 58.61L46.1147 58.082L46.4069 58.61C46.4203 58.6391 46.442 58.6636 46.4692 58.6805C46.4964 58.6974 46.528 58.7059 46.56 58.705Z" fill="#1C282E"/>
<path d="M43.7045 58.705C43.7507 58.7048 43.7949 58.6865 43.8277 58.654C43.855 58.6264 43.8724 58.5905 43.8771 58.552C43.8819 58.5135 43.8738 58.4745 43.8541 58.441L43.5391 57.9341L44.1551 57.9535C44.1786 57.9546 44.2021 57.9509 44.2241 57.9428C44.2462 57.9346 44.2664 57.9221 44.2836 57.906C44.3123 57.8737 44.3281 57.8321 44.3281 57.7889C44.3281 57.7458 44.3123 57.7041 44.2836 57.6719C44.2666 57.6555 44.2464 57.6426 44.2243 57.6342C44.2023 57.6257 44.1787 57.6218 44.1551 57.6226L43.5461 57.6455L43.8594 57.1404C43.8765 57.1129 43.8856 57.0812 43.8858 57.0489C43.8851 57.0024 43.8662 56.9582 43.833 56.9257C43.8002 56.8931 43.756 56.8748 43.7098 56.8746C43.6798 56.8748 43.6505 56.8835 43.6253 56.8997C43.6 56.9159 43.5799 56.939 43.5673 56.9661L43.268 57.51L42.9706 56.9697C42.9565 56.9408 42.9348 56.9164 42.9078 56.899C42.8808 56.8817 42.8496 56.872 42.8175 56.8711C42.7949 56.871 42.7726 56.8756 42.752 56.8847C42.7314 56.8938 42.7129 56.9072 42.6978 56.9239C42.6655 56.9574 42.6478 57.0023 42.6485 57.0489C42.6492 57.0792 42.6576 57.109 42.6732 57.1351L42.9917 57.6455L42.3722 57.6226C42.3494 57.6203 42.3264 57.623 42.3048 57.6303C42.2831 57.6377 42.2632 57.6496 42.2466 57.6653C42.2299 57.681 42.2168 57.7 42.2081 57.7212C42.1994 57.7424 42.1953 57.7652 42.1962 57.7881C42.1958 57.8314 42.2115 57.8734 42.2402 57.906C42.2568 57.9224 42.2767 57.9351 42.2985 57.9433C42.3203 57.9515 42.3437 57.955 42.3669 57.9535L42.9882 57.9341L42.6802 58.4357C42.6629 58.4637 42.6537 58.4961 42.6538 58.529C42.6536 58.5522 42.6584 58.5752 42.6678 58.5965C42.6772 58.6177 42.6911 58.6367 42.7084 58.6522C42.7237 58.6687 42.7422 58.6819 42.7628 58.6909C42.7833 58.7 42.8056 58.7048 42.828 58.705C42.858 58.7045 42.8871 58.6952 42.9118 58.6783C42.9365 58.6614 42.9557 58.6377 42.9671 58.61L43.2628 58.082L43.5549 58.61C43.5681 58.6385 43.5892 58.6626 43.6158 58.6795C43.6423 58.6964 43.6731 58.7052 43.7045 58.705Z" fill="#1C282E"/>
<path d="M40.85 58.705C40.8955 58.7044 40.9391 58.6861 40.9714 58.654C40.9887 58.6385 41.0026 58.6195 41.012 58.5983C41.0214 58.577 41.0262 58.554 41.026 58.5308C41.0254 58.499 41.0163 58.468 40.9996 58.441L40.6845 57.9341L41.3005 57.9535C41.3232 57.9552 41.346 57.9522 41.3674 57.9446C41.3888 57.937 41.4084 57.9251 41.425 57.9095C41.4415 57.894 41.4547 57.8751 41.4636 57.8542C41.4724 57.8333 41.4769 57.8108 41.4765 57.7881C41.4767 57.7665 41.4725 57.7452 41.4644 57.7252C41.4562 57.7053 41.4442 57.6872 41.429 57.6719C41.4128 57.6549 41.3931 57.6417 41.3712 57.6331C41.3493 57.6246 41.3258 57.621 41.3023 57.6226L40.6933 57.6455L41.0066 57.1404C41.0237 57.1129 41.0328 57.0812 41.033 57.0489C41.0324 57.0024 41.0134 56.9582 40.9802 56.9257C40.9474 56.8931 40.9032 56.8748 40.857 56.8746C40.827 56.8748 40.7977 56.8835 40.7725 56.8997C40.7472 56.9159 40.7271 56.939 40.7145 56.9661L40.4153 57.51L40.1161 56.9697C40.1021 56.9411 40.0806 56.9168 40.054 56.8995C40.0273 56.8821 39.9965 56.8723 39.9647 56.8711C39.9422 56.871 39.9199 56.8756 39.8992 56.8847C39.8786 56.8938 39.8601 56.9072 39.845 56.9239C39.8127 56.9574 39.795 57.0023 39.7957 57.0489C39.7958 57.0791 39.8037 57.1088 39.8186 57.1351L40.1372 57.6455L39.5194 57.6226C39.496 57.621 39.4725 57.6246 39.4506 57.6331C39.4287 57.6417 39.4089 57.6549 39.3927 57.6719C39.3627 57.7031 39.3463 57.7448 39.3469 57.7881C39.3471 57.8317 39.3634 57.8737 39.3927 57.906C39.4093 57.9224 39.4291 57.9351 39.451 57.9433C39.4728 57.9515 39.4962 57.955 39.5194 57.9535L40.1407 57.9341L39.8327 58.4357C39.8153 58.4637 39.8062 58.4961 39.8063 58.529C39.807 58.5754 39.8259 58.6197 39.8591 58.6522C39.8912 58.685 39.9347 58.7039 39.9805 58.705C40.0105 58.7045 40.0396 58.6952 40.0643 58.6783C40.089 58.6614 40.1082 58.6377 40.1196 58.61L40.4153 58.082L40.7074 58.61C40.7201 58.6374 40.7401 58.6609 40.7653 58.6776C40.7904 58.6944 40.8198 58.7039 40.85 58.705Z" fill="#1C282E"/>
<g style="mix-blend-mode:multiply">
<path d="M31.9695 23.0488H63.125V25.0007H31.9695V23.0488Z" fill="#8ECAE6"/>
</g>
<path d="M44.1613 19.4535H50.9373C51.0596 19.4535 51.1769 19.4049 51.2634 19.3184C51.3499 19.232 51.3984 19.1147 51.3984 18.9924C51.3984 18.8701 51.3499 18.7528 51.2634 18.6663C51.1769 18.5798 51.0596 18.5312 50.9373 18.5312H44.1613C44.039 18.5313 43.9217 18.5798 43.8353 18.6663C43.7488 18.7528 43.7002 18.8701 43.7002 18.9924C43.7002 19.1147 43.7488 19.232 43.8353 19.3184C43.9217 19.4049 44.039 19.4535 44.1613 19.4535Z" fill="#8ECAE6" stroke="#1C282E" stroke-width="0.301842" stroke-linecap="round" stroke-linejoin="round"/>
<path d="M45.6985 76.2365C45.6982 75.8708 45.8063 75.5133 46.0092 75.2091C46.2122 74.9049 46.5008 74.6678 46.8385 74.5277C47.1763 74.3876 47.548 74.3509 47.9066 74.4221C48.2653 74.4934 48.5947 74.6694 48.8533 74.928C49.1118 75.1865 49.2879 75.516 49.3591 75.8746C49.4304 76.2333 49.3936 76.605 49.2535 76.9427C49.1134 77.2805 48.8763 77.5691 48.5721 77.772C48.268 77.9749 47.9104 78.0831 47.5448 78.0827C47.0553 78.0823 46.5859 77.8876 46.2398 77.5415C45.8937 77.1953 45.699 76.726 45.6985 76.2365Z" fill="#8ECAE6"/>
<path d="M46.6117 75.2988H48.4844V77.1715H46.6117V75.2988Z" fill="#8ECAE6" stroke="#1C282E" stroke-width="0.301842" stroke-linecap="round" stroke-linejoin="round"/>
<path d="M25.2414 54.9836C25.2414 54.9836 27.6948 48.7497 25.5106 48.0088C23.2367 47.2361 23.337 51.3528 23.425 53.3592C23.6098 57.6465 24.0833 58.4438 24.437 57.3966L25.2414 54.9836ZM25.9788 59.8465C25.3047 60.7265 25.1146 59.8148 26.3308 55.6982C26.901 53.7622 28.1401 49.8462 30.0409 51.3158C31.866 52.7238 27.5223 57.8278 27.5223 57.8278L25.9788 59.8465ZM27.2812 63.4193C26.6388 63.9896 26.6265 63.2697 28.1524 60.2971C28.8687 58.9049 30.3841 56.0872 31.6249 57.4811C32.8164 58.8257 28.7561 62.094 28.7561 62.094L27.2812 63.4193ZM28.6892 67.668C28.0468 68.24 28.0345 67.5184 29.5604 64.5475C30.2767 63.1553 31.7921 60.3358 33.0329 61.7315C34.2174 63.0796 30.1694 66.348 30.1694 66.348L28.6892 67.668ZM24.6236 59.0193C25.6514 59.4206 24.8348 59.8571 20.5422 59.8448C18.5287 59.8448 14.4174 59.7532 15.2938 57.5163C16.1334 55.3673 22.2476 58.1041 22.2476 58.1041L24.6236 59.0193ZM25.794 61.8776C26.8817 62.0659 26.1671 62.6572 21.9572 63.4985C19.9842 63.8945 15.938 64.6249 16.3516 62.2665C16.7476 59.9926 23.2842 61.4604 23.2842 61.4604L25.794 61.8776ZM27.1034 65.3676C28.0292 65.5014 27.4378 66.0171 23.8985 66.8267C22.2388 67.2068 18.8332 67.9196 19.1289 65.908C19.4105 63.972 24.9721 65.0667 24.9721 65.0667L27.1034 65.3676ZM28.0978 68.6008C29.0042 68.8313 28.3618 69.2819 24.7538 69.7113C23.0642 69.912 19.6023 70.2604 20.1074 68.291C20.595 66.4008 26.0087 68.0745 26.0087 68.0745L28.0978 68.6008ZM22.7932 55.5116C23.3212 56.6944 22.2247 56.5148 18.497 53.2624C16.7511 51.7364 13.2487 48.5438 16.0225 46.9545C18.6854 45.4269 21.5489 52.7977 21.5489 52.7977L22.7932 55.5116ZM27.9606 72.8124C28.5185 73.138 27.9711 73.2648 25.4121 72.7544C24.2118 72.5168 21.7706 71.9888 22.5961 70.9468C23.3951 69.9436 26.6687 72.0556 26.6687 72.0556L27.9606 72.8124Z" fill="#8ECAE6"/>
<path opacity="0.3" d="M25.2414 54.9836C25.2414 54.9836 27.6948 48.7497 25.5106 48.0088C23.2367 47.2361 23.337 51.3528 23.425 53.3592C23.6098 57.6465 24.0833 58.4438 24.437 57.3966L25.2414 54.9836ZM25.9788 59.8465C25.3047 60.7265 25.1146 59.8148 26.3308 55.6982C26.901 53.7622 28.1401 49.8462 30.0409 51.3158C31.866 52.7238 27.5223 57.8278 27.5223 57.8278L25.9788 59.8465ZM27.2812 63.4193C26.6388 63.9896 26.6265 63.2697 28.1524 60.2971C28.8687 58.9049 30.3841 56.0872 31.6249 57.4811C32.8164 58.8257 28.7561 62.094 28.7561 62.094L27.2812 63.4193ZM28.6892 67.668C28.0468 68.24 28.0345 67.5184 29.5604 64.5475C30.2767 63.1553 31.7921 60.3358 33.0329 61.7315C34.2174 63.0796 30.1694 66.348 30.1694 66.348L28.6892 67.668ZM24.6236 59.0193C25.6514 59.4206 24.8348 59.8571 20.5422 59.8448C18.5287 59.8448 14.4174 59.7532 15.2938 57.5163C16.1334 55.3673 22.2476 58.1041 22.2476 58.1041L24.6236 59.0193ZM25.794 61.8776C26.8817 62.0659 26.1671 62.6572 21.9572 63.4985C19.9842 63.8945 15.938 64.6249 16.3516 62.2665C16.7476 59.9926 23.2842 61.4604 23.2842 61.4604L25.794 61.8776ZM27.1034 65.3676C28.0292 65.5014 27.4378 66.0171 23.8985 66.8267C22.2388 67.2068 18.8332 67.9196 19.1289 65.908C19.4105 63.972 24.9721 65.0667 24.9721 65.0667L27.1034 65.3676ZM28.0978 68.6008C29.0042 68.8313 28.3618 69.2819 24.7538 69.7113C23.0642 69.912 19.6023 70.2604 20.1074 68.291C20.595 66.4008 26.0087 68.0745 26.0087 68.0745L28.0978 68.6008ZM22.7932 55.5116C23.3212 56.6944 22.2247 56.5148 18.497 53.2624C16.7511 51.7364 13.2487 48.5438 16.0225 46.9545C18.6854 45.4269 21.5489 52.7977 21.5489 52.7977L22.7932 55.5116ZM27.9606 72.8124C28.5185 73.138 27.9711 73.2648 25.4121 72.7544C24.2118 72.5168 21.7706 71.9888 22.5961 70.9468C23.3951 69.9436 26.6687 72.0556 26.6687 72.0556L27.9606 72.8124Z" fill="white"/>
<path d="M24.1571 57.8851L24.5848 50.7694L24.1571 57.8851ZM25.5106 60.2329L28.2139 54.1134L25.5106 60.2329ZM18.5339 58.4536L25.0125 59.3828L18.5339 58.4536ZM26.9115 63.5312L30.4192 59.0308L26.9115 63.5312ZM26.2955 62.1513L21.4626 62.3942L26.2955 62.1513ZM27.4395 65.6027L23.7435 65.9688L27.4395 65.6027ZM28.3318 67.7956L30.1675 65.0342L28.3318 67.7956ZM28.543 68.7707L24.1976 68.8112L28.543 68.7707ZM29.423 76.923C29.3939 76.9207 29.3669 76.9071 29.3478 76.885C29.3286 76.8629 29.319 76.8342 29.321 76.8051C29.5973 72.655 27.9922 65.8579 25.4173 60.2787C23.7717 56.7129 17.3213 49.7046 17.2526 49.6342C17.2319 49.6134 17.2202 49.5852 17.2202 49.5559C17.2202 49.5265 17.2319 49.4983 17.2526 49.4776C17.2628 49.4673 17.2748 49.4592 17.2881 49.4537C17.3014 49.4482 17.3157 49.4453 17.3301 49.4453C17.3445 49.4453 17.3587 49.4482 17.372 49.4537C17.3853 49.4592 17.3974 49.4673 17.4075 49.4776C17.4726 49.548 23.9494 56.5827 25.6091 60.1801C28.2315 65.8948 29.8155 72.5688 29.5339 76.8192C29.5317 76.8472 29.5191 76.8734 29.4986 76.8926C29.4781 76.9118 29.4511 76.9226 29.423 76.923ZM24.1589 57.9942C24.1298 57.9924 24.1025 57.9792 24.0831 57.9574C24.0637 57.9357 24.0536 57.9072 24.055 57.878L24.4757 50.7588C24.4763 50.7443 24.4799 50.7301 24.4861 50.717C24.4924 50.7039 24.5011 50.6922 24.512 50.6825C24.5228 50.6729 24.5354 50.6654 24.5491 50.6607C24.5628 50.656 24.5774 50.654 24.5918 50.655C24.6209 50.6568 24.6482 50.67 24.6676 50.6918C24.687 50.7135 24.6971 50.742 24.6957 50.7712L24.268 57.8868C24.2666 57.9149 24.2545 57.9413 24.2342 57.9606C24.2139 57.9799 24.1869 57.9907 24.1589 57.9907V57.9942ZM25.4718 60.3332C25.4455 60.3213 25.4248 60.2995 25.4143 60.2725C25.4038 60.2456 25.4042 60.2156 25.4155 60.1889L28.1206 54.0694C28.1323 54.0428 28.1541 54.0219 28.1811 54.0113C28.2082 54.0008 28.2383 54.0014 28.265 54.0131C28.2916 54.0247 28.3124 54.0465 28.323 54.0736C28.3336 54.1006 28.3329 54.1308 28.3213 54.1574L25.6179 60.2769C25.6094 60.2965 25.5954 60.3133 25.5776 60.3252C25.5598 60.337 25.539 60.3435 25.5176 60.3438C25.4994 60.3447 25.4812 60.3411 25.4648 60.3332H25.4718ZM25.0037 59.4884L18.5286 58.5627C18.513 58.5623 18.4976 58.5587 18.4835 58.552C18.4693 58.5453 18.4568 58.5357 18.4466 58.5238C18.4365 58.5119 18.4289 58.498 18.4245 58.483C18.4201 58.468 18.419 58.4523 18.4211 58.4368C18.4232 58.4213 18.4286 58.4064 18.4369 58.3931C18.4451 58.3799 18.4561 58.3685 18.4691 58.3598C18.4821 58.3511 18.4968 58.3452 18.5122 58.3425C18.5276 58.3399 18.5434 58.3405 18.5586 58.3444L25.0336 59.2702C25.0625 59.2721 25.0895 59.2853 25.1087 59.3071C25.1278 59.3289 25.1375 59.3574 25.1357 59.3864C25.1338 59.4153 25.1205 59.4423 25.0987 59.4615C25.077 59.4806 25.0485 59.4903 25.0195 59.4884H25.0037ZM26.8499 63.6192C26.8269 63.6011 26.812 63.5747 26.8084 63.5457C26.8047 63.5167 26.8127 63.4874 26.8306 63.4643L30.34 58.9552C30.358 58.9318 30.3845 58.9166 30.4137 58.9128C30.4429 58.909 30.4724 58.9169 30.4958 58.9349C30.5191 58.9529 30.5343 58.9794 30.5381 59.0086C30.5419 59.0378 30.534 59.0673 30.516 59.0907L26.9995 63.6068C26.9893 63.62 26.9762 63.6306 26.9613 63.6379C26.9463 63.6453 26.9299 63.6491 26.9133 63.6491C26.887 63.6478 26.862 63.6372 26.8429 63.6192H26.8499ZM21.3658 62.3995C21.3648 62.3704 21.3753 62.342 21.3951 62.3206C21.4149 62.2992 21.4423 62.2864 21.4714 62.2851L26.2955 62.0404C26.3226 62.0423 26.3481 62.0541 26.3671 62.0735C26.3861 62.0929 26.3974 62.1186 26.3987 62.1457C26.4 62.1729 26.3913 62.1996 26.3742 62.2207C26.3571 62.2418 26.3329 62.256 26.3061 62.2604L21.4731 62.5051C21.444 62.506 21.4157 62.4955 21.3943 62.4757C21.3729 62.456 21.3601 62.4286 21.3587 62.3995H21.3658ZM23.6414 65.9793C23.6397 65.9648 23.6409 65.9502 23.645 65.9362C23.6491 65.9222 23.6559 65.9091 23.6651 65.8978C23.6743 65.8865 23.6856 65.8771 23.6985 65.8702C23.7114 65.8634 23.7255 65.8592 23.74 65.8579L27.436 65.4936C27.4503 65.4921 27.4648 65.4935 27.4786 65.4977C27.4924 65.5019 27.5053 65.5087 27.5164 65.5179C27.5275 65.527 27.5367 65.5383 27.5435 65.5511C27.5502 65.5638 27.5544 65.5778 27.5557 65.5921C27.5581 65.621 27.5492 65.6497 27.5308 65.672C27.5124 65.6944 27.4859 65.7087 27.4571 65.7118L23.7611 66.0779H23.7506C23.7222 66.0798 23.6941 66.0706 23.6724 66.0522C23.6507 66.0338 23.6371 66.0076 23.6344 65.9793H23.6414ZM28.279 67.8872C28.2546 67.871 28.2375 67.8458 28.2316 67.8171C28.2257 67.7884 28.2313 67.7586 28.2474 67.734L30.0742 64.9726C30.091 64.9488 30.1162 64.9324 30.1448 64.9268C30.1733 64.9213 30.2029 64.9269 30.2274 64.9427C30.2518 64.9588 30.2688 64.984 30.2748 65.0127C30.2807 65.0414 30.2751 65.0713 30.259 65.0958L28.4322 67.8572C28.4217 67.8723 28.4078 67.8847 28.3915 67.8933C28.3753 67.9018 28.3572 67.9064 28.3389 67.9065C28.315 67.9078 28.2915 67.901 28.272 67.8872H28.279ZM24.0867 68.8112C24.0872 68.7822 24.0987 68.7545 24.1191 68.7338C24.1394 68.7132 24.1669 68.7012 24.1958 68.7003L28.5413 68.6598C28.5702 68.6598 28.598 68.6713 28.6184 68.6918C28.6389 68.7122 28.6504 68.74 28.6504 68.7689C28.6509 68.7835 28.6484 68.7979 28.6431 68.8115C28.6378 68.825 28.6298 68.8374 28.6196 68.8478C28.6094 68.8581 28.5972 68.8663 28.5837 68.8718C28.5703 68.8773 28.5558 68.88 28.5413 68.8798L24.1958 68.9203C24.181 68.921 24.1661 68.9187 24.1522 68.9136C24.1382 68.9084 24.1255 68.9005 24.1146 68.8903C24.1038 68.8802 24.0951 68.8679 24.0891 68.8543C24.0831 68.8407 24.0799 68.826 24.0797 68.8112H24.0867ZM29.9176 75.3091C29.9088 75.2897 29.1678 73.2481 26.9397 72.7606C26.911 72.7543 26.886 72.7368 26.8701 72.7121C26.8543 72.6873 26.8489 72.6573 26.8552 72.6286C26.8623 72.6005 26.88 72.5761 26.9046 72.5607C26.9292 72.5453 26.9588 72.54 26.9872 72.5459C29.3368 73.0598 30.1165 75.2158 30.1253 75.2369C30.1343 75.2647 30.1322 75.2949 30.1194 75.3212C30.1066 75.3475 30.0841 75.3677 30.0566 75.3777H30.0214C29.998 75.3797 29.9746 75.3741 29.9546 75.3618C29.9346 75.3494 29.9192 75.3309 29.9106 75.3091H29.9176ZM29.423 76.923C29.3939 76.9207 29.3669 76.9071 29.3478 76.885C29.3286 76.8629 29.319 76.8342 29.321 76.8051C29.5973 72.655 27.9922 65.8579 25.4173 60.2787C23.7717 56.7129 17.3213 49.7046 17.2526 49.6342C17.2319 49.6134 17.2202 49.5852 17.2202 49.5559C17.2202 49.5265 17.2319 49.4983 17.2526 49.4776C17.2628 49.4673 17.2748 49.4592 17.2881 49.4537C17.3014 49.4482 17.3157 49.4453 17.3301 49.4453C17.3445 49.4453 17.3587 49.4482 17.372 49.4537C17.3853 49.4592 17.3974 49.4673 17.4075 49.4776C17.4726 49.548 23.9494 56.5827 25.6091 60.1801C28.2315 65.8948 29.8155 72.5688 29.5339 76.8192C29.5317 76.8472 29.5191 76.8734 29.4986 76.8926C29.4781 76.9118 29.4511 76.9226 29.423 76.923ZM24.1589 57.9942C24.1298 57.9924 24.1025 57.9792 24.0831 57.9574C24.0637 57.9357 24.0536 57.9072 24.055 57.878L24.4757 50.7588C24.4763 50.7443 24.4799 50.7301 24.4861 50.717C24.4924 50.7039 24.5011 50.6922 24.512 50.6825C24.5228 50.6729 24.5354 50.6654 24.5491 50.6607C24.5628 50.656 24.5774 50.654 24.5918 50.655C24.6209 50.6568 24.6482 50.67 24.6676 50.6918C24.687 50.7135 24.6971 50.742 24.6957 50.7712L24.268 57.8868C24.2666 57.9149 24.2545 57.9413 24.2342 57.9606C24.2139 57.9799 24.1869 57.9907 24.1589 57.9907V57.9942ZM25.4718 60.3332C25.4455 60.3213 25.4248 60.2995 25.4143 60.2725C25.4038 60.2456 25.4042 60.2156 25.4155 60.1889L28.1206 54.0694C28.1323 54.0428 28.1541 54.0219 28.1811 54.0113C28.2082 54.0008 28.2383 54.0014 28.265 54.0131C28.2916 54.0247 28.3124 54.0465 28.323 54.0736C28.3336 54.1006 28.3329 54.1308 28.3213 54.1574L25.6179 60.2769C25.6094 60.2965 25.5954 60.3133 25.5776 60.3252C25.5598 60.337 25.539 60.3435 25.5176 60.3438C25.4994 60.3447 25.4812 60.3411 25.4648 60.3332H25.4718ZM25.0037 59.4884L18.5286 58.5627C18.513 58.5623 18.4976 58.5587 18.4835 58.552C18.4693 58.5453 18.4568 58.5357 18.4466 58.5238C18.4365 58.5119 18.4289 58.498 18.4245 58.483C18.4201 58.468 18.419 58.4523 18.4211 58.4368C18.4232 58.4213 18.4286 58.4064 18.4369 58.3931C18.4451 58.3799 18.4561 58.3685 18.4691 58.3598C18.4821 58.3511 18.4968 58.3452 18.5122 58.3425C18.5276 58.3399 18.5434 58.3405 18.5586 58.3444L25.0336 59.2702C25.0625 59.2721 25.0895 59.2853 25.1087 59.3071C25.1278 59.3289 25.1375 59.3574 25.1357 59.3864C25.1338 59.4153 25.1205 59.4423 25.0987 59.4615C25.077 59.4806 25.0485 59.4903 25.0195 59.4884H25.0037ZM26.8499 63.6192C26.8269 63.6011 26.812 63.5747 26.8084 63.5457C26.8047 63.5167 26.8127 63.4874 26.8306 63.4643L30.34 58.9552C30.3489 58.9436 30.36 58.9339 30.3726 58.9266C30.3853 58.9194 30.3992 58.9147 30.4137 58.9128C30.4281 58.9109 30.4428 58.9119 30.4569 58.9157C30.471 58.9195 30.4842 58.926 30.4958 58.9349C30.5073 58.9438 30.517 58.9549 30.5243 58.9675C30.5315 58.9802 30.5363 58.9941 30.5381 59.0086C30.54 59.0231 30.539 59.0378 30.5352 59.0518C30.5314 59.0659 30.5249 59.0791 30.516 59.0907L26.9995 63.6068C26.9893 63.62 26.9762 63.6306 26.9613 63.6379C26.9463 63.6453 26.9299 63.6491 26.9133 63.6491C26.887 63.6478 26.862 63.6372 26.8429 63.6192H26.8499ZM21.3658 62.3995C21.3648 62.3704 21.3753 62.342 21.3951 62.3206C21.4149 62.2992 21.4423 62.2864 21.4714 62.2851L26.2955 62.0404C26.3226 62.0423 26.3481 62.0541 26.3671 62.0735C26.3861 62.0929 26.3974 62.1186 26.3987 62.1457C26.4 62.1729 26.3913 62.1996 26.3742 62.2207C26.3571 62.2418 26.3329 62.256 26.3061 62.2604L21.4731 62.5051C21.444 62.506 21.4157 62.4955 21.3943 62.4757C21.3729 62.456 21.3601 62.4286 21.3587 62.3995H21.3658ZM23.6414 65.9793C23.6397 65.9648 23.6409 65.9502 23.645 65.9362C23.6491 65.9222 23.6559 65.9091 23.6651 65.8978C23.6743 65.8865 23.6856 65.8771 23.6985 65.8702C23.7114 65.8634 23.7255 65.8592 23.74 65.8579L27.436 65.4936C27.4503 65.4921 27.4648 65.4935 27.4786 65.4977C27.4924 65.5019 27.5053 65.5087 27.5164 65.5179C27.5275 65.527 27.5367 65.5383 27.5435 65.5511C27.5502 65.5638 27.5544 65.5778 27.5557 65.5921C27.5581 65.621 27.5492 65.6497 27.5308 65.672C27.5124 65.6944 27.4859 65.7087 27.4571 65.7118L23.7611 66.0779H23.7506C23.7222 66.0798 23.6941 66.0706 23.6724 66.0522C23.6507 66.0338 23.6371 66.0076 23.6344 65.9793H23.6414ZM28.279 67.8872C28.2546 67.871 28.2375 67.8458 28.2316 67.8171C28.2257 67.7884 28.2313 67.7586 28.2474 67.734L30.0742 64.9726C30.091 64.9488 30.1162 64.9324 30.1448 64.9268C30.1733 64.9213 30.2029 64.9269 30.2274 64.9427C30.2518 64.9588 30.2688 64.984 30.2748 65.0127C30.2807 65.0414 30.2751 65.0713 30.259 65.0958L28.4322 67.8572C28.4217 67.8723 28.4078 67.8847 28.3915 67.8933C28.3753 67.9018 28.3572 67.9064 28.3389 67.9065C28.315 67.9078 28.2915 67.901 28.272 67.8872H28.279ZM24.0867 68.8112C24.0872 68.7822 24.0987 68.7545 24.1191 68.7338C24.1394 68.7132 24.1669 68.7012 24.1958 68.7003L28.5413 68.6598C28.5702 68.6598 28.598 68.6713 28.6184 68.6918C28.6389 68.7122 28.6504 68.74 28.6504 68.7689C28.6509 68.7835 28.6484 68.7979 28.6431 68.8115C28.6378 68.825 28.6298 68.8374 28.6196 68.8478C28.6094 68.8581 28.5972 68.8663 28.5837 68.8718C28.5703 68.8773 28.5558 68.88 28.5413 68.8798L24.1958 68.9203C24.181 68.921 24.1661 68.9187 24.1522 68.9136C24.1382 68.9084 24.1255 68.9005 24.1146 68.8903C24.1038 68.8802 24.0951 68.8679 24.0891 68.8543C24.0831 68.8407 24.0799 68.826 24.0797 68.8112H24.0867ZM29.9176 75.3091C29.9088 75.2897 29.1678 73.2481 26.9397 72.7606C26.911 72.7543 26.886 72.7368 26.8701 72.7121C26.8543 72.6873 26.8489 72.6573 26.8552 72.6286C26.8623 72.6005 26.88 72.5761 26.9046 72.5607C26.9292 72.5453 26.9588 72.54 26.9872 72.5459C29.3368 73.0598 30.1165 75.2158 30.1253 75.2369C30.1343 75.2647 30.1322 75.2949 30.1194 75.3212C30.1066 75.3475 30.0841 75.3677 30.0566 75.3777H30.0214C29.998 75.3797 29.9746 75.3741 29.9546 75.3618C29.9346 75.3494 29.9192 75.3309 29.9106 75.3091H29.9176Z" fill="#8ECAE6"/>
<path opacity="0.2" d="M24.1571 57.8851L24.5848 50.7694L24.1571 57.8851ZM25.5106 60.2329L28.2139 54.1134L25.5106 60.2329ZM18.5339 58.4536L25.0125 59.3828L18.5339 58.4536ZM26.9115 63.5312L30.4192 59.0308L26.9115 63.5312ZM26.2955 62.1513L21.4626 62.3942L26.2955 62.1513ZM27.4395 65.6027L23.7435 65.9688L27.4395 65.6027ZM28.3318 67.7956L30.1675 65.0342L28.3318 67.7956ZM28.543 68.7707L24.1976 68.8112L28.543 68.7707ZM29.423 76.923C29.3939 76.9207 29.3669 76.9071 29.3478 76.885C29.3286 76.8629 29.319 76.8342 29.321 76.8051C29.5973 72.655 27.9922 65.8579 25.4173 60.2787C23.7717 56.7129 17.3213 49.7046 17.2526 49.6342C17.2319 49.6134 17.2202 49.5852 17.2202 49.5559C17.2202 49.5265 17.2319 49.4983 17.2526 49.4776C17.2628 49.4673 17.2748 49.4592 17.2881 49.4537C17.3014 49.4482 17.3157 49.4453 17.3301 49.4453C17.3445 49.4453 17.3587 49.4482 17.372 49.4537C17.3853 49.4592 17.3974 49.4673 17.4075 49.4776C17.4726 49.548 23.9494 56.5827 25.6091 60.1801C28.2315 65.8948 29.8155 72.5688 29.5339 76.8192C29.5317 76.8472 29.5191 76.8734 29.4986 76.8926C29.4781 76.9118 29.4511 76.9226 29.423 76.923ZM24.1589 57.9942C24.1298 57.9924 24.1025 57.9792 24.0831 57.9574C24.0637 57.9357 24.0536 57.9072 24.055 57.878L24.4757 50.7588C24.4763 50.7443 24.4799 50.7301 24.4861 50.717C24.4924 50.7039 24.5011 50.6922 24.512 50.6825C24.5228 50.6729 24.5354 50.6654 24.5491 50.6607C24.5628 50.656 24.5774 50.654 24.5918 50.655C24.6209 50.6568 24.6482 50.67 24.6676 50.6918C24.687 50.7135 24.6971 50.742 24.6957 50.7712L24.268 57.8868C24.2666 57.9149 24.2545 57.9413 24.2342 57.9606C24.2139 57.9799 24.1869 57.9907 24.1589 57.9907V57.9942ZM25.4718 60.3332C25.4455 60.3213 25.4248 60.2995 25.4143 60.2725C25.4038 60.2456 25.4042 60.2156 25.4155 60.1889L28.1206 54.0694C28.1323 54.0428 28.1541 54.0219 28.1811 54.0113C28.2082 54.0008 28.2383 54.0014 28.265 54.0131C28.2916 54.0247 28.3124 54.0465 28.323 54.0736C28.3336 54.1006 28.3329 54.1308 28.3213 54.1574L25.6179 60.2769C25.6094 60.2965 25.5954 60.3133 25.5776 60.3252C25.5598 60.337 25.539 60.3435 25.5176 60.3438C25.4994 60.3447 25.4812 60.3411 25.4648 60.3332H25.4718ZM25.0037 59.4884L18.5286 58.5627C18.513 58.5623 18.4976 58.5587 18.4835 58.552C18.4693 58.5453 18.4568 58.5357 18.4466 58.5238C18.4365 58.5119 18.4289 58.498 18.4245 58.483C18.4201 58.468 18.419 58.4523 18.4211 58.4368C18.4232 58.4213 18.4286 58.4064 18.4369 58.3931C18.4451 58.3799 18.4561 58.3685 18.4691 58.3598C18.4821 58.3511 18.4968 58.3452 18.5122 58.3425C18.5276 58.3399 18.5434 58.3405 18.5586 58.3444L25.0336 59.2702C25.0625 59.2721 25.0895 59.2853 25.1087 59.3071C25.1278 59.3289 25.1375 59.3574 25.1357 59.3864C25.1338 59.4153 25.1205 59.4423 25.0987 59.4615C25.077 59.4806 25.0485 59.4903 25.0195 59.4884H25.0037ZM26.8499 63.6192C26.8269 63.6011 26.812 63.5747 26.8084 63.5457C26.8047 63.5167 26.8127 63.4874 26.8306 63.4643L30.34 58.9552C30.358 58.9318 30.3845 58.9166 30.4137 58.9128C30.4429 58.909 30.4724 58.9169 30.4958 58.9349C30.5191 58.9529 30.5343 58.9794 30.5381 59.0086C30.5419 59.0378 30.534 59.0673 30.516 59.0907L26.9995 63.6068C26.9893 63.62 26.9762 63.6306 26.9613 63.6379C26.9463 63.6453 26.9299 63.6491 26.9133 63.6491C26.887 63.6478 26.862 63.6372 26.8429 63.6192H26.8499ZM21.3658 62.3995C21.3648 62.3704 21.3753 62.342 21.3951 62.3206C21.4149 62.2992 21.4423 62.2864 21.4714 62.2851L26.2955 62.0404C26.3226 62.0423 26.3481 62.0541 26.3671 62.0735C26.3861 62.0929 26.3974 62.1186 26.3987 62.1457C26.4 62.1729 26.3913 62.1996 26.3742 62.2207C26.3571 62.2418 26.3329 62.256 26.3061 62.2604L21.4731 62.5051C21.444 62.506 21.4157 62.4955 21.3943 62.4757C21.3729 62.456 21.3601 62.4286 21.3587 62.3995H21.3658ZM23.6414 65.9793C23.6397 65.9648 23.6409 65.9502 23.645 65.9362C23.6491 65.9222 23.6559 65.9091 23.6651 65.8978C23.6743 65.8865 23.6856 65.8771 23.6985 65.8702C23.7114 65.8634 23.7255 65.8592 23.74 65.8579L27.436 65.4936C27.4503 65.4921 27.4648 65.4935 27.4786 65.4977C27.4924 65.5019 27.5053 65.5087 27.5164 65.5179C27.5275 65.527 27.5367 65.5383 27.5435 65.5511C27.5502 65.5638 27.5544 65.5778 27.5557 65.5921C27.5581 65.621 27.5492 65.6497 27.5308 65.672C27.5124 65.6944 27.4859 65.7087 27.4571 65.7118L23.7611 66.0779H23.7506C23.7222 66.0798 23.6941 66.0706 23.6724 66.0522C23.6507 66.0338 23.6371 66.0076 23.6344 65.9793H23.6414ZM28.279 67.8872C28.2546 67.871 28.2375 67.8458 28.2316 67.8171C28.2257 67.7884 28.2313 67.7586 28.2474 67.734L30.0742 64.9726C30.091 64.9488 30.1162 64.9324 30.1448 64.9268C30.1733 64.9213 30.2029 64.9269 30.2274 64.9427C30.2518 64.9588 30.2688 64.984 30.2748 65.0127C30.2807 65.0414 30.2751 65.0713 30.259 65.0958L28.4322 67.8572C28.4217 67.8723 28.4078 67.8847 28.3915 67.8933C28.3753 67.9018 28.3572 67.9064 28.3389 67.9065C28.315 67.9078 28.2915 67.901 28.272 67.8872H28.279ZM24.0867 68.8112C24.0872 68.7822 24.0987 68.7545 24.1191 68.7338C24.1394 68.7132 24.1669 68.7012 24.1958 68.7003L28.5413 68.6598C28.5702 68.6598 28.598 68.6713 28.6184 68.6918C28.6389 68.7122 28.6504 68.74 28.6504 68.7689C28.6509 68.7835 28.6484 68.7979 28.6431 68.8115C28.6378 68.825 28.6298 68.8374 28.6196 68.8478C28.6094 68.8581 28.5972 68.8663 28.5837 68.8718C28.5703 68.8773 28.5558 68.88 28.5413 68.8798L24.1958 68.9203C24.181 68.921 24.1661 68.9187 24.1522 68.9136C24.1382 68.9084 24.1255 68.9005 24.1146 68.8903C24.1038 68.8802 24.0951 68.8679 24.0891 68.8543C24.0831 68.8407 24.0799 68.826 24.0797 68.8112H24.0867ZM29.9176 75.3091C29.9088 75.2897 29.1678 73.2481 26.9397 72.7606C26.911 72.7543 26.886 72.7368 26.8701 72.7121C26.8543 72.6873 26.8489 72.6573 26.8552 72.6286C26.8623 72.6005 26.88 72.5761 26.9046 72.5607C26.9292 72.5453 26.9588 72.54 26.9872 72.5459C29.3368 73.0598 30.1165 75.2158 30.1253 75.2369C30.1343 75.2647 30.1322 75.2949 30.1194 75.3212C30.1066 75.3475 30.0841 75.3677 30.0566 75.3777H30.0214C29.998 75.3797 29.9746 75.3741 29.9546 75.3618C29.9346 75.3494 29.9192 75.3309 29.9106 75.3091H29.9176ZM29.423 76.923C29.3939 76.9207 29.3669 76.9071 29.3478 76.885C29.3286 76.8629 29.319 76.8342 29.321 76.8051C29.5973 72.655 27.9922 65.8579 25.4173 60.2787C23.7717 56.7129 17.3213 49.7046 17.2526 49.6342C17.2319 49.6134 17.2202 49.5852 17.2202 49.5559C17.2202 49.5265 17.2319 49.4983 17.2526 49.4776C17.2628 49.4673 17.2748 49.4592 17.2881 49.4537C17.3014 49.4482 17.3157 49.4453 17.3301 49.4453C17.3445 49.4453 17.3587 49.4482 17.372 49.4537C17.3853 49.4592 17.3974 49.4673 17.4075 49.4776C17.4726 49.548 23.9494 56.5827 25.6091 60.1801C28.2315 65.8948 29.8155 72.5688 29.5339 76.8192C29.5317 76.8472 29.5191 76.8734 29.4986 76.8926C29.4781 76.9118 29.4511 76.9226 29.423 76.923ZM24.1589 57.9942C24.1298 57.9924 24.1025 57.9792 24.0831 57.9574C24.0637 57.9357 24.0536 57.9072 24.055 57.878L24.4757 50.7588C24.4763 50.7443 24.4799 50.7301 24.4861 50.717C24.4924 50.7039 24.5011 50.6922 24.512 50.6825C24.5228 50.6729 24.5354 50.6654 24.5491 50.6607C24.5628 50.656 24.5774 50.654 24.5918 50.655C24.6209 50.6568 24.6482 50.67 24.6676 50.6918C24.687 50.7135 24.6971 50.742 24.6957 50.7712L24.268 57.8868C24.2666 57.9149 24.2545 57.9413 24.2342 57.9606C24.2139 57.9799 24.1869 57.9907 24.1589 57.9907V57.9942ZM25.4718 60.3332C25.4455 60.3213 25.4248 60.2995 25.4143 60.2725C25.4038 60.2456 25.4042 60.2156 25.4155 60.1889L28.1206 54.0694C28.1323 54.0428 28.1541 54.0219 28.1811 54.0113C28.2082 54.0008 28.2383 54.0014 28.265 54.0131C28.2916 54.0247 28.3124 54.0465 28.323 54.0736C28.3336 54.1006 28.3329 54.1308 28.3213 54.1574L25.6179 60.2769C25.6094 60.2965 25.5954 60.3133 25.5776 60.3252C25.5598 60.337 25.539 60.3435 25.5176 60.3438C25.4994 60.3447 25.4812 60.3411 25.4648 60.3332H25.4718ZM25.0037 59.4884L18.5286 58.5627C18.513 58.5623 18.4976 58.5587 18.4835 58.552C18.4693 58.5453 18.4568 58.5357 18.4466 58.5238C18.4365 58.5119 18.4289 58.498 18.4245 58.483C18.4201 58.468 18.419 58.4523 18.4211 58.4368C18.4232 58.4213 18.4286 58.4064 18.4369 58.3931C18.4451 58.3799 18.4561 58.3685 18.4691 58.3598C18.4821 58.3511 18.4968 58.3452 18.5122 58.3425C18.5276 58.3399 18.5434 58.3405 18.5586 58.3444L25.0336 59.2702C25.0625 59.2721 25.0895 59.2853 25.1087 59.3071C25.1278 59.3289 25.1375 59.3574 25.1357 59.3864C25.1338 59.4153 25.1205 59.4423 25.0987 59.4615C25.077 59.4806 25.0485 59.4903 25.0195 59.4884H25.0037ZM26.8499 63.6192C26.8269 63.6011 26.812 63.5747 26.8084 63.5457C26.8047 63.5167 26.8127 63.4874 26.8306 63.4643L30.34 58.9552C30.3489 58.9436 30.36 58.9339 30.3726 58.9266C30.3853 58.9194 30.3992 58.9147 30.4137 58.9128C30.4281 58.9109 30.4428 58.9119 30.4569 58.9157C30.471 58.9195 30.4842 58.926 30.4958 58.9349C30.5073 58.9438 30.517 58.9549 30.5243 58.9675C30.5315 58.9802 30.5363 58.9941 30.5381 59.0086C30.54 59.0231 30.539 59.0378 30.5352 59.0518C30.5314 59.0659 30.5249 59.0791 30.516 59.0907L26.9995 63.6068C26.9893 63.62 26.9762 63.6306 26.9613 63.6379C26.9463 63.6453 26.9299 63.6491 26.9133 63.6491C26.887 63.6478 26.862 63.6372 26.8429 63.6192H26.8499ZM21.3658 62.3995C21.3648 62.3704 21.3753 62.342 21.3951 62.3206C21.4149 62.2992 21.4423 62.2864 21.4714 62.2851L26.2955 62.0404C26.3226 62.0423 26.3481 62.0541 26.3671 62.0735C26.3861 62.0929 26.3974 62.1186 26.3987 62.1457C26.4 62.1729 26.3913 62.1996 26.3742 62.2207C26.3571 62.2418 26.3329 62.256 26.3061 62.2604L21.4731 62.5051C21.444 62.506 21.4157 62.4955 21.3943 62.4757C21.3729 62.456 21.3601 62.4286 21.3587 62.3995H21.3658ZM23.6414 65.9793C23.6397 65.9648 23.6409 65.9502 23.645 65.9362C23.6491 65.9222 23.6559 65.9091 23.6651 65.8978C23.6743 65.8865 23.6856 65.8771 23.6985 65.8702C23.7114 65.8634 23.7255 65.8592 23.74 65.8579L27.436 65.4936C27.4503 65.4921 27.4648 65.4935 27.4786 65.4977C27.4924 65.5019 27.5053 65.5087 27.5164 65.5179C27.5275 65.527 27.5367 65.5383 27.5435 65.5511C27.5502 65.5638 27.5544 65.5778 27.5557 65.5921C27.5581 65.621 27.5492 65.6497 27.5308 65.672C27.5124 65.6944 27.4859 65.7087 27.4571 65.7118L23.7611 66.0779H23.7506C23.7222 66.0798 23.6941 66.0706 23.6724 66.0522C23.6507 66.0338 23.6371 66.0076 23.6344 65.9793H23.6414ZM28.279 67.8872C28.2546 67.871 28.2375 67.8458 28.2316 67.8171C28.2257 67.7884 28.2313 67.7586 28.2474 67.734L30.0742 64.9726C30.091 64.9488 30.1162 64.9324 30.1448 64.9268C30.1733 64.9213 30.2029 64.9269 30.2274 64.9427C30.2518 64.9588 30.2688 64.984 30.2748 65.0127C30.2807 65.0414 30.2751 65.0713 30.259 65.0958L28.4322 67.8572C28.4217 67.8723 28.4078 67.8847 28.3915 67.8933C28.3753 67.9018 28.3572 67.9064 28.3389 67.9065C28.315 67.9078 28.2915 67.901 28.272 67.8872H28.279ZM24.0867 68.8112C24.0872 68.7822 24.0987 68.7545 24.1191 68.7338C24.1394 68.7132 24.1669 68.7012 24.1958 68.7003L28.5413 68.6598C28.5702 68.6598 28.598 68.6713 28.6184 68.6918C28.6389 68.7122 28.6504 68.74 28.6504 68.7689C28.6509 68.7835 28.6484 68.7979 28.6431 68.8115C28.6378 68.825 28.6298 68.8374 28.6196 68.8478C28.6094 68.8581 28.5972 68.8663 28.5837 68.8718C28.5703 68.8773 28.5558 68.88 28.5413 68.8798L24.1958 68.9203C24.181 68.921 24.1661 68.9187 24.1522 68.9136C24.1382 68.9084 24.1255 68.9005 24.1146 68.8903C24.1038 68.8802 24.0951 68.8679 24.0891 68.8543C24.0831 68.8407 24.0799 68.826 24.0797 68.8112H24.0867ZM29.9176 75.3091C29.9088 75.2897 29.1678 73.2481 26.9397 72.7606C26.911 72.7543 26.886 72.7368 26.8701 72.7121C26.8543 72.6873 26.8489 72.6573 26.8552 72.6286C26.8623 72.6005 26.88 72.5761 26.9046 72.5607C26.9292 72.5453 26.9588 72.54 26.9872 72.5459C29.3368 73.0598 30.1165 75.2158 30.1253 75.2369C30.1343 75.2647 30.1322 75.2949 30.1194 75.3212C30.1066 75.3475 30.0841 75.3677 30.0566 75.3777H30.0214C29.998 75.3797 29.9746 75.3741 29.9546 75.3618C29.9346 75.3494 29.9192 75.3309 29.9106 75.3091H29.9176Z" fill="black"/>
<path d="M26.5526 73.8203H31.5352V74.8517H31.1004L30.2011 80.4784H27.8867L26.9873 74.8517H26.5526V73.8203Z" fill="#8ECAE6"/>
<path opacity="0.3" d="M26.5526 73.8203H31.5352V74.8517H31.1004L30.2011 80.4784H27.8867L26.9873 74.8517H26.5526V73.8203Z" fill="white"/>
<path d="M71.4097 42.6335L77.2054 40.7415L77.7211 39.3793L78.8985 39.3423L81.0352 38.9375L80.7782 39.3793L78.0889 41.3311L77.4254 41.662L71.364 44.8282L71.4097 42.6335Z" fill="white" stroke="#1C282E" stroke-width="0.226588" stroke-miterlimit="10"/>
<path d="M77.7227 39.3778L78.2754 39.0469L79.3789 39.4517L79.1959 39.6717L77.7227 39.3778Z" fill="white" stroke="#1C282E" stroke-width="0.226588" stroke-linejoin="round"/>
<path d="M71.4097 42.6335L77.2054 40.7415L77.7211 39.3793L78.8985 39.3423L81.0352 38.9375L80.7782 39.3793L78.0889 41.3311L77.4254 41.662L71.364 44.8282L71.4097 42.6335Z" fill="white"/>
<path opacity="0.5" d="M71.4097 42.6335L77.2054 40.7415L77.7211 39.3793L78.8985 39.3423L81.0352 38.9375L80.7782 39.3793L78.0889 41.3311L77.4254 41.662L71.364 44.8282L71.4097 42.6335Z" fill="#8ECAE6" stroke="#1C282E" stroke-width="0.226588" stroke-miterlimit="10"/>
<path d="M71.4097 42.6335L77.2054 40.7415L77.7211 39.3793L78.8985 39.3423L81.0352 38.9375L80.7782 39.3793L78.0889 41.3311L77.4254 41.662L71.364 44.8282L71.4097 42.6335Z" stroke="#1C282E" stroke-width="0.226588" stroke-miterlimit="10"/>
<path d="M77.7227 39.3778L78.2754 39.0469L79.3789 39.4517L79.1959 39.6717L77.7227 39.3778Z" fill="white"/>
<path opacity="0.5" d="M77.7227 39.3778L78.2754 39.0469L79.3789 39.4517L79.1959 39.6717L77.7227 39.3778Z" fill="#8ECAE6" stroke="#1C282E" stroke-width="0.226588" stroke-linejoin="round"/>
<path d="M77.7227 39.3778L78.2754 39.0469L79.3789 39.4517L79.1959 39.6717L77.7227 39.3778Z" stroke="#1C282E" stroke-width="0.226588" stroke-linejoin="round"/>
<path d="M70.1805 30.3524C70.1805 30.3524 70.2703 31.1444 70.0468 31.6531C69.8233 32.1617 68.5825 33.8848 68.5825 33.8848L70.8986 35.7416C70.8986 35.7416 71.8596 33.8056 72.0426 33.4923C72.2257 33.179 72.4457 31.8308 71.849 30.8646C71.2524 29.8984 70.3935 29.6379 70.1805 30.3524Z" fill="white"/>
<g style="mix-blend-mode:multiply" opacity="0.5">
<path d="M71.3698 32.8984L70.3649 34.9823L70.8999 35.7444L71.9102 33.9404L71.3698 32.8984Z" fill="#8ECAE6"/>
</g>
<path d="M70.1805 30.3524C70.1805 30.3524 70.2703 31.1444 70.0468 31.6531C69.8233 32.1617 68.5825 33.8848 68.5825 33.8848L70.8986 35.7416C70.8986 35.7416 71.8596 33.8056 72.0426 33.4923C72.2257 33.179 72.4457 31.8308 71.849 30.8646C71.2524 29.8984 70.3935 29.6379 70.1805 30.3524Z" stroke="#1C282E" stroke-width="0.226588" stroke-miterlimit="10"/>
<path d="M69.4614 28.904C69.604 28.024 70.6124 26.2341 72.2123 26.3027C73.2507 26.3485 73.7364 26.5579 74.187 26.8131C74.5543 27.0295 74.8966 27.2856 75.2078 27.5769C75.9892 28.515 76.2638 28.772 76.1124 29.4901C76.1249 29.7765 76.08 30.0625 75.9804 30.3313C75.7411 30.9702 75.5774 31.3873 75.3697 31.6918C75.4331 31.9893 75.5985 32.7742 75.6073 32.9537C75.6161 33.1333 75.0793 33.0083 74.8083 32.9397C74.3049 34.0661 73.3827 34.8475 73.0958 34.9373C72.596 35.0939 71.8057 34.272 71.3868 33.6349C70.968 32.9977 71.2848 32.2814 71.283 31.9963C71.2812 31.7112 70.3414 31.0846 69.9929 30.8857C69.6444 30.6869 69.3206 29.7822 69.4614 28.904Z" fill="white"/>
<g style="mix-blend-mode:multiply" opacity="0.5">
<path d="M76.1074 29.491C76.1198 29.7774 76.0749 30.0634 75.9754 30.3323C75.736 30.9712 75.5723 31.3883 75.3646 31.6928C75.428 31.9902 75.5934 32.7752 75.6022 32.9547C75.611 33.1342 75.0742 33.0093 74.8032 32.9406C74.2998 34.067 73.3776 34.8485 73.0907 34.9382C72.5909 35.0949 71.8006 34.2729 71.3818 33.6358C71.2771 33.4768 71.2092 33.2964 71.1829 33.1078C71.2058 33.0251 71.2216 32.9741 71.2216 32.9741C71.2216 32.9741 71.4574 33.8805 71.9256 33.7625C72.3938 33.6446 73.1101 32.7065 73.5096 32.3827C73.9091 32.0589 73.7454 31.6329 73.8246 31.1507C73.9038 30.6685 75.0866 30.2443 75.1658 29.968C75.245 29.6917 74.9686 28.5477 74.9686 28.5477C74.9686 28.5477 74.5198 27.9493 74.6166 28.1957C74.6851 28.4093 74.7099 28.6345 74.6896 28.8579C74.6694 29.0814 74.6045 29.2984 74.4987 29.4963C74.4245 29.6524 74.3068 29.7838 74.1598 29.8747C74.0127 29.9655 73.8426 30.012 73.6698 30.0085L73.2403 27.8806L74.1467 27.1309L75.2027 27.5709C75.9912 28.516 76.2605 28.7729 76.1074 29.491Z" fill="#8ECAE6"/>
</g>
<path d="M69.4614 28.904C69.604 28.024 70.6124 26.2341 72.2123 26.3027C73.2507 26.3485 73.7364 26.5579 74.187 26.8131C74.5543 27.0295 74.8966 27.2856 75.2078 27.5769C75.9892 28.515 76.2638 28.772 76.1124 29.4901C76.1249 29.7765 76.08 30.0625 75.9804 30.3313C75.7411 30.9702 75.5774 31.3873 75.3697 31.6918C75.4331 31.9893 75.5985 32.7742 75.6073 32.9537C75.6161 33.1333 75.0793 33.0083 74.8083 32.9397C74.3049 34.0661 73.3827 34.8475 73.0958 34.9373C72.596 35.0939 71.8057 34.272 71.3868 33.6349C70.968 32.9977 71.2848 32.2814 71.283 31.9963C71.2812 31.7112 70.3414 31.0846 69.9929 30.8857C69.6444 30.6869 69.3206 29.7822 69.4614 28.904Z" stroke="#1C282E" stroke-width="0.225694" stroke-miterlimit="10"/>
<path d="M75.1523 31.1602L74.9763 31.6635C74.9763 31.6635 74.5979 31.7885 74.1368 31.2851" stroke="#1C282E" stroke-width="0.225694" stroke-miterlimit="10" stroke-linecap="round"/>
<path d="M73.8516 33.5077C73.8516 33.5077 73.4348 33.4657 73.2668 32.8809" stroke="#1C282E" stroke-width="0.225694" stroke-miterlimit="10" stroke-linecap="round"/>
<path d="M75.4453 30.7397C75.4453 30.7397 75.3204 30.3613 74.5653 30.3613" stroke="#1C282E" stroke-width="0.225694" stroke-miterlimit="10" stroke-linecap="round"/>
<path d="M71.5749 25.6017C72.1235 25.5228 72.6768 25.4804 73.2311 25.4749C73.2311 25.4749 74.889 24.5193 76.4818 25.5383C78.0746 26.5573 77.309 28.342 77.309 28.7873C77.309 29.2325 77.8194 29.2343 77.5008 29.8081C77.1823 30.3818 76.1051 30.065 76.1051 30.065C76.0938 29.8486 76.0366 29.6371 75.9374 29.4444C75.8382 29.2518 75.6992 29.0824 75.5296 28.9474C74.9559 28.5021 74.4983 28.4053 74.3082 28.5338C74.3082 28.5338 74.4349 29.4895 74.2448 29.8714C74.2448 29.8714 73.6077 30.19 73.4159 30.19C73.224 30.19 73.5408 30.4593 72.9055 30.6986C72.7897 30.7402 72.6659 30.7544 72.5437 30.74C72.4216 30.7256 72.3044 30.6832 72.2015 30.6159C72.1082 30.2287 71.904 29.6461 71.5239 29.7817C70.9659 29.9805 70.4573 31.3533 71.2123 31.8215C70.3042 31.9869 69.2042 30.3801 69.1391 28.9157C69.0739 27.4514 70.6315 25.7671 71.5749 25.6017Z" fill="#1C282E"/>
<path d="M74.2812 27.9064C74.2812 27.9064 73.8131 27.6547 73.2393 28.1933C72.6656 28.7318 71.5497 29.4517 70.0713 29.0557" stroke="white" stroke-width="0.112847" stroke-linecap="round" stroke-linejoin="round"/>
<path d="M74.3438 27.4741C74.3438 27.4741 74.0217 26.9707 73.4831 26.9707C72.9446 26.9707 71.6862 27.7257 70.6812 27.7257" stroke="white" stroke-width="0.112847" stroke-linecap="round" stroke-linejoin="round"/>
<path d="M74.7108 28.4439C74.7108 28.4439 75.3215 27.6906 75.8953 28.3013C76.469 28.9121 76.1047 29.4893 76.1047 29.4893" stroke="white" stroke-width="0.112847" stroke-linecap="round" stroke-linejoin="round"/>
<path d="M77.1523 28.9474C76.8024 28.6318 76.5848 28.1954 76.5434 27.726C76.4712 26.9357 75.3923 26.2529 74.7112 26.9005" stroke="white" stroke-width="0.112847" stroke-linecap="round" stroke-linejoin="round"/>
<path d="M76.0391 26.074C76.0391 26.074 74.9602 25.0321 74.0626 26.3609" stroke="white" stroke-width="0.112847" stroke-linecap="round" stroke-linejoin="round"/>
<path d="M67.2587 77.3008C67.2587 77.3008 66.5952 78.3321 66.6691 78.9957L66.7412 79.6592C66.7412 79.6592 69.1753 80.3262 69.691 80.3262C70.2067 80.3262 72.9364 80.0675 72.9364 80.0675L73.0544 79.5993C73.0626 79.5648 73.0587 79.5284 73.0433 79.4964C73.028 79.4643 73.002 79.4385 72.9699 79.4233L70.5358 78.2881L69.7684 77.4486L67.2587 77.3008Z" fill="white" stroke="#1C282E" stroke-width="0.226588" stroke-miterlimit="10"/>
<path d="M69.3239 79.8082C68.6639 79.8592 67.4108 79.4562 66.6839 79.1992L66.735 79.6603C66.735 79.6603 69.1778 80.3274 69.6935 80.3274C70.2092 80.3274 72.939 80.0687 72.939 80.0687L73.0234 79.7343C72.587 79.736 70.1969 79.7413 69.3239 79.8082Z" fill="#8ECAE6" stroke="#1C282E" stroke-width="0.226588" stroke-miterlimit="10"/>
<path d="M70.5335 78.2892L74.0764 79.831C74.0764 79.831 74.3791 80.5895 74.0764 80.7409C73.7737 80.8923 67.1737 80.7409 67.1737 80.7409C67.1737 80.7409 66.7178 79.5423 67.4377 78.738C68.1575 77.9337 70.5335 78.2892 70.5335 78.2892Z" fill="white" stroke="#1C282E" stroke-width="0.226588" stroke-miterlimit="10"/>
<path d="M67.1734 80.7412C67.1734 80.7412 73.7734 80.8926 74.0761 80.7412C74.2222 80.6673 74.2275 80.4544 74.194 80.252H67.0572C67.0806 80.4183 67.1195 80.5821 67.1734 80.7412Z" fill="#8ECAE6" stroke="#1C282E" stroke-width="0.226588" stroke-miterlimit="10"/>
<path d="M72.2073 51.5006C72.2073 51.5006 73.133 55.6032 73.4833 58.1692C73.8335 60.7353 74.0394 65.8763 73.9655 66.4659C73.8916 67.0555 70.2061 76.9343 70.2061 76.9343L69.8383 77.8143L67.2581 77.2987C67.2581 77.2987 68.4373 73.5393 68.8791 71.4748C69.3209 69.4104 70.2871 66.0188 70.2871 65.4292C70.2871 64.8396 67.9991 53.5792 67.8354 52.84C67.6717 52.1008 66.929 50.9656 66.929 50.9656L71.8693 50.8652L72.2073 51.5006Z" fill="#8ECAE6" stroke="#1C282E" stroke-width="0.226588" stroke-miterlimit="10"/>
<path d="M72.2094 51.501C72.2094 51.501 72.7515 55.248 72.528 57.8528C72.3045 60.4576 71.824 66.0034 71.824 66.8288C71.824 67.6542 70.4917 72.584 70.416 74.1328C70.2981 76.3697 70.4635 77.4768 70.4635 77.4768L70.5427 78.2882C70.5427 78.2882 68.9886 78.5099 68.6489 78.6067C68.2566 78.7078 67.8517 78.7517 67.4469 78.7369C67.4469 78.7369 66.8819 76.2501 66.8819 74.131C66.8819 72.012 67.3518 67.6507 67.5859 65.8837C67.82 64.1166 67.0825 57.3002 66.6637 56.0277C66.2448 54.7552 65.3296 52.0606 65.9456 50.6843C66.5616 49.308 72.2094 51.501 72.2094 51.501Z" fill="#8ECAE6" stroke="#1C282E" stroke-width="0.226588" stroke-miterlimit="10"/>
<path d="M65.2612 49.9941L65.3176 51.6697C65.3176 51.6697 66.3208 51.8685 67.6724 52.1026C68.7883 52.2962 71.5902 52.0516 72.5336 51.9601C72.6195 51.9524 72.699 51.9112 72.7547 51.8453C72.8104 51.7793 72.8378 51.6941 72.831 51.6081L72.7395 50.0945L65.2612 49.9941Z" fill="#1C282E"/>
<path d="M69.1797 33.293C69.1797 33.293 70.7637 35.0054 71.3604 36.0702C71.957 37.135 72.1928 38.7666 72.4164 40.0514C72.6399 41.3362 72.0344 44.3528 72.2052 45.7379L72.7455 50.101C72.7455 50.101 72.8616 50.3966 72.4727 50.7205C72.0837 51.0443 70.1847 51.1622 68.4687 51.2485C67.8421 51.2802 65.9712 50.8771 65.665 50.8578C65.2954 50.8349 65.2831 50.365 65.2672 49.9954C65.1933 48.2582 64.88 43.6277 64.6741 41.6107C64.25 37.4976 66.5714 33.527 69.1797 33.293Z" fill="white" stroke="#1C282E" stroke-width="0.226588" stroke-miterlimit="10"/>
<g style="mix-blend-mode:multiply">
<path d="M64.8693 43.9478C64.7989 43.0343 64.7285 42.2054 64.6669 41.6087C64.6493 41.4327 64.6387 41.2567 64.6299 41.0807L68.8381 41.7847L72.4531 40.5527C72.4527 41.3008 72.4104 42.0482 72.3264 42.7915L68.78 43.7841L64.8693 43.9478Z" fill="#8ECAE6"/>
</g>
<g style="mix-blend-mode:multiply">
<path d="M69.337 33.4629C69.5764 33.7287 70.0516 34.269 70.5039 34.8427L67.8322 37.5584L66.9522 37.2064L69.337 33.4629Z" fill="#8ECAE6"/>
</g>
<path d="M69.1807 33.293C69.1807 33.293 70.7647 35.0054 71.3614 36.0702C71.5383 36.3939 71.6816 36.7347 71.7891 37.0875L68.6035 33.4074C68.7917 33.3504 68.985 33.312 69.1807 33.293Z" fill="#1C282E"/>
<g style="mix-blend-mode:multiply">
<path d="M72.2969 39.3571L68.8402 40.4941L64.6426 40.0118C64.7084 38.9661 64.9407 37.9377 65.3308 36.9653L68.7153 38.3222L71.7407 36.9512C71.9881 37.7375 72.174 38.5419 72.2969 39.3571Z" fill="#8ECAE6"/>
</g>
<g style="mix-blend-mode:multiply">
<path d="M66.3441 48.2573C68.0973 48.5517 69.8962 48.4047 71.5783 47.8297L72.4214 47.541L72.6836 49.653L71.7226 49.9223C69.8958 50.4331 67.9865 50.5802 66.103 50.3553L65.3268 50.262C65.2864 50.1765 65.2637 50.0837 65.2599 49.9892C65.2388 49.5193 65.2018 48.8364 65.1543 48.0532L66.3441 48.2573Z" fill="#8ECAE6"/>
</g>
<g style="mix-blend-mode:multiply">
<path d="M65.8756 45.3813C67.6288 45.6768 69.4282 45.5292 71.1098 44.9518L72.1834 44.584C72.1568 44.9674 72.1621 45.3524 72.1993 45.735L72.3242 46.7505L71.2541 47.0497C69.428 47.561 67.5193 47.7087 65.6362 47.4845L65.1082 47.4211C65.0642 46.7171 65.0132 45.9673 64.9586 45.2264L65.8756 45.3813Z" fill="#8ECAE6"/>
</g>
<path d="M82.3874 37.9377L78.9844 40.6738L78.8377 40.4914L82.2407 37.7553L82.3874 37.9377Z" fill="#1C282E"/>
<path d="M67.5417 35.1895C67.5417 35.1895 66.2938 36.0395 66.2657 38.0477C66.2533 38.9277 66.3449 39.7496 66.5473 41.1911C66.7497 42.6325 68.0063 47.3264 68.9849 47.8967C69.9634 48.4669 71.4823 47.3898 71.4823 47.3898L78.8285 42.5128L80.6044 41.0784L81.4844 39.417L81.2081 38.889L79.0415 40.5504L80.2084 39.4715L79.9796 39.1811L79.5572 39.4751L78.3252 39.9362L78.0559 41.6962L77.6757 41.9567L70.6481 44.5245C70.6481 44.5245 70.7361 40.7423 70.6709 40.0189C70.6058 39.2955 70.5161 37.4775 69.7417 36.1592" fill="white"/>
<g style="mix-blend-mode:multiply" opacity="0.5">
<path d="M70.6997 41.6679C70.6997 42.9738 70.6557 44.5261 70.6557 44.5261L77.6763 41.9689L78.0565 41.7084L78.3258 39.9484L79.5578 39.4873L79.9784 39.1881L80.2072 39.4785L79.0439 40.5521L81.2104 38.8906L81.4727 39.4098L80.5927 41.0713L78.8168 42.5145L78.3698 42.8119L68.6634 45.9394L70.6997 41.6679Z" fill="#8ECAE6"/>
</g>
<path d="M67.5417 35.1895C67.5417 35.1895 66.2938 36.0395 66.2657 38.0477C66.2533 38.9277 66.3449 39.7496 66.5473 41.1911C66.7497 42.6325 68.0063 47.3264 68.9849 47.8967C69.9634 48.4669 71.4823 47.3898 71.4823 47.3898L78.8285 42.5128L80.6044 41.0784L81.4844 39.417L81.2081 38.889L79.0415 40.5504L80.2084 39.4715L79.9796 39.1811L79.5572 39.4751L78.3252 39.9362L78.0559 41.6962L77.6757 41.9567L70.6481 44.5245C70.6481 44.5245 70.7361 40.7423 70.6709 40.0189C70.6058 39.2955 70.5161 37.4775 69.7417 36.1592" stroke="#1C282E" stroke-width="0.226588" stroke-miterlimit="10"/>
<path d="M70.6473 44.526L67.9651 46.462L67.2699 45.23C67.2699 45.23 66.7894 44.8516 66.719 44.5665C66.6486 44.2814 66.7384 43.8185 66.6662 43.5334C66.594 43.2482 66.235 42.9807 66.2016 42.2908C66.1681 41.6009 66.2016 41.0254 66.2016 41.0254C66.2016 41.0254 65.6208 38.637 65.6841 37.5986C65.7475 36.5602 66.7489 34.7246 67.5515 34.6841C68.354 34.6436 69.3977 34.765 70.2073 35.99C71.0169 37.215 70.8515 40.7913 70.9782 41.0148C71.1049 41.2383 70.9289 42.3418 70.9289 42.3418C70.9993 42.3943 71.0576 42.4612 71.1001 42.5379C71.1426 42.6147 71.1682 42.6997 71.1753 42.7871C71.1894 43.074 70.8796 43.7798 70.8796 43.7798L70.6473 44.526Z" fill="white" stroke="#1C282E" stroke-width="0.226588" stroke-miterlimit="10"/>
<g style="mix-blend-mode:multiply">
<path d="M70.9093 40.0957C70.9038 40.4028 70.9268 40.7098 70.9779 41.0127C71.0906 41.2133 70.9621 42.1197 70.9339 42.3045C69.4253 42.7731 67.83 42.8934 66.2682 42.6565C66.2346 42.5341 66.2146 42.4084 66.2083 42.2816C66.1731 41.5935 66.2083 41.0162 66.2083 41.0162C66.2083 41.0162 66.1573 40.8032 66.0869 40.4794C67.7044 40.5822 69.3284 40.453 70.9093 40.0957Z" fill="#8ECAE6"/>
</g>
<g style="mix-blend-mode:multiply">
<path d="M70.3195 36.1855C70.5712 36.6907 70.712 37.4492 70.793 38.2183C69.1952 38.8281 67.4726 39.0378 65.7752 38.8291C65.7075 38.422 65.6774 38.0096 65.6854 37.5971C65.7159 37.271 65.793 36.9509 65.9142 36.6467C67.3963 36.6813 68.8767 36.5263 70.3195 36.1855Z" fill="#8ECAE6"/>
</g>
<path d="M70.8828 43.7988L70.6558 44.5257L67.9735 46.4617L67.2783 45.2297C67.2783 45.2297 66.7979 44.8513 66.7275 44.5662C66.7149 44.5166 66.7072 44.4659 66.7046 44.4148C68.118 44.3904 69.5224 44.1834 70.8828 43.7988Z" fill="#1C282E"/>
<path d="M68.9411 78.5845C68.9411 78.5845 68.8813 77.0603 68.5891 74.8322C68.297 72.604 68.9992 69.4395 69.1171 68.9115C69.235 68.3835 69.0573 67.2114 69.1752 66.7995C69.2931 66.3877 69.8634 64.6312 69.5272 62.5931C69.191 60.5551 68.9182 55.1677 68.9182 55.1677C68.9182 55.1677 69.7648 54.4795 70.013 53.5837C70.2611 52.6879 70.071 52.4062 70.071 52.4062" stroke="#1C282E" stroke-width="0.226588" stroke-miterlimit="10"/>
<path d="M68.5494 52.4883L68.875 54.2905" stroke="#1C282E" stroke-width="0.226588" stroke-miterlimit="10"/>
<rect x="1" y="1" width="96" height="96" rx="48" stroke="#8ECAE6" stroke-width="2"/>
</svg>
