<svg width="98" height="98" viewBox="0 0 98 98" fill="none" xmlns="http://www.w3.org/2000/svg">
<g clip-path="url(#clip0_763_5676)">
<path d="M65.5881 76.1614L68.6016 77.9114L65.6307 77.1944C65.6536 77.4396 65.6847 77.6807 65.7263 77.9166C65.7377 77.982 65.7502 78.0465 65.7637 78.1109C65.8653 78.6526 66.0492 79.1755 66.3093 79.6613C66.3592 79.7507 66.409 79.838 66.461 79.9222C66.5109 80.0074 66.5628 80.0895 66.6158 80.1695H74.6039C74.6704 80.0895 74.7338 80.0063 74.792 79.9222C75.3616 79.1204 75.5923 78.1266 75.4342 77.1559C75.4052 76.9584 75.3635 76.763 75.3095 76.5709C75.2571 76.3745 75.1937 76.1812 75.1193 75.992C74.9896 75.6578 74.8364 75.3331 74.661 75.0204C74.2953 74.3616 73.7248 73.7672 73.0524 73.2393C72.7269 72.9852 72.3876 72.7493 72.0361 72.5326C71.9696 72.49 71.9021 72.4485 71.8335 72.4079C71.7285 72.3456 71.6236 72.2843 71.5176 72.225C71.3066 72.1045 71.0936 71.9902 70.8806 71.8821C70.8245 71.853 70.7694 71.825 70.7143 71.798C70.2519 71.5673 69.7915 71.3605 69.353 71.1786C69.2979 71.1557 69.2418 71.1329 69.1867 71.1111C68.3144 70.7542 67.4219 70.4485 66.514 70.1956C66.514 70.1956 66.5109 70.2039 66.5057 70.2215C66.4922 70.2693 66.4579 70.3847 66.4111 70.5551C66.2812 71.0279 66.0526 71.9299 65.8687 73.019C65.8583 73.0782 65.8489 73.1385 65.8385 73.1988C65.6849 74.1199 65.5998 75.0511 65.584 75.9848C65.5829 76.043 65.5829 76.1001 65.5829 76.1583L65.5881 76.1614Z" fill="#F2F2F2"/>
<path d="M66.2938 70.0889C66.2949 70.092 66.3053 70.143 66.3292 70.2365C66.3489 70.3144 66.3759 70.4215 66.4113 70.5545C66.5329 71.019 66.749 71.7973 67.0566 72.7347C67.0743 72.7887 67.093 72.8448 67.1117 72.9009C67.3257 73.5421 67.5804 74.2508 67.8744 74.9793C67.9482 75.1621 68.022 75.3419 68.0979 75.5175C68.1207 75.5726 68.1436 75.6267 68.1675 75.6797C68.4896 76.4258 68.8211 77.1085 69.1619 77.7279L69.2482 77.8827C69.6444 78.6012 70.103 79.2835 70.6189 79.9215C70.6885 80.0068 70.7592 80.0888 70.8308 80.1689H71.072C70.9992 80.0888 70.9264 80.0057 70.8558 79.9215C70.3103 79.2614 69.8278 78.5517 69.4145 77.8016C69.3853 77.7507 69.3563 77.6998 69.3282 77.6478C68.9614 76.9817 68.6278 76.2855 68.3296 75.5955C68.3057 75.5425 68.2828 75.4884 68.26 75.4334C67.8703 74.521 67.5429 73.6242 67.279 72.8344C67.2603 72.7783 67.2416 72.7222 67.2239 72.6671C66.8394 71.5012 66.5983 70.5867 66.5058 70.2209C66.4934 70.1669 66.483 70.1243 66.4757 70.0952C66.4684 70.0681 66.4653 70.0526 66.4643 70.0494L66.3801 70.0692H66.3791L66.2938 70.0889Z" fill="white"/>
<path d="M65.6816 73.2118C65.7336 73.2087 65.7866 73.2045 65.8385 73.1993C66.2743 73.1579 66.7025 73.0579 67.1115 72.9021C67.1676 72.8814 67.2237 72.8585 67.2789 72.8356C67.4411 72.7664 67.5996 72.6887 67.7537 72.6029C68.386 72.2531 68.9324 71.7668 69.353 71.1792C69.3665 71.1615 69.379 71.1439 69.3914 71.1262C69.3353 71.1033 69.2803 71.0805 69.2262 71.0576C69.2137 71.0753 69.2003 71.094 69.1868 71.1117C68.7837 71.6623 68.2656 72.1186 67.6685 72.4491C67.5242 72.5298 67.3757 72.603 67.2238 72.6683C67.1676 72.6922 67.1115 72.7141 67.0565 72.7359C66.6746 72.882 66.2753 72.9773 65.8687 73.0196C65.8157 73.0248 65.7627 73.03 65.7097 73.0331C65.7003 73.0913 65.691 73.1505 65.6816 73.2118Z" fill="white"/>
<path d="M65.4468 75.9699C65.4468 76.0292 65.4478 76.0874 65.4478 76.1466C65.4946 76.1518 65.5414 76.157 65.5881 76.1611C66.4756 76.2388 67.3675 76.0724 68.1673 75.68C68.2214 75.653 68.2754 75.6249 68.3295 75.5958C68.3513 75.5854 68.3731 75.573 68.3938 75.5616C69.0685 75.1869 69.6452 74.6584 70.0773 74.0191C70.5094 73.3797 70.7846 72.6475 70.8806 71.8819C70.8837 71.8642 70.8858 71.8476 70.8879 71.8299C70.8328 71.8008 70.7767 71.7727 70.7206 71.7437C70.7185 71.7613 70.7164 71.78 70.7143 71.7977C70.6299 72.5475 70.3675 73.2664 69.9491 73.8943C69.5306 74.5223 68.9682 75.0412 68.3087 75.4078C68.2929 75.4174 68.2766 75.4261 68.2598 75.4337C68.2068 75.4639 68.1528 75.4919 68.0977 75.5179C67.3188 75.902 66.4489 76.0635 65.584 75.9845C65.5383 75.9803 65.4925 75.9751 65.4468 75.9699Z" fill="white"/>
<path d="M65.6069 77.8761C65.6194 77.9426 65.6329 78.0091 65.6485 78.0757C65.687 78.0881 65.7254 78.1006 65.7639 78.111C66.9139 78.4654 68.154 78.3843 69.2482 77.8834C69.3032 77.8574 69.3594 77.8304 69.4145 77.8024C69.4727 77.7733 69.5309 77.7421 69.589 77.7099C70.3347 77.2954 70.9595 76.6939 71.402 75.9644C71.8444 75.235 72.0892 74.4029 72.1121 73.5501C72.1226 73.2092 72.0972 72.8682 72.0363 72.5327C72.0342 72.5171 72.031 72.5026 72.028 72.487C71.9604 72.4434 71.8918 72.4008 71.8232 72.3582C71.8274 72.3748 71.8305 72.3914 71.8336 72.408C71.8873 72.6529 71.9207 72.9017 71.9334 73.1521C71.9817 74.0403 71.7795 74.9243 71.3498 75.7031C70.92 76.482 70.28 77.1244 69.5028 77.5571C69.4456 77.5883 69.3874 77.6195 69.3282 77.6486C69.2731 77.6766 69.218 77.7036 69.1619 77.7286C68.9827 77.8102 68.7983 77.8803 68.6101 77.9385C67.67 78.2313 66.662 78.2237 65.7264 77.9167C65.6859 77.9042 65.6464 77.8907 65.6069 77.8761Z" fill="white"/>
<path d="M72.1626 48.9088H77.9819V43.0895H72.1626V48.9088Z" fill="#FFB8B8"/>
<path d="M81.6109 77.8695L80.4643 77.8694L79.9189 73.447L81.6111 73.4471L81.6109 77.8695Z" fill="#FFB8B8"/>
<path d="M78.2543 79.5619C78.2548 79.6903 78.3061 79.8133 78.3971 79.9041C78.488 79.9948 78.6111 80.0459 78.7396 80.0461H80.8968L80.9395 79.9578L81.2689 79.2782L81.3978 79.9578L81.4143 80.0461H82.228L82.2208 79.9578L81.9994 77.3038L81.6108 77.2809L80.3825 77.2071L80.1871 77.1957V77.9719L78.4642 79.1618C78.3994 79.2065 78.3464 79.2662 78.3098 79.3359C78.2733 79.4056 78.2542 79.4832 78.2543 79.5619Z" fill="#2F2E41"/>
<path d="M74.9057 77.1412L73.8038 77.4582L72.0571 73.3588L73.6834 72.8911L74.9057 77.1412Z" fill="#FFB8B8"/>
<path d="M72.1469 79.696C72.1832 79.8193 72.2666 79.9232 72.3791 79.9853C72.4915 80.0474 72.624 80.0626 72.7476 80.0275L72.9897 79.9579L74.3292 79.5724L74.8217 79.431L74.9662 78.5903L75.3185 79.2887L76.1 79.0632L75.1221 76.4912L74.7428 76.5764L74.6067 76.6066L73.5415 76.8456L73.3503 76.8882L73.5654 77.6343L72.2384 79.2544C72.1886 79.3151 72.1543 79.387 72.1384 79.464C72.1225 79.5409 72.1254 79.6205 72.1469 79.696Z" fill="#2F2E41"/>
<path d="M68.2149 66.4644C68.1178 66.2085 68.082 65.9334 68.1104 65.6611C68.1387 65.3889 68.2304 65.127 68.3781 64.8966L71.0195 51.195L72.0587 45.9991H78.2937C78.2937 45.9991 82.1906 50.3117 81.3593 55.8193L81.592 63.5757C81.8127 64.1077 81.8671 64.6941 81.7482 65.2576L81.6556 65.6964L81.6913 65.7625C81.8614 66.0773 81.9528 66.4286 81.9577 66.7864C81.9625 67.1442 81.8807 67.4978 81.7192 67.8171L81.7005 74.0145L79.83 73.9106L77.3585 66.2629L75.5399 57.0663L72.4744 64.1846L72.3705 65.8473L72.4209 67.3128L73.876 73.2119L71.8496 73.9913L68.2149 66.4644Z" fill="#2F2E41"/>
<path d="M92.5152 80.1697H62.4027C62.3698 80.1697 62.3384 80.1567 62.3152 80.1335C62.292 80.1103 62.2789 80.0788 62.2789 80.046C62.2789 80.0132 62.292 79.9817 62.3152 79.9585C62.3384 79.9353 62.3698 79.9222 62.4027 79.9222H92.5152C92.5479 79.9223 92.5793 79.9354 92.6025 79.9586C92.6256 79.9818 92.6386 80.0132 92.6386 80.046C92.6386 80.0787 92.6256 80.1101 92.6025 80.1333C92.5793 80.1565 92.5479 80.1696 92.5152 80.1697Z" fill="#CCCCCC"/>
<path d="M60.8057 29.53C62.5216 29.53 63.9126 28.139 63.9126 26.4232C63.9126 24.7073 62.5216 23.3163 60.8057 23.3163C59.0898 23.3163 57.6989 24.7073 57.6989 26.4232C57.6989 28.139 59.0898 29.53 60.8057 29.53Z" fill="#219EBC"/>
<path d="M62.4005 25.126C62.3538 25.0814 62.2917 25.0565 62.2271 25.0565C62.1625 25.0565 62.1004 25.0814 62.0537 25.126C61.3944 25.6518 60.8023 26.2566 60.2906 26.9268C60.165 26.6837 60.0394 26.4407 59.9138 26.1976C59.7688 25.9171 59.3453 26.1649 59.4902 26.4452C59.6739 26.8007 59.8577 27.1562 60.0414 27.5117C60.1326 27.6882 60.3658 27.6522 60.465 27.5117C61.0103 26.7438 61.662 26.0573 62.4005 25.4729C62.4462 25.4267 62.4718 25.3643 62.4718 25.2994C62.4718 25.2345 62.4462 25.1722 62.4005 25.126Z" fill="white"/>
<path d="M63.6925 28.6325C63.6636 28.6878 63.6298 28.7405 63.5915 28.7897L68.8655 32.6625L74.8631 34.6087C75.2404 34.7311 75.5572 34.9921 75.7497 35.3389C75.9422 35.6857 75.9959 36.0926 75.9002 36.4776C75.8044 36.8625 75.5663 37.1968 75.2338 37.413C74.9012 37.6293 74.4991 37.7113 74.1084 37.6427H74.1084C72.8423 37.4204 71.6187 37.002 70.4816 36.4026L66.7278 34.4239L62.1866 29.0154C62.0208 28.903 61.8911 28.7452 61.813 28.5608C61.7349 28.3765 61.7117 28.1735 61.7463 27.9763C61.7809 27.7791 61.8717 27.5961 62.0078 27.4492C62.1439 27.3024 62.3196 27.1981 62.5136 27.1487C62.7076 27.0994 62.9118 27.1072 63.1015 27.1712C63.2912 27.2351 63.4584 27.3526 63.583 27.5093C63.7075 27.6661 63.7841 27.8555 63.8035 28.0548C63.823 28.254 63.7844 28.4547 63.6925 28.6325V28.6325Z" fill="#FFB8B8"/>
<path d="M68.0881 35.1672L69.2418 32.6321L74.9976 33.8016C75.2852 33.9501 75.5407 34.1538 75.7495 34.4011C75.9583 34.6483 76.1164 34.9343 76.2148 35.2426C76.3131 35.551 76.3497 35.8757 76.3226 36.1982C76.2954 36.5207 76.205 36.8347 76.0565 37.1222C75.908 37.4098 75.7043 37.6653 75.457 37.8741C75.2098 38.083 74.9238 38.2411 74.6155 38.3394C73.9928 38.538 73.3166 38.481 72.7359 38.1811L68.0881 35.1672Z" fill="#2F2E41"/>
<path d="M74.0008 22.0449H5.02527C4.92284 22.0447 4.82463 22.004 4.7522 21.9316C4.67977 21.8591 4.63903 21.7609 4.63892 21.6585V19.3859C4.63903 19.2834 4.67977 19.1852 4.7522 19.1128C4.82463 19.0404 4.92284 18.9996 5.02527 18.9995H74.0008C74.1032 18.9996 74.2015 19.0404 74.2739 19.1128C74.3463 19.1852 74.3871 19.2834 74.3872 19.3859V21.6585C74.3871 21.7609 74.3463 21.8591 74.2739 21.9316C74.2015 22.004 74.1032 22.0447 74.0008 22.0449Z" fill="#E4E4E4"/>
<path d="M6.88117 20.9594C7.18411 20.9594 7.42969 20.7138 7.42969 20.4108C7.42969 20.1079 7.18411 19.8623 6.88117 19.8623C6.57823 19.8623 6.33264 20.1079 6.33264 20.4108C6.33264 20.7138 6.57823 20.9594 6.88117 20.9594Z" fill="white"/>
<path d="M8.96308 20.9594C9.26602 20.9594 9.5116 20.7138 9.5116 20.4108C9.5116 20.1079 9.26602 19.8623 8.96308 19.8623C8.66013 19.8623 8.41455 20.1079 8.41455 20.4108C8.41455 20.7138 8.66013 20.9594 8.96308 20.9594Z" fill="white"/>
<path d="M11.0454 20.9594C11.3483 20.9594 11.5939 20.7138 11.5939 20.4108C11.5939 20.1079 11.3483 19.8623 11.0454 19.8623C10.7424 19.8623 10.4968 20.1079 10.4968 20.4108C10.4968 20.7138 10.7424 20.9594 11.0454 20.9594Z" fill="white"/>
<path d="M71.961 20.0333H69.5635C69.5164 20.0333 69.4712 20.0146 69.4379 19.9813C69.4046 19.948 69.3859 19.9028 69.3859 19.8557C69.3859 19.8086 69.4046 19.7634 69.4379 19.7301C69.4712 19.6968 69.5164 19.6781 69.5635 19.6781H71.961C72.0081 19.6781 72.0533 19.6968 72.0866 19.7301C72.1199 19.7634 72.1386 19.8086 72.1386 19.8557C72.1386 19.9028 72.1199 19.948 72.0866 19.9813C72.0533 20.0146 72.0081 20.0333 71.961 20.0333Z" fill="white"/>
<path d="M71.961 20.6986H69.5635C69.5164 20.6986 69.4712 20.6799 69.4379 20.6466C69.4046 20.6132 69.3859 20.5681 69.3859 20.521C69.3859 20.4739 69.4046 20.4287 69.4379 20.3954C69.4712 20.3621 69.5164 20.3434 69.5635 20.3434H71.961C72.0081 20.3434 72.0533 20.3621 72.0866 20.3954C72.1199 20.4287 72.1386 20.4739 72.1386 20.521C72.1386 20.5681 72.1199 20.6132 72.0866 20.6466C72.0533 20.6799 72.0081 20.6986 71.961 20.6986Z" fill="white"/>
<path d="M71.961 21.365H69.5635C69.5164 21.365 69.4712 21.3462 69.4379 21.3129C69.4046 21.2796 69.3859 21.2345 69.3859 21.1874C69.3859 21.1403 69.4046 21.0951 69.4379 21.0618C69.4712 21.0285 69.5164 21.0098 69.5635 21.0098H71.961C72.0081 21.0098 72.0533 21.0285 72.0866 21.0618C72.1199 21.0951 72.1386 21.1403 72.1386 21.1874C72.1386 21.2345 72.1199 21.2796 72.0866 21.3129C72.0533 21.3462 72.0081 21.365 71.961 21.365Z" fill="white"/>
<path d="M54.2252 50.4974H24.8015C23.8922 50.4964 23.0205 50.1347 22.3775 49.4917C21.7346 48.8488 21.373 47.977 21.3719 47.0678V31.0422C21.373 30.133 21.7346 29.2613 22.3776 28.6183C23.0205 27.9754 23.8922 27.6138 24.8015 27.6128H54.2252C55.1344 27.6138 56.0062 27.9754 56.6491 28.6183C57.292 29.2612 57.6537 30.133 57.6547 31.0422V47.0678C57.6537 47.977 57.2921 48.8488 56.6491 49.4917C56.0062 50.1347 55.1345 50.4964 54.2252 50.4974Z" fill="#F2F2F2"/>
<path d="M46.6543 35.7604C46.8911 35.6571 46.4108 35.597 45.866 35.5773C45.3211 35.5575 44.662 35.5586 44.3138 35.5024C43.977 35.448 44.0018 35.3513 43.9735 35.2638C43.9452 35.1762 43.8157 35.0864 43.2902 35.0669C42.6354 35.0427 41.5556 35.136 41.0613 35.08C40.6 35.0277 40.8742 34.8636 40.2015 34.8573C39.8174 34.8537 39.3226 34.9078 38.8952 34.9208C38.5923 34.934 38.2888 34.9182 37.9888 34.8736C37.7805 34.8395 37.6354 34.7962 37.401 34.766C36.7855 34.6869 35.5812 34.7135 34.5064 34.8149C33.4315 34.9164 32.5102 35.0826 31.9906 35.2473C31.471 35.4119 31.3274 35.574 31.4485 35.7115C31.5258 35.7993 31.7235 35.8813 32.2033 35.9166C33.1007 35.9826 34.6983 35.869 35.6256 35.9291C36.1424 35.9625 36.3717 36.0455 36.8251 36.0908C37.3122 36.1396 38.0254 36.1422 38.7261 36.141C40.1849 36.1386 41.6811 36.1236 43.2067 36.0961C43.844 36.0847 44.5117 36.0697 45.1897 36.015C45.8678 35.9603 46.5594 35.8547 46.7025 35.7558" fill="#E6E7E8"/>
<path d="M51.7745 33.9317C51.7635 33.9036 51.7516 33.8758 51.7393 33.8486C51.7593 33.8565 51.7793 33.8651 51.799 33.8743L51.7745 33.9317Z" fill="#CCCCCC"/>
<path d="M40.7104 37.4355C40.522 37.124 40.2988 36.7913 39.9493 36.6896C39.5445 36.5718 39.1286 36.8058 38.7759 37.0367C37.721 37.7274 36.7051 38.4759 35.7329 39.2788L35.734 39.2909L38.0047 39.1343C38.5515 39.0966 39.1172 39.0536 39.6005 38.7949C39.7839 38.6968 39.9626 38.5656 40.1704 38.5565C40.4286 38.5452 40.6537 38.7255 40.8306 38.9139C41.8771 40.0282 42.1799 41.7323 43.354 42.7114C42.6137 40.8856 41.7297 39.1215 40.7104 37.4355Z" fill="#E6E7E8"/>
<path d="M47.1431 46.887C47.0273 46.7409 46.9801 46.7067 46.8659 46.5592C45.9364 45.3571 45.0628 44.1143 44.245 42.831C43.6896 41.9594 43.1616 41.0711 42.6613 40.166C42.423 39.7357 42.1914 39.3021 41.9662 38.865C41.7915 38.5262 41.6207 38.1853 41.4537 37.8424C41.406 37.7444 41.3596 37.646 41.3135 37.5474C41.2047 37.3155 41.098 37.0824 40.9834 36.8537C40.8528 36.593 40.6938 36.3196 40.454 36.1444C40.3449 36.0614 40.2144 36.0112 40.0778 35.9997C39.8854 36.0007 39.6969 36.0547 39.5331 36.1557C38.293 36.8076 37.1356 37.6058 36.0855 38.5332C35.0338 39.4568 34.0937 40.5003 33.2845 41.6424C33.2597 41.6777 33.2012 41.644 33.2262 41.6084C33.3246 41.4692 33.4249 41.3316 33.5272 41.1954C34.7992 39.5037 36.3589 38.0489 38.1349 36.8976C38.4337 36.704 38.7381 36.5194 39.0481 36.3439C39.2044 36.2554 39.3613 36.1681 39.521 36.0861C39.6739 35.9964 39.8455 35.9433 40.0224 35.9308C40.6308 35.9213 40.9458 36.6103 41.1622 37.0739C41.2302 37.2198 41.299 37.3652 41.3686 37.5103C41.6318 38.0608 41.9052 38.6063 42.1887 39.1467C42.3636 39.4804 42.5424 39.8121 42.725 40.1419C43.2933 41.1689 43.8973 42.175 44.5371 43.1604C45.3846 44.4657 46.2253 45.6187 47.1908 46.8393C47.2174 46.8731 47.1699 46.9212 47.1431 46.887Z" fill="#E4E4E4"/>
<path d="M36.0252 38.1922C35.9899 38.1528 35.9547 38.1134 35.9192 38.074C35.6386 37.7637 35.3376 37.457 34.9523 37.2792C34.7686 37.1917 34.5681 37.1452 34.3646 37.1429C34.1547 37.1487 33.9477 37.1938 33.7545 37.276C33.6626 37.3127 33.5728 37.3544 33.4843 37.3987C33.3832 37.4496 33.2839 37.5039 33.185 37.5586C32.9995 37.6613 32.8164 37.7684 32.6357 37.8801C32.2761 38.1023 31.9277 38.3415 31.5907 38.5977C31.416 38.7305 31.2448 38.8677 31.0773 39.0093C30.9215 39.1408 30.7689 39.2758 30.6193 39.4144C30.5874 39.4439 30.5396 39.3961 30.5716 39.3666C30.611 39.3299 30.6509 39.2934 30.6907 39.2574C30.8033 39.1557 30.9177 39.0558 31.0339 38.958C31.2457 38.7792 31.4631 38.6073 31.6859 38.4423C32.0325 38.1857 32.3909 37.9464 32.7613 37.7245C32.9464 37.6138 33.134 37.5076 33.3242 37.4062C33.3816 37.3755 33.4397 37.3456 33.4985 37.3172C33.6318 37.25 33.7703 37.1936 33.9128 37.1486C34.1145 37.0833 34.3279 37.0624 34.5385 37.0871C34.7418 37.1167 34.9377 37.1844 35.1158 37.2868C35.4941 37.4982 35.7874 37.8252 36.0729 38.1442C36.1018 38.1767 36.0542 38.2246 36.0252 38.1922Z" fill="#E4E4E4"/>
<path d="M43.7758 41.4083L44.6822 41.0767L45.1322 40.9121C45.2776 40.8536 45.4259 40.8025 45.5766 40.7591C45.7082 40.7215 45.848 40.7233 45.9787 40.7642C46.0952 40.8074 46.2019 40.8735 46.2924 40.9587C46.3848 41.0438 46.4708 41.1356 46.5497 41.2334C46.6476 41.3512 46.7442 41.4702 46.8411 41.5888C47.2413 42.0782 47.6389 42.5698 48.0339 43.0634C48.4289 43.5571 48.8212 44.0529 49.2109 44.5508C49.6015 45.0498 49.9894 45.551 50.3747 46.0543C50.4219 46.1159 50.4691 46.1776 50.5162 46.2393C50.5422 46.2734 50.6009 46.2398 50.5745 46.2052C50.1864 45.6969 49.7956 45.1907 49.4021 44.6865C49.0076 44.1811 48.6104 43.6779 48.2105 43.1768C47.8105 42.6758 47.4079 42.1769 47.0026 41.6801C46.9016 41.5564 46.8004 41.4328 46.6991 41.3093C46.6137 41.2052 46.5292 41.0999 46.4354 41.0029C46.2634 40.825 46.0484 40.6677 45.7911 40.6635C45.6404 40.6687 45.4919 40.7014 45.3528 40.7598C45.2013 40.8146 45.0501 40.8705 44.8988 40.9258L43.986 41.2597L43.7578 41.3431C43.7173 41.3579 43.7348 41.4232 43.7758 41.4083L43.7758 41.4083Z" fill="#E4E4E4"/>
<path d="M34.8329 37.6697C34.6 37.555 34.3407 37.5042 34.0817 37.5228C33.8228 37.5413 33.5733 37.6284 33.3591 37.7751C34.1665 37.9144 34.965 38.1008 35.7507 38.3333C35.4244 38.1421 35.1692 37.8426 34.8329 37.6697Z" fill="#E6E7E8"/>
<path d="M33.3519 37.7745L33.266 37.8444C33.2951 37.8199 33.3253 37.797 33.3563 37.7753L33.3519 37.7745Z" fill="#F2F2F2"/>
<path d="M46.2582 41.411C46.1789 41.294 46.0683 41.2017 45.939 41.1445L45.8145 41.1494C46.763 42.8255 48.044 44.29 49.5789 45.4531C48.472 44.1057 47.3651 42.7583 46.2582 41.411Z" fill="#E6E7E8"/>
<path d="M29.8401 33.4304C30.5319 33.4304 31.0928 32.8696 31.0928 32.1778C31.0928 31.486 30.5319 30.9252 29.8401 30.9252C29.1483 30.9252 28.5875 31.486 28.5875 32.1778C28.5875 32.8696 29.1483 33.4304 29.8401 33.4304Z" fill="#CCCCCC"/>
<path d="M33.6751 32.1116C33.3436 31.7639 32.9586 31.4466 32.5028 31.279C32.3759 31.2321 32.2442 31.199 32.1102 31.1803C32.1091 31.1802 32.1081 31.1804 32.107 31.1803C32.1048 31.1797 32.1026 31.1793 32.1004 31.179C31.9129 31.1551 31.7226 31.1666 31.5394 31.2129C31.4498 31.2353 31.3623 31.2658 31.2781 31.3039C31.1937 31.3451 31.1118 31.3915 31.033 31.4428C30.8663 31.5426 30.6828 31.611 30.4914 31.6448C30.3954 31.6621 30.2981 31.6717 30.2005 31.6734C30.1175 31.6706 30.0346 31.6825 29.9558 31.7086C29.8701 31.7408 29.7931 31.7926 29.731 31.8599C29.6689 31.9271 29.6234 32.008 29.5981 32.0959C29.5961 32.1038 29.5967 32.112 29.5997 32.1195C29.6028 32.127 29.6081 32.1333 29.615 32.1375C29.6367 32.1531 29.6578 32.1707 29.6806 32.1846C29.7009 32.1938 29.7226 32.1998 29.7448 32.2021C29.781 32.2097 29.8173 32.2171 29.8536 32.2243C29.9875 32.2509 30.1219 32.2743 30.2569 32.2948C30.5301 32.3361 30.8047 32.3652 31.0808 32.3821C31.9457 32.4344 32.8136 32.3641 33.6588 32.1732C33.665 32.1714 33.6706 32.168 33.675 32.1634C33.6795 32.1589 33.6827 32.1532 33.6844 32.147C33.686 32.1408 33.686 32.1343 33.6844 32.1281C33.6828 32.1219 33.6796 32.1162 33.6751 32.1116Z" fill="#F0F0F0"/>
<path d="M29.8993 32.949C29.7723 32.9021 29.6407 32.869 29.5066 32.8503C29.5056 32.8502 29.5045 32.8504 29.5035 32.8503C29.5013 32.8498 29.4991 32.8493 29.4969 32.849C29.3094 32.8251 29.1191 32.8366 28.9358 32.8829C28.8462 32.9054 28.7588 32.9358 28.6746 32.9739C28.5901 33.0151 28.5083 33.0615 28.4295 33.1128C28.2628 33.2126 28.0792 33.2811 27.8879 33.3149C27.7919 33.3322 27.6946 33.3417 27.597 33.3434C27.514 33.3406 27.4311 33.3525 27.3523 33.3786C27.2666 33.4109 27.1896 33.4627 27.1275 33.5299C27.0654 33.5972 27.0199 33.678 26.9945 33.766C26.9926 33.7738 26.9932 33.7821 26.9962 33.7896C26.9993 33.797 27.0046 33.8033 27.0115 33.8076C27.0332 33.8231 27.0543 33.8408 27.0771 33.8546C27.0974 33.8639 27.1191 33.8698 27.1412 33.8721C27.1775 33.8797 27.2138 33.8872 27.2501 33.8944C27.384 33.9209 27.5184 33.9444 27.6534 33.9648C27.9265 34.0062 28.2012 34.0353 28.4772 34.0522C29.3422 34.1045 30.2101 34.0341 31.0553 33.8432C31.0615 33.8414 31.067 33.8381 31.0715 33.8335C31.076 33.8289 31.0792 33.8232 31.0808 33.817C31.0825 33.8108 31.0825 33.8043 31.0809 33.7981C31.0792 33.7919 31.076 33.7863 31.0716 33.7817C30.7401 33.4339 30.3551 33.1167 29.8993 32.949Z" fill="#F0F0F0"/>
<path d="M51.1611 45.3686L51.8282 44.8621L52.1535 45.1872L51.0665 45.9311L51.1611 45.3686Z" fill="#CCCCCC"/>
<path d="M50.539 46.7646H48.2567L48.3368 46.5052C48.8329 46.3256 48.5542 45.9396 49.0261 45.7036C50.1804 45.1265 50.6273 43.4042 50.4583 42.7234L51.2147 42.6914C51.2147 42.6914 52.2593 45.658 50.539 46.7646Z" fill="#CCCCCC"/>
<path d="M52.4875 45.5446C52.4193 45.6046 52.3321 45.6384 52.2413 45.6401C52.1506 45.6418 52.0621 45.6113 51.9918 45.5539L51.9903 45.5527L51.9902 45.5508C51.9894 45.519 51.9845 45.4875 51.9755 45.457C51.9751 45.4789 51.9719 45.5008 51.966 45.5219L51.9641 45.529L51.9589 45.5237C51.9545 45.5192 51.9502 45.5145 51.9462 45.51C51.9225 45.4831 51.9027 45.4531 51.8873 45.4207C51.8135 45.269 51.7065 45.1357 51.5744 45.0307C51.5508 45.0115 51.5288 44.9904 51.5087 44.9676C51.4239 44.871 51.3761 44.7474 51.3741 44.6189C51.3721 44.4903 51.4158 44.3653 51.4976 44.2661C51.5794 44.1669 51.6938 44.1 51.8203 44.0775C51.9469 44.0549 52.0773 44.0782 52.1883 44.1431L52.1917 44.145L52.1899 44.1485C52.1771 44.1752 52.1601 44.1997 52.1396 44.2211C52.1678 44.2059 52.1938 44.1871 52.2171 44.1651L52.2196 44.1628L52.2224 44.1647C52.2588 44.1899 52.292 44.2195 52.3213 44.2528L52.3245 44.2564C52.3468 44.282 52.3743 44.3026 52.4051 44.3168C52.4359 44.331 52.4694 44.3386 52.5034 44.339C52.5588 44.3399 52.6133 44.3528 52.6632 44.3769C52.7131 44.4009 52.7572 44.4354 52.7925 44.4781C52.8278 44.5208 52.8534 44.5706 52.8676 44.6242C52.8818 44.6777 52.8842 44.7337 52.8747 44.7883L52.8743 44.7908L52.8718 44.7916C52.8288 44.8063 52.7831 44.812 52.7378 44.8083C52.7757 44.8248 52.816 44.8349 52.8572 44.8382L52.8625 44.8386L52.8608 44.8437C52.8394 44.9081 52.8012 44.9656 52.7502 45.0104L52.7487 45.0117L52.7472 45.0131C52.7092 45.0458 52.6781 45.0858 52.6558 45.1306C52.6334 45.1755 52.6203 45.2244 52.6171 45.2745C52.6146 45.3259 52.6018 45.3762 52.5795 45.4226C52.5573 45.469 52.526 45.5105 52.4875 45.5446Z" fill="#CCCCCC"/>
<path opacity="0.15" d="M52.5572 45.4189C52.5565 45.4325 52.5551 45.446 52.553 45.4595C52.5898 45.403 52.6109 45.3378 52.6143 45.2704C52.6148 45.2601 52.6159 45.2498 52.6174 45.2396C52.5816 45.2929 52.5608 45.3548 52.5572 45.4189Z" fill="black"/>
<path opacity="0.15" d="M52.6781 44.9542C52.7073 44.9669 52.7381 44.9756 52.7696 44.9801C52.7817 44.9673 52.7929 44.9536 52.8031 44.9392C52.7629 44.9527 52.7204 44.9578 52.6781 44.9542Z" fill="black"/>
<path opacity="0.15" d="M52.8183 44.8309C52.8216 44.8631 52.8207 44.8955 52.8157 44.9274C52.8333 44.9006 52.8474 44.8716 52.8575 44.8411L52.8591 44.8362L52.854 44.8358C52.842 44.8348 52.8301 44.8331 52.8183 44.8309Z" fill="black"/>
<path opacity="0.15" d="M52.7829 44.4657C52.7476 44.4256 52.7043 44.3934 52.6559 44.371C52.6074 44.3486 52.5548 44.3365 52.5014 44.3355C52.4675 44.3351 52.434 44.3276 52.4032 44.3133C52.3723 44.2991 52.3448 44.2785 52.3225 44.253L52.3193 44.2494C52.2901 44.2161 52.2568 44.1865 52.2204 44.1613L52.2176 44.1594L52.2151 44.1617C52.1919 44.1836 52.1658 44.2024 52.1377 44.2176C52.1581 44.1962 52.1751 44.1718 52.188 44.1451L52.1897 44.1416L52.1863 44.1396C52.1128 44.0965 52.0301 44.0715 51.945 44.0665C51.8599 44.0615 51.7748 44.0767 51.6967 44.1108C51.6185 44.1449 51.5496 44.197 51.4955 44.2629C51.4413 44.3287 51.4035 44.4065 51.3851 44.4897C51.4205 44.4275 51.4679 44.373 51.5246 44.3292C51.5812 44.2855 51.646 44.2534 51.7151 44.2349C51.7842 44.2163 51.8564 44.2117 51.9273 44.2212C51.9982 44.2308 52.0666 44.2543 52.1283 44.2904L52.1317 44.2924L52.13 44.2959C52.1171 44.3226 52.1001 44.3471 52.0797 44.3685C52.1078 44.3533 52.1338 44.3345 52.1571 44.3125L52.1596 44.3102L52.1624 44.3121C52.1988 44.3373 52.2321 44.3669 52.2613 44.4002L52.2645 44.4038C52.2868 44.4294 52.3143 44.4499 52.3451 44.4642C52.376 44.4784 52.4094 44.486 52.4434 44.4864C52.5321 44.4879 52.6176 44.5201 52.6853 44.5776C52.7529 44.6351 52.7985 44.7143 52.8143 44.8016C52.8331 44.7983 52.8516 44.7937 52.8698 44.7881L52.8723 44.7874L52.8728 44.7848C52.8827 44.7283 52.8798 44.6703 52.8643 44.615C52.8487 44.5598 52.8209 44.5087 52.7829 44.4657Z" fill="black"/>
<path d="M53.5907 42.8857C53.5907 43.178 53.487 43.4609 53.2981 43.6839C53.1092 43.907 52.8473 44.0558 52.559 44.104L52.5529 44.105L52.5481 44.101C52.4695 44.0355 52.3828 43.9804 52.29 43.9372C52.3421 43.985 52.3881 44.0391 52.4267 44.0983L52.4399 44.1181L52.4162 44.1192C52.3957 44.1202 52.3754 44.1207 52.3558 44.1207C52.2404 44.1208 52.1257 44.1049 52.0147 44.0734C51.4908 43.9291 50.9412 43.9042 50.4063 44.0005C50.3097 44.0168 50.212 44.0249 50.114 44.0249C49.7001 44.0248 49.2998 43.8773 48.9847 43.6089C48.6696 43.3405 48.4603 42.9687 48.3943 42.56C48.3284 42.1514 48.41 41.7326 48.6247 41.3787C48.8393 41.0248 49.173 40.7589 49.5658 40.6285L49.5778 40.6245L49.5825 40.6362C49.6197 40.724 49.6428 40.8171 49.651 40.9121C49.6741 40.8117 49.6839 40.7088 49.6804 40.6058L49.68 40.5949L49.6906 40.5923C49.8291 40.5578 49.9713 40.5403 50.114 40.5404L50.1295 40.5404C50.2388 40.5407 50.3469 40.518 50.4469 40.4737C50.5468 40.4295 50.6363 40.3646 50.7095 40.2834C50.8295 40.1515 50.9767 40.0472 51.1409 39.9776C51.3052 39.908 51.4825 39.8747 51.6608 39.8802C51.839 39.8857 52.014 39.9297 52.1736 40.0093C52.3333 40.0888 52.4738 40.202 52.5855 40.3411L52.5907 40.3475L52.5873 40.3551C52.5315 40.4906 52.4482 40.613 52.3427 40.7147C52.4631 40.6582 52.5733 40.5821 52.6688 40.4896L52.6812 40.4777L52.6898 40.4925C52.7999 40.6813 52.8579 40.896 52.8578 41.1146L52.8578 41.1208L52.8578 41.1274C52.8561 41.2889 52.8866 41.449 52.9476 41.5985C53.0087 41.7479 53.0989 41.8837 53.2131 41.9979C53.332 42.1133 53.4266 42.2512 53.4915 42.4037C53.5563 42.5562 53.59 42.7201 53.5907 42.8857Z" fill="#CCCCCC"/>
<g opacity="0.15">
<path d="M52.0796 39.9697C52.0373 40.0398 51.9853 40.1036 51.9252 40.1591C52.0113 40.1187 52.0923 40.0681 52.1664 40.0084C52.138 39.9944 52.109 39.9815 52.0796 39.9697Z" fill="black"/>
<path d="M52.7957 41.4433C52.8629 41.5085 52.9225 41.5811 52.9733 41.6597C52.8968 41.4934 52.8574 41.3124 52.8578 41.1294L52.8578 41.1228L52.8578 41.1165C52.8579 40.898 52.7999 40.6833 52.6898 40.4945L52.6812 40.4796L52.6688 40.4916C52.6007 40.5574 52.5252 40.6149 52.4436 40.6631C52.4613 40.9575 52.5867 41.2352 52.7957 41.4433Z" fill="black"/>
<path d="M52.4399 40.5583L52.4399 40.5645L52.4399 40.5711C52.4399 40.5831 52.4401 40.5952 52.4404 40.6072C52.4983 40.5293 52.5471 40.4452 52.586 40.3563L52.5894 40.3488L52.5842 40.3424C52.5194 40.2617 52.4447 40.1895 52.3619 40.1274C52.4135 40.2652 52.4399 40.4112 52.4399 40.5583Z" fill="black"/>
<path d="M53.213 41.9992C53.1535 41.9414 53.1007 41.8772 53.0556 41.8077C53.1365 41.9802 53.1764 42.169 53.1721 42.3594C53.1679 42.5499 53.1196 42.7368 53.0311 42.9054C52.9425 43.0741 52.8161 43.2199 52.6618 43.3316C52.5074 43.4432 52.3293 43.5176 52.1414 43.5489L52.1353 43.5499L52.1306 43.5459C52.052 43.4804 51.9652 43.4253 51.8725 43.3821C51.9246 43.4299 51.9705 43.484 52.0092 43.5432L52.0223 43.563L51.9987 43.5641C51.9782 43.5651 51.9579 43.5656 51.9383 43.5656C51.8229 43.5657 51.7082 43.5498 51.5972 43.5183C51.0733 43.374 50.5237 43.3491 49.9888 43.4455C49.8922 43.4617 49.7945 43.4698 49.6965 43.4698C49.2696 43.4702 48.8575 43.313 48.5392 43.0285C48.6804 43.3268 48.9033 43.5788 49.182 43.7554C49.4608 43.9321 49.7839 44.026 50.1139 44.0263C50.2118 44.0263 50.3096 44.0182 50.4062 44.0019C50.941 43.9056 51.4907 43.9305 52.0146 44.0748C52.1255 44.1063 52.2403 44.1222 52.3556 44.1221C52.3752 44.1221 52.3955 44.1216 52.416 44.1206L52.4397 44.1195L52.4265 44.0997C52.3879 44.0405 52.342 43.9863 52.2898 43.9386C52.3826 43.9818 52.4694 44.0369 52.548 44.1024L52.5527 44.1064L52.5588 44.1054C52.7844 44.0678 52.9952 43.9683 53.1676 43.818C53.3399 43.6676 53.4671 43.4723 53.535 43.2539C53.6028 43.0355 53.6087 42.8025 53.5518 42.5809C53.4949 42.3594 53.3776 42.158 53.2129 41.9992L53.213 41.9992Z" fill="black"/>
</g>
<path d="M28.7278 44.7026L27.8236 44.0161L27.3829 44.4568L28.8559 45.4648L28.7278 44.7026Z" fill="#CCCCCC"/>
<path d="M29.5711 46.5918H32.664L32.5555 46.2404C31.8832 45.997 32.2608 45.4738 31.6213 45.1541C30.057 44.3719 29.4514 42.038 29.6805 41.1154L28.6554 41.072C28.6554 41.072 27.2397 45.0923 29.5711 46.5918Z" fill="#CCCCCC"/>
<path d="M26.755 44.5746C26.7507 44.5068 26.7329 44.4406 26.7026 44.3797C26.6723 44.3189 26.6302 44.2647 26.5787 44.2204L26.5766 44.2186L26.5747 44.2168C26.5056 44.1561 26.4538 44.0781 26.4248 43.9908L26.4225 43.984L26.4297 43.9834C26.4855 43.9789 26.5402 43.9652 26.5915 43.9429C26.53 43.948 26.4682 43.9403 26.4098 43.9202L26.4065 43.9192L26.4059 43.9158C26.393 43.8418 26.3963 43.766 26.4155 43.6934C26.4348 43.6209 26.4695 43.5533 26.5173 43.4955C26.5651 43.4376 26.6249 43.3908 26.6926 43.3582C26.7602 43.3257 26.8341 43.3082 26.9092 43.3069C26.9552 43.3064 27.0005 43.2961 27.0423 43.2768C27.0841 43.2575 27.1213 43.2297 27.1516 43.195L27.1559 43.1901C27.1955 43.145 27.2406 43.1049 27.29 43.0708L27.2938 43.0682L27.2971 43.0713C27.3286 43.101 27.3639 43.1265 27.4021 43.1471C27.3743 43.1182 27.3513 43.085 27.3339 43.0488L27.3315 43.0441L27.3361 43.0414C27.4865 42.9535 27.6633 42.922 27.8348 42.9525C28.0063 42.9831 28.1613 43.0737 28.2721 43.2081C28.3829 43.3425 28.4423 43.512 28.4395 43.6862C28.4367 43.8604 28.3721 44.0279 28.2571 44.1587C28.2298 44.1897 28.2001 44.2183 28.1681 44.2443C27.989 44.3866 27.8441 44.5672 27.7441 44.7729C27.7232 44.8167 27.6963 44.8574 27.6642 44.8938C27.6588 44.9 27.653 44.9063 27.647 44.9125L27.64 44.9196L27.6374 44.91C27.6294 44.8813 27.6251 44.8517 27.6245 44.822C27.6124 44.8633 27.6057 44.906 27.6045 44.9491L27.6045 44.9517L27.6024 44.9533C27.5279 45.0142 27.4378 45.0532 27.3424 45.0658C27.247 45.0785 27.1499 45.0644 27.062 45.0252C26.9741 44.9859 26.8989 44.923 26.8447 44.8434C26.7905 44.7639 26.7594 44.6708 26.755 44.5746L26.755 44.5746Z" fill="#CCCCCC"/>
<path opacity="0.15" d="M26.8361 44.7728C26.837 44.7915 26.839 44.8102 26.8419 44.8287C26.7913 44.7509 26.7621 44.6611 26.7575 44.5684C26.7568 44.5542 26.7553 44.5401 26.7533 44.526C26.8025 44.5994 26.8311 44.6846 26.8361 44.7728Z" fill="black"/>
<path opacity="0.15" d="M26.6706 44.1408C26.6298 44.1585 26.5868 44.1706 26.5427 44.1769C26.5257 44.159 26.5101 44.1399 26.4958 44.1198C26.5521 44.1386 26.6115 44.1457 26.6706 44.1408Z" fill="black"/>
<path opacity="0.15" d="M26.4797 43.9701C26.4753 44.0132 26.4765 44.0566 26.4832 44.0994C26.4596 44.0635 26.4407 44.0246 26.4271 43.9837L26.4249 43.9772L26.4318 43.9766C26.4479 43.9752 26.4638 43.9731 26.4797 43.9701Z" fill="black"/>
<path opacity="0.15" d="M26.5299 43.4765C26.5777 43.4222 26.6364 43.3785 26.702 43.3481C26.7677 43.3177 26.839 43.3014 26.9114 43.3001C26.9574 43.2995 27.0027 43.2893 27.0445 43.27C27.0863 43.2507 27.1235 43.2228 27.1538 43.1882L27.1581 43.1833C27.1977 43.1382 27.2428 43.0981 27.2922 43.0639L27.296 43.0613L27.2993 43.0645C27.3308 43.0942 27.3661 43.1197 27.4043 43.1403C27.3765 43.1113 27.3535 43.0781 27.3361 43.042L27.3337 43.0372L27.3383 43.0346C27.438 42.9762 27.5501 42.9423 27.6654 42.9355C27.7808 42.9287 27.8961 42.9493 28.0019 42.9955C28.1078 43.0418 28.2012 43.1124 28.2746 43.2016C28.3479 43.2909 28.3992 43.3962 28.4241 43.509C28.3761 43.4247 28.3119 43.3508 28.2351 43.2915C28.1583 43.2322 28.0706 43.1888 27.9769 43.1637C27.8832 43.1385 27.7855 43.1323 27.6894 43.1452C27.5932 43.1581 27.5006 43.19 27.4169 43.239L27.4123 43.2417L27.4147 43.2464C27.4321 43.2826 27.4551 43.3157 27.4829 43.3447C27.4448 43.3241 27.4095 43.2986 27.3779 43.2689L27.3746 43.2657L27.3708 43.2683C27.3214 43.3025 27.2764 43.3426 27.2367 43.3877L27.2324 43.3926C27.2021 43.4273 27.1649 43.4551 27.1231 43.4744C27.0814 43.4937 27.036 43.5039 26.99 43.5045C26.8697 43.5065 26.7538 43.5502 26.6622 43.6281C26.5705 43.706 26.5087 43.8133 26.4873 43.9317C26.4619 43.9271 26.4367 43.921 26.4121 43.9134L26.4087 43.9124L26.4081 43.909C26.3946 43.8324 26.3986 43.7537 26.4196 43.6788C26.4407 43.6039 26.4784 43.5348 26.5299 43.4765Z" fill="black"/>
<path d="M25.9475 40.1329C26.1022 39.9782 26.2245 39.7942 26.3072 39.5916C26.3899 39.3891 26.4313 39.172 26.429 38.9533C26.429 38.9503 26.429 38.9473 26.429 38.9443L26.429 38.9359C26.4288 38.6397 26.5074 38.3487 26.6566 38.0929L26.6683 38.0727L26.6851 38.089C26.8145 38.2143 26.9639 38.3174 27.1271 38.3939C26.9841 38.2562 26.8712 38.0902 26.7956 37.9066L26.7909 37.8964L26.798 37.8876C26.9494 37.6992 27.1398 37.5458 27.3561 37.438C27.5724 37.3302 27.8096 37.2705 28.0511 37.2631C28.2927 37.2557 28.5331 37.3007 28.7556 37.395C28.9781 37.4894 29.1776 37.6308 29.3403 37.8096C29.4395 37.9196 29.5607 38.0074 29.6962 38.0674C29.8316 38.1274 29.9782 38.1582 30.1263 38.1578L30.1472 38.1577C30.3407 38.1577 30.5334 38.1813 30.7211 38.2281L30.7354 38.2317L30.7349 38.2464C30.7301 38.3859 30.7435 38.5255 30.7748 38.6615C30.7859 38.5328 30.8172 38.4066 30.8675 38.2876L30.8739 38.2718L30.8902 38.2772C31.4225 38.4538 31.8746 38.8142 32.1655 39.2938C32.4564 39.7735 32.5671 40.341 32.4777 40.8947C32.3883 41.4485 32.1047 41.9523 31.6777 42.3161C31.2507 42.6798 30.7082 42.8797 30.1472 42.8799C30.0145 42.8799 29.882 42.8688 29.7511 42.8468C29.0263 42.7162 28.2815 42.75 27.5715 42.9456C27.4211 42.9882 27.2656 43.0098 27.1093 43.0097C27.0827 43.0097 27.0552 43.009 27.0275 43.0076L26.9954 43.0061L27.0132 42.9793C27.0656 42.8991 27.1278 42.8257 27.1985 42.7609C27.0727 42.8195 26.9551 42.8942 26.8486 42.983L26.8422 42.9883L26.834 42.987C26.5282 42.9361 26.2426 42.8013 26.009 42.5975C25.7754 42.3938 25.603 42.1292 25.5111 41.8331C25.4191 41.5371 25.4112 41.2214 25.4883 40.9211C25.5654 40.6209 25.7243 40.348 25.9475 40.1328L25.9475 40.1329Z" fill="#CCCCCC"/>
<g opacity="0.15">
<path d="M27.4815 37.3823C27.5392 37.4781 27.6102 37.5652 27.6924 37.641C27.5747 37.5858 27.4641 37.5166 27.3629 37.4351C27.4017 37.416 27.4413 37.3984 27.4815 37.3823Z" fill="black"/>
<path d="M26.5126 39.3789C26.4216 39.4672 26.3409 39.5655 26.272 39.672C26.3757 39.4467 26.4291 39.2015 26.4285 38.9534C26.4285 38.9504 26.4285 38.9474 26.4285 38.9444L26.4285 38.936C26.4284 38.6398 26.5069 38.3489 26.6562 38.093L26.6679 38.0729L26.6846 38.0891C26.7769 38.1783 26.8793 38.2563 26.9898 38.3215C26.9658 38.7206 26.796 39.0969 26.5126 39.3789Z" fill="black"/>
<path d="M26.9932 38.1791L26.9932 38.1875L26.9932 38.1964C26.9932 38.2128 26.993 38.2291 26.9925 38.2453C26.9141 38.1399 26.8479 38.0258 26.7953 37.9054L26.7906 37.8952L26.7977 37.8865C26.8855 37.7772 26.9867 37.6794 27.0989 37.5952C27.029 37.782 26.9932 37.9797 26.9932 38.1791Z" fill="black"/>
<path d="M25.9474 40.1324C26.0279 40.0541 26.0994 39.9671 26.1607 39.8729C26.051 40.1066 25.9969 40.3625 26.0027 40.6206C26.0084 40.8787 26.0738 41.1319 26.1938 41.3605C26.3138 41.589 26.4851 41.7867 26.6943 41.938C26.9034 42.0892 27.1448 42.19 27.3994 42.2324L27.4077 42.2338L27.4141 42.2285C27.5206 42.1396 27.6382 42.065 27.7639 42.0064C27.6933 42.0712 27.631 42.1445 27.5786 42.2248L27.5608 42.2516L27.5929 42.2531C27.6207 42.2545 27.6482 42.2551 27.6748 42.2551C27.8311 42.2553 27.9866 42.2337 28.1369 42.191C28.8469 41.9954 29.5918 41.9617 30.3166 42.0923C30.4475 42.1143 30.58 42.1253 30.7127 42.1253C31.2913 42.1258 31.8497 41.9128 32.2811 41.5272C32.0897 41.9314 31.7876 42.273 31.4099 42.5124C31.0322 42.7517 30.5943 42.879 30.1471 42.8795C30.0144 42.8795 29.8819 42.8684 29.751 42.8464C29.0262 42.7158 28.2813 42.7496 27.5713 42.9452C27.421 42.9878 27.2655 43.0094 27.1092 43.0092C27.0826 43.0092 27.0551 43.0086 27.0274 43.0072L26.9952 43.0057L27.0131 42.9789C27.0654 42.8986 27.1277 42.8253 27.1983 42.7605C27.0726 42.8191 26.955 42.8938 26.8485 42.9826L26.8421 42.9879L26.8338 42.9866C26.5281 42.9357 26.2425 42.8009 26.0089 42.5971C25.7753 42.3934 25.6029 42.1287 25.5109 41.8327C25.419 41.5367 25.4111 41.221 25.4882 40.9207C25.5653 40.6205 25.7242 40.3476 25.9474 40.1324V40.1324Z" fill="black"/>
</g>
<path d="M36.7409 35.5898C36.8082 35.5898 36.8627 35.5352 36.8627 35.4679C36.8627 35.4006 36.8082 35.3461 36.7409 35.3461C36.6736 35.3461 36.619 35.4006 36.619 35.4679C36.619 35.5352 36.6736 35.5898 36.7409 35.5898Z" fill="white"/>
<path d="M45.9247 38.4832C45.9637 38.4832 45.9953 38.4516 45.9953 38.4126C45.9953 38.3736 45.9637 38.3419 45.9247 38.3419C45.8856 38.3419 45.854 38.3736 45.854 38.4126C45.854 38.4516 45.8856 38.4832 45.9247 38.4832Z" fill="white"/>
<path d="M47.3489 35.1685C47.3879 35.1685 47.4195 35.1369 47.4195 35.0979C47.4195 35.0589 47.3879 35.0272 47.3489 35.0272C47.3098 35.0272 47.2782 35.0589 47.2782 35.0979C47.2782 35.1369 47.3098 35.1685 47.3489 35.1685Z" fill="white"/>
<path d="M34.1595 32.9576C34.1986 32.9576 34.2302 32.926 34.2302 32.8869C34.2302 32.8479 34.1986 32.8163 34.1595 32.8163C34.1205 32.8163 34.0889 32.8479 34.0889 32.8869C34.0889 32.926 34.1205 32.9576 34.1595 32.9576Z" fill="#CCCCCC"/>
<path d="M33.4228 35.9293C33.4619 35.9293 33.4935 35.8976 33.4935 35.8586C33.4935 35.8196 33.4619 35.788 33.4228 35.788C33.3838 35.788 33.3522 35.8196 33.3522 35.8586C33.3522 35.8976 33.3838 35.9293 33.4228 35.9293Z" fill="white"/>
<path d="M29.8371 35.1685C29.8762 35.1685 29.9078 35.1369 29.9078 35.0979C29.9078 35.0589 29.8762 35.0272 29.8371 35.0272C29.7981 35.0272 29.7665 35.0589 29.7665 35.0979C29.7665 35.1369 29.7981 35.1685 29.8371 35.1685Z" fill="#CCCCCC"/>
<path d="M42.5349 35.7808C42.5739 35.7808 42.6056 35.7492 42.6056 35.7102C42.6056 35.6712 42.5739 35.6395 42.5349 35.6395C42.4959 35.6395 42.4642 35.6712 42.4642 35.7102C42.4642 35.7492 42.4959 35.7808 42.5349 35.7808Z" fill="white"/>
<path d="M50.0754 33.3995C50.1144 33.3995 50.1461 33.3679 50.1461 33.3288C50.1461 33.2898 50.1144 33.2582 50.0754 33.2582C50.0364 33.2582 50.0048 33.2898 50.0048 33.3288C50.0048 33.3679 50.0364 33.3995 50.0754 33.3995Z" fill="#CCCCCC"/>
<path d="M47.1506 44.7532C47.1008 44.6682 47.0753 44.5712 47.0767 44.4727C47.0782 44.3742 47.1066 44.2779 47.1589 44.1945C47.2155 44.4004 47.3432 44.5796 47.5193 44.7004C47.5874 44.7468 47.6679 44.7912 47.6912 44.8702C47.7035 44.9206 47.6959 44.9737 47.6701 45.0187C47.6444 45.0631 47.6131 45.104 47.5769 45.1404L47.5736 45.1527C47.3992 45.0601 47.2531 44.922 47.1506 44.7532Z" fill="#E6E7E8"/>
<path d="M39.3156 40.7503C39.2658 40.6653 39.2402 40.5682 39.2416 40.4697C39.2431 40.3712 39.2715 40.275 39.3238 40.1915C39.3805 40.3974 39.5081 40.5766 39.6842 40.6975C39.7523 40.7438 39.8329 40.7883 39.8561 40.8673C39.8684 40.9176 39.8608 40.9708 39.8351 41.0157C39.8093 41.0601 39.778 41.101 39.7418 41.1374L39.7385 41.1498C39.5641 41.0571 39.418 40.9191 39.3156 40.7503Z" fill="#E6E7E8"/>
<path d="M31.8491 43.5989C31.7993 43.5139 31.7738 43.4169 31.7752 43.3184C31.7767 43.2199 31.8051 43.1237 31.8574 43.0402C31.914 43.2461 32.0417 43.4253 32.2178 43.5461C32.2859 43.5925 32.3664 43.6369 32.3897 43.7159C32.402 43.7663 32.3944 43.8194 32.3686 43.8644C32.3429 43.9088 32.3115 43.9497 32.2754 43.9861L32.2721 43.9984C32.0977 43.9058 31.9516 43.7677 31.8491 43.5989Z" fill="#E6E7E8"/>
<path d="M46.4189 32.5941H46.1487V47.0606H46.4189V32.5941Z" fill="#CCCCCC"/>
<path d="M47.1801 32.2997C47.1801 31.8114 46.7843 31.4155 46.2959 31.4155C45.8076 31.4155 45.4117 31.8114 45.4117 32.2997V32.2997C45.4117 32.7881 45.8076 33.1839 46.2959 33.1839C46.7843 33.1839 47.1801 32.7881 47.1801 32.2997Z" fill="#CCCCCC"/>
<path d="M42.7722 45.3519L42.0792 45.0461V44.7833L42.3261 44.7819C42.3645 44.7817 42.4018 44.7695 42.4328 44.747C42.4638 44.7245 42.487 44.6928 42.4991 44.6565L42.6727 44.1359C42.6819 44.1083 42.6844 44.079 42.68 44.0502C42.6756 44.0215 42.6644 43.9942 42.6474 43.9706C42.6304 43.9471 42.6081 43.9279 42.5822 43.9146C42.5563 43.9014 42.5277 43.8945 42.4986 43.8945H42.0792V43.6499H42.6057C42.6473 43.6499 42.6875 43.6358 42.72 43.6099C42.7525 43.5841 42.7752 43.548 42.7845 43.5075L42.904 42.9877C42.9102 42.9608 42.9102 42.9329 42.9041 42.906C42.898 42.8791 42.8859 42.8539 42.8688 42.8323C42.8516 42.8108 42.8297 42.7933 42.8049 42.7814C42.7801 42.7694 42.7528 42.7632 42.7252 42.7632H42.0792V42.702C42.0792 42.6696 42.0663 42.6385 42.0433 42.6155C42.0204 42.5926 41.9893 42.5797 41.9568 42.5797C41.9244 42.5797 41.8933 42.5926 41.8704 42.6155C41.8474 42.6385 41.8345 42.6696 41.8345 42.702V42.7632H37.503V42.702C37.503 42.6696 37.4901 42.6385 37.4672 42.6155C37.4443 42.5926 37.4131 42.5797 37.3807 42.5797C37.3483 42.5797 37.3172 42.5926 37.2942 42.6155C37.2713 42.6385 37.2584 42.6696 37.2584 42.702V42.7632H36.7448C36.7172 42.7632 36.69 42.7694 36.6652 42.7814C36.6403 42.7933 36.6185 42.8108 36.6013 42.8323C36.5841 42.8539 36.572 42.8791 36.5659 42.906C36.5598 42.9329 36.5598 42.9608 36.566 42.9877L36.6855 43.5075C36.6948 43.548 36.7176 43.5841 36.75 43.6099C36.7825 43.6358 36.8228 43.6499 36.8643 43.6499H37.2584V43.8945H36.9714C36.9425 43.8945 36.914 43.9013 36.8882 43.9144C36.8625 43.9275 36.8402 43.9465 36.8231 43.9699C36.8061 43.9933 36.7949 44.0203 36.7903 44.0489C36.7857 44.0774 36.7879 44.1067 36.7968 44.1342L36.9739 44.6838C36.9859 44.7209 37.0093 44.7532 37.0409 44.7761C37.0725 44.799 37.1106 44.8112 37.1496 44.811L37.2584 44.8104V45.0461L36.6979 45.3519C36.6492 45.3519 36.6025 45.3712 36.5681 45.4056C36.5337 45.44 36.5144 45.4867 36.5144 45.5353C36.5144 45.584 36.5337 45.6307 36.5681 45.6651C36.6025 45.6995 36.6492 45.7188 36.6979 45.7188H37.2584V47.0641C37.2584 47.0802 37.2615 47.0962 37.2676 47.111C37.2737 47.1259 37.2827 47.1394 37.2941 47.1508C37.3055 47.1622 37.319 47.1713 37.3338 47.1774C37.3487 47.1836 37.3646 47.1868 37.3807 47.1868C37.3968 47.1868 37.4127 47.1836 37.4276 47.1774C37.4425 47.1713 37.456 47.1622 37.4673 47.1508C37.4787 47.1394 37.4877 47.1259 37.4938 47.111C37.4999 47.0962 37.5031 47.0802 37.503 47.0641V45.7188H41.8345V47.0641C41.8345 47.0966 41.8474 47.1277 41.8704 47.1506C41.8933 47.1735 41.9244 47.1864 41.9568 47.1864C41.9893 47.1864 42.0204 47.1735 42.0433 47.1506C42.0663 47.1277 42.0792 47.0966 42.0792 47.0641V45.7188H42.7722C42.8208 45.7188 42.8675 45.6995 42.9019 45.6651C42.9363 45.6307 42.9556 45.584 42.9556 45.5353C42.9556 45.5113 42.9509 45.4874 42.9417 45.4651C42.9325 45.4429 42.919 45.4227 42.9019 45.4056C42.8849 45.3886 42.8647 45.3751 42.8424 45.3659C42.8201 45.3566 42.7963 45.3519 42.7722 45.3519ZM37.503 43.6499H41.8345V43.8945H37.503V43.6499ZM37.503 45.0461V44.809L41.8345 44.7847V45.0461H37.503Z" fill="#CCCCCC"/>
<path d="M52.7439 55.0203H26.282C26.1993 55.0204 26.1175 55.0042 26.0411 54.9727C25.9647 54.9411 25.8952 54.8948 25.8367 54.8364C25.7782 54.7779 25.7318 54.7086 25.7002 54.6322C25.6685 54.5558 25.6522 54.474 25.6522 54.3913C25.6522 54.3086 25.6685 54.2268 25.7002 54.1504C25.7318 54.0741 25.7782 54.0047 25.8367 53.9463C25.8952 53.8879 25.9647 53.8415 26.0411 53.81C26.1175 53.7784 26.1993 53.7622 26.282 53.7623H52.7439C52.8266 53.7622 52.9085 53.7784 52.9849 53.81C53.0613 53.8415 53.1307 53.8879 53.1892 53.9463C53.2477 54.0047 53.2941 54.0741 53.3258 54.1504C53.3574 54.2268 53.3737 54.3086 53.3737 54.3913C53.3737 54.474 53.3574 54.5558 53.3258 54.6322C53.2941 54.7086 53.2477 54.7779 53.1892 54.8364C53.1307 54.8948 53.0613 54.9411 52.9849 54.9727C52.9085 55.0042 52.8266 55.0204 52.7439 55.0203Z" fill="#E6E6E6"/>
<path d="M43.8652 57.8597H35.1611C34.9943 57.8597 34.8343 57.7934 34.7163 57.6755C34.5984 57.5575 34.5321 57.3975 34.5321 57.2307C34.5321 57.0639 34.5984 56.9039 34.7163 56.7859C34.8343 56.668 34.9943 56.6017 35.1611 56.6017H43.8652C44.032 56.6017 44.192 56.668 44.31 56.7859C44.4279 56.9039 44.4942 57.0639 44.4942 57.2307C44.4942 57.3975 44.4279 57.5575 44.31 57.6755C44.192 57.7934 44.032 57.8597 43.8652 57.8597Z" fill="#E6E6E6"/>
<path d="M43.8651 63.6191H35.161C34.9944 63.6189 34.8346 63.5525 34.7168 63.4346C34.599 63.3167 34.5328 63.1568 34.5328 62.9901C34.5328 62.8234 34.599 62.6635 34.7168 62.5456C34.8346 62.4277 34.9944 62.3613 35.161 62.3611H43.8651C44.0319 62.3611 44.1919 62.4274 44.3099 62.5453C44.4279 62.6633 44.4941 62.8233 44.4941 62.9901C44.4941 63.1569 44.4279 63.3169 44.3099 63.4349C44.1919 63.5529 44.0319 63.6191 43.8651 63.6191Z" fill="#E6E6E6"/>
<path d="M43.8654 66.5689H35.1613C35.0786 66.569 34.9967 66.5528 34.9203 66.5212C34.8439 66.4897 34.7745 66.4434 34.716 66.385C34.6575 66.3265 34.6111 66.2572 34.5795 66.1808C34.5478 66.1044 34.5315 66.0226 34.5315 65.9399C34.5315 65.8572 34.5478 65.7754 34.5795 65.699C34.6111 65.6226 34.6575 65.5533 34.716 65.4949C34.7745 65.4364 34.8439 65.3901 34.9203 65.3586C34.9967 65.327 35.0786 65.3108 35.1613 65.3109H43.8654C43.948 65.3108 44.0299 65.327 44.1063 65.3586C44.1827 65.3901 44.2521 65.4364 44.3106 65.4949C44.3691 65.5533 44.4155 65.6226 44.4472 65.699C44.4789 65.7754 44.4952 65.8572 44.4952 65.9399C44.4952 66.0226 44.4789 66.1044 44.4472 66.1808C44.4155 66.2572 44.3691 66.3265 44.3106 66.385C44.2521 66.4434 44.1827 66.4897 44.1063 66.5212C44.0299 66.5528 43.948 66.569 43.8654 66.5689Z" fill="#E6E6E6"/>
<path d="M48.7465 60.6991H30.2794C30.1126 60.6991 29.9526 60.6329 29.8346 60.5149C29.7167 60.397 29.6504 60.237 29.6504 60.0701C29.6504 59.9033 29.7167 59.7433 29.8346 59.6254C29.9526 59.5074 30.1126 59.4412 30.2794 59.4412H48.7465C48.9133 59.4412 49.0733 59.5074 49.1912 59.6254C49.3092 59.7433 49.3755 59.9033 49.3755 60.0701C49.3755 60.237 49.3092 60.397 49.1912 60.5149C49.0733 60.6329 48.9133 60.6991 48.7465 60.6991Z" fill="#E6E6E6"/>
<path d="M76.2391 32.4053C77.7362 31.587 78.2864 29.7099 77.468 28.2128C76.6496 26.7157 74.7725 26.1655 73.2754 26.9839C71.7783 27.8023 71.2281 29.6793 72.0465 31.1764C72.8649 32.6735 74.742 33.2237 76.2391 32.4053Z" fill="#FFB8B8"/>
<path d="M74.4485 33.6324L75.6198 32.1268L77.2907 32.0543L77.4575 33.4704L78.2854 33.8521C79.112 36.9927 79.2397 40.2764 78.6594 43.4717C78.5484 43.5762 78.4673 43.7084 78.4245 43.8546C78.3817 44.0009 78.3787 44.1559 78.4157 44.3037L78.4694 44.5177L78.4644 44.5255C78.2883 44.8035 78.2285 45.1396 78.298 45.4613L79.8116 48.1507C76.5975 49.4607 74.2413 47.0177 72.0584 43.8162L70.7075 39.14L74.4485 33.6324Z" fill="#219EBC"/>
<path d="M74.2406 25.9427H76.2362C77.5445 25.9427 78.6051 27.1359 78.6051 28.6078C79.5923 29.599 79.296 30.8409 78.5127 32.1778C77.0991 32.3536 75.7164 32.7234 74.4038 33.2768L74.2175 32.4813L73.8501 33.5289C73.5233 33.6872 73.1993 33.8603 72.8781 34.0483C73.253 32.2868 73.4073 30.5293 73.1499 29.1642H72.474V28.4245L72.2446 29.1642H71.0192C71.0192 28.7411 71.1025 28.3222 71.2644 27.9314C71.4263 27.5405 71.6636 27.1854 71.9627 26.8863C72.2618 26.5871 72.617 26.3499 73.0078 26.188C73.3986 26.0261 73.8175 25.9427 74.2406 25.9427Z" fill="#2F2E41"/>
<path d="M70.9272 42.2903L70.6117 39.1354L74.7996 32.9359L74.9718 33.0522L70.826 39.1895L71.134 42.2696L70.9272 42.2903Z" fill="#2F2E41"/>
<path d="M71.0291 42.5877C71.2004 42.5877 71.3393 42.4488 71.3393 42.2775C71.3393 42.1063 71.2004 41.9674 71.0291 41.9674C70.8578 41.9674 70.719 42.1063 70.719 42.2775C70.719 42.4488 70.8578 42.5877 71.0291 42.5877Z" fill="#2F2E41"/>
<path d="M76.9021 27.1594C77.7056 27.1594 78.3569 26.5081 78.3569 25.7046C78.3569 24.9011 77.7056 24.2498 76.9021 24.2498C76.0986 24.2498 75.4473 24.9011 75.4473 25.7046C75.4473 26.5081 76.0986 27.1594 76.9021 27.1594Z" fill="#2F2E41"/>
<path d="M73.7501 49.8544C73.8125 49.8546 73.8748 49.8605 73.9361 49.8719L74.957 43.4089L73.9343 37.1869C73.8699 36.7955 73.9564 36.3943 74.1762 36.0641C74.3961 35.734 74.7329 35.4995 75.1189 35.4079C75.5048 35.3164 75.9111 35.3746 76.2558 35.5708C76.6006 35.7671 76.858 36.0867 76.9763 36.4653V36.4653C77.3597 37.6922 77.5495 38.9714 77.5387 40.2568L77.503 44.5L74.7813 51.0167C74.7575 51.2155 74.6768 51.4032 74.5488 51.5572C74.4209 51.7111 74.2511 51.8249 74.0601 51.8847C73.869 51.9445 73.6647 51.9478 73.4718 51.8942C73.2789 51.8406 73.1056 51.7324 72.9727 51.5827C72.8398 51.4329 72.7531 51.2479 72.7228 51.05C72.6926 50.8521 72.7202 50.6496 72.8024 50.467C72.8845 50.2845 73.0177 50.1295 73.1858 50.0208C73.3539 49.9121 73.5499 49.8543 73.7501 49.8543V49.8544Z" fill="#FFB8B8"/>
<path d="M77.5392 42.9505L74.7573 43.0888L73.1554 37.438C73.1552 37.1142 73.2188 36.7936 73.3425 36.4944C73.4663 36.1952 73.6478 35.9233 73.8767 35.6943C74.1055 35.4653 74.3773 35.2836 74.6764 35.1597C74.9755 35.0357 75.2961 34.9719 75.6199 34.9719C75.9437 34.9719 76.2643 35.0357 76.5634 35.1597C76.8625 35.2836 77.1343 35.4653 77.3631 35.6943C77.592 35.9233 77.7735 36.1952 77.8973 36.4944C78.021 36.7936 78.0846 37.1142 78.0844 37.438L77.5392 42.9505Z" fill="#2F2E41"/>
</g>
<path d="M1 6.52775C1 3.53621 3.42512 1.11108 6.41667 1.11108H91.5833C94.5749 1.11108 97 3.53621 97 6.52775V91.6944C97 94.686 94.5749 97.1111 91.5833 97.1111H1V6.52775Z" stroke="#808080"/>
<defs>
<clipPath id="clip0_763_5676">
<rect width="88" height="61.1706" fill="white" transform="translate(4.63892 18.9995)"/>
</clipPath>
</defs>
</svg>
