<svg width="565" height="421" viewBox="0 0 565 421" fill="none" xmlns="http://www.w3.org/2000/svg">
<path d="M565 369.962H0V370.245H565V369.962Z" fill="#EBEBEB"/>
<path d="M267.81 319.564H49.6187C47.9094 319.561 46.2712 318.88 45.0636 317.67C43.856 316.46 43.1777 314.821 43.1777 313.112V6.3958C43.1926 4.69631 43.8774 3.07132 45.0834 1.87379C46.2894 0.676258 47.9192 0.00291132 49.6187 0H267.81C269.522 0 271.163 0.679794 272.373 1.88984C273.583 3.09988 274.263 4.74104 274.263 6.4523V313.112C274.263 314.823 273.583 316.464 272.373 317.674C271.163 318.884 269.522 319.564 267.81 319.564ZM49.6187 0.226001C47.9844 0.228994 46.418 0.880344 45.2633 2.03708C44.1087 3.19382 43.4602 4.76142 43.4602 6.3958V313.112C43.4602 314.746 44.1087 316.314 45.2633 317.47C46.418 318.627 47.9844 319.279 49.6187 319.281H267.81C269.446 319.279 271.013 318.628 272.17 317.471C273.326 316.315 273.977 314.747 273.98 313.112V6.3958C273.977 4.76038 273.326 3.19281 272.17 2.03639C271.013 0.879977 269.446 0.228988 267.81 0.226001H49.6187Z" fill="#EBEBEB"/>
<path d="M512.241 319.564H294.038C292.328 319.561 290.688 318.88 289.479 317.671C288.27 316.461 287.589 314.822 287.586 313.112V6.3958C287.604 4.69528 288.291 3.0703 289.499 1.87308C290.707 0.675863 292.338 0.00287957 294.038 0H512.241C513.939 0.00588108 515.566 0.680542 516.769 1.87775C517.973 3.07496 518.656 4.69826 518.671 6.3958V313.112C518.671 314.819 517.994 316.457 516.789 317.666C515.584 318.876 513.949 319.558 512.241 319.564ZM294.038 0.226001C292.403 0.228988 290.835 0.879977 289.679 2.03639C288.522 3.19281 287.871 4.76038 287.868 6.3958V313.112C287.871 314.747 288.522 316.315 289.679 317.471C290.835 318.628 292.403 319.279 294.038 319.281H512.241C513.877 319.279 515.444 318.628 516.601 317.471C517.757 316.315 518.408 314.747 518.411 313.112V6.3958C518.408 4.76038 517.757 3.19281 516.601 2.03639C515.444 0.879977 513.877 0.228988 512.241 0.226001H294.038Z" fill="#EBEBEB"/>
<path d="M508.386 388.144H479.006V388.426H508.386V388.144Z" fill="#EBEBEB"/>
<path d="M402.314 391.218H351.43V391.5H402.314V391.218Z" fill="#EBEBEB"/>
<path d="M477.876 377.657H409.184V377.94H477.876V377.657Z" fill="#EBEBEB"/>
<path d="M81.0092 379.556H59.2793V379.839H81.0092V379.556Z" fill="#EBEBEB"/>
<path d="M153.556 379.556H91.0781V379.839H153.556V379.556Z" fill="#EBEBEB"/>
<path d="M275.878 384.324H191.727V384.607H275.878V384.324Z" fill="#EBEBEB"/>
<path d="M427.806 364.176H436.846V196.88H427.806V364.176Z" fill="#F0F0F0"/>
<path d="M384.425 369.939H434.473V364.165H384.425V369.939Z" fill="#F0F0F0"/>
<path d="M427.819 196.869H382.031V364.165H427.819V196.869Z" fill="#F5F5F5"/>
<path d="M422.937 283.992H386.912V313.869H422.937V283.992Z" fill="#F0F0F0"/>
<path d="M422.937 323.09H386.912V352.967H422.937V323.09Z" fill="#F0F0F0"/>
<path d="M400.122 300.976H409.715C410.452 300.976 411.049 300.379 411.049 299.642V298.207C411.049 297.471 410.452 296.874 409.715 296.874H400.122C399.385 296.874 398.788 297.471 398.788 298.207V299.642C398.788 300.379 399.385 300.976 400.122 300.976Z" fill="#F5F5F5"/>
<path d="M400.122 340.074H409.715C410.452 340.074 411.049 339.477 411.049 338.74V337.305C411.049 336.569 410.452 335.972 409.715 335.972H400.122C399.385 335.972 398.788 336.569 398.788 337.305V338.74C398.788 339.477 399.385 340.074 400.122 340.074Z" fill="#F5F5F5"/>
<path d="M422.937 206.101H386.912V235.978H422.937V206.101Z" fill="#F0F0F0"/>
<path d="M422.937 244.882H386.912V274.76H422.937V244.882Z" fill="#F0F0F0"/>
<path d="M400.122 223.085H409.715C410.452 223.085 411.049 222.488 411.049 221.751V220.316C411.049 219.58 410.452 218.983 409.715 218.983H400.122C399.385 218.983 398.788 219.58 398.788 220.316V221.751C398.788 222.488 399.385 223.085 400.122 223.085Z" fill="#F5F5F5"/>
<path d="M400.122 261.877H409.715C410.452 261.877 411.049 261.28 411.049 260.544V259.109C411.049 258.373 410.452 257.776 409.715 257.776H400.122C399.385 257.776 398.788 258.373 398.788 259.109V260.544C398.788 261.28 399.385 261.877 400.122 261.877Z" fill="#F5F5F5"/>
<path d="M477.921 364.176H505.041V196.88H477.921V364.176Z" fill="#F0F0F0"/>
<path d="M434.508 369.939H502.252V364.165H434.508V369.939Z" fill="#F0F0F0"/>
<path d="M477.922 196.869H432.135V364.165H477.922V196.869Z" fill="#F5F5F5"/>
<path d="M473.04 283.992H437.016V313.869H473.04V283.992Z" fill="#F0F0F0"/>
<path d="M473.04 323.09H437.016V352.967H473.04V323.09Z" fill="#F0F0F0"/>
<path d="M450.225 300.976H459.819C460.555 300.976 461.152 300.379 461.152 299.642V298.207C461.152 297.471 460.555 296.874 459.819 296.874H450.225C449.489 296.874 448.892 297.471 448.892 298.207V299.642C448.892 300.379 449.489 300.976 450.225 300.976Z" fill="#F5F5F5"/>
<path d="M450.225 340.074H459.819C460.555 340.074 461.152 339.477 461.152 338.74V337.305C461.152 336.569 460.555 335.972 459.819 335.972H450.225C449.489 335.972 448.892 336.569 448.892 337.305V338.74C448.892 339.477 449.489 340.074 450.225 340.074Z" fill="#F5F5F5"/>
<path d="M473.04 206.101H437.016V235.978H473.04V206.101Z" fill="#F0F0F0"/>
<path d="M473.04 244.882H437.016V274.76H473.04V244.882Z" fill="#F0F0F0"/>
<path d="M450.225 223.085H459.819C460.555 223.085 461.152 222.488 461.152 221.751V220.316C461.152 219.58 460.555 218.983 459.819 218.983H450.225C449.489 218.983 448.892 219.58 448.892 220.316V221.751C448.892 222.488 449.489 223.085 450.225 223.085Z" fill="#F5F5F5"/>
<path d="M450.225 261.877H459.819C460.555 261.877 461.152 261.28 461.152 260.544V259.109C461.152 258.373 460.555 257.776 459.819 257.776H450.225C449.489 257.776 448.892 258.373 448.892 259.109V260.544C448.892 261.28 449.489 261.877 450.225 261.877Z" fill="#F5F5F5"/>
<path d="M330.672 161.952L482.895 161.952V28.318L330.672 28.318V161.952Z" fill="#E6E6E6"/>
<path d="M314.354 23.1199H492.748C493.149 23.1199 493.534 23.2794 493.818 23.5634C494.102 23.8473 494.262 24.2325 494.262 24.6341C494.259 25.0337 494.098 25.416 493.814 25.6975C493.531 25.979 493.147 26.137 492.748 26.137H314.354C313.957 26.134 313.576 25.9747 313.295 25.6935C313.014 25.4123 312.855 25.0318 312.852 24.6341C312.852 24.2344 313.01 23.851 313.291 23.5673C313.573 23.2837 313.955 23.1229 314.354 23.1199Z" fill="#E6E6E6"/>
<path d="M324.22 161.952L479.889 161.952V28.318L324.22 28.318V161.952Z" fill="#F0F0F0"/>
<path d="M330.673 161.952H482.895V166.234H326.221L330.673 161.952Z" fill="#E6E6E6"/>
<path d="M313.452 161.952H469.121L464.669 166.234H309L313.452 161.952Z" fill="#F0F0F0"/>
<path d="M470.838 152.911V37.3577L333.26 37.3577V152.911H470.838Z" fill="#FAFAFA"/>
<path d="M439.605 152.911L386.529 37.3577H361.477L414.553 152.911H439.605Z" fill="white"/>
<path d="M409.173 152.911L356.097 37.3577H346.322L399.398 152.911H409.173Z" fill="white"/>
<path d="M334.4 152.911V37.3577H333.248V152.911H334.4Z" fill="#E6E6E6"/>
<g opacity="0.4">
<path d="M470.725 130.684H486.285V20.4078H470.725V130.684Z" fill="#F0F0F0"/>
<path d="M464.668 130.684H476.793V20.4078H464.668V130.684Z" fill="#E6E6E6"/>
<path d="M455.176 130.684H470.736V20.4078H455.176V130.684Z" fill="#F0F0F0"/>
<path d="M449.108 130.684H461.232V20.4078H449.108V130.684Z" fill="#E6E6E6"/>
<path d="M439.606 130.684H455.166V20.4078H439.606V130.684Z" fill="#F0F0F0"/>
</g>
<g opacity="0.4">
<path d="M339.043 130.684H348.016V20.4078H339.043V130.684Z" fill="#F0F0F0"/>
<path d="M335.552 130.684H342.535V20.4078H335.552V130.684Z" fill="#E6E6E6"/>
<path d="M330.073 130.684H339.045V20.4078H330.073V130.684Z" fill="#F0F0F0"/>
<path d="M326.593 130.684H333.576V20.4078H326.593V130.684Z" fill="#E6E6E6"/>
<path d="M321.1 130.684H330.072V20.4078H321.1V130.684Z" fill="#F0F0F0"/>
</g>
<path d="M185.568 109.271H207.106L204.564 54.647H185.568V109.271Z" fill="#F5F5F5"/>
<path d="M219.276 112.22L223.921 136.481H219.276L190.789 112.22H219.276Z" fill="#F5F5F5"/>
<path d="M223.921 112.22V136.481L195.434 112.22H223.921Z" fill="#E6E6E6"/>
<path d="M107.554 112.22L112.198 136.481H107.554L79.0664 112.22H107.554Z" fill="#F5F5F5"/>
<path d="M112.198 112.22V136.481L83.7109 112.22H112.198Z" fill="#E6E6E6"/>
<path d="M244.836 109.35H213.852V112.853H244.836V109.35Z" fill="#E6E6E6"/>
<path d="M59.81 112.853L213.852 112.853V109.35L59.81 109.35V112.853Z" fill="#F5F5F5"/>
<path d="M153.918 109.271H200.158L205.875 43.0756H159.636L153.918 109.271Z" fill="#E6E6E6"/>
<path d="M151.521 109.271H197.761L203.479 43.0756H157.239L151.521 109.271Z" fill="#F0F0F0"/>
<path d="M193.885 101.937L199.117 50.3981H161.126L155.895 101.937H193.885Z" fill="white"/>
<path d="M133.215 109.271H148.052L146.3 71.6533H133.215V109.271Z" fill="#E0E0E0"/>
<path d="M111.43 109.271H143.262L147.205 63.687H115.362L111.43 109.271Z" fill="#F0F0F0"/>
<path d="M109.779 109.271H141.623L145.555 63.687H113.712L109.779 109.271Z" fill="#F5F5F5"/>
<path d="M138.945 104.22L142.538 68.7379H116.39L112.785 104.22H138.945Z" fill="#E0E0E0"/>
<path d="M296.468 205.027C296.573 206.29 296.301 207.557 295.687 208.666C295.072 209.774 294.143 210.676 293.015 211.256C291.888 211.837 290.614 212.069 289.355 211.925C288.095 211.781 286.907 211.267 285.94 210.447C284.973 209.627 284.271 208.539 283.922 207.32C283.574 206.101 283.595 204.806 283.983 203.599C284.371 202.392 285.109 201.327 286.102 200.54C287.095 199.752 288.3 199.276 289.564 199.174C290.401 199.104 291.245 199.2 292.045 199.457C292.846 199.713 293.588 200.125 294.229 200.669C294.87 201.213 295.398 201.877 295.782 202.625C296.166 203.373 296.399 204.189 296.468 205.027Z" fill="#E0E0E0"/>
<path d="M308.366 208.372C308.472 209.635 308.2 210.901 307.585 212.01C306.971 213.119 306.041 214.021 304.914 214.601C303.787 215.181 302.513 215.414 301.253 215.27C299.994 215.126 298.805 214.611 297.838 213.792C296.871 212.972 296.169 211.883 295.821 210.664C295.472 209.445 295.494 208.151 295.882 206.944C296.27 205.737 297.007 204.672 298 203.884C298.994 203.097 300.198 202.621 301.462 202.518C303.153 202.381 304.83 202.92 306.125 204.017C307.419 205.115 308.225 206.681 308.366 208.372Z" fill="#E0E0E0"/>
<path d="M316.965 204.53C317.068 205.793 316.794 207.058 316.178 208.166C315.562 209.273 314.631 210.173 313.504 210.752C312.376 211.33 311.102 211.562 309.843 211.416C308.584 211.271 307.397 210.755 306.431 209.935C305.465 209.114 304.764 208.026 304.417 206.807C304.07 205.588 304.092 204.294 304.48 203.087C304.869 201.881 305.606 200.817 306.6 200.03C307.593 199.243 308.797 198.768 310.061 198.665C311.753 198.531 313.43 199.073 314.724 200.172C316.018 201.271 316.824 202.838 316.965 204.53Z" fill="#E0E0E0"/>
<path d="M326.039 206.926C326.14 208.186 325.864 209.447 325.249 210.551C324.633 211.655 323.703 212.552 322.578 213.128C321.453 213.704 320.182 213.934 318.926 213.788C317.671 213.642 316.486 213.128 315.523 212.309C314.559 211.491 313.86 210.406 313.513 209.19C313.166 207.974 313.187 206.683 313.574 205.48C313.96 204.276 314.695 203.214 315.684 202.427C316.674 201.641 317.875 201.165 319.135 201.061C319.973 200.991 320.817 201.088 321.619 201.345C322.42 201.603 323.163 202.015 323.804 202.56C324.445 203.105 324.973 203.771 325.356 204.52C325.74 205.269 325.972 206.087 326.039 206.926Z" fill="#E0E0E0"/>
<path d="M334.186 207.92C334.186 207.92 333.441 225.706 304.874 225.706C276.308 225.706 275.494 207.92 275.494 207.92H334.186Z" fill="#F0F0F0"/>
<path d="M67.6641 369.962H78.0488L78.0488 225.74H67.6641L67.6641 369.962Z" fill="#E6E6E6"/>
<path d="M64.8965 369.962H71.0098L71.0098 225.74H64.8965L64.8965 369.962Z" fill="#F0F0F0"/>
<path d="M210.418 225.74H62.998V236.554H210.418V225.74Z" fill="#F0F0F0"/>
<path d="M350.027 369.962H360.412V225.74H350.027V369.962Z" fill="#E6E6E6"/>
<path d="M348.086 369.962H354.199V225.74H348.086V369.962Z" fill="#F0F0F0"/>
<path d="M362.265 225.74H214.846V236.554H362.265V225.74Z" fill="#E6E6E6"/>
<path d="M211.287 369.962H221.672L221.672 225.74H211.287L211.287 369.962Z" fill="#E6E6E6"/>
<path d="M208.52 369.962H214.633L214.633 225.74H208.52L208.52 369.962Z" fill="#F0F0F0"/>
<path d="M245.368 177.772H168.404L154.686 223.22H231.661L245.368 177.772Z" fill="#E6E6E6"/>
<path d="M231.662 223.22L231.356 225.74H154.381L154.686 223.22H231.662Z" fill="#E6E6E6"/>
<path d="M243.007 177.772H166.031L152.324 223.22H229.289L243.007 177.772Z" fill="#F0F0F0"/>
<path d="M227.786 221.152L240.239 179.851H167.546L155.082 221.152H227.786Z" fill="white"/>
<path d="M209.242 223.22L208.925 225.74H124.164L124.469 223.22H209.242Z" fill="#F0F0F0"/>
<path d="M282.5 420.993C403.503 420.993 501.596 415.266 501.596 408.201C501.596 401.137 403.503 395.41 282.5 395.41C161.497 395.41 63.4043 401.137 63.4043 408.201C63.4043 415.266 161.497 420.993 282.5 420.993Z" fill="#F5F5F5"/>
<path d="M426.632 61.1894H296.58C292.12 61.2628 287.847 62.9961 284.596 66.0509C281.344 69.1057 279.348 73.2626 278.998 77.71L258.771 389.093C258.606 391.213 258.884 393.344 259.588 395.351C260.292 397.358 261.406 399.196 262.859 400.749C264.312 402.302 266.072 403.536 268.028 404.371C269.983 405.207 272.091 405.626 274.218 405.602H404.315C408.774 405.532 413.047 403.801 416.299 400.748C419.55 397.695 421.547 393.539 421.897 389.093L436.407 165.285C437.023 165.07 437.564 164.681 437.965 164.166C438.366 163.651 438.61 163.031 438.667 162.381L441.266 122.334C441.311 121.712 441.153 121.092 440.814 120.568C440.476 120.044 439.976 119.644 439.39 119.43L442.091 77.71C442.255 75.5883 441.977 73.4555 441.272 71.4473C440.568 69.4392 439.453 67.5996 437.999 66.0457C436.545 64.4917 434.784 63.2575 432.827 62.4214C430.87 61.5853 428.76 61.1658 426.632 61.1894Z" fill="#1882CD"/>
<path d="M268.465 141.815H271.019C271.809 141.801 272.566 141.493 273.142 140.953C273.718 140.412 274.073 139.676 274.137 138.888L275.267 122.164C275.296 121.788 275.245 121.41 275.12 121.054C274.994 120.698 274.796 120.373 274.538 120.097C274.28 119.822 273.967 119.604 273.62 119.456C273.273 119.308 272.899 119.233 272.522 119.238H269.979C269.188 119.249 268.43 119.556 267.853 120.097C267.276 120.638 266.922 121.376 266.86 122.164L265.73 138.888C265.702 139.264 265.752 139.641 265.877 139.996C266.002 140.351 266.199 140.676 266.456 140.951C266.713 141.226 267.024 141.445 267.37 141.593C267.716 141.742 268.089 141.818 268.465 141.815Z" fill="#1882CD"/>
<path d="M266.533 171.669H269.075C269.868 171.655 270.628 171.347 271.207 170.804C271.785 170.261 272.141 169.522 272.205 168.731L273.335 152.019C273.364 151.642 273.313 151.264 273.188 150.909C273.062 150.553 272.864 150.227 272.606 149.952C272.347 149.677 272.035 149.458 271.688 149.31C271.341 149.162 270.967 149.088 270.589 149.092H268.047C267.255 149.103 266.495 149.409 265.916 149.951C265.338 150.492 264.981 151.229 264.917 152.019L263.787 168.731C263.755 169.109 263.803 169.489 263.927 169.847C264.051 170.205 264.249 170.533 264.508 170.81C264.767 171.086 265.081 171.306 265.429 171.454C265.778 171.602 266.154 171.675 266.533 171.669Z" fill="#1882CD"/>
<path d="M397.398 405.602H267.347C265.22 405.626 263.112 405.207 261.156 404.371C259.201 403.536 257.44 402.302 255.988 400.749C254.535 399.197 253.421 397.358 252.717 395.351C252.013 393.345 251.735 391.213 251.9 389.093L272.081 77.7101C272.435 73.2618 274.433 69.1047 277.686 66.0501C280.939 62.9955 285.214 61.2626 289.676 61.1895H419.716C421.843 61.1675 423.951 61.5882 425.907 62.425C427.863 63.2617 429.623 64.4962 431.076 66.05C432.528 67.6037 433.642 69.4428 434.346 71.4502C435.049 73.4575 435.328 75.5894 435.163 77.7101L414.981 389.093C414.63 393.539 412.634 397.695 409.382 400.748C406.131 403.801 401.858 405.532 397.398 405.602Z" fill="#263238"/>
<path opacity="0.2" d="M341.212 392.361C345.767 387.951 346.11 380.916 341.978 376.647C337.846 372.378 330.803 372.493 326.247 376.903C321.691 381.313 321.348 388.349 325.48 392.618C329.613 396.886 336.656 396.772 341.212 392.361Z" fill="white"/>
<path d="M409.149 365.182H261.311C260.808 365.181 260.31 365.078 259.848 364.877C259.386 364.677 258.97 364.384 258.626 364.016C258.282 363.649 258.017 363.215 257.847 362.741C257.677 362.267 257.606 361.763 257.639 361.261L274.939 94.2192C275.015 93.2969 275.435 92.4369 276.115 91.8091C276.795 91.1814 277.686 90.8317 278.611 90.8292H426.461C426.964 90.8297 427.462 90.9334 427.924 91.1339C428.386 91.3344 428.801 91.6273 429.146 91.9948C429.49 92.3622 429.755 92.7963 429.925 93.2703C430.095 93.7442 430.165 94.2479 430.133 94.7503L412.821 361.735C412.761 362.669 412.348 363.544 411.666 364.184C410.984 364.824 410.084 365.181 409.149 365.182Z" fill="white"/>
<path opacity="0.2" d="M367.901 259.929C384.438 243.921 385.682 218.381 370.681 202.884C355.679 187.387 330.112 187.802 313.575 203.811C297.039 219.82 295.794 245.36 310.795 260.856C325.797 276.353 351.364 275.938 367.901 259.929Z" fill="#1882CD"/>
<path opacity="0.2" d="M336.739 294.094C302.421 294.094 276.307 266.172 278.533 231.853C280.759 197.535 310.478 169.613 344.807 169.613C379.137 169.613 405.24 197.535 403.014 231.853C400.787 266.172 371.023 294.094 336.739 294.094ZM344.649 170.743C310.952 170.743 281.765 198.157 279.584 231.853C277.403 265.55 303.031 292.964 336.728 292.964C370.424 292.964 399.612 265.55 401.804 231.853C403.997 198.157 378.391 170.743 344.649 170.743Z" fill="#1882CD"/>
<path d="M331.09 251.414L327.7 244.871C320.355 230.622 303.439 217.887 297.529 214.18L303.111 205.829C310.106 210.214 324.084 221.073 332.853 233.978C349.069 214.768 371.985 194.981 402.665 173.636L407.896 181.546C375.126 204.349 351.543 225.198 335.859 245.289L331.09 251.414Z" fill="#1882CD"/>
<path opacity="0.2" d="M329.488 78.9649C331.331 77.1809 331.467 74.3315 329.792 72.6007C328.116 70.8699 325.264 70.9131 323.421 72.6971C321.578 74.4811 321.442 77.3305 323.118 79.0613C324.793 80.7921 327.646 80.749 329.488 78.9649Z" fill="white"/>
<path opacity="0.2" d="M342.288 71.3255H379.68C380.261 71.3187 380.837 71.4335 381.372 71.6625C381.906 71.8915 382.386 72.2297 382.782 72.6553C383.178 73.0809 383.48 73.5845 383.67 74.1339C383.86 74.6833 383.933 75.2663 383.884 75.8455C383.791 77.0601 383.249 78.1965 382.363 79.0324C381.476 79.8683 380.31 80.3437 379.093 80.3655H341.712C341.131 80.3704 340.555 80.2544 340.021 80.0249C339.487 79.7955 339.007 79.4575 338.611 79.0324C338.214 78.6074 337.911 78.1046 337.719 77.556C337.527 77.0073 337.452 76.4249 337.497 75.8455C337.59 74.6308 338.132 73.4945 339.018 72.6585C339.904 71.8226 341.07 71.3473 342.288 71.3255Z" fill="white"/>
<path d="M203.104 154.81C201.194 156.765 199.149 158.923 197.262 161.07C195.375 163.217 193.488 165.421 191.713 167.681C189.939 169.941 188.323 172.201 186.651 174.585L185.521 176.359L184.391 178.156C184.018 178.755 183.679 179.365 183.351 179.986L182.447 181.647C182.079 182.597 181.869 183.601 181.826 184.619C181.735 185.929 181.735 187.242 181.826 188.552C182.047 191.377 182.425 194.187 182.956 196.97C183.453 199.818 184.086 202.677 184.753 205.524C185.419 208.372 186.154 211.253 186.9 214.056L182.719 215.627C180.149 210.1 177.997 204.388 176.278 198.541C175.405 195.527 174.737 192.458 174.278 189.354C174.049 187.699 173.932 186.03 173.927 184.359C173.901 182.391 174.234 180.434 174.91 178.585C175.17 177.952 175.306 177.704 175.487 177.32L176.006 176.246C176.345 175.534 176.696 174.822 177.136 174.133L178.266 172.054L179.464 170.031C181.06 167.366 182.799 164.79 184.674 162.313C186.527 159.838 188.448 157.432 190.47 155.104C192.493 152.776 194.538 150.584 196.889 148.324L203.104 154.81Z" fill="#B55B52"/>
<path d="M203.589 141.25C197.464 141.521 191.645 151.691 191.645 151.691L199.735 168.2C199.735 168.2 210.696 159.07 210.832 150.12C210.922 144.256 209.612 140.967 203.589 141.25Z" fill="#1882CD"/>
<path opacity="0.7" d="M203.589 141.25C197.464 141.521 191.645 151.691 191.645 151.691L199.735 168.2C199.735 168.2 210.696 159.07 210.832 150.12C210.922 144.256 209.612 140.967 203.589 141.25Z" fill="white"/>
<path opacity="0.2" d="M205.048 153.115C203.263 155.815 202.404 162.821 202.133 165.94C204.829 163.318 207.115 160.305 208.913 157.002C207.704 153.985 206.223 151.341 205.048 153.115Z" fill="black"/>
<path d="M185.69 212.338L193.137 214.598L188.176 219.615C188.176 219.615 182.808 217.954 182.062 214.304L185.69 212.338Z" fill="#B55B52"/>
<path d="M197.647 220.282L196.393 225.085L188.178 219.57L193.138 214.553L197.647 220.282Z" fill="#B55B52"/>
<path d="M246.643 121.644C246.405 122.311 246.575 122.989 247.016 123.147C247.456 123.305 247.999 122.91 248.225 122.243C248.451 121.577 248.292 120.887 247.852 120.729C247.411 120.571 246.88 120.966 246.643 121.644Z" fill="#263238"/>
<path d="M247.648 120.695L249.423 120.842C249.423 120.842 248.157 121.78 247.648 120.695Z" fill="#263238"/>
<path d="M246.982 122.503C247.049 124.261 247.353 126.002 247.886 127.679C247.455 127.791 247.004 127.809 246.565 127.731C246.127 127.653 245.71 127.481 245.344 127.227L246.982 122.503Z" fill="#A02724"/>
<path d="M248.835 119.034C248.754 119.023 248.679 118.988 248.618 118.933C248.558 118.879 248.515 118.808 248.496 118.729C248.372 118.218 248.134 117.742 247.799 117.337C247.464 116.932 247.042 116.608 246.563 116.39C246.461 116.352 246.377 116.274 246.33 116.175C246.284 116.076 246.278 115.962 246.315 115.859C246.333 115.807 246.36 115.759 246.397 115.718C246.434 115.678 246.478 115.645 246.528 115.621C246.577 115.598 246.631 115.585 246.686 115.583C246.74 115.581 246.795 115.59 246.846 115.61C247.461 115.877 248.005 116.286 248.433 116.802C248.86 117.318 249.161 117.928 249.309 118.582C249.323 118.635 249.326 118.691 249.318 118.746C249.31 118.8 249.291 118.852 249.263 118.9C249.234 118.947 249.197 118.988 249.152 119.021C249.108 119.054 249.058 119.077 249.004 119.091L248.835 119.034Z" fill="#263238"/>
<path d="M223.432 124.481C223.59 129.825 223.048 139.442 218.912 142.165C218.912 142.165 219.466 147.657 229.082 149.521C239.648 151.567 234.992 145.284 234.992 145.284C229.455 142.798 230.303 138.572 231.964 134.775L223.432 124.481Z" fill="#B55B52"/>
<path d="M254.836 161.059C255.786 163.646 256.87 166.449 258.023 169.104C259.176 171.76 260.283 174.449 261.628 177.014C262.972 179.579 264.283 182.156 265.707 184.653C266.442 185.885 267.176 187.117 267.967 188.292C268.351 188.902 268.747 189.49 269.165 190.043L269.775 190.902L270.08 191.343L270.238 191.557L270.34 191.67C271.075 192.506 271.919 193.24 272.849 193.851C273.969 194.616 275.131 195.318 276.329 195.953C278.804 197.287 281.459 198.496 284.16 199.637C286.861 200.778 289.618 201.897 292.409 202.88C295.2 203.863 298.059 204.903 300.805 205.863L299.754 210.214C293.698 209.201 287.715 207.793 281.843 205.999C278.837 205.082 275.887 203.992 273.007 202.733C271.497 202.063 270.025 201.308 268.6 200.473C266.946 199.53 265.448 198.337 264.159 196.936L263.888 196.631L263.696 196.394L263.323 195.931L262.577 194.981C262.068 194.36 261.583 193.727 261.131 193.083C260.17 191.806 259.289 190.495 258.419 189.173C256.704 186.551 255.124 183.843 253.684 181.06C252.249 178.291 250.893 175.5 249.65 172.653C248.407 169.805 247.288 167.003 246.26 163.884L254.836 161.059Z" fill="#B55B52"/>
<path d="M299.313 205.841L305.98 203.264L305.652 210.96C305.652 210.96 300.251 212.395 297.742 209.672L299.313 205.841Z" fill="#B55B52"/>
<path d="M311.009 205.909L313.291 210.824L305.652 210.96L305.98 203.264L311.009 205.909Z" fill="#B55B52"/>
<path d="M200.438 398.766L209.263 399.421L211.884 379.16L203.059 378.505L200.438 398.766Z" fill="#B55B52"/>
<path d="M130.535 352.933L136.298 359.781L153.406 348.786L147.643 341.938L130.535 352.933Z" fill="#B55B52"/>
<path d="M138.988 358.899L134.344 349.972C134.27 349.817 134.142 349.695 133.983 349.628C133.825 349.561 133.648 349.555 133.485 349.611L126.106 352.164C125.921 352.239 125.754 352.352 125.615 352.496C125.477 352.64 125.371 352.811 125.303 352.999C125.236 353.187 125.209 353.387 125.225 353.586C125.241 353.785 125.298 353.978 125.394 354.153C127.067 357.238 128.027 358.673 130.061 362.572C131.327 364.979 132.92 368.64 134.649 371.973C136.378 375.307 139.677 373.827 139.248 372.278C137.304 365.374 138.593 363.464 139.248 360.47C139.341 359.932 139.25 359.378 138.988 358.899Z" fill="#263238"/>
<path d="M209.816 398.167H199.895C199.724 398.165 199.558 398.224 199.427 398.334C199.297 398.444 199.21 398.597 199.183 398.766L197.849 406.608C197.822 406.803 197.837 407.003 197.893 407.192C197.949 407.381 198.045 407.556 198.175 407.705C198.304 407.854 198.464 407.973 198.644 408.055C198.824 408.137 199.019 408.179 199.217 408.179C202.686 408.122 204.347 407.919 208.709 407.919C211.398 407.919 216.935 408.201 220.641 408.201C224.348 408.201 224.642 404.54 223.105 404.201C216.223 402.721 213.556 400.664 211.274 398.709C210.871 398.355 210.352 398.162 209.816 398.167Z" fill="#263238"/>
<path opacity="0.2" d="M211.884 379.16L210.426 390.426L201.635 389.545L203.059 378.516L211.884 379.16Z" fill="black"/>
<path opacity="0.2" d="M147.644 341.938L153.407 348.786L146.321 353.34L140.344 346.627L147.644 341.938Z" fill="black"/>
<path d="M201.137 194.981L236.528 201.84C253.252 152.606 249.252 150.99 249.252 150.99C246.652 149.585 243.969 148.34 241.218 147.261L240.732 147.08C238.472 146.256 237.997 146.131 234.969 145.25C229.748 144.018 224.901 142.99 218.9 142.142L217.77 141.984C216.64 141.848 215.601 141.735 214.561 141.634C213.861 141.555 213.16 141.51 212.493 141.464L210.233 141.34C206.369 141.148 203.6 141.204 203.6 141.204C205.544 171.952 204.063 180.8 201.137 194.981Z" fill="#1882CD"/>
<path opacity="0.7" d="M201.137 194.981L236.528 201.84C253.252 152.606 249.252 150.99 249.252 150.99C246.652 149.585 243.969 148.34 241.218 147.261L240.732 147.08C238.472 146.256 237.997 146.131 234.969 145.25C229.748 144.018 224.901 142.99 218.9 142.142L217.77 141.984C216.64 141.848 215.601 141.735 214.561 141.634C213.861 141.555 213.16 141.51 212.493 141.464L210.233 141.34C206.369 141.148 203.6 141.204 203.6 141.204C205.544 171.952 204.063 180.8 201.137 194.981Z" fill="white"/>
<path opacity="0.2" d="M244.169 162.482L240.971 161.963C240.971 166.178 242.575 173.41 244.135 178.009C245.457 173.489 246.485 169.771 247.265 166.641L244.169 162.482Z" fill="black"/>
<path d="M248.022 150.391C253.254 152.064 257.062 162.415 258.486 166.878L248.316 178.822C248.316 178.822 237.897 163.85 239.558 159.205C241.186 154.369 245.491 149.566 248.022 150.391Z" fill="#1882CD"/>
<path opacity="0.7" d="M248.022 150.391C253.254 152.064 257.062 162.415 258.486 166.878L248.316 178.822C248.316 178.822 237.897 163.85 239.558 159.205C241.186 154.369 245.491 149.566 248.022 150.391Z" fill="white"/>
<path d="M251.411 112.175C250.36 115.26 245.761 116.491 241.185 114.943C236.608 113.395 233.716 109.61 234.766 106.525C235.817 103.44 240.416 102.208 244.936 103.768C249.456 105.327 252.451 109.09 251.411 112.175Z" fill="#263238"/>
<path d="M224.869 111.327C222.519 119.735 221.343 123.238 224.033 129.023C228.078 137.735 238.904 139.103 243.717 131.634C248.045 124.921 251.164 112.299 244.249 105.982C242.789 104.572 240.987 103.566 239.02 103.065C237.053 102.564 234.99 102.584 233.033 103.124C231.077 103.663 229.295 104.704 227.863 106.142C226.431 107.581 225.399 109.368 224.869 111.327Z" fill="#B55B52"/>
<path d="M237.999 101.508C234.609 103.451 227.41 91.2812 218.472 101.508C212.076 108.841 216.156 119.588 216.156 119.588C216.156 119.588 211.059 110.627 206.991 115C201.68 120.65 207.172 140.866 224.687 139.476C242.202 138.086 240.507 123.87 240.507 123.87C240.507 123.87 248.711 115.531 248.304 108.05C247.999 102.446 243.649 98.3098 237.999 101.508Z" fill="#263238"/>
<path d="M240.124 118.548C239.687 120.113 239.742 121.773 240.282 123.305C241.005 125.464 242.666 125.475 243.548 123.983C244.429 122.492 244.915 119.904 243.661 118.164C242.406 116.424 240.689 116.819 240.124 118.548Z" fill="#B55B52"/>
<path d="M227.127 200.01C227.127 200.01 223.353 213.095 218.505 230.362C215.285 241.865 211.579 255.222 208.2 267.799C206.268 274.997 204.448 281.935 202.878 288.138C193.996 323.225 149.7 353.385 149.7 353.385L141.123 343.949C141.123 343.949 170.887 318.886 179.543 286.15C197.024 219.694 187.193 208.485 201.126 194.981L227.127 200.01Z" fill="#263238"/>
<path opacity="0.2" d="M223.309 211.739C221.998 216.813 220.348 223.22 218.529 230.384C215.308 241.887 211.602 255.244 208.223 267.821C206.777 251.775 205.963 222.271 217.772 213.095C220.1 211.31 221.941 210.937 223.309 211.739Z" fill="black"/>
<path d="M150.435 354.741L139.723 342.955L142.966 339.701L156.108 352.085L150.435 354.741Z" fill="#1882CD"/>
<path opacity="0.7" d="M150.435 354.741L139.723 342.955L142.966 339.701L156.108 352.085L150.435 354.741Z" fill="white"/>
<path d="M140.605 363.69C140.497 363.688 140.39 363.669 140.289 363.634C139.238 363.25 138.571 361.238 138.266 360.074C138.256 360.035 138.258 359.993 138.272 359.955C138.286 359.916 138.312 359.883 138.345 359.86C138.378 359.836 138.417 359.823 138.458 359.823C138.499 359.823 138.538 359.836 138.571 359.86C138.887 360.04 141.667 361.668 141.724 362.809C141.733 362.933 141.709 363.058 141.653 363.169C141.597 363.28 141.512 363.375 141.407 363.442C141.176 363.614 140.893 363.702 140.605 363.69ZM138.808 360.47C139.272 361.995 139.859 363.024 140.435 363.227C140.559 363.265 140.689 363.272 140.816 363.246C140.942 363.22 141.06 363.163 141.159 363.08C141.306 362.978 141.317 362.877 141.306 362.809C141.249 362.221 139.904 361.159 138.808 360.47Z" fill="#1882CD"/>
<path d="M235.965 201.84C235.965 201.84 238.225 271.697 233.231 298.015C228.1 325.44 212.439 387.59 212.439 387.59L199.715 385.951C199.715 385.951 207.76 323.056 211.184 295.868C214.902 266.217 210.054 196.778 210.054 196.778L235.965 201.84Z" fill="#263238"/>
<path d="M215.174 388.369L197.037 386.03L197.252 381.714L216.993 382.572L215.174 388.369Z" fill="#1882CD"/>
<path opacity="0.7" d="M215.174 388.369L197.037 386.03L197.252 381.714L216.993 382.572L215.174 388.369Z" fill="white"/>
<path d="M141.034 360.956C140.095 360.91 139.179 360.652 138.356 360.199C138.325 360.179 138.299 360.153 138.281 360.121C138.264 360.09 138.254 360.054 138.254 360.018C138.259 359.981 138.272 359.946 138.291 359.915C138.31 359.884 138.336 359.857 138.367 359.837C138.469 359.837 140.627 358.65 141.87 359.114C142.026 359.17 142.167 359.26 142.284 359.377C142.402 359.494 142.492 359.636 142.548 359.792C142.622 359.942 142.644 360.113 142.609 360.277C142.574 360.441 142.485 360.589 142.356 360.696C141.954 360.922 141.491 361.013 141.034 360.956ZM138.921 360.04C139.904 360.492 141.621 360.741 142.096 360.368C142.175 360.3 142.254 360.198 142.096 359.939C142.063 359.839 142.007 359.748 141.932 359.673C141.857 359.599 141.767 359.542 141.667 359.509C140.718 359.403 139.761 359.588 138.921 360.04Z" fill="#1882CD"/>
<path d="M213.093 399.704C212.162 399.684 211.235 399.578 210.324 399.387C210.281 399.382 210.241 399.363 210.21 399.332C210.179 399.301 210.16 399.261 210.155 399.218C210.148 399.175 210.155 399.13 210.176 399.092C210.196 399.053 210.228 399.022 210.268 399.003C210.675 398.788 214.245 396.992 215.308 397.59C215.409 397.646 215.494 397.728 215.553 397.827C215.613 397.927 215.645 398.04 215.647 398.155C215.669 398.344 215.643 398.535 215.572 398.71C215.501 398.886 215.386 399.041 215.24 399.161C214.605 399.577 213.849 399.768 213.093 399.704ZM211.025 399.093C212.968 399.421 214.415 399.331 214.969 398.856C215.064 398.773 215.137 398.667 215.182 398.549C215.228 398.431 215.243 398.304 215.228 398.178C215.232 398.132 215.222 398.087 215.2 398.047C215.178 398.007 215.144 397.974 215.104 397.952C214.528 397.636 212.494 398.393 211.025 399.093Z" fill="#1882CD"/>
<path d="M210.372 399.398C210.331 399.409 210.288 399.409 210.247 399.398C210.217 399.377 210.193 399.348 210.177 399.314C210.161 399.281 210.154 399.243 210.157 399.206C210.157 399.048 210.598 395.229 212.733 395.455C213.298 395.511 213.468 395.794 213.502 396.031C213.66 397.025 211.524 398.946 210.451 399.421L210.372 399.398ZM212.564 395.816C211.298 395.816 210.79 397.907 210.631 398.811C211.761 398.155 213.185 396.653 213.095 396.054C213.095 396.054 213.095 395.862 212.688 395.828L212.564 395.816Z" fill="#1882CD"/>
<path d="M200.913 192.823L198.8 195.659C198.642 195.885 198.891 196.191 199.297 196.27L236.418 203.456C236.734 203.456 237.028 203.456 237.073 203.219L237.921 200.123C237.921 199.92 237.729 199.671 237.378 199.603L201.535 192.665C201.426 192.636 201.312 192.635 201.203 192.663C201.094 192.691 200.995 192.746 200.913 192.823Z" fill="#1882CD"/>
<path d="M205.071 197.75L204.11 197.557C203.918 197.557 203.794 197.399 203.828 197.286L204.958 193.275C204.958 193.162 205.184 193.094 205.365 193.128L206.325 193.32C206.517 193.32 206.653 193.478 206.619 193.591L205.489 197.603C205.444 197.75 205.263 197.75 205.071 197.75Z" fill="#263238"/>
<path d="M229.309 202.485L228.349 202.304C228.157 202.304 228.032 202.134 228.066 202.021L229.196 198.021C229.196 197.897 229.411 197.829 229.603 197.874L230.563 198.055C230.744 198.055 230.88 198.225 230.846 198.338L229.716 202.338C229.682 202.462 229.501 202.53 229.309 202.485Z" fill="#263238"/>
</svg>
