<svg width="200" height="149" viewBox="0 0 200 149" fill="none" xmlns="http://www.w3.org/2000/svg">
<path d="M199.181 130.367H0.0859375V130.467H199.181V130.367Z" fill="#EBEBEB"/>
<path d="M94.4571 112.608H17.5705C16.9681 112.607 16.3908 112.367 15.9653 111.941C15.5398 111.515 15.3008 110.937 15.3008 110.335V2.25376C15.306 1.65489 15.5473 1.08227 15.9723 0.660287C16.3973 0.2383 16.9716 0.00102589 17.5705 0H94.4571C95.0601 0 95.6384 0.239547 96.0648 0.665942C96.4912 1.09234 96.7307 1.67065 96.7307 2.27367V110.335C96.7307 110.938 96.4912 111.516 96.0648 111.942C95.6384 112.369 95.0601 112.608 94.4571 112.608ZM17.5705 0.0796384C16.9945 0.0806932 16.4426 0.310216 16.0357 0.717829C15.6288 1.12544 15.4003 1.67783 15.4003 2.25376V110.335C15.4003 110.911 15.6288 111.463 16.0357 111.871C16.4426 112.278 16.9945 112.508 17.5705 112.509H94.4571C95.0333 112.508 95.5857 112.278 95.9932 111.871C96.4007 111.463 96.6301 110.911 96.6312 110.335V2.25376C96.6301 1.67747 96.4007 1.12508 95.9932 0.717586C95.5857 0.310087 95.0333 0.080691 94.4571 0.0796384H17.5705Z" fill="#EBEBEB"/>
<path d="M180.59 112.608H103.699C103.097 112.607 102.519 112.367 102.093 111.941C101.667 111.515 101.427 110.937 101.426 110.335V2.25376C101.432 1.65453 101.674 1.08191 102.1 0.660038C102.525 0.238161 103.1 0.0010147 103.699 0H180.59C181.188 0.00207238 181.762 0.23981 182.186 0.661684C182.61 1.08356 182.85 1.65558 182.856 2.25376V110.335C182.856 110.936 182.617 111.513 182.193 111.94C181.768 112.366 181.192 112.606 180.59 112.608ZM103.699 0.0796384C103.123 0.080691 102.571 0.310087 102.163 0.717586C101.756 1.12508 101.526 1.67747 101.525 2.25376V110.335C101.526 110.911 101.756 111.463 102.163 111.871C102.571 112.278 103.123 112.508 103.699 112.509H180.59C181.166 112.508 181.719 112.278 182.126 111.871C182.534 111.463 182.763 110.911 182.764 110.335V2.25376C182.763 1.67747 182.534 1.12508 182.126 0.717586C181.719 0.310087 181.166 0.080691 180.59 0.0796384H103.699Z" fill="#EBEBEB"/>
<path d="M179.232 136.775H168.879V136.875H179.232V136.775Z" fill="#EBEBEB"/>
<path d="M141.854 137.857H123.924V137.957H141.854V137.857Z" fill="#EBEBEB"/>
<path d="M168.481 133.08H144.275V133.18H168.481V133.08Z" fill="#EBEBEB"/>
<path d="M28.6318 133.748H20.9746V133.848H28.6318V133.748Z" fill="#EBEBEB"/>
<path d="M54.1956 133.748H32.1797V133.848H54.1956V133.748Z" fill="#EBEBEB"/>
<path d="M97.2997 135.428H67.6465V135.527H97.2997V135.428Z" fill="#EBEBEB"/>
<path d="M150.836 128.328H154.021V69.376H150.836V128.328Z" fill="#F0F0F0"/>
<path d="M135.55 130.359H153.186V128.325H135.55V130.359Z" fill="#F0F0F0"/>
<path d="M150.842 69.373H134.707V128.325H150.842V69.373Z" fill="#F5F5F5"/>
<path d="M149.12 100.074H136.426V110.602H149.12V100.074Z" fill="#F0F0F0"/>
<path d="M149.12 113.852H136.426V124.38H149.12V113.852Z" fill="#F0F0F0"/>
<path d="M141.081 106.059H144.462C144.721 106.059 144.932 105.848 144.932 105.589V105.083C144.932 104.824 144.721 104.613 144.462 104.613H141.081C140.822 104.613 140.611 104.824 140.611 105.083V105.589C140.611 105.848 140.822 106.059 141.081 106.059Z" fill="#F5F5F5"/>
<path d="M141.081 119.836H144.462C144.721 119.836 144.932 119.626 144.932 119.366V118.86C144.932 118.601 144.721 118.391 144.462 118.391H141.081C140.822 118.391 140.611 118.601 140.611 118.86V119.366C140.611 119.626 140.822 119.836 141.081 119.836Z" fill="#F5F5F5"/>
<path d="M149.12 72.627H136.426V83.1551H149.12V72.627Z" fill="#F0F0F0"/>
<path d="M149.12 86.291H136.426V96.8192H149.12V86.291Z" fill="#F0F0F0"/>
<path d="M141.081 78.6113H144.462C144.721 78.6113 144.932 78.401 144.932 78.1415V77.6358C144.932 77.3763 144.721 77.1659 144.462 77.1659H141.081C140.822 77.1659 140.611 77.3763 140.611 77.6358V78.1415C140.611 78.401 140.822 78.6113 141.081 78.6113Z" fill="#F5F5F5"/>
<path d="M141.081 92.2812H144.462C144.721 92.2812 144.932 92.0709 144.932 91.8114V91.3057C144.932 91.0462 144.721 90.8358 144.462 90.8358H141.081C140.822 90.8358 140.611 91.0462 140.611 91.3057V91.8114C140.611 92.0709 140.822 92.2812 141.081 92.2812Z" fill="#F5F5F5"/>
<path d="M168.496 128.328H178.053V69.376H168.496V128.328Z" fill="#F0F0F0"/>
<path d="M153.197 130.359H177.068V128.325H153.197V130.359Z" fill="#F0F0F0"/>
<path d="M168.496 69.373H152.361V128.325H168.496V69.373Z" fill="#F5F5F5"/>
<path d="M166.776 100.074H154.082V110.602H166.776V100.074Z" fill="#F0F0F0"/>
<path d="M166.776 113.852H154.082V124.38H166.776V113.852Z" fill="#F0F0F0"/>
<path d="M158.737 106.059H162.118C162.378 106.059 162.588 105.848 162.588 105.589V105.083C162.588 104.824 162.378 104.613 162.118 104.613H158.737C158.478 104.613 158.268 104.824 158.268 105.083V105.589C158.268 105.848 158.478 106.059 158.737 106.059Z" fill="#F5F5F5"/>
<path d="M158.737 119.836H162.118C162.378 119.836 162.588 119.626 162.588 119.366V118.86C162.588 118.601 162.378 118.391 162.118 118.391H158.737C158.478 118.391 158.268 118.601 158.268 118.86V119.366C158.268 119.626 158.478 119.836 158.737 119.836Z" fill="#F5F5F5"/>
<path d="M166.776 72.627H154.082V83.1551H166.776V72.627Z" fill="#F0F0F0"/>
<path d="M166.776 86.291H154.082V96.8192H166.776V86.291Z" fill="#F0F0F0"/>
<path d="M158.737 78.6113H162.118C162.378 78.6113 162.588 78.401 162.588 78.1415V77.6358C162.588 77.3763 162.378 77.1659 162.118 77.1659H158.737C158.478 77.1659 158.268 77.3763 158.268 77.6358V78.1415C158.268 78.401 158.478 78.6113 158.737 78.6113Z" fill="#F5F5F5"/>
<path d="M158.737 92.2812H162.118C162.378 92.2812 162.588 92.0709 162.588 91.8114V91.3057C162.588 91.0462 162.378 90.8358 162.118 90.8358H158.737C158.478 90.8358 158.268 91.0462 158.268 91.3057V91.8114C158.268 92.0709 158.478 92.2812 158.737 92.2812Z" fill="#F5F5F5"/>
<path d="M116.608 57.0684L170.248 57.0684V9.97835L116.608 9.97835V57.0684Z" fill="#E6E6E6"/>
<path d="M110.86 8.14648H173.722C173.864 8.14648 173.999 8.2027 174.099 8.30277C174.199 8.40283 174.256 8.53855 174.256 8.68006C174.255 8.82088 174.198 8.95558 174.098 9.05478C173.998 9.15399 173.863 9.20966 173.722 9.20965H110.86C110.72 9.20861 110.585 9.15248 110.486 9.05339C110.387 8.95429 110.331 8.8202 110.33 8.68006C110.33 8.53924 110.386 8.40412 110.485 8.30417C110.584 8.20422 110.719 8.14754 110.86 8.14648Z" fill="#E6E6E6"/>
<path d="M114.335 57.0684L169.189 57.0684V9.97835L114.335 9.97835V57.0684Z" fill="#F0F0F0"/>
<path d="M116.608 57.0684H170.248V58.5775H115.039L116.608 57.0684Z" fill="#E6E6E6"/>
<path d="M110.54 57.0684H165.394L163.825 58.5775H108.971L110.54 57.0684Z" fill="#F0F0F0"/>
<path d="M166 53.883V13.1641L117.52 13.1641V53.883H166Z" fill="#FAFAFA"/>
<path d="M154.994 53.883L136.291 13.1641H127.463L146.166 53.883H154.994Z" fill="white"/>
<path d="M144.27 53.883L125.567 13.1641H122.123L140.826 53.883H144.27Z" fill="white"/>
<path d="M117.922 53.883V13.1641H117.516V53.883H117.922Z" fill="#E6E6E6"/>
<g opacity="0.4">
<path d="M165.96 46.0508H171.443V7.19138H165.96V46.0508Z" fill="#F0F0F0"/>
<path d="M163.827 46.0508H168.1V7.19138H163.827V46.0508Z" fill="#E6E6E6"/>
<path d="M160.482 46.0508H165.965V7.19138H160.482V46.0508Z" fill="#F0F0F0"/>
<path d="M158.343 46.0508H162.615V7.19138H158.343V46.0508Z" fill="#E6E6E6"/>
<path d="M154.993 46.0508H160.477V7.19138H154.993V46.0508Z" fill="#F0F0F0"/>
</g>
<g opacity="0.4">
<path d="M119.561 46.0508H122.723V7.19138H119.561V46.0508Z" fill="#F0F0F0"/>
<path d="M118.328 46.0508H120.789V7.19138H118.328V46.0508Z" fill="#E6E6E6"/>
<path d="M116.397 46.0508H119.559V7.19138H116.397V46.0508Z" fill="#F0F0F0"/>
<path d="M115.172 46.0508H117.633V7.19138H115.172V46.0508Z" fill="#E6E6E6"/>
<path d="M113.237 46.0508H116.398V7.19138H113.237V46.0508Z" fill="#F0F0F0"/>
</g>
<path d="M65.4766 38.5044H73.0661L72.1701 19.2559H65.4766V38.5044Z" fill="#F5F5F5"/>
<path d="M77.3548 39.5449L78.9914 48.0941H77.3548L67.3164 39.5449H77.3548Z" fill="#F5F5F5"/>
<path d="M78.9915 39.5449V48.0941L68.9531 39.5449H78.9915Z" fill="#E6E6E6"/>
<path d="M37.9856 39.5449L39.6222 48.0941H37.9856L27.9473 39.5449H37.9856Z" fill="#F5F5F5"/>
<path d="M39.6224 39.5449V48.0941L29.584 39.5449H39.6224Z" fill="#E6E6E6"/>
<path d="M86.3617 38.5332H75.4434V39.7676H86.3617V38.5332Z" fill="#E6E6E6"/>
<path d="M21.162 39.7676L75.4434 39.7676V38.5332L21.162 38.5332V39.7676Z" fill="#F5F5F5"/>
<path d="M54.3242 38.5057H70.6182L72.633 15.1797H56.3391L54.3242 38.5057Z" fill="#E6E6E6"/>
<path d="M53.4785 38.5057H69.7725L71.7873 15.1797H55.4934L53.4785 38.5057Z" fill="#F0F0F0"/>
<path d="M68.4086 35.9212L70.2523 17.7598H56.8651L55.0215 35.9212H68.4086Z" fill="white"/>
<path d="M47.0273 38.5058H52.2556L51.6384 25.25H47.0273V38.5058Z" fill="#E0E0E0"/>
<path d="M39.3516 38.5044H50.5686L51.9583 22.4414H40.7373L39.3516 38.5044Z" fill="#F0F0F0"/>
<path d="M38.7695 38.5044H49.9905L51.3762 22.4414H40.1552L38.7695 38.5044Z" fill="#F5F5F5"/>
<path d="M49.0482 36.7258L50.3144 24.2227H41.1003L39.8301 36.7258H49.0482Z" fill="#E0E0E0"/>
<path d="M104.555 72.2481C104.592 72.6933 104.496 73.1395 104.279 73.5302C104.063 73.921 103.735 74.2387 103.338 74.4432C102.941 74.6476 102.492 74.7297 102.048 74.6789C101.604 74.6281 101.185 74.4468 100.845 74.1579C100.504 73.869 100.256 73.4855 100.134 73.056C100.011 72.6264 100.018 72.1701 100.155 71.7448C100.292 71.3195 100.552 70.9443 100.902 70.6668C101.252 70.3892 101.676 70.2217 102.122 70.1855C102.417 70.1609 102.714 70.1949 102.996 70.2853C103.278 70.3757 103.54 70.5208 103.766 70.7124C103.992 70.904 104.178 71.1382 104.313 71.4017C104.448 71.6652 104.53 71.9528 104.555 72.2481Z" fill="#E0E0E0"/>
<path d="M108.748 73.4255C108.785 73.8707 108.689 74.3169 108.473 74.7077C108.256 75.0984 107.929 75.4161 107.531 75.6206C107.134 75.8251 106.685 75.9071 106.241 75.8563C105.798 75.8055 105.379 75.6242 105.038 75.3353C104.697 75.0465 104.45 74.663 104.327 74.2334C104.204 73.8039 104.212 73.3476 104.349 72.9223C104.485 72.497 104.745 72.1218 105.095 71.8442C105.445 71.5666 105.87 71.3991 106.315 71.3629C106.911 71.3144 107.502 71.5044 107.958 71.8911C108.414 72.2778 108.698 72.8296 108.748 73.4255Z" fill="#E0E0E0"/>
<path d="M111.778 72.0718C111.814 72.5169 111.717 72.9627 111.5 73.353C111.283 73.7433 110.955 74.0604 110.558 74.2643C110.161 74.4681 109.712 74.5496 109.268 74.4983C108.824 74.447 108.406 74.2653 108.066 73.9762C107.725 73.6871 107.478 73.3036 107.356 72.8741C107.234 72.4446 107.241 71.9884 107.378 71.5634C107.515 71.1383 107.775 70.7633 108.125 70.486C108.475 70.2086 108.899 70.0413 109.345 70.0052C109.941 69.9578 110.532 70.1487 110.988 70.536C111.444 70.9233 111.728 71.4755 111.778 72.0718Z" fill="#E0E0E0"/>
<path d="M114.977 72.9161C115.012 73.3602 114.915 73.8048 114.698 74.1938C114.481 74.5827 114.154 74.8987 113.757 75.1017C113.361 75.3047 112.913 75.3856 112.471 75.3343C112.028 75.283 111.611 75.1017 111.271 74.8133C110.932 74.5249 110.685 74.1424 110.563 73.714C110.441 73.2856 110.448 72.8307 110.584 72.4065C110.721 71.9824 110.979 71.6082 111.328 71.331C111.677 71.0539 112.1 70.8863 112.544 70.8495C112.84 70.825 113.137 70.859 113.419 70.9497C113.702 71.0404 113.963 71.1859 114.189 71.3778C114.415 71.5698 114.601 71.8045 114.736 72.0685C114.872 72.3325 114.953 72.6205 114.977 72.9161Z" fill="#E0E0E0"/>
<path d="M117.846 73.2676C117.846 73.2676 117.583 79.5351 107.517 79.5351C97.4508 79.5351 97.1641 73.2676 97.1641 73.2676H117.846Z" fill="#F0F0F0"/>
<path d="M23.9305 130.367H27.5898L27.5898 79.5461H23.9305L23.9305 130.367Z" fill="#E6E6E6"/>
<path d="M22.9532 130.367H25.1074L25.1074 79.5461H22.9532L22.9532 130.367Z" fill="#F0F0F0"/>
<path d="M74.2331 79.5469H22.2852V83.3576H74.2331V79.5469Z" fill="#F0F0F0"/>
<path d="M123.429 130.367H127.088V79.5461H123.429V130.367Z" fill="#E6E6E6"/>
<path d="M122.744 130.367H124.898V79.5461H122.744V130.367Z" fill="#F0F0F0"/>
<path d="M127.741 79.5469H75.793V83.3576H127.741V79.5469Z" fill="#E6E6E6"/>
<path d="M74.5399 130.367H78.1992V79.5461H74.5399V130.367Z" fill="#E6E6E6"/>
<path d="M73.5645 130.367H75.7188V79.5461H73.5645V130.367Z" fill="#F0F0F0"/>
<path d="M86.5485 62.6426H59.4278L54.5938 78.6578H81.7185L86.5485 62.6426Z" fill="#E6E6E6"/>
<path d="M81.7186 78.6582L81.6111 79.5462H54.4863L54.5938 78.6582H81.7186Z" fill="#E6E6E6"/>
<path d="M85.7165 62.6426H58.5918L53.7617 78.6578H80.8825L85.7165 62.6426Z" fill="#F0F0F0"/>
<path d="M80.352 77.9289L84.7401 63.375H59.1245L54.7324 77.9289H80.352Z" fill="white"/>
<path d="M73.8196 78.6582L73.7081 79.5462H43.8398L43.9474 78.6582H73.8196Z" fill="#F0F0F0"/>
<path d="M99.6329 148.349C142.272 148.349 176.838 146.331 176.838 143.841C176.838 141.352 142.272 139.334 99.6329 139.334C56.9937 139.334 22.4277 141.352 22.4277 143.841C22.4277 146.331 56.9937 148.349 99.6329 148.349Z" fill="#F5F5F5"/>
<path d="M150.423 21.5628H104.596C103.024 21.5887 101.518 22.1995 100.372 23.2759C99.2266 24.3524 98.5233 25.8172 98.3997 27.3844L91.2721 137.11C91.214 137.857 91.3121 138.608 91.5601 139.315C91.8081 140.022 92.2006 140.67 92.7126 141.217C93.2246 141.764 93.8449 142.199 94.534 142.493C95.2232 142.788 95.966 142.936 96.7154 142.927H142.559C144.131 142.902 145.636 142.293 146.782 141.217C147.928 140.141 148.631 138.677 148.755 137.11L153.868 58.2441C154.085 58.1684 154.276 58.0315 154.417 57.8499C154.558 57.6684 154.644 57.4499 154.664 57.2208L155.58 43.1089C155.596 42.8897 155.54 42.6712 155.421 42.4866C155.301 42.3019 155.125 42.1611 154.919 42.0856L155.871 27.3844C155.929 26.6367 155.83 25.8852 155.582 25.1775C155.334 24.4699 154.941 23.8217 154.429 23.2741C153.917 22.7265 153.296 22.2916 152.606 21.997C151.917 21.7023 151.173 21.5545 150.423 21.5628Z" fill="#1882CD"/>
<path d="M94.689 49.9735H95.5889C95.8673 49.9685 96.134 49.8602 96.3371 49.6696C96.5402 49.479 96.6652 49.2198 96.6879 48.9422L97.0861 43.0489C97.096 42.9164 97.0783 42.7831 97.034 42.6578C96.9898 42.5324 96.9199 42.4176 96.8289 42.3206C96.738 42.2236 96.6278 42.1466 96.5055 42.0945C96.3832 42.0423 96.2514 42.0162 96.1185 42.0176H95.2225C94.9438 42.0217 94.6766 42.1298 94.4734 42.3205C94.2701 42.5113 94.1453 42.771 94.1235 43.0489L93.7253 48.9422C93.7154 49.0744 93.733 49.2073 93.7771 49.3324C93.8211 49.4575 93.8906 49.5721 93.9811 49.669C94.0716 49.7659 94.1813 49.843 94.3031 49.8954C94.425 49.9478 94.5563 49.9744 94.689 49.9735Z" fill="#1882CD"/>
<path d="M94.0061 60.493H94.902C95.1815 60.488 95.4492 60.3793 95.6531 60.188C95.8569 59.9966 95.9823 59.7364 96.005 59.4577L96.4032 53.5685C96.4131 53.4359 96.3954 53.3027 96.3512 53.1773C96.3069 53.0519 96.2371 52.9371 96.1461 52.8401C96.0551 52.7432 95.945 52.6662 95.8227 52.614C95.7004 52.5619 95.5686 52.5357 95.4356 52.5372H94.5397C94.2605 52.5412 93.9929 52.6491 93.7889 52.8397C93.585 53.0304 93.4594 53.2902 93.4367 53.5685L93.0385 59.4577C93.0273 59.5908 93.0442 59.7247 93.088 59.8508C93.1317 59.9769 93.2015 60.0925 93.2926 60.19C93.3838 60.2876 93.4944 60.3649 93.6173 60.4171C93.7401 60.4693 93.8726 60.4951 94.0061 60.493Z" fill="#1882CD"/>
<path d="M140.121 142.927H94.2935C93.5441 142.936 92.8013 142.788 92.1122 142.493C91.423 142.199 90.8027 141.764 90.2907 141.217C89.7787 140.67 89.3862 140.022 89.1382 139.315C88.8902 138.608 88.7921 137.857 88.8502 137.11L95.9619 27.3843C96.0865 25.8168 96.7906 24.3519 97.9369 23.2756C99.0832 22.1992 100.589 21.5885 102.162 21.5628H147.985C148.735 21.555 149.478 21.7033 150.167 21.9981C150.856 22.293 151.476 22.728 151.988 23.2755C152.5 23.823 152.893 24.4711 153.141 25.1784C153.389 25.8858 153.487 26.637 153.429 27.3843L146.317 137.11C146.193 138.676 145.49 140.141 144.344 141.217C143.198 142.292 141.693 142.902 140.121 142.927Z" fill="#263238"/>
<path opacity="0.2" d="M120.323 138.262C121.928 136.708 122.049 134.229 120.593 132.725C119.137 131.221 116.655 131.261 115.049 132.815C113.444 134.369 113.323 136.848 114.779 138.353C116.235 139.857 118.717 139.816 120.323 138.262Z" fill="white"/>
<path d="M144.263 128.684H92.1679C91.9905 128.684 91.815 128.648 91.6523 128.577C91.4896 128.506 91.343 128.403 91.2218 128.274C91.1005 128.144 91.007 127.991 90.9472 127.824C90.8873 127.657 90.8624 127.48 90.8738 127.303L96.9701 33.2024C96.997 32.8774 97.1449 32.5743 97.3845 32.3531C97.6242 32.1319 97.9381 32.0087 98.2642 32.0078H150.363C150.541 32.008 150.716 32.0445 150.879 32.1152C151.042 32.1858 151.188 32.2891 151.31 32.4185C151.431 32.548 151.524 32.701 151.584 32.868C151.644 33.035 151.669 33.2125 151.658 33.3895L145.557 127.47C145.536 127.799 145.391 128.107 145.15 128.333C144.91 128.558 144.593 128.684 144.263 128.684Z" fill="white"/>
<path opacity="0.2" d="M129.728 91.596C135.555 85.9549 135.994 76.9551 130.707 71.4944C125.421 66.0337 116.412 66.1799 110.584 71.821C104.757 77.4621 104.319 86.4619 109.605 91.9226C114.891 97.3833 123.9 97.2371 129.728 91.596Z" fill="#1882CD"/>
<path opacity="0.2" d="M118.747 103.634C106.654 103.634 97.4517 93.7949 98.2361 81.7019C99.0205 69.6088 109.493 59.7695 121.59 59.7695C133.687 59.7695 142.885 69.6088 142.101 81.7019C141.316 93.7949 130.828 103.634 118.747 103.634ZM121.534 60.1677C109.66 60.1677 99.3749 69.8278 98.6064 81.7019C97.8379 93.5759 106.869 103.236 118.743 103.236C130.617 103.236 140.902 93.5759 141.675 81.7019C142.447 69.8278 133.424 60.1677 121.534 60.1677Z" fill="#1882CD"/>
<path d="M116.756 88.5949L115.561 86.2894C112.973 81.2682 107.012 76.7806 104.93 75.4746L106.897 72.5319C109.362 74.0769 114.287 77.9035 117.377 82.4509C123.091 75.6816 131.166 68.7093 141.977 61.1875L143.821 63.9748C132.273 72.0103 123.963 79.3569 118.436 86.4368L116.756 88.5949Z" fill="#1882CD"/>
<path opacity="0.2" d="M116.191 27.8262C116.84 27.1976 116.888 26.1935 116.298 25.5836C115.707 24.9737 114.702 24.9889 114.053 25.6176C113.403 26.2462 113.356 27.2503 113.946 27.8602C114.536 28.4701 115.541 28.4549 116.191 27.8262Z" fill="white"/>
<path opacity="0.2" d="M120.703 25.1349H133.879C134.084 25.1325 134.287 25.1729 134.475 25.2536C134.663 25.3343 134.832 25.4535 134.972 25.6035C135.111 25.7534 135.218 25.9309 135.285 26.1245C135.352 26.3181 135.377 26.5235 135.36 26.7276C135.327 27.1556 135.136 27.5561 134.824 27.8506C134.512 28.1452 134.101 28.3127 133.672 28.3204H120.5C120.295 28.3221 120.092 28.2813 119.904 28.2004C119.716 28.1195 119.546 28.0004 119.407 27.8507C119.267 27.7009 119.16 27.5237 119.092 27.3304C119.025 27.137 118.998 26.9318 119.014 26.7276C119.047 26.2996 119.238 25.8992 119.55 25.6046C119.863 25.31 120.273 25.1425 120.703 25.1349Z" fill="white"/>
<path d="M71.6568 54.5512C70.9839 55.2401 70.2631 56.0007 69.5982 56.7572C68.9332 57.5138 68.2682 58.2902 67.643 59.0866C67.0179 59.883 66.4485 60.6794 65.8591 61.5196L65.461 62.1447L65.0628 62.7779C64.9314 62.9889 64.8119 63.2039 64.6964 63.4229L64.3779 64.0083C64.248 64.343 64.174 64.6968 64.1589 65.0555C64.127 65.5169 64.127 65.9799 64.1589 66.4412C64.2369 67.4366 64.3699 68.427 64.5571 69.4077C64.7323 70.4112 64.9553 71.4186 65.1902 72.422C65.4251 73.4255 65.6839 74.4409 65.9467 75.4284L64.4734 75.9819C63.5681 74.0343 62.8094 72.0218 62.2038 69.9612C61.8962 68.8992 61.6607 67.8177 61.499 66.7239C61.4184 66.1407 61.3772 65.5527 61.3755 64.9639C61.3662 64.2702 61.4836 63.5807 61.7219 62.9292C61.8135 62.7062 61.8613 62.6186 61.925 62.4832L62.1082 62.1049C62.2276 61.8541 62.3511 61.6032 62.5064 61.3603L62.9046 60.6276L63.3267 59.9149C63.8891 58.9759 64.5019 58.068 65.1623 57.1952C65.8153 56.3232 66.4923 55.475 67.205 54.6548C67.9178 53.8345 68.6385 53.062 69.4668 52.2656L71.6568 54.5512Z" fill="#B55B52"/>
<path d="M71.8261 49.7735C69.6679 49.8691 67.6172 53.4528 67.6172 53.4528L70.4682 59.2704C70.4682 59.2704 74.3307 56.053 74.3785 52.8993C74.4103 50.8327 73.9484 49.674 71.8261 49.7735Z" fill="#1882CD"/>
<path opacity="0.7" d="M71.8261 49.7735C69.6679 49.8691 67.6172 53.4528 67.6172 53.4528L70.4682 59.2704C70.4682 59.2704 74.3307 56.053 74.3785 52.8993C74.4103 50.8327 73.9484 49.674 71.8261 49.7735Z" fill="white"/>
<path opacity="0.2" d="M72.3398 53.9537C71.7107 54.9054 71.4081 57.3742 71.3125 58.4732C72.2626 57.5493 73.068 56.4874 73.7016 55.3235C73.2756 54.2603 72.754 53.3286 72.3398 53.9537Z" fill="black"/>
<path d="M65.5184 74.8223L68.1425 75.6186L66.3944 77.3866C66.3944 77.3866 64.503 76.8013 64.2402 75.5151L65.5184 74.8223Z" fill="#B55B52"/>
<path d="M69.7333 77.6223L69.2913 79.3147L66.3965 77.3715L68.1445 75.6035L69.7333 77.6223Z" fill="#B55B52"/>
<path d="M86.9988 42.8641C86.9152 43.099 86.9749 43.3379 87.1302 43.3937C87.2855 43.4494 87.4766 43.31 87.5563 43.0751C87.6359 42.8402 87.5802 42.5973 87.4249 42.5415C87.2696 42.4858 87.0824 42.6252 86.9988 42.8641Z" fill="#263238"/>
<path d="M87.3535 42.5293L87.9787 42.5811C87.9787 42.5811 87.5327 42.9116 87.3535 42.5293Z" fill="#263238"/>
<path d="M87.1164 43.166C87.14 43.7855 87.2471 44.399 87.435 44.9897C87.283 45.0295 87.1242 45.0358 86.9696 45.0083C86.8149 44.9808 86.668 44.9202 86.5391 44.8304L87.1164 43.166Z" fill="#A02724"/>
<path d="M87.7714 41.9446C87.743 41.9406 87.7164 41.9283 87.6952 41.9091C87.6739 41.89 87.6588 41.8649 87.6519 41.8371C87.6083 41.6571 87.5243 41.4894 87.4063 41.3466C87.2884 41.2038 87.1395 41.0897 86.971 41.0128C86.9348 40.9994 86.9053 40.9722 86.8889 40.9372C86.8725 40.9022 86.8705 40.8621 86.8834 40.8257C86.8896 40.8074 86.8995 40.7906 86.9123 40.7762C86.9252 40.7618 86.9409 40.7502 86.9583 40.742C86.9758 40.7339 86.9948 40.7293 87.014 40.7286C87.0333 40.7279 87.0525 40.7311 87.0706 40.7381C87.2873 40.8322 87.4788 40.9761 87.6296 41.158C87.7804 41.34 87.8863 41.5549 87.9386 41.7853C87.9434 41.8041 87.9444 41.8237 87.9415 41.8429C87.9387 41.8621 87.9321 41.8806 87.9221 41.8973C87.9121 41.9139 87.8989 41.9284 87.8833 41.94C87.8677 41.9515 87.85 41.9598 87.8311 41.9645L87.7714 41.9446Z" fill="#263238"/>
<path d="M78.8193 43.8633C78.8751 45.7467 78.6839 49.1353 77.2266 50.095C77.2266 50.095 77.4217 52.0302 80.8103 52.6872C84.5334 53.4079 82.8928 51.194 82.8928 51.194C80.9417 50.318 81.2403 48.8287 81.8257 47.4908L78.8193 43.8633Z" fill="#B55B52"/>
<path d="M89.8836 56.7539C90.2181 57.6658 90.6003 58.6533 91.0065 59.589C91.4126 60.5248 91.8029 61.4725 92.2767 62.3764C92.7506 63.2802 93.2125 64.1881 93.7142 65.0681C93.973 65.5022 94.2318 65.9362 94.5106 66.3503C94.646 66.5653 94.7853 66.7724 94.9327 66.9675L95.1477 67.2701L95.2552 67.4254L95.3109 67.5011L95.3468 67.5409C95.6057 67.8355 95.903 68.094 96.2308 68.3094C96.6254 68.5789 97.0349 68.8262 97.4572 69.05C98.3292 69.5199 99.265 69.946 100.217 70.3481C101.168 70.7503 102.14 71.1445 103.123 71.4909C104.107 71.8374 105.114 72.2037 106.082 72.5422L105.712 74.0752C103.578 73.7185 101.469 73.2223 99.4003 72.5899C98.341 72.2669 97.3013 71.8827 96.2865 71.4392C95.7544 71.203 95.2359 70.9371 94.7336 70.6428C94.1508 70.3106 93.6229 69.8901 93.1687 69.3965L93.0731 69.2889L93.0054 69.2053L92.874 69.0421L92.6112 68.7076C92.432 68.4886 92.2608 68.2656 92.1015 68.0386C91.7631 67.5887 91.4525 67.1268 91.1459 66.6609C90.5417 65.7367 89.9848 64.7825 89.4774 63.8019C88.9717 62.8263 88.4939 61.8428 88.0559 60.8393C87.6179 59.8359 87.2237 58.8484 86.8613 57.7494L89.8836 56.7539Z" fill="#B55B52"/>
<path d="M105.557 72.5329L107.907 71.625L107.791 74.3367C107.791 74.3367 105.888 74.8424 105.004 73.8827L105.557 72.5329Z" fill="#B55B52"/>
<path d="M109.678 72.5568L110.483 74.2889L107.791 74.3367L107.906 71.625L109.678 72.5568Z" fill="#B55B52"/>
<path d="M70.7168 140.517L73.8267 140.747L74.7505 133.608L71.6406 133.377L70.7168 140.517Z" fill="#B55B52"/>
<path d="M46.084 124.367L48.1148 126.78L54.1434 122.905L52.1126 120.492L46.084 124.367Z" fill="#B55B52"/>
<path d="M49.0623 126.468L47.4258 123.322C47.3997 123.268 47.3545 123.224 47.2987 123.201C47.2429 123.177 47.1804 123.175 47.1231 123.195L44.5229 124.095C44.4577 124.121 44.3987 124.161 44.35 124.211C44.3012 124.262 44.2638 124.323 44.2401 124.389C44.2164 124.455 44.207 124.526 44.2125 124.596C44.218 124.666 44.2383 124.734 44.2721 124.796C44.8614 125.883 45.1999 126.388 45.9166 127.762C46.3626 128.61 46.924 129.9 47.5333 131.075C48.1425 132.25 49.3052 131.728 49.1539 131.183C48.469 128.75 48.923 128.077 49.1539 127.021C49.1867 126.832 49.1544 126.637 49.0623 126.468Z" fill="#263238"/>
<path d="M74.0204 140.305H70.5243C70.4641 140.304 70.4057 140.325 70.3596 140.364C70.3136 140.402 70.283 140.456 70.2734 140.516L69.8036 143.279C69.7939 143.348 69.7991 143.418 69.8189 143.485C69.8387 143.552 69.8725 143.613 69.9182 143.666C69.9639 143.718 70.0203 143.76 70.0837 143.789C70.147 143.818 70.2158 143.833 70.2854 143.833C71.5078 143.813 72.0932 143.741 73.6302 143.741C74.5779 143.741 76.529 143.841 77.8351 143.841C79.1411 143.841 79.2447 142.551 78.7031 142.431C76.2781 141.909 75.3384 141.185 74.5341 140.496C74.3922 140.371 74.2093 140.303 74.0204 140.305Z" fill="#263238"/>
<path opacity="0.2" d="M74.7503 133.608L74.2366 137.578L71.1387 137.267L71.6404 133.381L74.7503 133.608Z" fill="black"/>
<path opacity="0.2" d="M52.1133 120.492L54.1441 122.905L51.6474 124.51L49.541 122.145L52.1133 120.492Z" fill="black"/>
<path d="M70.9629 68.7065L83.4342 71.1235C89.3274 53.7744 87.9178 53.205 87.9178 53.205C87.0017 52.7099 86.0562 52.2711 85.0867 51.8909L84.9155 51.8272C84.1191 51.5365 83.9519 51.4927 82.8847 51.1822C81.0451 50.7481 79.3368 50.3858 77.2224 50.0871L76.8243 50.0314C76.4261 49.9836 76.0597 49.9438 75.6934 49.9079C75.4465 49.8801 75.1996 49.8641 74.9647 49.8482L74.1683 49.8044C72.8065 49.7367 71.8309 49.7566 71.8309 49.7566C72.5158 60.5914 71.9942 63.7092 70.9629 68.7065Z" fill="#1882CD"/>
<path opacity="0.7" d="M70.9629 68.7065L83.4342 71.1235C89.3274 53.7744 87.9178 53.205 87.9178 53.205C87.0017 52.7099 86.0562 52.2711 85.0867 51.8909L84.9155 51.8272C84.1191 51.5365 83.9519 51.4927 82.8847 51.1822C81.0451 50.7481 79.3368 50.3858 77.2224 50.0871L76.8243 50.0314C76.4261 49.9836 76.0597 49.9438 75.6934 49.9079C75.4465 49.8801 75.1996 49.8641 74.9647 49.8482L74.1683 49.8044C72.8065 49.7367 71.8309 49.7566 71.8309 49.7566C72.5158 60.5914 71.9942 63.7092 70.9629 68.7065Z" fill="white"/>
<path opacity="0.2" d="M86.1249 57.2554L84.998 57.0723C84.998 58.5575 85.5635 61.1059 86.113 62.7266C86.5789 61.1338 86.9412 59.8238 87.216 58.7208L86.1249 57.2554Z" fill="black"/>
<path d="M87.4832 52.9937C89.3268 53.583 90.6687 57.2305 91.1704 58.8033L87.5867 63.0122C87.5867 63.0122 83.9154 57.7362 84.5007 56.0996C85.0741 54.3953 86.5912 52.703 87.4832 52.9937Z" fill="#1882CD"/>
<path opacity="0.7" d="M87.4832 52.9937C89.3268 53.583 90.6687 57.2305 91.1704 58.8033L87.5867 63.0122C87.5867 63.0122 83.9154 57.7362 84.5007 56.0996C85.0741 54.3953 86.5912 52.703 87.4832 52.9937Z" fill="white"/>
<path d="M88.6796 39.5267C88.3093 40.6138 86.6887 41.0478 85.076 40.5023C83.4633 39.9568 82.444 38.6228 82.8143 37.5358C83.1846 36.4487 84.8052 36.0147 86.398 36.5642C87.9908 37.1137 89.046 38.4397 88.6796 39.5267Z" fill="#263238"/>
<path d="M79.3253 39.2284C78.497 42.1909 78.0829 43.4253 79.0306 45.4641C80.4561 48.5341 84.2708 49.0159 85.9671 46.3839C87.4922 44.0186 88.5912 39.5708 86.1542 37.345C85.6399 36.8479 85.0049 36.4936 84.3119 36.3169C83.6188 36.1402 82.8917 36.1473 82.2022 36.3375C81.5127 36.5277 80.8847 36.8943 80.3802 37.4013C79.8757 37.9082 79.5121 38.538 79.3253 39.2284Z" fill="#B55B52"/>
<path d="M83.952 35.7685C82.7574 36.4534 80.2209 32.1649 77.0712 35.7685C74.8175 38.3527 76.2549 42.1395 76.2549 42.1395C76.2549 42.1395 74.4591 38.9819 73.0256 40.5229C71.1541 42.5138 73.0893 49.6374 79.2613 49.1477C85.4332 48.6579 84.8359 43.6487 84.8359 43.6487C84.8359 43.6487 87.7268 40.71 87.5835 38.074C87.4759 36.099 85.9429 34.6416 83.952 35.7685Z" fill="#263238"/>
<path d="M84.7004 41.7721C84.5464 42.3233 84.5659 42.9086 84.7562 43.4485C85.011 44.209 85.5963 44.213 85.9069 43.6874C86.2175 43.1618 86.3887 42.2499 85.9467 41.6367C85.5048 41.0235 84.8995 41.1629 84.7004 41.7721Z" fill="#B55B52"/>
<path d="M80.1207 70.479C80.1207 70.479 78.7908 75.09 77.0825 81.1744C75.9477 85.2279 74.6416 89.9346 73.451 94.3664C72.7701 96.9029 72.129 99.3478 71.5756 101.534C68.4458 113.898 52.8367 124.525 52.8367 124.525L49.8145 121.2C49.8145 121.2 60.3028 112.369 63.3529 100.833C69.5129 77.4155 66.0487 73.4654 70.9584 68.707L80.1207 70.479Z" fill="#263238"/>
<path opacity="0.2" d="M78.7761 74.6123C78.3142 76.4002 77.7328 78.6579 77.0917 81.1824C75.9569 85.236 74.6508 89.9426 73.4602 94.3745C72.9505 88.7202 72.6638 78.3234 76.8249 75.0901C77.6452 74.461 78.2943 74.3296 78.7761 74.6123Z" fill="black"/>
<path d="M53.0971 125.003L49.3223 120.85L50.4651 119.703L55.096 124.067L53.0971 125.003Z" fill="#1882CD"/>
<path opacity="0.7" d="M53.0971 125.003L49.3223 120.85L50.4651 119.703L55.096 124.067L53.0971 125.003Z" fill="white"/>
<path d="M49.6311 128.156C49.5931 128.155 49.5555 128.148 49.5196 128.136C49.1493 128 48.9143 127.292 48.8068 126.882C48.8033 126.868 48.8041 126.853 48.8091 126.839C48.8141 126.826 48.823 126.814 48.8347 126.806C48.8463 126.797 48.8602 126.793 48.8745 126.793C48.8888 126.793 48.9028 126.797 48.9143 126.806C49.0258 126.87 50.0054 127.443 50.0253 127.845C50.0286 127.889 50.02 127.933 50.0003 127.972C49.9807 128.011 49.9508 128.045 49.9138 128.068C49.8324 128.129 49.7326 128.16 49.6311 128.156ZM48.9979 127.021C49.1612 127.558 49.3683 127.921 49.5713 127.993C49.6148 128.006 49.6608 128.008 49.7054 127.999C49.7499 127.99 49.7915 127.97 49.8262 127.941C49.8779 127.905 49.8819 127.869 49.878 127.845C49.858 127.638 49.3842 127.264 48.9979 127.021Z" fill="#1882CD"/>
<path d="M83.2349 71.1237C83.2349 71.1237 84.0313 95.7399 82.2713 105.014C80.4635 114.678 74.9446 136.578 74.9446 136.578L70.4609 136.001C70.4609 136.001 73.2961 113.838 74.5026 104.257C75.8126 93.8086 74.1044 69.3398 74.1044 69.3398L83.2349 71.1237Z" fill="#263238"/>
<path d="M75.9085 136.853L69.5176 136.029L69.5932 134.508L76.5496 134.81L75.9085 136.853Z" fill="#1882CD"/>
<path opacity="0.7" d="M75.9085 136.853L69.5176 136.029L69.5932 134.508L76.5496 134.81L75.9085 136.853Z" fill="white"/>
<path d="M49.7842 127.193C49.4535 127.177 49.1307 127.086 48.8405 126.926C48.8297 126.919 48.8207 126.91 48.8144 126.899C48.8081 126.888 48.8048 126.875 48.8047 126.862C48.8064 126.849 48.8109 126.837 48.8178 126.826C48.8246 126.815 48.8337 126.806 48.8445 126.799C48.8803 126.799 49.6409 126.38 50.0789 126.544C50.1338 126.564 50.1837 126.595 50.225 126.637C50.2662 126.678 50.2979 126.728 50.3178 126.783C50.344 126.836 50.3515 126.896 50.3393 126.954C50.327 127.011 50.2956 127.063 50.2501 127.101C50.1087 127.181 49.9453 127.213 49.7842 127.193ZM49.0396 126.87C49.386 127.029 49.9913 127.117 50.1585 126.986C50.1864 126.962 50.2143 126.926 50.1585 126.834C50.1468 126.799 50.127 126.767 50.1008 126.741C50.0745 126.715 50.0425 126.695 50.0072 126.683C49.6732 126.646 49.3356 126.711 49.0396 126.87Z" fill="#1882CD"/>
<path d="M75.1748 140.848C74.8469 140.841 74.5203 140.804 74.1993 140.737C74.184 140.735 74.1698 140.728 74.1589 140.717C74.1481 140.706 74.1412 140.692 74.1395 140.677C74.1372 140.662 74.1397 140.646 74.1469 140.632C74.1541 140.619 74.1655 140.608 74.1793 140.601C74.3227 140.525 75.581 139.892 75.9553 140.103C75.991 140.123 76.0209 140.152 76.0418 140.187C76.0628 140.222 76.0742 140.262 76.0747 140.302C76.0825 140.369 76.0734 140.436 76.0484 140.498C76.0233 140.56 75.9831 140.615 75.9314 140.657C75.7077 140.803 75.4413 140.871 75.1748 140.848ZM74.4461 140.633C75.131 140.748 75.6407 140.717 75.8358 140.549C75.8693 140.52 75.8952 140.483 75.9111 140.441C75.9271 140.4 75.9327 140.355 75.9274 140.31C75.9286 140.294 75.925 140.278 75.9173 140.264C75.9095 140.25 75.8978 140.238 75.8836 140.231C75.6805 140.119 74.9638 140.386 74.4461 140.633Z" fill="#1882CD"/>
<path d="M74.2165 140.739C74.2022 140.743 74.187 140.743 74.1727 140.739C74.162 140.731 74.1534 140.721 74.1478 140.709C74.1422 140.697 74.1398 140.684 74.1409 140.671C74.1409 140.615 74.2961 139.269 75.0487 139.349C75.2478 139.369 75.3076 139.469 75.3195 139.552C75.3752 139.903 74.6227 140.58 74.2444 140.747L74.2165 140.739ZM74.989 139.477C74.543 139.477 74.3638 140.213 74.3081 140.532C74.7063 140.301 75.208 139.771 75.1761 139.56C75.1761 139.56 75.1761 139.492 75.0328 139.481L74.989 139.477Z" fill="#1882CD"/>
<path d="M70.8827 67.9464L70.1381 68.9459C70.0823 69.0255 70.1699 69.133 70.3133 69.1609L83.3938 71.6934C83.5053 71.6934 83.6088 71.6934 83.6248 71.6098L83.9234 70.5188C83.9234 70.4471 83.8557 70.3595 83.7323 70.3356L71.1017 67.8907C71.0635 67.8804 71.0232 67.8802 70.9849 67.89C70.9465 67.8997 70.9114 67.9192 70.8827 67.9464Z" fill="#1882CD"/>
<path d="M72.3482 69.6825L72.0097 69.6148C71.942 69.6148 71.8982 69.559 71.9102 69.5192L72.3084 68.1056C72.3084 68.0658 72.388 68.0419 72.4517 68.0539L72.7902 68.1216C72.8579 68.1216 72.9056 68.1773 72.8937 68.2171L72.4955 69.6307C72.4796 69.6825 72.4159 69.6825 72.3482 69.6825Z" fill="#263238"/>
<path d="M80.8892 71.3503L80.5507 71.2866C80.483 71.2866 80.4392 71.2268 80.4512 71.187L80.8494 69.7774C80.8494 69.7336 80.925 69.7097 80.9927 69.7257L81.3312 69.7894C81.3949 69.7894 81.4427 69.8491 81.4307 69.8889L81.0325 71.2985C81.0206 71.3423 80.9569 71.3662 80.8892 71.3503Z" fill="#263238"/>
</svg>
