<svg width="98" height="98" viewBox="0 0 98 98" fill="none" xmlns="http://www.w3.org/2000/svg">
<rect x="1" y="1" width="96" height="96" rx="48" fill="white"/>
<g clip-path="url(#clip0_778_7061)">
<path d="M39.5927 77.2267C37.9953 75.7114 35.6805 74.8424 33.2418 74.8424L33.1477 74.8426C31.5414 74.8432 29.9638 74.4513 28.5761 73.707L28.4317 73.6296L28.548 73.5194C29.1777 72.9202 29.7034 72.2355 30.1068 71.4894C29.8203 71.7351 29.4786 71.9199 29.1058 72.0306C28.733 72.1414 28.3384 72.1754 27.9497 72.1304C27.5394 72.0854 27.1455 71.9555 26.7975 71.7505C26.4495 71.5454 26.1565 71.2706 25.9405 70.9466C25.0882 69.6745 24.0721 67.8695 24.0721 66.4944C24.0735 65.3321 24.338 64.1828 24.849 63.1198C25.3599 62.0568 26.106 61.1034 27.0398 60.3203C27.6309 59.83 28.1031 59.2306 28.4255 58.5612C28.7479 57.8918 28.9133 57.1674 28.9109 56.4353L28.9105 56.3311C28.9103 55.3672 29.0384 54.4069 29.2918 53.4716L29.3175 53.3771L29.4232 53.3805C30.1044 53.4018 30.786 53.3493 31.4539 53.224C30.8274 53.1533 30.2146 53.0034 29.6327 52.7785L29.519 52.7362L29.5576 52.629C32.2163 51.1148 38.2179 51.899 41.7014 44.5679C44.526 38.6233 54.4922 49.8448 54.4922 56.3311C54.4922 56.993 53.7801 57.8676 54.3132 58.305C60.0756 63.0339 56.0996 66.0704 54.846 69.126C54.5486 69.8509 55.1935 70.6468 55.1935 71.4311C55.1935 71.5642 55.1898 71.7016 55.1825 71.8394L55.1714 72.0513L54.9793 71.9337C54.5992 71.7047 54.2469 71.4389 53.9284 71.1408C54.2588 71.8403 54.4146 72.5991 54.3841 73.3613C54.3537 74.1235 54.1378 74.8697 53.7524 75.545C53.1486 76.5935 52.5643 77.344 52.016 77.7758C50.2595 79.1584 47.9951 79.8717 45.6858 79.7696C43.3766 79.6676 41.197 78.7579 39.5927 77.2267H39.5927Z" fill="#E6E6E6"/>
<path d="M49.2402 92.9994C49.2795 92.9994 49.3174 92.9863 49.3471 92.9626C49.3767 92.9389 49.3961 92.9062 49.4016 92.8705C49.4085 92.8256 50.0877 88.3198 49.4777 82.3313C48.9144 76.8008 47.1053 68.8349 41.6859 62.2927C41.6729 62.277 41.6567 62.2638 41.6381 62.2538C41.6196 62.2439 41.5991 62.2374 41.5779 62.2348C41.5566 62.2321 41.535 62.2333 41.5143 62.2384C41.4935 62.2434 41.474 62.2522 41.457 62.2641C41.4399 62.2761 41.4256 62.291 41.4148 62.3081C41.404 62.3251 41.397 62.344 41.3942 62.3635C41.3913 62.3831 41.3927 62.403 41.3982 62.422C41.4037 62.4411 41.4132 62.459 41.4262 62.4747C46.7988 68.9604 48.5934 76.8679 49.1527 82.3593C49.7592 88.3129 49.0853 92.7837 49.0784 92.8281C49.0752 92.8494 49.0769 92.8711 49.0835 92.8918C49.0901 92.9124 49.1015 92.9315 49.1169 92.9477C49.1322 92.964 49.1511 92.977 49.1724 92.9859C49.1937 92.9948 49.2168 92.9994 49.2402 92.9994V92.9994Z" fill="#3F3D56"/>
<path d="M44.818 71.52C44.8525 71.52 44.8861 71.51 44.914 71.4914C44.9419 71.4728 44.9627 71.4465 44.9734 71.4163C44.984 71.3862 44.9841 71.3537 44.9734 71.3235C44.9628 71.2934 44.942 71.2671 44.9141 71.2484C43.3699 70.287 41.7017 69.5058 39.948 68.923C37.208 68.0003 33.0416 67.1639 28.7522 68.4196C28.7318 68.4255 28.7128 68.4351 28.6964 68.4478C28.6799 68.4605 28.6664 68.4761 28.6565 68.4936C28.6466 68.5111 28.6406 68.5303 28.6388 68.5499C28.6369 68.5696 28.6394 68.5894 28.6459 68.6082C28.6524 68.627 28.6629 68.6445 28.6767 68.6596C28.6906 68.6747 28.7075 68.6871 28.7266 68.6961C28.7457 68.7052 28.7665 68.7107 28.7879 68.7123C28.8093 68.7139 28.8308 68.7117 28.8512 68.7057C33.0527 67.4757 37.1436 68.2984 39.8357 69.205C41.5613 69.7778 43.2027 70.5458 44.7222 71.4913C44.75 71.51 44.7836 71.52 44.818 71.52Z" fill="#3F3D56"/>
<path d="M52.2879 54.4057C52.2904 54.3741 52.2819 54.3425 52.2637 54.3156C52.2456 54.2886 52.2186 54.2677 52.1866 54.2557C52.1547 54.2438 52.1195 54.2414 52.086 54.249C52.0525 54.2566 52.0225 54.2737 52.0003 54.298C50.8465 55.6455 49.8794 57.1197 49.1212 58.6867C47.9234 61.1341 46.7163 64.8963 47.769 68.922C47.774 68.9412 47.783 68.9593 47.7956 68.9753C47.8082 68.9912 47.8241 69.0048 47.8424 69.0151C47.8607 69.0254 47.881 69.0323 47.9022 69.0354C47.9234 69.0385 47.945 69.0377 47.9659 69.0331C47.9867 69.0284 48.0064 69.0201 48.0237 69.0085C48.0411 68.9969 48.0558 68.9822 48.0669 68.9654C48.0781 68.9486 48.0856 68.9299 48.0889 68.9104C48.0923 68.8909 48.0914 68.871 48.0863 68.8518C47.0553 64.9086 48.2419 61.2146 49.4188 58.81C50.1642 57.2681 51.1152 55.8175 52.2499 54.4915C52.2721 54.4673 52.2854 54.4373 52.2879 54.4057Z" fill="#3F3D56"/>
<path d="M83.7699 92.8412H70.7768L70.7209 92.748C70.5548 92.4709 70.3944 92.1772 70.2445 91.8755C68.9062 89.2399 68.3405 86.2255 67.8413 83.566L67.4655 81.5614C67.42 81.3186 67.4543 81.0688 67.564 80.8441C67.6737 80.6193 67.8538 80.4298 68.0813 80.2998C68.3087 80.1697 68.5732 80.1051 68.8409 80.1141C69.1085 80.1232 69.3672 80.2055 69.5837 80.3505C71.5583 81.6721 73.5336 82.9925 75.5098 84.3116C76.258 84.8124 77.1125 85.392 77.9309 86.0184C78.0099 85.6656 78.0925 85.3118 78.1751 84.9629C78.232 84.7221 78.3658 84.5023 78.5593 84.3317C78.7529 84.1612 78.9973 84.0477 79.2614 84.0057C79.5255 83.9637 79.7972 83.9951 80.0417 84.096C80.2863 84.1969 80.4925 84.3625 80.6341 84.5719L82.1543 86.8185C83.2631 88.4591 84.2417 90.0758 84.0423 91.8195C84.0432 91.8408 84.0415 91.862 84.0371 91.8828C83.9972 92.1693 83.9232 92.4508 83.8165 92.7223L83.7699 92.8412Z" fill="#F0F0F0"/>
<path d="M77.7163 45.8539L75.2087 37.3167C75.1013 36.9552 74.8437 36.6472 74.4916 36.4589C74.1394 36.2707 73.7209 36.2173 73.3264 36.3104C73.1222 36.3585 72.9309 36.4444 72.7641 36.5628C72.5972 36.6812 72.4583 36.8295 72.3559 36.9989C72.2534 37.1683 72.1895 37.3551 72.1681 37.5479C72.1466 37.7407 72.1681 37.9355 72.2312 38.1204L75.1316 46.9151L76.649 52.3274C76.428 52.4827 76.2643 52.6967 76.1801 52.9405C76.096 53.1843 76.0955 53.446 76.1786 53.69C76.2618 53.9341 76.4246 54.1487 76.645 54.3047C76.8654 54.4606 77.1326 54.5504 77.4104 54.5618C77.6882 54.5732 77.9631 54.5057 78.1977 54.3684C78.4323 54.2311 78.6153 54.0307 78.7217 53.7944C78.8282 53.5581 78.853 53.2974 78.7928 53.0477C78.7326 52.798 78.5903 52.5714 78.3852 52.3987L77.7163 45.8539Z" fill="#A0616A"/>
<path d="M56.6155 44.0159L64.2344 38.6224C64.5565 38.393 64.7676 38.0564 64.8222 37.6851C64.8768 37.3138 64.7704 36.9377 64.5262 36.6378C64.3998 36.4827 64.2404 36.3529 64.0578 36.2563C63.8751 36.1597 63.6729 36.0984 63.4636 36.076C63.2543 36.0536 63.0423 36.0706 62.8404 36.1261C62.6385 36.1815 62.4509 36.2742 62.2892 36.3985L54.5617 42.2242L49.704 45.5821C49.4636 45.4535 49.186 45.3962 48.9089 45.4178C48.6319 45.4394 48.3687 45.5389 48.1553 45.7029C47.9419 45.8668 47.7885 46.0873 47.716 46.3342C47.6435 46.5811 47.6554 46.8426 47.7501 47.0831C47.8448 47.3236 48.0177 47.5314 48.2452 47.6784C48.4728 47.8254 48.7441 47.9043 49.0221 47.9046C49.3002 47.9048 49.5716 47.8263 49.7995 47.6797C50.0273 47.5331 50.2006 47.3255 50.2958 47.0852L56.6155 44.0159Z" fill="#A0616A"/>
<path d="M62.8255 45.2546L62.4896 52.1539L73.0345 50.0458C72.1369 47.2735 71.5266 46.8007 72.2011 44.8713L62.8255 45.2546Z" fill="#A0616A"/>
<path d="M69.3089 32.6079H65.7953L64.2864 34.983L63.5674 34.9465C63.2158 34.9286 62.8639 34.9769 62.5332 35.0884C62.2025 35.1999 61.9 35.3722 61.6442 35.5949C61.3884 35.8176 61.1847 36.0859 61.0454 36.3834C60.9062 36.681 60.8344 37.0015 60.8344 37.3255L61.7202 38.5885C61.7202 38.5885 60.1359 41.1282 62.4181 42.3777C62.4181 42.3777 62.011 44.7319 62.4181 44.7065C62.8251 44.6812 63.7627 44.2021 62.8251 44.6812C61.8876 45.1604 61.9575 45.2247 62.0788 45.3363L62.2001 45.4478L72.0586 46.9705C72.0586 46.9705 72.347 45.2125 72.378 44.899C72.4091 44.5854 72.2008 45.352 72.4091 44.5854C72.6175 43.8188 72.93 44.1063 72.6175 43.8188C72.3049 43.5314 74.6424 39.9699 73.682 38.5885L75.2218 37.207C75.2218 35.8819 72.908 34.8077 71.4674 34.8077H71.2829L69.3089 32.6079Z" fill="#E6E6E6"/>
<path d="M60.8439 90.1804H59.4217L58.7451 85.1348L60.844 85.1349L60.8439 90.1804Z" fill="#A0616A"/>
<path d="M56.5513 92.111C56.552 92.2575 56.6155 92.3979 56.728 92.5016C56.8405 92.6054 56.993 92.664 57.1523 92.665H59.8294L59.9124 92.5069L60.291 91.7881L60.4377 92.5069L60.4701 92.665H61.4799L61.4655 92.5058L61.1962 89.5357L60.844 89.5158L59.3221 89.4329L58.9483 89.4119V90.2987C58.6646 90.5762 56.4383 91.6256 56.5513 92.111Z" fill="#2F2E41"/>
<path d="M81.9789 86.7541L80.783 87.4619L77.2462 83.5551L79.0115 82.5107L81.9789 86.7541Z" fill="#A0616A"/>
<path d="M79.5043 90.5136C79.5911 90.6365 79.727 90.7229 79.8827 90.7541C80.0383 90.7854 80.2011 90.7588 80.3356 90.6803L82.5871 89.3481L82.5638 89.1738L82.4595 88.3809L83.0056 88.9124L83.1259 89.0292L83.9751 88.5267L83.8693 88.3999L81.896 86.0361L81.5881 86.1947L80.2594 86.8823L79.9326 87.0507L80.4542 87.7965C80.3789 88.1711 79.1237 90.1616 79.5043 90.5136Z" fill="#2F2E41"/>
<path d="M88.6131 92.9333L44.5774 92.9728C44.5335 92.9726 44.4914 92.9564 44.4604 92.9277C44.4294 92.8991 44.412 92.8603 44.412 92.8198C44.412 92.7794 44.4294 92.7406 44.4604 92.712C44.4914 92.6833 44.5335 92.6671 44.5774 92.6669L88.6131 92.6274C88.657 92.6276 88.6991 92.6439 88.7301 92.6725C88.7611 92.7012 88.7785 92.7399 88.7785 92.7804C88.7785 92.8208 88.7611 92.8596 88.7301 92.8882C88.6991 92.9169 88.657 92.9331 88.6131 92.9333Z" fill="#CACACA"/>
<path d="M72.8691 49.2666C72.8691 49.2666 66.1286 52.5462 62.5634 50.3087C62.5634 50.3087 61.7836 53.7831 61.471 54.0705C61.1585 54.358 60.6606 54.4833 61.0138 54.8039C61.3669 55.1246 61.5634 55.5577 60.8922 56.1077C60.221 56.6578 59.5516 56.4832 60.1988 57.0496C60.846 57.616 58.2417 71.5104 58.2417 71.5104C58.2417 71.5104 58.6584 84.4315 58.2417 84.8223C57.825 85.2131 57.268 85.3006 57.8069 85.7839C58.3458 86.2671 58.3458 85.8923 58.3458 86.5588V87.2254L58.5924 87.8878H61.9748C61.9748 87.8878 62.7911 87.0156 61.9748 86.2581C61.1585 85.5006 62.2232 85.2933 62.4722 84.5824C62.7211 83.8716 63.1378 84.6382 62.7211 83.8716C62.3044 83.105 62.1043 83.2508 62.1002 82.7467C62.0961 82.2426 68.2423 62.503 68.2423 62.503L68.9868 73.4286L77.941 85.3939L80.5767 83.5757C80.5767 83.5757 78.6577 81.0909 79.1064 80.7493C79.5552 80.4077 77.7839 79.9792 78.3425 79.5939C78.901 79.2086 77.5564 78.8203 78.0632 78.3095C78.5699 77.7987 77.365 76.5112 76.6668 76.5112C75.9686 76.5112 74.9888 74.3651 74.9888 74.3651L76.4515 57.4115L72.8691 49.2666Z" fill="#2F2E41"/>
<path d="M65.7252 25.6331C65.6775 25.6907 65.2975 25.6596 64.8404 25.5983C63.9369 25.4769 63.8137 25.6211 63.1382 26.1863C62.1597 27.005 62.716 31.9988 62.2352 33.0808L62.0798 33.1861C62.388 33.1319 62.6906 33.054 62.9845 32.9532C63.1505 32.4713 63.317 31.9879 63.4846 31.5065C63.6428 31.8811 63.7423 32.2745 63.78 32.6749C64.0126 32.5905 64.2439 32.3842 65.2158 32.1076C65.7052 31.8022 69.2459 31.4951 69.7011 31.3608C70.8564 27.7452 68.9947 26.2831 65.7252 25.6331Z" fill="#2F2E41"/>
<path d="M66.9203 31.2086C68.789 31.2086 70.3039 29.8151 70.3039 28.0962C70.3039 26.3773 68.789 24.9839 66.9203 24.9839C65.0516 24.9839 63.5367 26.3773 63.5367 28.0962C63.5367 29.8151 65.0516 31.2086 66.9203 31.2086Z" fill="#A0616A"/>
<path d="M69.0505 25.3593C68.8599 25.3334 68.6763 25.2742 68.5098 25.1849C68.4273 25.139 68.3604 25.0727 68.3169 24.9936C68.2733 24.9145 68.2549 24.8256 68.2636 24.7373C68.3053 24.5162 68.5771 24.3841 68.8206 24.3976C69.0631 24.4297 69.2935 24.5155 69.4921 24.6475C69.4703 24.4338 69.371 24.2331 69.2102 24.0775C69.0495 23.9219 68.8365 23.8205 68.6056 23.7897C68.9259 23.7738 69.2589 23.7598 69.5551 23.8731C69.8514 23.9864 70.0982 24.2671 70.0448 24.558C70.5428 24.499 71.0339 24.8182 71.2395 25.2396C71.4451 25.6609 71.4043 26.1558 71.2401 26.5922C71.2239 26.6591 71.1922 26.7219 71.1473 26.7765C71.1024 26.8311 71.0452 26.8762 70.9797 26.9087C70.8121 26.9672 70.6318 26.8691 70.4865 26.7724C69.7279 26.2672 69.0375 25.6807 68.4298 25.0252" fill="#2F2E41"/>
<path d="M70.5259 31.4035C70.3825 31.4657 70.4572 31.6968 70.3457 31.8003C70.2974 31.8441 70.239 31.8775 70.1749 31.898C70.1581 31.7051 70.1093 31.5157 70.0301 31.3365C70.0155 31.3039 69.9915 31.2675 69.954 31.2704C69.9103 31.2751 69.8988 31.3278 69.8978 31.3671C69.8889 31.562 69.842 31.7539 69.7592 31.9335C69.7582 31.9354 69.7571 31.9382 69.7561 31.9402C69.7238 31.9392 69.6905 31.9382 69.6592 31.9373C69.4175 31.9287 68.8821 31.3576 68.7633 31.5511C69.1821 30.8679 69.6926 29.8407 69.7707 29.0597C69.7978 28.8962 69.7846 28.7292 69.7321 28.571C69.7047 28.4923 69.6534 28.4225 69.5841 28.3698C69.5149 28.3172 69.4307 28.2839 69.3415 28.274C69.2975 28.2721 69.2536 28.2792 69.2129 28.2948C69.1723 28.3104 69.1359 28.334 69.1063 28.3641C69.0768 28.3941 69.0548 28.4298 69.0419 28.4685C69.0291 28.5073 69.0257 28.5482 69.0321 28.5883L68.9717 28.5806C68.4112 28.1609 68.8946 27.4317 68.2425 27.1433C68.0216 27.0455 66.6694 27.3723 66.4309 27.3148C66.4258 27.0836 66.3746 26.8553 66.2798 26.6411C66.2652 26.6086 66.2413 26.5721 66.2038 26.575C66.16 26.5798 66.1486 26.6325 66.1475 26.6718C66.1387 26.8667 66.0918 27.0585 66.009 27.2381C65.6785 27.195 65.342 27.2113 65.0183 27.286C64.7328 27.355 64.462 27.4738 64.1755 27.5371C64.0339 27.577 63.8849 27.5899 63.7377 27.5751C63.5905 27.5603 63.4481 27.518 63.3192 27.4508C62.9556 27.2266 62.8921 26.7303 63.0734 26.3642C63.2045 26.1293 63.3818 25.9188 63.5963 25.7433C63.7599 25.5976 63.9297 25.4577 64.0995 25.3178C64.2516 25.1923 64.4037 25.0668 64.5558 24.9412C64.7472 24.7755 64.9512 24.6224 65.1662 24.4832C65.5095 24.2762 65.8951 24.136 66.2994 24.0711C66.7037 24.0061 67.1182 24.0179 67.5174 24.1057C67.9966 24.2111 68.6373 24.0625 69.0758 24.2686C69.305 24.3768 69.8124 24.7918 70.0134 24.9393C70.528 25.3159 70.1798 25.009 70.7426 25.2268C72.0848 25.746 71.4913 30.9855 70.5259 31.4035Z" fill="#2F2E41"/>
<path d="M33.0623 54.1218C44.6512 54.1218 54.0459 45.4801 54.0459 34.8202C54.0459 24.1602 44.6512 15.5186 33.0623 15.5186C21.4733 15.5186 12.0786 24.1602 12.0786 34.8202C12.0786 45.4801 21.4733 54.1218 33.0623 54.1218Z" fill="white"/>
<path d="M33.062 54.3149C21.3761 54.3149 11.8689 45.5698 11.8689 34.8207C11.8689 24.0715 21.3761 15.3264 33.062 15.3264C44.7479 15.3264 54.2551 24.0715 54.2551 34.8207C54.2551 45.5698 44.7479 54.3149 33.062 54.3149ZM33.062 15.7117C21.6071 15.7117 12.2878 24.284 12.2878 34.8207C12.2878 45.3574 21.6071 53.9296 33.062 53.9296C44.5169 53.9296 53.8362 45.3574 53.8362 34.8207C53.8362 24.284 44.5169 15.7117 33.062 15.7117Z" fill="#219EBC"/>
<path d="M30.1997 44.8648C29.8373 44.8648 29.4799 44.7872 29.1559 44.6381C28.8318 44.489 28.5499 44.2726 28.3325 44.0059L22.6079 36.9847C22.424 36.7591 22.2902 36.5025 22.2141 36.2293C22.1381 35.9562 22.1212 35.672 22.1646 35.3929C22.2079 35.1138 22.3106 34.8452 22.4668 34.6026C22.623 34.36 22.8296 34.1481 23.0748 33.9789C23.32 33.8098 23.5991 33.6867 23.896 33.6167C24.1929 33.5468 24.5019 33.5313 24.8054 33.5712C25.1088 33.6111 25.4007 33.7055 25.6645 33.8492C25.9282 33.9928 26.1586 34.1829 26.3425 34.4084L30.0878 39.0015L39.707 25.7294C40.0506 25.256 40.5845 24.9274 41.1913 24.816C41.7982 24.7045 42.4283 24.8193 42.9432 25.135C43.458 25.4508 43.8156 25.9417 43.9371 26.4998C44.0586 27.0579 43.9343 27.6376 43.5913 28.1114L32.142 43.9087C31.9349 44.1944 31.6563 44.4303 31.3297 44.5965C31.003 44.7627 30.6378 44.8545 30.2646 44.8641C30.243 44.8645 30.2213 44.8648 30.1997 44.8648Z" fill="#219EBC"/>
<path d="M54.6814 16.7239C54.7398 16.3549 54.3196 15.9931 53.7429 15.916C53.1662 15.8388 52.6514 16.0754 52.593 16.4444C52.5346 16.8134 52.9548 17.1751 53.5315 17.2523C54.1082 17.3295 54.623 17.0929 54.6814 16.7239Z" fill="#E6E6E6"/>
<path d="M61.5474 16.1082C61.6057 15.7391 61.1855 15.3774 60.6088 15.3002C60.0321 15.2231 59.5173 15.4596 59.459 15.8287C59.4006 16.1977 59.8208 16.5594 60.3975 16.6366C60.9742 16.7138 61.489 16.4772 61.5474 16.1082Z" fill="#3F3D56"/>
<path d="M52.8009 11.6116C52.8593 11.2425 52.4391 10.8808 51.8624 10.8037C51.2857 10.7265 50.7709 10.9631 50.7125 11.3321C50.6541 11.7011 51.0743 12.0628 51.651 12.14C52.2277 12.2172 52.7425 11.9806 52.8009 11.6116Z" fill="#FF6584"/>
<path d="M49.8176 9.51707C49.8204 9.17829 49.615 8.90222 49.3588 8.90044C49.1025 8.89865 48.8926 9.17184 48.8898 9.51062C48.887 9.84939 49.0925 10.1255 49.3487 10.1273C49.6049 10.129 49.8148 9.85584 49.8176 9.51707Z" fill="#E6E6E6"/>
<path d="M48.806 5.61668C48.8088 5.2779 48.6034 5.00183 48.3472 5.00004C48.091 4.99826 47.881 5.27145 47.8782 5.61023C47.8754 5.949 48.0809 6.22508 48.3371 6.22686C48.5933 6.22864 48.8032 5.95545 48.806 5.61668Z" fill="#3F3D56"/>
<path d="M56.6739 12.4819C56.6767 12.1431 56.4713 11.8671 56.2151 11.8653C55.9589 11.8635 55.7489 12.1367 55.7461 12.4755C55.7433 12.8142 55.9488 13.0903 56.205 13.0921C56.4612 13.0939 56.6712 12.8207 56.6739 12.4819Z" fill="#E6E6E6"/>
<path d="M53.3558 14.0046C53.3586 13.6659 53.1532 13.3898 52.897 13.388C52.6408 13.3862 52.4308 13.6594 52.428 13.9982C52.4252 14.3369 52.6307 14.613 52.8869 14.6148C53.1431 14.6166 53.353 14.3434 53.3558 14.0046Z" fill="#FF6584"/>
<path d="M57.9745 16.8223C57.9773 16.4835 57.7718 16.2074 57.5156 16.2056C57.2594 16.2038 57.0495 16.477 57.0467 16.8158C57.0439 17.1546 57.2493 17.4306 57.5055 17.4324C57.7617 17.4342 57.9717 17.161 57.9745 16.8223Z" fill="#3F3D56"/>
<path d="M15.3035 62.45C15.3618 62.0809 14.9416 61.7192 14.3649 61.642C13.7883 61.5648 13.2734 61.8014 13.2151 62.1705C13.1567 62.5395 13.5769 62.9012 14.1536 62.9784C14.7303 63.0556 15.2451 62.819 15.3035 62.45Z" fill="#E6E6E6"/>
<path d="M22.17 61.8342C22.2284 61.4652 21.8082 61.1035 21.2315 61.0263C20.6548 60.9491 20.14 61.1857 20.0816 61.5547C20.0233 61.9238 20.4435 62.2855 21.0201 62.3626C21.5968 62.4398 22.1117 62.2032 22.17 61.8342Z" fill="#3F3D56"/>
<path d="M13.4236 57.3374C13.4819 56.9684 13.0618 56.6067 12.4851 56.5295C11.9084 56.4523 11.3936 56.6889 11.3352 57.0579C11.2768 57.4269 11.697 57.7886 12.2737 57.8658C12.8504 57.943 13.3652 57.7064 13.4236 57.3374Z" fill="#FF6584"/>
<path d="M10.4398 55.2419C10.4426 54.9031 10.2372 54.6271 9.98095 54.6253C9.72474 54.6235 9.51479 54.8967 9.512 55.2355C9.50922 55.5742 9.71466 55.8503 9.97087 55.8521C10.2271 55.8539 10.437 55.5807 10.4398 55.2419Z" fill="#E6E6E6"/>
<path d="M9.42821 51.3415C9.431 51.0028 9.22556 50.7267 8.96935 50.7249C8.71314 50.7231 8.50319 50.9963 8.5004 51.3351C8.49762 51.6739 8.70306 51.9499 8.95926 51.9517C9.21547 51.9535 9.42543 51.6803 9.42821 51.3415Z" fill="#3F3D56"/>
<path d="M17.2961 58.208C17.2989 57.8692 17.0935 57.5931 16.8373 57.5914C16.5811 57.5896 16.3711 57.8628 16.3683 58.2015C16.3655 58.5403 16.571 58.8164 16.8272 58.8182C17.0834 58.82 17.2933 58.5468 17.2961 58.208Z" fill="#E6E6E6"/>
<path d="M13.978 59.7307C13.9808 59.3919 13.7754 59.1158 13.5192 59.1141C13.263 59.1123 13.053 59.3855 13.0502 59.7242C13.0474 60.063 13.2529 60.3391 13.5091 60.3409C13.7653 60.3427 13.9752 60.0695 13.978 59.7307Z" fill="#FF6584"/>
<path d="M18.597 62.5471C18.5998 62.2083 18.3944 61.9322 18.1382 61.9305C17.882 61.9287 17.672 62.2019 17.6692 62.5406C17.6664 62.8794 17.8719 63.1555 18.1281 63.1573C18.3843 63.1591 18.5942 62.8859 18.597 62.5471Z" fill="#3F3D56"/>
</g>
<rect x="1" y="1" width="96" height="96" rx="48" stroke="#8ECAE6" stroke-width="2"/>
<defs>
<clipPath id="clip0_778_7061">
<rect width="80.2779" height="88" fill="white" transform="translate(8.5 5)"/>
</clipPath>
</defs>
</svg>
