<svg width="98" height="98" viewBox="0 0 98 98" fill="none" xmlns="http://www.w3.org/2000/svg">
<rect x="1" y="1" width="96" height="96" rx="48" fill="white"/>
<g clip-path="url(#clip0_1125_21963)">
<path d="M72.6566 60.7827C72.582 60.6461 72.5366 60.4939 72.5235 60.3368C72.5104 60.1796 72.5299 60.0213 72.5808 59.873C72.6316 59.7248 72.7125 59.5901 72.8178 59.4785C72.923 59.367 73.05 59.2812 73.1899 59.2274L73.1375 55.3926L74.7218 56.4655L74.5287 59.9426C74.5985 60.1977 74.5776 60.4711 74.4699 60.711C74.3623 60.9509 74.1754 61.1406 73.9446 61.2441C73.7139 61.3477 73.4553 61.3579 73.2179 61.2728C72.9805 61.1878 72.7808 61.0134 72.6566 60.7827Z" fill="#A0616A"/>
<path d="M70.7506 39.9631C70.281 40.0511 69.8547 40.3089 69.5442 40.6927C69.2338 41.0764 69.0584 41.5624 69.0479 42.0678C69.025 43.1901 69.3783 43.6086 69.8775 43.7598C70.8005 44.0394 72.2703 49.6929 72.2703 49.6929C72.2703 49.6929 72.4263 54.9659 72.6779 54.7055C72.9295 54.4452 72.6448 55.0527 72.7212 55.2382C72.7977 55.4236 72.3588 55.7012 72.776 55.9118C73.1932 56.1224 72.9295 57.7997 72.9295 57.7997L74.7754 57.6599C74.7754 57.6599 74.4689 56.2935 74.8858 56.208C75.3027 56.1224 75.1133 55.7336 74.9443 55.4388C74.7754 55.144 75.2433 54.7239 75.0093 54.5845C74.7754 54.4452 75.4346 48.9941 75.4346 48.9941L72.8572 40.9544C72.639 40.5857 72.322 40.2943 71.9467 40.1177C71.5714 39.9411 71.1549 39.8873 70.7506 39.9631Z" fill="#219EBC"/>
<path d="M65.1484 40.2798L66.4763 37.8125H68.2702L69.6156 40.4195L65.1484 40.2798Z" fill="#219EBC"/>
<path d="M61.5788 18.092C60.5179 14.3245 57.5205 11.865 53.8986 11.3255C53.8588 11.3195 53.821 11.3274 53.7813 11.3247C53.73 11.3081 53.6777 11.2953 53.6247 11.2865C48.6438 10.604 43.2065 11.8262 38.879 14.6967C34.7308 17.4482 29.9644 19.0007 25.0713 18.9662C24.9194 18.9651 24.7668 18.9686 24.6137 18.9767C20.848 19.1759 17.5248 22.0818 16.5068 25.9039C16.3732 26.4053 16.606 26.8534 16.9803 27.1376C17.6382 27.6371 18.0875 27.9871 18.8969 28.1689C20.341 28.4932 21.7901 28.7915 23.2442 29.0636V22.9236C23.2448 22.3423 23.4629 21.785 23.8506 21.374C24.2384 20.963 24.764 20.7318 25.3124 20.7311H53.7211C54.2694 20.7318 54.7951 20.963 55.1828 21.374C55.5705 21.785 55.7886 22.3423 55.7893 22.9236V30.5701C56.1789 30.441 56.5593 30.2823 56.9274 30.0952C58.2979 29.3776 59.4687 28.2945 60.3249 26.9521C61.9696 24.4222 62.404 21.0221 61.5788 18.092Z" fill="#F2F2F2"/>
<path d="M49.6164 54.0252H24.5027C23.9232 54.0245 23.3676 53.7801 22.9578 53.3457C22.548 52.9112 22.3175 52.3223 22.3168 51.7079V41.3773C19.258 40.3846 16.0364 40.0853 12.8613 40.4987C12.8083 40.5075 12.756 40.5203 12.7047 40.5369C12.6651 40.5396 12.6272 40.5318 12.5874 40.5377C8.96553 41.0773 5.96817 43.5368 4.90721 47.3042C4.082 50.2344 4.51641 53.6345 6.16114 56.1644C7.01733 57.5067 8.18816 58.5898 9.55861 59.3074C11.4423 60.2694 13.425 60.3417 15.481 60.4096C21.6541 60.6138 27.833 60.3662 33.9739 59.6686C36.996 59.325 40.0055 58.8759 43.0025 58.3214C44.5365 58.0368 46.0653 57.7234 47.5892 57.3811C48.3985 57.1994 48.8479 56.8493 49.5057 56.3498C49.8801 56.0656 50.1129 55.6176 49.9793 55.1161C49.88 54.7447 49.7588 54.3804 49.6164 54.0252Z" fill="#F2F2F2"/>
<path d="M51.8394 50.9609H27.1927C26.717 50.9603 26.261 50.7597 25.9246 50.4031C25.5882 50.0465 25.399 49.563 25.3984 49.0587V24.7772C25.399 24.2729 25.5882 23.7894 25.9246 23.4328C26.261 23.0762 26.717 22.8756 27.1927 22.875H51.8394C52.3151 22.8756 52.7712 23.0762 53.1076 23.4328C53.444 23.7894 53.6332 24.2729 53.6337 24.7772V49.0587C53.6332 49.563 53.444 50.0465 53.1076 50.4031C52.7712 50.7597 52.3151 50.9603 51.8394 50.9609Z" fill="#E6E6E6"/>
<path d="M46.6524 49.6789H28.4037C27.928 49.6784 27.4719 49.4778 27.1355 49.1212C26.7991 48.7646 26.6099 48.2811 26.6094 47.7768V26.0623C26.6099 25.558 26.7991 25.0745 27.1355 24.7179C27.4719 24.3613 27.928 24.1607 28.4037 24.1602H50.6295C51.1052 24.1607 51.5613 24.3613 51.8977 24.7179C52.2341 25.0745 52.4233 25.558 52.4238 26.0623V43.5606C52.4221 45.1827 51.8135 46.7379 50.7315 47.8849C49.6495 49.0319 48.1826 49.6771 46.6524 49.6789Z" fill="white"/>
<path d="M39.5153 45.4447C43.9571 45.4447 47.5579 41.6275 47.5579 36.9187C47.5579 32.2098 43.9571 28.3926 39.5153 28.3926C35.0735 28.3926 31.4727 32.2098 31.4727 36.9187C31.4727 41.6275 35.0735 45.4447 39.5153 45.4447Z" fill="#219EBC"/>
<path d="M42.9047 36.4904L40.2208 33.0305C40.148 32.9367 40.0568 32.8607 39.9536 32.8079C39.8503 32.7551 39.7375 32.7267 39.6229 32.7247C39.5083 32.7227 39.3946 32.7471 39.2898 32.7963C39.1849 32.8454 39.0914 32.9181 39.0157 33.0094L36.1456 36.4693C36.0074 36.6364 35.9373 36.8548 35.9509 37.0766C35.9644 37.2984 36.0605 37.5054 36.2179 37.6522C36.3753 37.7989 36.5813 37.8734 36.7905 37.8593C36.9998 37.8452 37.1951 37.7437 37.3338 37.577L38.8187 35.7868V40.2756C38.8187 40.498 38.9021 40.7113 39.0504 40.8686C39.1988 41.0259 39.4 41.1142 39.6098 41.1142C39.8196 41.1142 40.0208 41.0259 40.1692 40.8686C40.3175 40.7113 40.4009 40.498 40.4009 40.2756V35.9034L41.6827 37.5558C41.8159 37.7276 42.0081 37.8362 42.2169 37.8578C42.4257 37.8794 42.6341 37.8121 42.7961 37.6709C42.9582 37.5296 43.0607 37.3259 43.081 37.1045C43.1014 36.8831 43.0379 36.6622 42.9047 36.4904L42.9047 36.4904Z" fill="white"/>
<path d="M74.1747 88.8342L72.9817 88.8341L72.4141 83.9551L74.1751 83.9552L74.1747 88.8342Z" fill="#A0616A"/>
<path d="M74.2161 90.1531L70.5469 90.153V90.1038C70.5469 89.7023 70.6974 89.3172 70.9652 89.0333C71.233 88.7493 71.5963 88.5898 71.975 88.5898H71.9751L72.6453 88.0508L73.8958 88.5899L74.2161 88.5899L74.2161 90.1531Z" fill="#2F2E41"/>
<path d="M65.2099 88.8342L64.0168 88.8341L63.4492 83.9551L65.2103 83.9552L65.2099 88.8342Z" fill="#A0616A"/>
<path d="M65.2512 90.1531L61.582 90.153V90.1038C61.5821 89.7023 61.7325 89.3172 62.0004 89.0333C62.2682 88.7493 62.6314 88.5898 63.0102 88.5898H63.0103L63.6805 88.0508L64.931 88.5899L65.2513 88.5899L65.2512 90.1531Z" fill="#2F2E41"/>
<path d="M74.5538 84.7961C74.9891 84.4946 74.737 84.5141 74.737 84.5141C74.737 84.5141 73.7635 76.1474 73.023 73.6119L72.166 61.265C72.166 61.265 72.1116 61.5113 72.166 60.9127C72.2204 60.3141 72.6159 60.7334 72.2204 60.3141C71.8248 59.8947 71.5611 59.6811 71.8248 59.3686C72.0885 59.0561 72.816 58.4239 72.3863 58.0412C71.9567 57.6584 71.1112 55.1621 71.1112 55.1621L62.8708 55.232L63.2004 55.1621C63.2004 55.1621 62.1718 54.7575 62.643 55.2844C63.1142 55.8113 62.3793 57.1014 62.1156 58.3594C61.8972 59.4012 61.2489 59.6777 62.1156 59.8968C62.9823 60.116 62.198 60.737 62.198 60.737C62.198 60.737 60.8931 67.3222 61.882 71.6551C61.882 71.6551 62.5642 82.3717 62.9095 83.2934C63.2548 84.215 63.3867 83.6559 63.2548 84.215C63.123 84.7741 62.8593 83.7957 63.123 84.7741C63.2669 85.2852 63.3808 85.8052 63.4641 86.3312L65.2523 86.1914C65.2523 86.1914 65.6675 84.8038 65.2523 84.4395C64.837 84.0752 65.1237 85.1384 65.5737 84.3273C66.0236 83.5162 65.4962 83.7957 65.3644 82.6775C65.2325 81.5594 66.4422 76.3504 65.5737 73.1543L67.1787 64.1862L69.7268 73.4722C69.7268 73.4722 71.0784 84.8133 71.5175 85.213C71.9567 85.6127 71.7793 84.6424 71.9567 85.6127C72.1359 86.5932 72.5429 86.3333 72.5314 86.4535C72.4087 87.7355 74.5538 86.4709 74.5538 86.4709C74.5328 86.1452 74.5328 85.8183 74.5538 85.4925C74.5936 85.1934 74.1185 85.0977 74.5538 84.7961Z" fill="#2F2E41"/>
<path d="M63.6989 58.0793C63.1715 58.0793 61.7212 57.3221 61.9849 57.0018C62.2486 56.6816 62.2486 55.6184 62.2486 55.3114C62.2486 55.0043 63.4352 43.6828 63.4352 43.6828L63.345 40.9108C63.3396 40.7446 63.3658 40.579 63.4221 40.4238C63.4783 40.2686 63.5635 40.127 63.6724 40.0074C63.7814 39.8879 63.912 39.7928 64.0563 39.7278C64.2007 39.6629 64.3559 39.6294 64.5128 39.6294L65.6766 39.2101L68.9727 39.0703L70.6164 39.6294C70.7794 39.6294 70.9398 39.6738 71.0821 39.7583C71.2243 39.8428 71.3438 39.9646 71.4289 40.112C71.5141 40.2594 71.5622 40.4276 71.5685 40.6003C71.5748 40.7731 71.5392 40.9447 71.4651 41.0986C72.3373 42.6082 72.775 44.3547 72.7246 46.1241C72.6868 47.4479 72.0541 49.0646 71.9016 50.5602C71.8883 50.6914 71.8786 50.8218 71.8733 50.9509C71.8719 50.9869 71.602 51.1664 71.8695 51.0586C72.137 50.9509 71.7261 51.3311 71.8656 51.5603C72.0052 51.7895 72.2756 51.6491 71.8767 51.929C71.4778 52.2089 72.3556 54.9123 72.2689 55.0043C72.0052 55.2838 71.4778 55.4236 71.8733 55.8429C72.2689 56.2622 72.6644 55.9827 72.137 56.5418C71.6096 57.1009 70.0296 58.0793 70.0296 58.0793L63.6989 58.0793Z" fill="#3F3D56"/>
<path d="M67.2245 37.4483C68.7917 37.4483 70.0622 36.1014 70.0622 34.44C70.0622 32.7785 68.7917 31.4316 67.2245 31.4316C65.6572 31.4316 64.3867 32.7785 64.3867 34.44C64.3867 36.1014 65.6572 37.4483 67.2245 37.4483Z" fill="#A0616A"/>
<path d="M49.94 43.7718C50.0761 43.708 50.2238 43.6767 50.3726 43.6799C50.5214 43.6832 50.6677 43.721 50.8012 43.7906C50.9347 43.8603 51.0522 43.9602 51.1454 44.0832C51.2386 44.2063 51.3052 44.3494 51.3405 44.5027L54.9422 44.8639L53.764 46.4169L50.5245 45.8359C50.2776 45.8817 50.0235 45.83 49.8103 45.6905C49.597 45.551 49.4395 45.3335 49.3674 45.079C49.2954 44.8246 49.3139 44.551 49.4194 44.3101C49.5249 44.0692 49.7102 43.8776 49.94 43.7718V43.7718Z" fill="#A0616A"/>
<path d="M67.0178 41.5327C66.9348 41.0349 66.6916 40.5829 66.3296 40.2538C65.9676 39.9247 65.5092 39.7388 65.0325 39.7277C63.9738 39.7034 63.5791 40.0779 63.4364 40.6071C63.1727 41.5855 58.9277 45.0248 58.9277 45.0248L55.282 44.6065C55.0628 44.531 55.1667 44.3194 54.3425 44.4988C53.9365 44.2169 53.6739 44.2646 53.4479 44.3961L52.0977 44.2412L52.2295 46.4776C52.2295 46.4776 53.675 46.113 53.9435 46.7571C54.212 47.4012 54.1506 47.4937 54.7346 47.0366C55.3186 46.5796 55.262 47.0366 55.262 47.0366L59.481 48.1548L66.0827 43.7659C66.4306 43.5346 66.7054 43.1986 66.872 42.8007C67.0386 42.4029 67.0894 41.9614 67.0178 41.5327H67.0178Z" fill="#219EBC"/>
<path d="M68.3264 37.1262L68.5123 37.1891C67.9308 37.2408 66.8945 37.5847 66.996 37.3946C67.0976 37.2045 66.7139 36.4875 66.9011 36.3966C67.0957 36.3242 67.2693 36.1995 67.4048 36.0346C67.5234 35.8585 67.5208 35.5678 67.3428 35.4601C67.1701 35.3539 66.9565 35.4685 66.7851 35.5762C66.6124 35.6824 66.2933 34.1197 66.375 33.6319C65.8938 33.3524 65.3111 33.8877 64.7705 33.7829C64.4396 33.7186 64.2009 33.4307 64.0506 33.1036C64.2962 32.8567 64.4789 32.548 64.5819 32.2063C64.3525 32.3288 64.1073 32.415 63.8542 32.462C63.8088 32.2082 63.8151 31.9471 63.8726 31.6961C63.9168 31.4957 64.0069 31.31 64.135 31.1554C64.2631 31.0008 64.4252 30.8821 64.607 30.8099C64.7914 30.7451 64.9911 30.7488 65.1733 30.8205C65.3554 30.8921 65.5091 31.0274 65.609 31.2041C65.6202 31.0138 65.5741 30.8247 65.4775 30.664C65.3808 30.5032 65.2385 30.3791 65.0711 30.3096C65.1933 30.2423 65.3284 30.206 65.4661 30.2033C65.6037 30.2006 65.74 30.2316 65.8645 30.294C65.9889 30.3564 66.0981 30.4484 66.1834 30.5629C66.2688 30.6773 66.3281 30.8112 66.3566 30.9539C66.952 30.6376 67.6352 30.5601 68.2802 30.7359C68.9184 30.9134 69.7648 31.6639 69.7648 31.6639C71.2046 32.0008 71.136 37.8041 68.3264 37.1262Z" fill="#2F2E41"/>
<path d="M83.3605 88.9532C83.3934 88.9548 83.4259 88.9457 83.4537 88.927C83.4814 88.9084 83.5031 88.8811 83.5158 88.849C83.5285 88.8168 83.5316 88.7813 83.5246 88.7472C83.5176 88.7132 83.5009 88.6822 83.4767 88.6585L83.4657 88.6122L83.4701 88.6011C83.5032 88.5182 83.5587 88.4476 83.6295 88.398C83.7004 88.3485 83.7834 88.3222 83.8683 88.3225C83.9532 88.3229 84.0361 88.3498 84.1066 88.3999C84.1771 88.45 84.232 88.5211 84.2646 88.6042C84.3945 88.936 84.5599 89.2683 84.6007 89.6191C84.6186 89.7742 84.611 89.9313 84.5783 90.0836C84.8835 89.3779 85.0419 88.6108 85.043 87.8345C85.043 87.6397 85.0328 87.445 85.0124 87.2514C84.9955 87.0927 84.9721 86.9351 84.9421 86.7786C84.7785 85.9297 84.4273 85.134 83.9173 84.4569C83.6705 84.3141 83.4709 84.0946 83.3454 83.8278C83.2999 83.7319 83.2678 83.6296 83.25 83.5239C83.3041 83.3727 83.3325 83.2124 83.334 83.0507C83.3728 82.9883 83.4422 82.9572 83.4846 82.8963C83.6954 82.5934 83.9858 82.6463 84.1374 83.0579C84.4612 83.2312 84.4643 83.5186 84.2656 83.7949C84.1392 83.9707 84.1218 84.2086 84.0109 84.3969C84.0223 84.4124 84.0342 84.4274 84.0456 84.4429C84.2542 84.7272 84.436 85.0326 84.5884 85.3545C84.5514 84.9938 84.5956 84.629 84.7175 84.2899C84.8411 83.974 85.0726 83.7079 85.2766 83.4347C85.3305 83.3614 85.4037 83.3066 85.487 83.2773C85.5703 83.2481 85.6599 83.2457 85.7445 83.2704C85.8291 83.2951 85.9049 83.3459 85.9623 83.4162C86.0197 83.4866 86.0561 83.5734 86.0669 83.6657L86.0682 83.6778C86.0379 83.6959 86.0082 83.7152 85.9792 83.7355C85.9428 83.7613 85.9145 83.7982 85.8982 83.8413C85.8819 83.8844 85.8782 83.9318 85.8877 83.9771C85.8972 84.0225 85.9194 84.0638 85.9513 84.0955C85.9833 84.1273 86.0236 84.1481 86.0669 84.1552L86.0714 84.1559C86.0606 84.2716 86.0415 84.3863 86.0143 84.499C86.2759 85.5715 85.7111 85.9622 84.9047 85.9797C84.8869 85.9894 84.8695 85.9991 84.8517 86.0083C85.0048 86.4683 85.1009 86.9475 85.1375 87.4338C85.1582 87.7207 85.1569 88.0089 85.1338 88.2956L85.1352 88.2855C85.1936 87.9667 85.354 87.679 85.5893 87.4711C85.9389 87.1667 86.4327 87.0546 86.8097 86.81C86.8498 86.7827 86.8964 86.7681 86.944 86.768C86.9916 86.7679 87.0383 86.7822 87.0785 86.8093C87.1187 86.8363 87.1507 86.875 87.1709 86.9208C87.191 86.9665 87.1984 87.0174 87.1921 87.0675L87.1906 87.0782C87.1344 87.1024 87.0797 87.1304 87.0267 87.1619C86.9964 87.18 86.9668 87.1992 86.9378 87.2196C86.9013 87.2454 86.8731 87.2822 86.8568 87.3254C86.8404 87.3685 86.8368 87.4158 86.8462 87.4612C86.8557 87.5066 86.8779 87.5478 86.9099 87.5796C86.9419 87.6114 86.9822 87.6322 87.0255 87.6392L87.0299 87.64L87.0391 87.6414C86.943 87.8845 86.8082 88.1083 86.6406 88.3029C86.477 89.2392 85.7744 89.328 85.0229 89.0554H85.0224C84.94 89.4352 84.8205 89.805 84.6659 90.1586H83.3924C83.3878 90.1436 83.3837 90.1282 83.3796 90.1132C83.4975 90.121 83.6158 90.1135 83.732 90.0909C83.6375 89.968 83.543 89.8441 83.4486 89.7212C83.4465 89.7189 83.4445 89.7165 83.4426 89.7139C83.3947 89.651 83.3463 89.5886 83.2984 89.5257L83.2984 89.5256C83.2958 89.3328 83.3167 89.1404 83.3605 88.9533L83.3605 88.9532Z" fill="#F2F2F2"/>
<path d="M40.9578 90.3504L92.3415 90.3934C92.3832 90.3934 92.4231 90.3758 92.4525 90.3446C92.482 90.3134 92.4985 90.2711 92.4985 90.227C92.4985 90.1828 92.482 90.1405 92.4525 90.1093C92.4231 90.0781 92.3832 90.0605 92.3415 90.0605L40.9578 90.0176C40.9161 90.0176 40.8762 90.0351 40.8468 90.0663C40.8173 90.0975 40.8008 90.1399 40.8008 90.184C40.8008 90.2281 40.8173 90.2705 40.8468 90.3017C40.8762 90.3329 40.9161 90.3504 40.9578 90.3504Z" fill="#CACACA"/>
<path d="M38.3338 67.0246C37.9649 67.0246 37.6043 66.9086 37.2976 66.6914C36.9909 66.4741 36.7519 66.1654 36.6107 65.8041C36.4696 65.4428 36.4326 65.0453 36.5046 64.6617C36.5765 64.2782 36.7542 63.9259 37.015 63.6494C37.2758 63.3729 37.6082 63.1846 37.9699 63.1083C38.3317 63.032 38.7067 63.0712 39.0475 63.2208C39.3883 63.3705 39.6796 63.6239 39.8845 63.949C40.0894 64.2742 40.1988 64.6564 40.1988 65.0475C40.1982 65.5716 40.0016 66.0742 39.6519 66.4449C39.3023 66.8155 38.8282 67.024 38.3338 67.0246ZM38.3338 63.3499C38.0171 63.3499 37.7075 63.4494 37.4441 63.636C37.1808 63.8225 36.9755 64.0876 36.8543 64.3978C36.7331 64.708 36.7014 65.0493 36.7632 65.3786C36.825 65.7079 36.9775 66.0104 37.2015 66.2478C37.4254 66.4853 37.7107 66.6469 38.0214 66.7124C38.332 66.7779 38.654 66.7443 38.9466 66.6158C39.2392 66.4874 39.4893 66.2698 39.6652 65.9906C39.8412 65.7114 39.9351 65.3832 39.9351 65.0475C39.9346 64.5974 39.7658 64.1659 39.4656 63.8476C39.1654 63.5294 38.7583 63.3504 38.3338 63.3499Z" fill="#F2F2F2"/>
<path d="M39.0648 64.9561L38.4865 64.2105C38.4708 64.1902 38.4511 64.1739 38.4289 64.1625C38.4066 64.1511 38.3823 64.145 38.3576 64.1446C38.3329 64.1441 38.3084 64.1494 38.2858 64.16C38.2632 64.1706 38.2431 64.1862 38.2268 64.2059L37.6082 64.9515C37.5787 64.9876 37.5638 65.0345 37.5668 65.0822C37.5698 65.1298 37.5905 65.1743 37.6243 65.2058C37.6581 65.2374 37.7024 65.2534 37.7473 65.2505C37.7923 65.2476 37.8343 65.2259 37.8643 65.1902L38.1843 64.8045V65.7718C38.1843 65.8197 38.2023 65.8657 38.2342 65.8996C38.2662 65.9335 38.3096 65.9525 38.3548 65.9525C38.4 65.9525 38.4434 65.9335 38.4753 65.8996C38.5073 65.8657 38.5252 65.8197 38.5252 65.7718V64.8296L38.8015 65.1857C38.8302 65.2227 38.8716 65.2461 38.9166 65.2508C38.9616 65.2554 39.0065 65.2409 39.0414 65.2105C39.0764 65.18 39.0984 65.1361 39.1028 65.0884C39.1072 65.0407 39.0935 64.9931 39.0648 64.9561H39.0648Z" fill="#F2F2F2"/>
<path d="M59.5603 37.8137C59.1915 37.8137 58.8309 37.6977 58.5242 37.4805C58.2175 37.2632 57.9784 36.9544 57.8373 36.5931C57.6961 36.2319 57.6592 35.8343 57.7312 35.4508C57.8031 35.0673 57.9807 34.715 58.2416 34.4385C58.5024 34.162 58.8347 33.9737 59.1965 33.8974C59.5583 33.8211 59.9333 33.8602 60.2741 34.0099C60.6148 34.1595 60.9061 34.4129 61.1111 34.7381C61.316 35.0632 61.4254 35.4455 61.4254 35.8365C61.4248 36.3607 61.2281 36.8633 60.8785 37.2339C60.5289 37.6046 60.0548 37.8131 59.5603 37.8137ZM59.5603 34.1389C59.2436 34.1389 58.934 34.2385 58.6707 34.425C58.4074 34.6116 58.2021 34.8767 58.0809 35.1869C57.9597 35.4971 57.928 35.8384 57.9898 36.1677C58.0516 36.497 58.2041 36.7995 58.428 37.0369C58.652 37.2743 58.9373 37.436 59.2479 37.5015C59.5586 37.567 59.8805 37.5334 60.1732 37.4049C60.4658 37.2764 60.7159 37.0588 60.8918 36.7797C61.0678 36.5005 61.1617 36.1723 61.1617 35.8365C61.1612 35.3864 60.9923 34.9549 60.6921 34.6367C60.3919 34.3184 59.9849 34.1394 59.5603 34.1389V34.1389Z" fill="#F2F2F2"/>
<path d="M60.2914 35.7432L59.713 34.9976C59.6973 34.9773 59.6777 34.961 59.6554 34.9496C59.6332 34.9382 59.6089 34.9321 59.5842 34.9317C59.5595 34.9312 59.535 34.9365 59.5124 34.9471C59.4898 34.9577 59.4696 34.9733 59.4533 34.993L58.8348 35.7386C58.8052 35.7747 58.7903 35.8216 58.7934 35.8693C58.7964 35.917 58.817 35.9614 58.8509 35.9929C58.8847 36.0245 58.9289 36.0405 58.9739 36.0376C59.0189 36.0347 59.0609 36.013 59.0908 35.9773L59.4109 35.5916V36.5589C59.4109 36.6068 59.4288 36.6528 59.4608 36.6867C59.4928 36.7206 59.5361 36.7396 59.5813 36.7396C59.6265 36.7396 59.6699 36.7206 59.7019 36.6867C59.7339 36.6528 59.7518 36.6068 59.7518 36.5589V35.6167L60.028 35.9728C60.0568 36.0098 60.0982 36.0332 60.1432 36.0379C60.1882 36.0425 60.2331 36.028 60.268 35.9976C60.3029 35.9671 60.325 35.9232 60.3294 35.8755C60.3338 35.8278 60.3201 35.7802 60.2914 35.7432L60.2914 35.7432Z" fill="#F2F2F2"/>
<path d="M17.5018 36.134C17.1329 36.134 16.7723 36.018 16.4656 35.8008C16.1589 35.5835 15.9198 35.2747 15.7787 34.9135C15.6375 34.5522 15.6006 34.1546 15.6726 33.7711C15.7445 33.3876 15.9221 33.0353 16.183 32.7588C16.4438 32.4823 16.7761 32.294 17.1379 32.2177C17.4997 32.1414 17.8747 32.1805 18.2155 32.3302C18.5563 32.4798 18.8475 32.7332 19.0525 33.0584C19.2574 33.3835 19.3668 33.7658 19.3668 34.1568C19.3662 34.681 19.1695 35.1836 18.8199 35.5542C18.4703 35.9249 17.9962 36.1334 17.5018 36.134ZM17.5018 32.4592C17.185 32.4592 16.8754 32.5588 16.6121 32.7453C16.3488 32.9319 16.1435 33.197 16.0223 33.5072C15.9011 33.8174 15.8694 34.1587 15.9312 34.488C15.993 34.8173 16.1455 35.1198 16.3694 35.3572C16.5934 35.5946 16.8787 35.7563 17.1893 35.8218C17.5 35.8873 17.8219 35.8537 18.1146 35.7252C18.4072 35.5967 18.6573 35.3791 18.8332 35.1C19.0092 34.8208 19.1031 34.4926 19.1031 34.1568C19.1026 33.7068 18.9338 33.2753 18.6335 32.957C18.3333 32.6387 17.9263 32.4597 17.5018 32.4592V32.4592Z" fill="#F2F2F2"/>
<path d="M18.2328 34.0655L17.6544 33.3198C17.6387 33.2996 17.6191 33.2832 17.5968 33.2719C17.5746 33.2605 17.5503 33.2544 17.5256 33.2539C17.5009 33.2535 17.4764 33.2588 17.4538 33.2694C17.4312 33.2799 17.411 33.2956 17.3947 33.3153L16.7762 34.0609C16.7467 34.0969 16.7317 34.1439 16.7348 34.1916C16.7378 34.2392 16.7584 34.2837 16.7923 34.3152C16.8261 34.3467 16.8703 34.3628 16.9153 34.3599C16.9603 34.357 17.0023 34.3353 17.0323 34.2996L17.3523 33.9138V34.8812C17.3523 34.9291 17.3702 34.9751 17.4022 35.009C17.4342 35.0429 17.4775 35.0619 17.5227 35.0619C17.568 35.0619 17.6113 35.0429 17.6433 35.009C17.6753 34.9751 17.6932 34.9291 17.6932 34.8812V33.939L17.9694 34.295C17.9982 34.3321 18.0396 34.3555 18.0846 34.3601C18.1296 34.3648 18.1745 34.3503 18.2094 34.3198C18.2443 34.2894 18.2664 34.2455 18.2708 34.1978C18.2752 34.1501 18.2615 34.1025 18.2328 34.0655L18.2328 34.0655Z" fill="#F2F2F2"/>
<path d="M32.4002 11.9543C32.0313 11.9543 31.6707 11.8383 31.364 11.6211C31.0573 11.4038 30.8183 11.095 30.6771 10.7338C30.536 10.3725 30.499 9.97495 30.571 9.59142C30.643 9.2079 30.8206 8.8556 31.0814 8.57909C31.3422 8.30258 31.6746 8.11428 32.0363 8.03799C32.3981 7.9617 32.7731 8.00086 33.1139 8.1505C33.4547 8.30015 33.746 8.55356 33.9509 8.8787C34.1558 9.20384 34.2652 9.5861 34.2652 9.97714C34.2647 10.5013 34.068 11.0039 33.7183 11.3745C33.3687 11.7452 32.8947 11.9537 32.4002 11.9543ZM32.4002 8.27955C32.0835 8.27955 31.7739 8.37911 31.5105 8.56564C31.2472 8.75218 31.0419 9.01731 30.9207 9.3275C30.7995 9.6377 30.7678 9.97903 30.8296 10.3083C30.8914 10.6376 31.0439 10.9401 31.2679 11.1775C31.4918 11.4149 31.7772 11.5766 32.0878 11.6421C32.3984 11.7076 32.7204 11.674 33.013 11.5455C33.3056 11.417 33.5557 11.1994 33.7316 10.9203C33.9076 10.6411 34.0015 10.3129 34.0015 9.97714C34.001 9.52707 33.8322 9.09556 33.532 8.77731C33.2318 8.45906 32.8247 8.28004 32.4002 8.27954V8.27955Z" fill="#F2F2F2"/>
<path d="M33.1312 9.88576L32.5529 9.14015C32.5372 9.11992 32.5175 9.10355 32.4953 9.09217C32.473 9.08079 32.4487 9.07468 32.424 9.07424C32.3993 9.07381 32.3748 9.07907 32.3522 9.08966C32.3296 9.10026 32.3095 9.11592 32.2932 9.13559L31.6746 9.8812C31.6451 9.91724 31.6302 9.96422 31.6332 10.0119C31.6362 10.0595 31.6569 10.104 31.6907 10.1355C31.7245 10.1671 31.7688 10.1831 31.8137 10.1802C31.8587 10.1773 31.9008 10.1556 31.9307 10.1199L32.2507 9.73414V10.7015C32.2507 10.7494 32.2687 10.7954 32.3006 10.8293C32.3326 10.8632 32.376 10.8822 32.4212 10.8822C32.4664 10.8822 32.5098 10.8632 32.5417 10.8293C32.5737 10.7954 32.5917 10.7494 32.5917 10.7015V9.75927L32.8679 10.1154C32.8966 10.1524 32.938 10.1758 32.983 10.1804C33.028 10.1851 33.0729 10.1706 33.1078 10.1402C33.1428 10.1097 33.1648 10.0658 33.1692 10.0181C33.1736 9.97039 33.1599 9.92279 33.1312 9.88577L33.1312 9.88576Z" fill="#F2F2F2"/>
<path d="M12.494 50.8118C12.1251 50.8118 11.7645 50.6958 11.4578 50.4786C11.1511 50.2613 10.912 49.9525 10.7709 49.5912C10.6297 49.23 10.5928 48.8324 10.6647 48.4489C10.7367 48.0653 10.9143 47.713 11.1752 47.4365C11.436 47.16 11.7683 46.9717 12.1301 46.8954C12.4919 46.8191 12.8669 46.8583 13.2077 47.0079C13.5485 47.1576 13.8398 47.411 14.0447 47.7362C14.2497 48.0613 14.359 48.4436 14.359 48.8346C14.3585 49.3588 14.1618 49.8614 13.8122 50.232C13.4625 50.6027 12.9885 50.8112 12.494 50.8118ZM12.494 47.137C12.1773 47.137 11.8677 47.2365 11.6043 47.423C11.341 47.6096 11.1357 47.8747 11.0145 48.1849C10.8933 48.4951 10.8616 48.8364 10.9234 49.1658C10.9851 49.4951 11.1377 49.7976 11.3616 50.035C11.5856 50.2724 11.8709 50.4341 12.1815 50.4996C12.4922 50.5651 12.8141 50.5315 13.1068 50.403C13.3994 50.2745 13.6495 50.057 13.8254 49.7778C14.0014 49.4986 14.0953 49.1704 14.0953 48.8346C14.0949 48.3845 13.926 47.953 13.6258 47.6348C13.3256 47.3165 12.9186 47.1375 12.494 47.137Z" fill="white"/>
<path d="M13.2211 48.7412L12.6427 47.9956C12.627 47.9754 12.6074 47.959 12.5851 47.9476C12.5629 47.9363 12.5386 47.9301 12.5139 47.9297C12.4892 47.9293 12.4647 47.9345 12.4421 47.9451C12.4195 47.9557 12.3993 47.9714 12.383 47.9911L11.7645 48.7367C11.7349 48.7727 11.72 48.8197 11.723 48.8673C11.726 48.915 11.7467 48.9595 11.7806 48.991C11.8144 49.0225 11.8586 49.0386 11.9036 49.0357C11.9486 49.0327 11.9906 49.0111 12.0205 48.9754L12.3405 48.5896V49.557C12.3405 49.6049 12.3585 49.6509 12.3905 49.6847C12.4224 49.7186 12.4658 49.7377 12.511 49.7377C12.5562 49.7377 12.5996 49.7186 12.6316 49.6847C12.6635 49.6509 12.6815 49.6049 12.6815 49.557V48.6147L12.9577 48.9708C12.9864 49.0078 13.0279 49.0313 13.0729 49.0359C13.1179 49.0406 13.1628 49.0261 13.1977 48.9956C13.2326 48.9652 13.2547 48.9213 13.2591 48.8736C13.2635 48.8259 13.2498 48.7783 13.2211 48.7412L13.2211 48.7412Z" fill="white"/>
<path d="M52.8378 17.6848C52.4689 17.6848 52.1083 17.5689 51.8016 17.3516C51.4949 17.1344 51.2558 16.8256 51.1146 16.4643C50.9735 16.103 50.9365 15.7055 51.0085 15.3219C51.0805 14.9384 51.2581 14.5861 51.5189 14.3096C51.7798 14.0331 52.1121 13.8447 52.4739 13.7685C52.8357 13.6922 53.2107 13.7313 53.5515 13.881C53.8923 14.0306 54.1835 14.2841 54.3885 14.6092C54.5934 14.9344 54.7028 15.3166 54.7028 15.7077C54.7022 16.2319 54.5055 16.7344 54.1559 17.1051C53.8063 17.4757 53.3322 17.6842 52.8378 17.6848ZM52.8378 14.01C52.521 14.01 52.2114 14.1096 51.9481 14.2961C51.6847 14.4826 51.4795 14.7478 51.3583 15.058C51.237 15.3682 51.2053 15.7095 51.2671 16.0388C51.3289 16.3681 51.4814 16.6706 51.7054 16.908C51.9293 17.1455 52.2146 17.3071 52.5253 17.3727C52.8359 17.4382 53.1579 17.4046 53.4505 17.2761C53.7431 17.1476 53.9932 16.93 54.1692 16.6508C54.3452 16.3717 54.4391 16.0434 54.4391 15.7077C54.4386 15.2576 54.2698 14.8261 53.9696 14.5078C53.6693 14.1896 53.2623 14.0105 52.8378 14.01Z" fill="white"/>
<path d="M53.5687 15.6162L52.9904 14.8706C52.9747 14.8504 52.955 14.834 52.9328 14.8226C52.9105 14.8113 52.8862 14.8051 52.8615 14.8047C52.8368 14.8043 52.8123 14.8095 52.7897 14.8201C52.7671 14.8307 52.747 14.8464 52.7307 14.8661L52.1121 15.6117C52.0826 15.6477 52.0677 15.6947 52.0707 15.7423C52.0737 15.79 52.0944 15.8344 52.1282 15.866C52.162 15.8975 52.2063 15.9136 52.2512 15.9107C52.2962 15.9077 52.3383 15.8861 52.3682 15.8504L52.6882 15.4646V16.432C52.6882 16.4799 52.7062 16.5259 52.7381 16.5597C52.7701 16.5936 52.8135 16.6127 52.8587 16.6127C52.9039 16.6127 52.9473 16.5936 52.9792 16.5597C53.0112 16.5259 53.0292 16.4799 53.0292 16.432V15.4897L53.3054 15.8458C53.3341 15.8828 53.3755 15.9063 53.4205 15.9109C53.4655 15.9156 53.5104 15.9011 53.5453 15.8706C53.5803 15.8402 53.6023 15.7963 53.6067 15.7486C53.6111 15.7009 53.5974 15.6533 53.5687 15.6162L53.5687 15.6162Z" fill="white"/>
</g>
<rect x="1" y="1" width="96" height="96" rx="48" stroke="#8ECAE6" stroke-width="2"/>
<defs>
<clipPath id="clip0_1125_21963">
<rect width="88" height="82.3935" fill="white" transform="translate(4.5 8)"/>
</clipPath>
</defs>
</svg>
