<svg width="98" height="98" viewBox="0 0 98 98" fill="none" xmlns="http://www.w3.org/2000/svg">
<rect x="1" y="1" width="96" height="96" rx="48" fill="white"/>
<g clip-path="url(#clip0_1125_21932)">
<path d="M87.03 37.4345H11.0534C10.3765 37.4337 9.72743 37.1834 9.24874 36.7384C8.77005 36.2933 8.50078 35.6899 8.5 35.0606V7.37388C8.50078 6.74451 8.77005 6.14113 9.24874 5.6961C9.72743 5.25106 10.3765 5.00073 11.0534 5H87.03C87.707 5.00073 88.356 5.25106 88.8347 5.6961C89.3133 6.14113 89.5826 6.74451 89.5834 7.37388V35.0606C89.5826 35.69 89.3133 36.2933 88.8347 36.7384C88.356 37.1834 87.707 37.4337 87.03 37.4345Z" fill="#F2F2F2"/>
<path d="M69.3105 35.9208H23.1135C19.671 35.9172 16.3705 34.6442 13.9363 32.3811C11.5021 30.118 10.1328 27.0497 10.1289 23.8492V18.5874C10.1328 15.3869 11.502 12.3185 13.9363 10.0554C16.3705 7.79226 19.671 6.51926 23.1135 6.51562H74.9703C78.4128 6.51926 81.7133 7.79226 84.1475 10.0554C86.5817 12.3185 87.951 15.3869 87.9549 18.5874C87.9493 23.1829 85.9832 27.5887 82.4879 30.8382C78.9926 34.0877 74.2536 35.9156 69.3105 35.9208Z" fill="white"/>
<path d="M57.3945 14.4412H26.8577C26.6831 14.4412 26.5156 14.3767 26.3921 14.2619C26.2686 14.1471 26.1992 13.9914 26.1992 13.829C26.1992 13.6667 26.2686 13.5109 26.3921 13.3961C26.5156 13.2813 26.6831 13.2168 26.8577 13.2168H57.3945C57.5692 13.2168 57.7367 13.2813 57.8602 13.3961C57.9837 13.5109 58.0531 13.6667 58.0531 13.829C58.0531 13.9914 57.9837 14.1471 57.8602 14.2619C57.7367 14.3767 57.5692 14.4412 57.3945 14.4412Z" fill="#E6E6E6"/>
<path d="M72.8528 20.9725H26.8577C26.6831 20.9725 26.5156 20.908 26.3921 20.7932C26.2686 20.6784 26.1992 20.5226 26.1992 20.3603C26.1992 20.1979 26.2686 20.0422 26.3921 19.9274C26.5156 19.8125 26.6831 19.748 26.8577 19.748H72.8528C73.0274 19.748 73.1949 19.8125 73.3184 19.9274C73.4419 20.0422 73.5113 20.1979 73.5113 20.3603C73.5113 20.5226 73.4419 20.6784 73.3184 20.7932C73.1949 20.908 73.0274 20.9725 72.8528 20.9725Z" fill="#E6E6E6"/>
<path d="M72.8528 27.5037H26.8577C26.6831 27.5037 26.5156 27.4392 26.3921 27.3244C26.2686 27.2096 26.1992 27.0539 26.1992 26.8915C26.1992 26.7291 26.2686 26.5734 26.3921 26.4586C26.5156 26.3438 26.6831 26.2793 26.8577 26.2793H72.8528C73.0274 26.2793 73.1949 26.3438 73.3184 26.4586C73.4419 26.5734 73.5113 26.7291 73.5113 26.8915C73.5113 27.0539 73.4419 27.2096 73.3184 27.3244C73.1949 27.4392 73.0274 27.5037 72.8528 27.5037Z" fill="#E6E6E6"/>
<path d="M72.8528 27.5037H26.8577C26.6831 27.5037 26.5156 27.4392 26.3921 27.3244C26.2686 27.2096 26.1992 27.0539 26.1992 26.8915C26.1992 26.7291 26.2686 26.5734 26.3921 26.4586C26.5156 26.3438 26.6831 26.2793 26.8577 26.2793H72.8528C73.0274 26.2793 73.1949 26.3438 73.3184 26.4586C73.4419 26.5734 73.5113 26.7291 73.5113 26.8915C73.5113 27.0539 73.4419 27.2096 73.3184 27.3244C73.1949 27.4392 73.0274 27.5037 72.8528 27.5037Z" fill="#E6E6E6"/>
<path d="M54.1731 21.7226C54.1805 21.907 54.2312 22.0877 54.3217 22.2519C54.4123 22.4161 54.5405 22.5599 54.6973 22.673C54.854 22.7862 55.0356 22.8661 55.2292 22.9069C55.4227 22.9478 55.6236 22.9488 55.8176 22.9097L58.3289 26.7399L59.3978 24.6313L56.8491 21.3173C56.7568 21.0187 56.55 20.7619 56.2677 20.5956C55.9854 20.4293 55.6473 20.365 55.3175 20.415C54.9877 20.4649 54.689 20.6256 54.4781 20.8666C54.2672 21.1076 54.1587 21.4122 54.1732 21.7226H54.1731Z" fill="#FFB6B6"/>
<path d="M73.0176 32.7009L64.3629 28.3365L61.6331 25.9555C61.6331 25.9555 60.4463 25.6601 60.8831 25.3013C61.3199 24.9426 60.0752 24.5966 60.0752 24.5966L58.6097 23.3184L56.5273 24.6882L57.13 25.5567C57.13 25.5567 57.0885 26.9945 57.9357 26.7179C58.783 26.4413 58.5713 27.6337 58.5713 27.6337L63.6282 34.9214L73.0176 32.7009Z" fill="#3F3D56"/>
<path d="M47.4691 28.5874C52.1379 28.5874 55.9227 25.0688 55.9227 20.7283C55.9227 16.3878 52.1379 12.8691 47.4691 12.8691C42.8004 12.8691 39.0156 16.3878 39.0156 20.7283C39.0156 25.0688 42.8004 28.5874 47.4691 28.5874Z" fill="#219EBC"/>
<path d="M73.0434 89.9456H71.2857L70.4492 83.6426H73.0434V89.9456Z" fill="#FFB6B6"/>
<path d="M73.973 92.7763H72.7124L72.4874 91.6699L71.9112 92.7763H68.568C68.4077 92.7763 68.2517 92.7287 68.1226 92.6404C67.9935 92.5521 67.8981 92.4278 67.8505 92.2855C67.8028 92.1433 67.8052 91.9906 67.8575 91.8498C67.9097 91.7089 68.0091 91.5873 68.1409 91.5027L70.8107 89.7885V88.6699L73.6189 88.8257L73.973 92.7763Z" fill="#2F2E41"/>
<path d="M58.9848 89.9456H57.2271L56.3906 83.6426H58.9848V89.9456Z" fill="#FFB6B6"/>
<path d="M59.9144 92.7763H58.6538L58.4288 91.6699L57.8526 92.7763H54.5094C54.3491 92.7763 54.1931 92.7287 54.064 92.6404C53.9349 92.5521 53.8396 92.4278 53.7919 92.2855C53.7442 92.1433 53.7466 91.9906 53.7989 91.8498C53.8511 91.7089 53.9505 91.5873 54.0823 91.5027L56.7521 89.7885V88.6699L59.5603 88.8257L59.9144 92.7763Z" fill="#2F2E41"/>
<path d="M71.1802 42.2754H62.3086V51.6653H71.1802V42.2754Z" fill="#FFB6B6"/>
<path d="M62.5109 46.9082L61.0095 48.5578L58.4162 53.6334L51.8819 68.0875L50.5 71.1443L51.616 76.5481C51.616 76.5481 51.7966 80.3551 51.7966 80.9783C51.7966 82.2472 52.9382 82.9503 52.9382 82.9503L53.7757 87.0056L61.8966 86.6884C61.8966 86.6884 61.6133 82.2183 59.9124 81.0907C58.2115 79.9632 57.4296 74.0867 57.4296 74.0867L56.5054 71.4795L65.5136 61.5521L65.5717 65.0222L65.5998 66.7019C65.5998 66.7019 64.2807 77.6263 65.8184 79.7464C67.3561 81.8665 65.8497 81.6171 65.8497 81.6171L65.923 85.9905L75.5453 86.0539L73.4225 73.4629C73.4225 73.4629 72.3446 72.6716 72.9213 71.8762C73.498 71.0808 72.3624 70.1067 72.3624 70.1067L72.8717 60.2772C72.8717 60.2772 72.3077 58.5794 72.9711 58.3587C73.6345 58.138 73.0582 56.678 73.0582 56.678L73.1568 54.7754L71.1778 48.875L62.5109 46.9082Z" fill="#2F2E41"/>
<path d="M71.3152 42.2761L72.2706 39.6114L72.953 38.7232L73.226 36.1854C73.226 29.3333 71.582 30.4743 71.582 30.4743L70.6327 28.0644L66.2651 27.9375L63.4672 30.4119L61.1469 31.1732L60.2383 35.5624L61.8976 40.2459L62.307 42.7837C61.5259 44.1243 61.592 43.4902 62.2388 44.4967L69.9503 46.4635C72.68 47.3517 72.68 45.0677 72.1327 44.4967C71.5853 43.9257 71.3152 42.2761 71.3152 42.2761Z" fill="#3F3D56"/>
<path d="M67.8848 27.0851C70.121 27.0851 71.9337 25.3998 71.9337 23.3209C71.9337 21.2419 70.121 19.5566 67.8848 19.5566C65.6487 19.5566 63.8359 21.2419 63.8359 23.3209C63.8359 25.3998 65.6487 27.0851 67.8848 27.0851Z" fill="#FFB6B6"/>
<path d="M73.2909 28.3453C73.329 28.4052 73.3521 28.4723 73.3585 28.5416C73.3649 28.6109 73.3544 28.6806 73.3278 28.7456C73.3012 28.8106 73.2591 28.8692 73.2047 28.917C73.1504 28.9648 73.0851 29.0006 73.0138 29.0217C72.4706 29.1892 72.1362 29.6777 71.7458 30.0685C71.3569 30.4581 70.7304 30.7816 70.2336 30.5164C69.7381 30.2525 69.704 29.5787 69.2891 29.2133C68.8851 28.858 68.2136 28.9011 67.7386 29.1714L67.7244 29.1795C67.6424 29.2292 67.5465 29.2555 67.4487 29.2551C67.3508 29.2547 67.2552 29.2276 67.1737 29.1772C67.0922 29.1268 67.0284 29.0553 66.9901 28.9716C66.9519 28.8878 66.9408 28.7955 66.9584 28.706C67.1249 27.8831 67.2912 27.0604 67.4574 26.2377C67.0206 27.2161 66.3863 28.1077 65.5889 28.8643C65.3693 29.1 65.0909 29.2821 64.7782 29.3947C64.4943 29.4785 64.2186 29.2057 63.9429 29.2551C64.628 28.6981 66.9319 25.1274 66.5198 22.7406C66.0352 22.7913 65.5507 22.8421 65.0662 22.8929C65.0137 22.6797 64.9017 22.4831 64.7413 22.3231C64.7609 22.5306 64.7325 22.7396 64.6581 22.936C64.4561 22.9576 64.2527 22.9779 64.0507 22.9994C63.7696 23.0286 63.4638 23.054 63.2222 22.917C62.8196 22.6886 62.8073 22.148 62.922 21.7217C63.2577 20.4819 64.2759 19.4452 65.522 18.9022C66.7682 18.3603 67.1367 19.5671 68.4497 19.1813C71.0429 18.42 73.0302 19.7219 73.7304 22.1379C74.3186 24.1643 73.8914 26.3151 73.2909 28.3453Z" fill="#2F2E41"/>
<path d="M84.4983 92.8559H79.5405L79.5192 92.82C79.4558 92.7131 79.3946 92.5998 79.3374 92.4834C78.8267 91.467 78.6109 90.3045 78.4204 89.2788L78.277 88.5057C78.2596 88.4121 78.2727 88.3158 78.3146 88.2291C78.3564 88.1424 78.4252 88.0693 78.512 88.0192C78.5988 87.969 78.6997 87.9441 78.8018 87.9476C78.9039 87.9511 79.0026 87.9828 79.0852 88.0387C79.8387 88.5485 80.5924 89.0577 81.3465 89.5664C81.632 89.7595 81.9581 89.983 82.2703 90.2246C82.3005 90.0886 82.332 89.9521 82.3635 89.8176C82.3852 89.7247 82.4363 89.6399 82.5101 89.5741C82.584 89.5084 82.6772 89.4646 82.778 89.4484C82.8788 89.4322 82.9824 89.4443 83.0758 89.4832C83.1691 89.5221 83.2478 89.586 83.3018 89.6667L83.8818 90.5332C84.3049 91.1659 84.6783 91.7894 84.6023 92.4619C84.6026 92.4701 84.602 92.4783 84.6003 92.4863C84.5851 92.5968 84.5568 92.7053 84.5161 92.8101L84.4983 92.8559Z" fill="#F0F0F0"/>
<path d="M89.4765 92.9577L42.3645 93.0004C42.3175 93.0002 42.2724 92.9826 42.2393 92.9517C42.2061 92.9207 42.1875 92.8787 42.1875 92.835C42.1875 92.7913 42.2061 92.7494 42.2393 92.7184C42.2724 92.6874 42.3175 92.6699 42.3645 92.6696L89.4765 92.627C89.5236 92.6272 89.5686 92.6447 89.6017 92.6757C89.6349 92.7067 89.6535 92.7486 89.6535 92.7923C89.6535 92.836 89.6349 92.878 89.6017 92.909C89.5686 92.94 89.5236 92.9575 89.4765 92.9577Z" fill="#CACACA"/>
<path d="M46.7032 31.3076L41.5211 27.239C41.344 27.0996 41.2335 26.9006 41.214 26.6856C41.1945 26.4706 41.2676 26.2572 41.4171 26.0923L42.3709 25.0423C42.5208 24.8776 42.7349 24.7749 42.9661 24.7568C43.1974 24.7387 43.4269 24.8066 43.6043 24.9456L48.7865 29.0142C48.9636 29.1535 49.074 29.3525 49.0935 29.5675C49.113 29.7825 49.04 29.9959 48.8905 30.1609L47.9367 31.2109C47.7868 31.3756 47.5727 31.4782 47.3415 31.4964C47.1102 31.5145 46.8807 31.4466 46.7032 31.3076Z" fill="#3F3D56"/>
<path d="M41.7908 26.178C41.7102 26.2669 41.6709 26.3819 41.6814 26.4978C41.6919 26.6136 41.7514 26.7209 41.8468 26.796L47.0289 30.8646C47.1246 30.9395 47.2483 30.9761 47.3729 30.9663C47.4975 30.9565 47.6128 30.9012 47.6936 30.8125L48.6474 29.7625C48.728 29.6736 48.7673 29.5586 48.7568 29.4427C48.7463 29.3269 48.6868 29.2196 48.5914 29.1445L43.4093 25.0759C43.3136 25.001 43.1899 24.9644 43.0653 24.9742C42.9407 24.984 42.8254 25.0393 42.7446 25.128L41.7908 26.178Z" fill="white"/>
<path d="M44.8318 27.7578C44.8138 27.7812 44.7902 27.8004 44.7629 27.8138C44.7355 27.8273 44.7052 27.8346 44.6743 27.8353L43.8601 27.8527C43.8339 27.8532 43.8079 27.849 43.7835 27.8402C43.7591 27.8314 43.7368 27.8182 43.7179 27.8014C43.699 27.7846 43.6838 27.7645 43.6732 27.7423C43.6627 27.72 43.6569 27.6961 43.6563 27.6717C43.6557 27.6474 43.6603 27.6232 43.6697 27.6005C43.6792 27.5779 43.6933 27.5571 43.7114 27.5395C43.7295 27.522 43.7511 27.5078 43.775 27.498C43.799 27.4882 43.8248 27.4829 43.8509 27.4823L44.3836 27.4709L43.859 26.1841C43.8404 26.1381 43.8422 26.0873 43.8639 26.0426C43.8856 25.9979 43.9255 25.963 43.9749 25.9456C44.0242 25.9282 44.079 25.9298 44.1271 25.9498C44.1752 25.9699 44.2128 26.0069 44.2316 26.0528L44.856 27.5845C44.8673 27.6122 44.8713 27.642 44.8676 27.6714C44.864 27.7008 44.8528 27.729 44.835 27.7536L44.8318 27.7578Z" fill="#219EBC"/>
<path d="M44.9394 28.0811C45.1358 28.1079 45.3235 28.1744 45.4892 28.276C45.655 28.3775 45.7947 28.5116 45.8987 28.6688C46.0027 28.826 46.0683 29.0025 46.091 29.1858C46.1136 29.3692 46.0928 29.5549 46.0299 29.7299L49.8523 32.4673L47.4815 33.2258L44.2151 30.5101C43.9058 30.3923 43.6537 30.1733 43.5066 29.8943C43.3595 29.6153 43.3275 29.2959 43.4168 28.9965C43.5061 28.6971 43.7104 28.4385 43.991 28.2698C44.2716 28.1011 44.6091 28.034 44.9394 28.0811L44.9394 28.0811Z" fill="#FFB6B6"/>
<path d="M64.837 29.4336L55.0504 35.0277C55.0504 35.0277 51.1045 33.6704 51.8757 33.0421C52.6468 32.4137 50.1919 31.9889 50.1919 31.9889L47.48 30.2927L45.9062 31.993C45.9062 31.993 46.193 34.7548 46.6809 34.2766C47.1688 33.7984 47.898 35.1047 47.898 35.1047C47.898 35.1047 48.1135 36.5634 49.5024 36.1963C50.8912 35.8293 54.6179 39.6769 54.6179 39.6769L66.6623 35.5007L64.837 29.4336Z" fill="#3F3D56"/>
<path d="M47.1716 23.8815C47.0581 23.8815 46.9462 23.8569 46.8448 23.8097C46.7433 23.7626 46.655 23.694 46.587 23.6096L44.7946 21.3878C44.737 21.3164 44.6951 21.2352 44.6713 21.1487C44.6475 21.0623 44.6422 20.9724 44.6558 20.884C44.6694 20.7957 44.7015 20.7107 44.7504 20.634C44.7993 20.5572 44.864 20.4901 44.9408 20.4366C45.0958 20.3285 45.2907 20.2821 45.4826 20.3075C45.5776 20.3202 45.669 20.3501 45.7516 20.3955C45.8342 20.441 45.9063 20.5011 45.9639 20.5725L47.1366 22.026L50.1483 17.826C50.2559 17.6761 50.423 17.572 50.6131 17.5366C50.8032 17.5013 51.0006 17.5376 51.1618 17.6376C51.3231 17.7375 51.4351 17.8929 51.4731 18.0696C51.5111 18.2463 51.4721 18.4298 51.3645 18.5798L47.7797 23.5789C47.7149 23.6693 47.6277 23.744 47.5254 23.7966C47.4231 23.8492 47.3088 23.8782 47.1919 23.8813C47.1851 23.8814 47.1784 23.8815 47.1716 23.8815Z" fill="white"/>
</g>
<rect x="1" y="1" width="96" height="96" rx="48" stroke="#8ECAE6" stroke-width="2"/>
<defs>
<clipPath id="clip0_1125_21932">
<rect width="81.1529" height="88" fill="white" transform="translate(8.5 5)"/>
</clipPath>
</defs>
</svg>
