<svg width="98" height="98" viewBox="0 0 98 98" fill="none" xmlns="http://www.w3.org/2000/svg">
<rect x="1" y="1" width="96" height="96" rx="48" fill="white"/>
<g clip-path="url(#clip0_778_6962)">
<path d="M87.03 37.4345H11.0534C10.3765 37.4337 9.72743 37.1834 9.24874 36.7384C8.77005 36.2933 8.50078 35.6899 8.5 35.0606V7.37388C8.50078 6.74451 8.77005 6.14113 9.24874 5.6961C9.72743 5.25106 10.3765 5.00073 11.0534 5H87.03C87.707 5.00073 88.356 5.25106 88.8347 5.6961C89.3133 6.14113 89.5826 6.74451 89.5834 7.37388V35.0606C89.5826 35.69 89.3133 36.2933 88.8347 36.7384C88.356 37.1834 87.707 37.4337 87.03 37.4345Z" fill="#F2F2F2"/>
<path d="M69.3108 35.9218H23.1137C19.6712 35.9182 16.3708 34.6452 13.9365 32.3821C11.5023 30.119 10.133 27.0506 10.1292 23.8502V18.5883C10.133 15.3878 11.5023 12.3194 13.9365 10.0563C16.3708 7.79324 19.6712 6.52023 23.1137 6.5166H74.9705C78.4131 6.52023 81.7135 7.79324 84.1477 10.0563C86.582 12.3194 87.9512 15.3878 87.9551 18.5883C87.9495 23.1839 85.9834 27.5897 82.4881 30.8392C78.9929 34.0887 74.2538 35.9166 69.3108 35.9218Z" fill="white"/>
<path d="M57.3939 14.4412H26.8571C26.6825 14.4412 26.515 14.3767 26.3915 14.2619C26.268 14.1471 26.1986 13.9914 26.1986 13.829C26.1986 13.6667 26.268 13.5109 26.3915 13.3961C26.515 13.2813 26.6825 13.2168 26.8571 13.2168H57.3939C57.5686 13.2168 57.7361 13.2813 57.8596 13.3961C57.9831 13.5109 58.0525 13.6667 58.0525 13.829C58.0525 13.9914 57.9831 14.1471 57.8596 14.2619C57.7361 14.3767 57.5686 14.4412 57.3939 14.4412Z" fill="#E6E6E6"/>
<path d="M72.8522 20.9725H26.8571C26.6825 20.9725 26.515 20.908 26.3915 20.7932C26.268 20.6784 26.1986 20.5226 26.1986 20.3603C26.1986 20.1979 26.268 20.0422 26.3915 19.9274C26.515 19.8125 26.6825 19.748 26.8571 19.748H72.8522C73.0268 19.748 73.1943 19.8125 73.3178 19.9274C73.4413 20.0422 73.5107 20.1979 73.5107 20.3603C73.5107 20.5226 73.4413 20.6784 73.3178 20.7932C73.1943 20.908 73.0268 20.9725 72.8522 20.9725Z" fill="#E6E6E6"/>
<path d="M72.8522 27.5047H26.8571C26.6825 27.5047 26.515 27.4402 26.3915 27.3254C26.268 27.2106 26.1986 27.0549 26.1986 26.8925C26.1986 26.7301 26.268 26.5744 26.3915 26.4596C26.515 26.3448 26.6825 26.2803 26.8571 26.2803H72.8522C73.0268 26.2803 73.1943 26.3448 73.3178 26.4596C73.4413 26.5744 73.5107 26.7301 73.5107 26.8925C73.5107 27.0549 73.4413 27.2106 73.3178 27.3254C73.1943 27.4402 73.0268 27.5047 72.8522 27.5047Z" fill="#E6E6E6"/>
<path d="M72.8522 27.5047H26.8571C26.6825 27.5047 26.515 27.4402 26.3915 27.3254C26.268 27.2106 26.1986 27.0549 26.1986 26.8925C26.1986 26.7301 26.268 26.5744 26.3915 26.4596C26.515 26.3448 26.6825 26.2803 26.8571 26.2803H72.8522C73.0268 26.2803 73.1943 26.3448 73.3178 26.4596C73.4413 26.5744 73.5107 26.7301 73.5107 26.8925C73.5107 27.0549 73.4413 27.2106 73.3178 27.3254C73.1943 27.4402 73.0268 27.5047 72.8522 27.5047Z" fill="#E6E6E6"/>
<path d="M54.1712 21.7226C54.1785 21.907 54.2292 22.0877 54.3198 22.2519C54.4103 22.4161 54.5385 22.5599 54.6953 22.673C54.8521 22.7862 55.0336 22.8661 55.2272 22.9069C55.4208 22.9478 55.6216 22.9488 55.8156 22.9097L58.327 26.7399L59.3958 24.6313L56.8471 21.3173C56.7549 21.0187 56.548 20.7619 56.2657 20.5956C55.9835 20.4293 55.6454 20.365 55.3155 20.415C54.9857 20.4649 54.687 20.6256 54.4761 20.8666C54.2652 21.1076 54.1567 21.4122 54.1712 21.7226H54.1712Z" fill="#FFB6B6"/>
<path d="M73.0175 32.7004L64.3628 28.3361L61.633 25.955C61.633 25.955 60.4462 25.6596 60.883 25.3008C61.3198 24.9421 60.0751 24.5961 60.0751 24.5961L58.6096 23.3179L56.5272 24.6877L57.1299 25.5562C57.1299 25.5562 57.0884 26.994 57.9356 26.7174C58.7829 26.4408 58.5711 27.6333 58.5711 27.6333L63.628 34.9209L73.0175 32.7004Z" fill="#3F3D56"/>
<path d="M47.4699 28.5884C52.1386 28.5884 55.9234 25.0698 55.9234 20.7293C55.9234 16.3888 52.1386 12.8701 47.4699 12.8701C42.8011 12.8701 39.0164 16.3888 39.0164 20.7293C39.0164 25.0698 42.8011 28.5884 47.4699 28.5884Z" fill="#219EBC"/>
<path d="M73.0445 89.9449H71.2868L70.4503 83.6418H73.0445V89.9449Z" fill="#FFB6B6"/>
<path d="M73.9717 92.7765H72.7112L72.4862 91.6701L71.91 92.7765H68.5668C68.4065 92.7766 68.2504 92.7289 68.1214 92.6406C67.9923 92.5524 67.8969 92.428 67.8492 92.2858C67.8015 92.1436 67.804 91.9909 67.8563 91.85C67.9085 91.7092 68.0078 91.5876 68.1397 91.5029L70.8095 89.7887V88.6702L73.6177 88.826L73.9717 92.7765Z" fill="#2F2E41"/>
<path d="M58.9859 89.9449H57.2282L56.3917 83.6418H58.9859V89.9449Z" fill="#FFB6B6"/>
<path d="M59.9139 92.7765H58.6533L58.4284 91.6701L57.8521 92.7765H54.5089C54.3486 92.7766 54.1926 92.7289 54.0635 92.6406C53.9344 92.5524 53.8391 92.428 53.7914 92.2858C53.7437 92.1436 53.7461 91.9909 53.7984 91.85C53.8507 91.7092 53.95 91.5876 54.0819 91.5029L56.7516 89.7887V88.6702L59.5598 88.826L59.9139 92.7765Z" fill="#2F2E41"/>
<path d="M71.179 42.2754H62.3074V51.6653H71.179V42.2754Z" fill="#FFB6B6"/>
<path d="M62.5122 46.9077L61.0108 48.5573L58.4176 53.6329L51.8833 68.087L50.5013 71.1438L51.6173 76.5476C51.6173 76.5476 51.798 80.3546 51.798 80.9778C51.798 82.2467 52.9395 82.9498 52.9395 82.9498L53.777 87.0051L61.898 86.6879C61.898 86.6879 61.6146 82.2178 59.9137 81.0902C58.2128 79.9627 57.431 74.0863 57.431 74.0863L56.5068 71.479L65.5149 61.5516L65.573 65.0217L65.6012 66.7014C65.6012 66.7014 64.282 77.6258 65.8197 79.7459C67.3575 81.866 65.8511 81.6166 65.8511 81.6166L65.9244 85.99L75.5467 86.0534L73.4239 73.4624C73.4239 73.4624 72.3459 72.6711 72.9227 71.8757C73.4994 71.0803 72.3637 70.1062 72.3637 70.1062L72.8731 60.2767C72.8731 60.2767 72.3091 58.5789 72.9725 58.3582C73.6359 58.1375 73.0596 56.6775 73.0596 56.6775L73.1582 54.7749L71.1791 48.8745L62.5122 46.9077Z" fill="#2F2E41"/>
<path d="M71.3157 42.2761L72.2711 39.6114L72.9535 38.7232L73.2265 36.1854C73.2265 29.3333 71.5825 30.4743 71.5825 30.4743L70.6332 28.0644L66.2656 27.9375L63.4676 30.4119L61.1474 31.1732L60.2388 35.5624L61.8981 40.2459L62.3075 42.7837C61.5264 44.1243 61.5925 43.4902 62.2393 44.4967L69.9508 46.4635C72.6805 47.3517 72.6805 45.0677 72.1331 44.4967C71.5858 43.9257 71.3157 42.2761 71.3157 42.2761Z" fill="#3F3D56"/>
<path d="M67.885 27.0841C70.1211 27.0841 71.9339 25.3988 71.9339 23.3199C71.9339 21.241 70.1211 19.5557 67.885 19.5557C65.6488 19.5557 63.8361 21.241 63.8361 23.3199C63.8361 25.3988 65.6488 27.0841 67.885 27.0841Z" fill="#FFB6B6"/>
<path d="M73.2906 28.3458C73.3288 28.4057 73.3519 28.4728 73.3583 28.5421C73.3647 28.6114 73.3542 28.6811 73.3275 28.7461C73.3009 28.8111 73.2588 28.8697 73.2045 28.9175C73.1501 28.9653 73.0849 29.0011 73.0136 29.0222C72.4703 29.1897 72.136 29.6782 71.7456 30.069C71.3566 30.4586 70.7301 30.7821 70.2333 30.5169C69.7379 30.253 69.7038 29.5792 69.2888 29.2138C68.8848 28.8585 68.2133 28.9016 67.7383 29.1719L67.7241 29.18C67.6422 29.2297 67.5463 29.256 67.4484 29.2556C67.3506 29.2551 67.255 29.2281 67.1735 29.1777C67.092 29.1273 67.0281 29.0558 66.9899 28.9721C66.9516 28.8883 66.9406 28.796 66.9582 28.7065C67.1246 27.8836 67.2909 27.0609 67.4572 26.2382C67.0203 27.2166 66.3861 28.1081 65.5887 28.8648C65.369 29.1005 65.0907 29.2826 64.7779 29.3952C64.494 29.479 64.2183 29.2062 63.9426 29.2556C64.6278 28.6986 66.9317 25.1279 66.5195 22.7411C66.035 22.7918 65.5505 22.8426 65.0659 22.8933C65.0135 22.6802 64.9014 22.4836 64.7411 22.3236C64.7607 22.5311 64.7323 22.7401 64.6578 22.9365C64.4558 22.9581 64.2525 22.9784 64.0505 22.9999C63.7693 23.0291 63.4636 23.0545 63.222 22.9175C62.8193 22.6891 62.8071 22.1485 62.9217 21.7221C63.2575 20.4824 64.2757 19.4457 65.5218 18.9026C66.7679 18.3608 67.1364 19.5675 68.4494 19.1818C71.0427 18.4205 73.0299 19.7224 73.7301 22.1384C74.3184 24.1648 73.8912 26.3156 73.2906 28.3458Z" fill="#2F2E41"/>
<path d="M84.4998 92.8569H79.542L79.5207 92.8209C79.4573 92.7141 79.3961 92.6008 79.3389 92.4844C78.8282 91.468 78.6123 90.3055 78.4219 89.2798L78.2785 88.5067C78.2611 88.4131 78.2742 88.3168 78.316 88.2301C78.3579 88.1434 78.4266 88.0703 78.5134 88.0202C78.6002 87.97 78.7011 87.9451 78.8033 87.9486C78.9054 87.952 79.0041 87.9838 79.0867 88.0397C79.8402 88.5494 80.5939 89.0586 81.3479 89.5674C81.6335 89.7605 81.9595 89.984 82.2718 90.2256C82.3019 90.0895 82.3334 89.9531 82.3649 89.8185C82.3867 89.7256 82.4377 89.6409 82.5116 89.5751C82.5854 89.5094 82.6787 89.4656 82.7795 89.4494C82.8802 89.4332 82.9839 89.4453 83.0772 89.4842C83.1705 89.5231 83.2492 89.587 83.3032 89.6677L83.8833 90.5342C84.3064 91.1669 84.6798 91.7904 84.6037 92.4629C84.6041 92.471 84.6034 92.4792 84.6018 92.4873C84.5865 92.5977 84.5583 92.7063 84.5176 92.811L84.4998 92.8569Z" fill="#F0F0F0"/>
<path d="M89.4762 92.9584L42.3641 93.0011C42.3171 93.0009 42.2721 92.9834 42.2389 92.9524C42.2057 92.9214 42.1871 92.8795 42.1871 92.8357C42.1871 92.792 42.2057 92.7501 42.2389 92.7191C42.2721 92.6881 42.3171 92.6706 42.3641 92.6704L89.4762 92.6277C89.5232 92.6279 89.5682 92.6454 89.6014 92.6764C89.6345 92.7074 89.6532 92.7493 89.6532 92.7931C89.6532 92.8368 89.6345 92.8787 89.6014 92.9097C89.5682 92.9407 89.5232 92.9582 89.4762 92.9584Z" fill="#CACACA"/>
<path d="M46.7014 31.3081L41.5193 27.2395C41.3421 27.1001 41.2317 26.9011 41.2122 26.6861C41.1927 26.4711 41.2657 26.2577 41.4153 26.0928L42.3691 25.0427C42.519 24.8781 42.733 24.7754 42.9643 24.7573C43.1955 24.7392 43.4251 24.807 43.6025 24.9461L48.7846 29.0146C48.9618 29.154 49.0722 29.353 49.0917 29.568C49.1112 29.783 49.0382 29.9964 48.8886 30.1614L47.9349 31.2114C47.7849 31.3761 47.5709 31.4787 47.3396 31.4969C47.1084 31.515 46.8788 31.4471 46.7014 31.3081Z" fill="#3F3D56"/>
<path d="M41.7911 26.1773C41.7106 26.2662 41.6712 26.3812 41.6817 26.4971C41.6922 26.6129 41.7517 26.7201 41.8472 26.7953L47.0293 30.8638C47.1249 30.9387 47.2486 30.9753 47.3732 30.9656C47.4979 30.9558 47.6132 30.9005 47.694 30.8117L48.6478 29.7617C48.7284 29.6728 48.7677 29.5578 48.7572 29.442C48.7467 29.3261 48.6872 29.2189 48.5917 29.1438L43.4096 25.0752C43.314 25.0003 43.1903 24.9637 43.0657 24.9735C42.9411 24.9832 42.8257 25.0386 42.7449 25.1273L41.7911 26.1773Z" fill="white"/>
<path d="M44.8334 27.7588C44.8154 27.7822 44.7918 27.8014 44.7645 27.8148C44.7371 27.8283 44.7068 27.8356 44.6759 27.8363L43.8616 27.8536C43.8355 27.8542 43.8095 27.85 43.7851 27.8412C43.7607 27.8324 43.7384 27.8192 43.7195 27.8024C43.7005 27.7856 43.6854 27.7655 43.6748 27.7433C43.6642 27.721 43.6585 27.697 43.6579 27.6727C43.6573 27.6484 43.6618 27.6242 43.6713 27.6015C43.6808 27.5788 43.6949 27.5581 43.713 27.5405C43.7311 27.5229 43.7527 27.5088 43.7766 27.499C43.8006 27.4892 43.8264 27.4838 43.8525 27.4833L44.3852 27.4719L43.8606 26.185C43.842 26.1391 43.8438 26.0882 43.8655 26.0435C43.8872 25.9988 43.9271 25.964 43.9765 25.9466C44.0258 25.9292 44.0805 25.9307 44.1287 25.9508C44.1768 25.9709 44.2144 26.0079 44.2332 26.0537L44.8576 27.5854C44.8689 27.6131 44.8729 27.643 44.8692 27.6724C44.8656 27.7018 44.8544 27.73 44.8366 27.7546L44.8334 27.7588Z" fill="#219EBC"/>
<path d="M44.938 28.0813C45.1343 28.1082 45.322 28.1747 45.4878 28.2762C45.6535 28.3778 45.7933 28.5119 45.8972 28.6691C46.0012 28.8263 46.0668 29.0027 46.0895 29.1861C46.1122 29.3694 46.0913 29.5551 46.0285 29.7302L49.8509 32.4676L47.48 33.2261L44.2136 30.5103C43.9044 30.3926 43.6523 30.1735 43.5051 29.8945C43.358 29.6156 43.3261 29.2961 43.4153 28.9967C43.5046 28.6973 43.7089 28.4388 43.9896 28.2701C44.2702 28.1014 44.6076 28.0342 44.9379 28.0813L44.938 28.0813Z" fill="#FFB6B6"/>
<path d="M64.8383 29.4338L55.0517 35.028C55.0517 35.028 51.1059 33.6706 51.877 33.0423C52.6482 32.4139 50.1933 31.9892 50.1933 31.9892L47.4813 30.2929L45.9076 31.9932C45.9076 31.9932 46.1943 34.7551 46.6822 34.2768C47.1701 33.7986 47.8994 35.105 47.8994 35.105C47.8994 35.105 48.1149 36.5637 49.5037 36.1966C50.8926 35.8295 54.6193 39.6772 54.6193 39.6772L66.6636 35.5009L64.8383 29.4338Z" fill="#3F3D56"/>
<path d="M47.1727 23.8825C47.0592 23.8825 46.9473 23.8579 46.8459 23.8107C46.7444 23.7635 46.6561 23.695 46.5881 23.6106L44.7957 21.3888C44.7381 21.3174 44.6962 21.2362 44.6724 21.1497C44.6486 21.0633 44.6433 20.9733 44.6569 20.885C44.6705 20.7967 44.7026 20.7117 44.7515 20.6349C44.8004 20.5582 44.8651 20.4911 44.9419 20.4376C45.0969 20.3295 45.2918 20.283 45.4837 20.3085C45.5787 20.3211 45.6701 20.351 45.7527 20.3965C45.8353 20.442 45.9074 20.5021 45.965 20.5735L47.1377 22.027L50.1494 17.827C50.257 17.677 50.4241 17.573 50.6142 17.5376C50.8043 17.5023 51.0017 17.5386 51.1629 17.6385C51.3242 17.7385 51.4362 17.8939 51.4742 18.0706C51.5122 18.2473 51.4732 18.4308 51.3656 18.5808L47.7808 23.5799C47.716 23.6703 47.6288 23.7449 47.5265 23.7975C47.4242 23.8502 47.3099 23.8792 47.193 23.8822C47.1862 23.8824 47.1795 23.8825 47.1727 23.8825Z" fill="white"/>
</g>
<rect x="1" y="1" width="96" height="96" rx="48" stroke="#8ECAE6" stroke-width="2"/>
<defs>
<clipPath id="clip0_778_6962">
<rect width="81.1529" height="88" fill="white" transform="translate(8.5 5)"/>
</clipPath>
</defs>
</svg>
