<svg width="40" height="40" viewBox="0 0 40 40" fill="none" xmlns="http://www.w3.org/2000/svg">
<path d="M31.2166 9.01666L29.0833 10.6833L19.9999 17.4333L10.9166 10.6167L8.78325 8.95C8.28068 8.53424 7.66717 8.27506 7.01873 8.20458C6.3703 8.1341 5.71543 8.2554 5.13527 8.55347C4.5551 8.85154 4.07513 9.31327 3.75482 9.88145C3.43451 10.4496 3.28793 11.0993 3.33325 11.75V31.0667C3.33325 31.6678 3.57206 32.2444 3.99714 32.6694C4.42223 33.0945 4.99876 33.3333 5.59992 33.3333H10.9166V20.4667L19.9999 27.2833L29.0833 20.4667V33.3333H34.3999C35.0011 33.3333 35.5776 33.0945 36.0027 32.6694C36.4278 32.2444 36.6666 31.6678 36.6666 31.0667V11.75C36.6979 11.1049 36.5411 10.4647 36.2153 9.90703C35.8896 9.3494 35.4088 8.89841 34.8315 8.60888C34.2542 8.31935 33.6053 8.20376 32.9635 8.27615C32.3218 8.34855 31.7149 8.60581 31.2166 9.01666Z" fill="white"/>
</svg>
