<svg width="705" height="655" viewBox="0 0 705 655" fill="none" xmlns="http://www.w3.org/2000/svg">
<path d="M564.365 357.111L234.549 540.265C220.666 547.975 203.805 537.051 205.167 521.23L241.31 101.263C242.672 85.441 261.151 77.5591 273.513 87.5273L567.186 324.34C578.137 333.171 576.665 350.281 564.365 357.111Z" stroke="#8ECAE6" stroke-width="13.2191"/>
<path d="M635.037 367.844L301.826 544.748C287.8 552.194 271.148 540.955 272.808 525.162L316.862 105.951C318.521 90.1579 337.146 82.6257 349.318 92.8251L638.474 335.132C649.257 344.168 647.462 361.247 635.037 367.844Z" stroke="#8ECAE6" stroke-width="13.2191"/>
<path d="M534.807 334.278L166.248 48.7941L131.745 568.539L534.807 334.278Z" fill="#8ECAE6"/>
</svg>
