<svg width="40" height="40" viewBox="0 0 40 40" fill="none" xmlns="http://www.w3.org/2000/svg">
<path d="M34.9118 13.8416C34.895 12.5793 34.6587 11.3296 34.2135 10.1483C33.8274 9.15185 33.2377 8.24693 32.4821 7.49131C31.7265 6.7357 30.8215 6.14601 29.8251 5.75993C28.659 5.32219 27.4271 5.0855 26.1818 5.05993C24.5784 4.98826 24.0701 4.96826 20.0001 4.96826C15.9301 4.96826 15.4085 4.96826 13.8168 5.05993C12.572 5.08569 11.3407 5.32238 10.1751 5.75993C9.17855 6.14574 8.27349 6.73534 7.51784 7.49098C6.76219 8.24663 6.1726 9.15169 5.78678 10.1483C5.34817 11.3135 5.11199 12.5451 5.08845 13.7899C5.01678 15.3949 4.99512 15.9033 4.99512 19.9733C4.99512 24.0433 4.99512 24.5633 5.08845 26.1566C5.11345 27.4033 5.34845 28.6333 5.78678 29.8016C6.17325 30.7979 6.76328 31.7026 7.51918 32.4579C8.27508 33.2132 9.18022 33.8026 10.1768 34.1883C11.3392 34.6436 12.5707 34.8972 13.8185 34.9383C15.4235 35.0099 15.9318 35.0316 20.0018 35.0316C24.0718 35.0316 24.5935 35.0316 26.1851 34.9383C27.4304 34.9137 28.6624 34.6776 29.8284 34.2399C30.8246 33.8534 31.7293 33.2636 32.4849 32.508C33.2404 31.7524 33.8303 30.8477 34.2168 29.8516C34.6551 28.6849 34.8901 27.4549 34.9151 26.2066C34.9868 24.6033 35.0084 24.0949 35.0084 20.0233C35.0051 15.9533 35.0051 15.4366 34.9118 13.8416V13.8416ZM19.9901 27.6699C15.7335 27.6699 12.2851 24.2216 12.2851 19.9649C12.2851 15.7083 15.7335 12.2599 19.9901 12.2599C22.0336 12.2599 23.9934 13.0717 25.4384 14.5167C26.8833 15.9616 27.6951 17.9214 27.6951 19.9649C27.6951 22.0084 26.8833 23.9682 25.4384 25.4132C23.9934 26.8582 22.0336 27.6699 19.9901 27.6699V27.6699ZM28.0018 13.7716C27.7658 13.7718 27.532 13.7255 27.314 13.6353C27.0959 13.5451 26.8977 13.4127 26.7309 13.2459C26.564 13.079 26.4316 12.8808 26.3414 12.6627C26.2512 12.4447 26.2049 12.2109 26.2051 11.9749C26.2051 11.7391 26.2516 11.5056 26.3418 11.2877C26.4321 11.0698 26.5643 10.8718 26.7311 10.7051C26.8979 10.5383 27.0958 10.406 27.3137 10.3158C27.5316 10.2255 27.7651 10.1791 28.001 10.1791C28.2368 10.1791 28.4703 10.2255 28.6882 10.3158C28.9061 10.406 29.104 10.5383 29.2708 10.7051C29.4376 10.8718 29.5698 11.0698 29.6601 11.2877C29.7503 11.5056 29.7968 11.7391 29.7968 11.9749C29.7968 12.9683 28.9935 13.7716 28.0018 13.7716Z" fill="white"/>
<path d="M19.9899 24.97C22.754 24.97 24.9949 22.7291 24.9949 19.965C24.9949 17.2008 22.754 14.96 19.9899 14.96C17.2257 14.96 14.9849 17.2008 14.9849 19.965C14.9849 22.7291 17.2257 24.97 19.9899 24.97Z" fill="white"/>
</svg>
