<svg width="98" height="98" viewBox="0 0 98 98" fill="none" xmlns="http://www.w3.org/2000/svg">
<g clip-path="url(#clip0_763_5769)">
<path d="M18.2704 64.6525L12.6937 62.7042C12.0798 59.6632 12.2174 56.5182 13.0948 53.5425C15.2103 58.6357 21.8087 60.0597 25.4723 64.1821C26.6051 65.4766 27.4321 67.0094 27.892 68.667C28.3519 70.3245 28.4328 72.0643 28.1289 73.7574L29.1967 77.8087C26.4379 77.4923 23.7805 76.5815 21.4076 75.1392C19.0346 73.6969 17.0026 71.7573 15.4514 69.4541C14.594 68.1533 13.9038 66.7498 13.3972 65.2766C15.8044 65.1058 18.2704 64.6525 18.2704 64.6525Z" fill="#F2F2F2"/>
<path d="M24.6731 52.4881L20.7788 48.0463C21.7418 45.0972 23.4102 42.4278 25.6391 40.2698C24.9725 45.7445 30.0143 50.2329 31.1731 55.6249C31.5216 57.3094 31.4867 59.0507 31.0707 60.7198C30.6548 62.389 29.8686 63.9431 28.7704 65.2671L27.7049 69.3189C25.4595 67.6851 23.595 65.5839 22.2399 63.1601C20.8848 60.7364 20.0712 58.0476 19.8553 55.2791C19.7496 53.7248 19.84 52.1634 20.1244 50.6316C22.3036 51.6684 24.6731 52.4881 24.6731 52.4881Z" fill="#F2F2F2"/>
<path d="M57.2103 66.7266H29.0532C28.2258 66.7266 27.5531 66.8931 27.5531 67.0989V78.1122H58.7143V67.0989C58.7143 66.8931 58.0416 66.7266 57.2103 66.7266Z" fill="#F2F2F2"/>
<path d="M91.7665 78.217L4.77701 78.2527C4.74032 78.2527 4.70513 78.2381 4.67919 78.2122C4.65325 78.1862 4.63867 78.151 4.63867 78.1143C4.63867 78.0777 4.65325 78.0425 4.67919 78.0165C4.70513 77.9906 4.74032 77.976 4.77701 77.976L91.7665 77.9403C91.8032 77.9404 91.8382 77.955 91.8641 77.981C91.89 78.0069 91.9045 78.042 91.9045 78.0786C91.9045 78.1153 91.89 78.1504 91.8641 78.1763C91.8382 78.2022 91.8032 78.2169 91.7665 78.217Z" fill="#CACACA"/>
<path d="M36.1562 77.4408L35.8931 79.5844L44.036 81.6194L44.4244 78.4556L36.1562 77.4408Z" fill="#9E616A"/>
<path d="M37.71 76.9226L37.4941 80.3724L36.0268 80.1923L33.3786 83.1722C33.2478 83.3194 33.0734 83.4209 32.8808 83.462C32.6882 83.503 32.4876 83.4814 32.3081 83.4004C32.1287 83.3193 31.9799 83.183 31.8834 83.0114C31.7869 82.8397 31.7478 82.6417 31.7718 82.4463L32.2722 78.3691L33.8098 77.8445L32.3921 77.392L32.5808 75.8547L37.71 76.9226Z" fill="#2F2E41"/>
<path d="M59.9447 78.4961L62.0403 79.0183L65.0521 71.1839L61.9591 70.4131L59.9447 78.4961Z" fill="#9E616A"/>
<path d="M65.2936 81.9525L62.6586 78.9609L63.0165 77.5261L62.6435 77.4564H62.6412L60.313 77.0218L59.6182 76.8917L57.9336 81.8526L59.437 82.2279L60.0585 80.8755L60.3188 82.1175L60.392 82.4649L64.3781 83.4582C64.569 83.5058 64.7702 83.4911 64.9522 83.4163C65.1343 83.3414 65.2876 83.2104 65.3898 83.0422C65.4921 82.874 65.5379 82.6776 65.5206 82.4816C65.5033 82.2855 65.4237 82.1001 65.2936 81.9525Z" fill="#2F2E41"/>
<path d="M42.3611 77.6813L43.1209 77.5616C42.3053 78.4109 41.5222 78.9721 40.7787 79.1463L41.1388 77.873L42.3611 77.6813Z" fill="#2F2E41"/>
<path d="M64.556 73.8591C63.8368 75.467 63.3187 76.4964 63.3187 76.4964L63.0619 76.3616L62.3857 76.0073L60.7755 75.1626L60.499 75.0174L60.578 73.4815L60.9289 66.6897L61.0776 63.827L54.9398 67.0707L47.6774 70.9093C47.38 71.4275 47.0845 71.9317 46.791 72.422L41.8568 69.0377L46.8642 61.7311L49.7826 60.3672L49.1529 60.2452C49.3139 60.0125 49.4959 59.7951 49.6966 59.5957L49.9174 59.4714C49.9174 59.4714 63.8043 51.8222 67.7997 55.7444C68.1443 56.0951 68.4028 56.5211 68.5549 56.9887C69.9246 60.9225 66.5032 69.5093 64.556 73.8591Z" fill="#2F2E41"/>
<path d="M61.5004 81.0527C61.2013 81.5 60.7951 81.8654 60.3188 82.1158C59.9154 82.3365 59.4882 82.5107 59.0455 82.6351C53.1575 84.3557 40.272 80.9366 40.272 80.9366L40.7786 79.1462L41.1388 77.8729L42.361 77.6812L43.1208 77.5616L52.2083 76.136L49.7047 74.4189L46.7909 72.4206L41.8567 69.0363L35.9432 66.3769C29.0886 60.9165 34.8279 54.7938 34.8279 54.7938L38.6641 52.0752L39.9096 51.1923L47.5612 55.1075L49.7825 60.3658L50.4657 61.9819L54.9397 67.0694L60.5779 73.4802L60.6221 73.5301C60.7851 73.6539 60.9385 73.7898 61.081 73.9368C61.1333 73.9879 61.1879 74.0448 61.2436 74.1064C61.7504 74.6546 62.1391 75.3012 62.3857 76.0059C62.5459 76.4706 62.6329 76.9574 62.6436 77.4489C62.6442 77.4497 62.6445 77.4507 62.6445 77.4518C62.6445 77.4528 62.6442 77.4538 62.6436 77.4547C62.6692 78.4782 62.3752 79.6853 61.5004 81.0527Z" fill="#2F2E41"/>
<path d="M32.2052 57.3788C31.9001 57.2866 31.7448 57.1745 31.7164 57.0259C31.6748 56.8078 31.92 56.6134 32.2039 56.3881C32.4019 56.2312 32.9242 55.9581 32.7333 55.874C29.8383 54.5994 36.8765 36.5034 38.9187 34.4471C39.3336 34.0293 39.2842 33.1811 39.8372 32.4265C41.3478 30.3656 42.6732 29.9922 45.3135 29.2485C45.5278 29.1882 45.7511 29.1249 45.9833 29.0588C46.2838 28.9731 45.967 29.8267 46.1236 29.2544C46.2977 28.6183 46.4777 27.9605 46.9101 27.6459L46.9383 27.6254L46.973 27.6276C47.773 27.6805 50.3852 28.119 51.7249 29.0649L51.7434 29.0782L51.7542 29.0981C52.0012 29.5587 51.8265 30.2539 51.6576 30.926C51.5188 31.4779 51.8525 30.6048 51.9853 30.8885C53.0007 33.0565 54.7465 33.5474 54.7643 33.5523L54.851 33.5758L54.8337 33.6639C55.2901 36.0302 52.1598 43.3614 51.4831 48.2981C50.7956 53.3136 54.7149 58.9623 48.9554 58.0127C48.9686 58.0563 51.0811 62.393 51.0466 62.4275C50.5229 62.952 33.3553 57.726 32.2052 57.3788Z" fill="#E6E6E6"/>
<path d="M70.3117 30.7709C70.3534 31.008 70.3425 31.2514 70.2799 31.4838C70.2173 31.7163 70.1045 31.9322 69.9494 32.1163C69.7943 32.3004 69.6008 32.4483 69.3824 32.5495C69.1639 32.6508 68.926 32.7029 68.6853 32.7022L66.7515 38.225L64.9088 35.8062L67.0277 30.9324C67.0556 30.5281 67.2309 30.1481 67.5203 29.8643C67.8097 29.5806 68.1932 29.4129 68.598 29.393C69.0028 29.3731 69.4008 29.5024 69.7167 29.7563C70.0325 30.0103 70.2443 30.3713 70.3117 30.7709Z" fill="#9E616A"/>
<path d="M61.8018 46.1623L58.2966 45.4044C51.9743 43.4025 49.8065 40.9319 49.0997 39.2114C48.3455 37.3757 49.0328 36.0321 49.0625 35.976L49.0805 35.9518L51.348 33.7451C51.636 33.4648 51.9803 33.2489 52.3581 33.1118C52.7359 32.9747 53.1385 32.9195 53.5393 32.9497C53.94 32.98 54.3298 33.0951 54.6827 33.2875C55.0356 33.4798 55.3435 33.7449 55.5862 34.0653L60.1908 40.1452L62.323 37.2565L63.3572 36.429L63.915 34.8652L66.0546 32.5377L68.5317 33.6839L67.5991 39.3121L66.3512 40.0751L66.2924 40.9037L66.2718 40.9279L61.8018 46.1623Z" fill="#E6E6E6"/>
<path d="M44.2397 63.7988C44.2225 63.7988 44.2052 63.7984 44.1877 63.7978C43.984 63.7904 43.7852 63.7339 43.6081 63.6332C43.4309 63.5324 43.2807 63.3904 43.1703 63.2191C42.343 61.9827 41.3278 60.883 40.1614 59.9598C39.4552 59.3953 38.7173 58.8705 38.0037 58.363C36.1628 57.054 34.4291 55.8212 33.4667 54.1177C31.3685 50.4032 33.8395 45.2295 37.3696 42.9093C41.329 40.307 46.5371 39.8988 51.5753 39.8453C52.0989 39.8398 52.6228 39.837 53.147 39.837C62.2248 39.8405 71.2835 40.6688 80.2113 42.3117C83.18 42.8594 86.2875 43.5304 88.7847 45.1587C91.267 46.7774 92.7758 49.3264 92.6287 51.6529C92.4137 55.0492 88.8135 57.5869 85.5351 58.2503C82.4103 58.8822 79.1642 58.4552 75.7276 58.003C74.9688 57.9032 74.1844 57.8 73.4087 57.7103C64.978 56.7358 49.1404 59.7394 48.4703 59.8678L47.8056 59.995L45.2263 63.3142C45.1103 63.4655 44.9609 63.5879 44.7898 63.672C44.6186 63.7561 44.4304 63.7994 44.2397 63.7988Z" fill="#219EBC"/>
<path d="M81.7828 47.2309H46.1491C45.9437 47.2307 45.7467 47.1489 45.6015 47.0035C45.4563 46.8581 45.3748 46.6611 45.3748 46.4556C45.3748 46.2501 45.4563 46.0531 45.6015 45.9077C45.7467 45.7623 45.9437 45.6805 46.1491 45.6803H81.7828C81.9883 45.6805 82.1852 45.7623 82.3304 45.9077C82.4756 46.0531 82.5572 46.2501 82.5572 46.4556C82.5572 46.6611 82.4756 46.8581 82.3304 47.0035C82.1852 47.1489 81.9883 47.2307 81.7828 47.2309Z" fill="white"/>
<path d="M81.7826 51.9901H46.1489C46.0471 51.9902 45.9462 51.9703 45.852 51.9315C45.7579 51.8927 45.6723 51.8357 45.6001 51.7637C45.528 51.6918 45.4708 51.6064 45.4317 51.5123C45.3926 51.4183 45.3724 51.3174 45.3723 51.2156C45.3722 51.1137 45.3922 51.0128 45.4311 50.9187C45.47 50.8246 45.527 50.739 45.599 50.6669C45.671 50.5949 45.7564 50.5377 45.8505 50.4986C45.9446 50.4596 46.0455 50.4395 46.1473 50.4395H81.7826C81.9881 50.4397 82.185 50.5215 82.3302 50.6669C82.4754 50.8122 82.557 51.0093 82.557 51.2148C82.557 51.4202 82.4754 51.6173 82.3302 51.7627C82.185 51.908 81.9881 51.9898 81.7826 51.9901Z" fill="white"/>
<path d="M50.3017 56.7493H46.1491C45.9437 56.7491 45.7467 56.6673 45.6015 56.5219C45.4563 56.3766 45.3748 56.1795 45.3748 55.974C45.3748 55.7686 45.4563 55.5715 45.6015 55.4261C45.7467 55.2808 45.9437 55.199 46.1491 55.1987H50.3017C50.5072 55.199 50.7041 55.2808 50.8493 55.4261C50.9945 55.5715 51.0761 55.7686 51.0761 55.974C51.0761 56.1795 50.9945 56.3766 50.8493 56.5219C50.7041 56.6673 50.5072 56.7491 50.3017 56.7493Z" fill="white"/>
<path d="M70.3771 30.988C73.3083 30.988 75.6844 28.6118 75.6844 25.6807C75.6844 22.7495 73.3083 20.3733 70.3771 20.3733C67.4459 20.3733 65.0697 22.7495 65.0697 25.6807C65.0697 28.6118 67.4459 30.988 70.3771 30.988Z" fill="white"/>
<path d="M70.3772 31.0521C69.3147 31.0521 68.276 30.737 67.3926 30.1467C66.5091 29.5564 65.8206 28.7174 65.4139 27.7357C65.0073 26.7541 64.9009 25.674 65.1082 24.6319C65.3155 23.5898 65.8272 22.6325 66.5785 21.8812C67.3298 21.1299 68.287 20.6183 69.3291 20.411C70.3712 20.2037 71.4514 20.3101 72.433 20.7167C73.4146 21.1233 74.2536 21.8118 74.8439 22.6953C75.4342 23.5787 75.7493 24.6174 75.7493 25.6799C75.7477 27.1042 75.1812 28.4697 74.1741 29.4768C73.167 30.4839 71.8015 31.0504 70.3772 31.0521Z" fill="#3F3D56"/>
<path d="M69.9797 27.8003C69.9684 27.8003 69.9571 27.7999 69.9458 27.7993C69.8458 27.7945 69.7481 27.7681 69.6593 27.722C69.5705 27.6758 69.4927 27.611 69.4313 27.532L68.5443 26.3917C68.4883 26.3198 68.447 26.2374 68.4228 26.1495C68.3986 26.0616 68.392 25.9697 68.4033 25.8792C68.4146 25.7888 68.4436 25.7014 68.4887 25.6221C68.5338 25.5428 68.594 25.4732 68.666 25.4172L68.6979 25.3924C68.7699 25.3363 68.8523 25.295 68.9402 25.2708C69.0282 25.2466 69.12 25.2399 69.2105 25.2513C69.3011 25.2626 69.3885 25.2916 69.4678 25.3367C69.5471 25.3818 69.6167 25.4421 69.6727 25.5142C69.7175 25.5717 69.7742 25.6188 69.8389 25.6524C69.9036 25.686 69.9748 25.7053 70.0476 25.7088C70.1204 25.7124 70.1931 25.7001 70.2608 25.673C70.3285 25.6458 70.3895 25.6044 70.4397 25.5515L72.2405 23.6503C72.3673 23.5168 72.5419 23.439 72.7259 23.434C72.91 23.429 73.0885 23.4972 73.2223 23.6236L73.2518 23.6518C73.3181 23.7145 73.3713 23.7896 73.4084 23.8729C73.4456 23.9562 73.466 24.046 73.4685 24.1371C73.4709 24.2283 73.4554 24.319 73.4228 24.4042C73.3902 24.4894 73.3411 24.5673 73.2783 24.6335L70.4836 27.5833C70.4188 27.6519 70.3407 27.7064 70.254 27.7437C70.1674 27.781 70.074 27.8003 69.9797 27.8003Z" fill="white"/>
<path d="M43.0825 53.1795C42.845 53.1402 42.619 53.0493 42.4205 52.9132C42.2219 52.7771 42.0556 52.5992 41.9332 52.3918C41.8109 52.1845 41.7355 51.9529 41.7123 51.7133C41.6892 51.4737 41.7188 51.2319 41.7992 51.005L37.229 47.3506L40.1218 46.4135L44.0182 50.0274C44.3905 50.1877 44.691 50.479 44.8628 50.8461C45.0346 51.2131 45.0658 51.6305 44.9505 52.019C44.8351 52.4076 44.5813 52.7403 44.237 52.9542C43.8927 53.1681 43.482 53.2482 43.0825 53.1795Z" fill="#9E616A"/>
<path d="M31.381 40.051L33.2574 36.995C37.2409 31.693 40.2902 30.4662 42.1477 30.3693C44.1296 30.266 45.1696 31.3595 45.2127 31.4062L45.2296 31.4312L46.5604 34.3017C46.7294 34.6663 46.819 35.0627 46.8232 35.4646C46.8274 35.8665 46.7461 36.2647 46.5848 36.6327C46.4234 37.0008 46.1857 37.3304 45.8873 37.5997C45.5889 37.8689 45.2367 38.0716 44.8541 38.1944L37.592 40.5246L39.6111 43.4934L40.0492 44.7434L41.3398 45.7879L42.827 48.5777L40.9248 50.5352L35.9236 47.7905L35.6171 46.3603L34.8548 46.0303L34.8387 46.0029L31.381 40.051Z" fill="#E6E6E6"/>
<path d="M57.2196 27.944L57.2243 27.9444C57.4753 27.9661 57.7246 27.8872 57.9174 27.725C58.1103 27.5628 58.2308 27.3307 58.2525 27.0797L58.7119 21.7983C58.7952 20.8521 58.6873 19.8989 58.3948 18.9953C57.8215 17.2317 56.5896 15.7573 54.9561 14.8796C54.1126 14.4275 53.1863 14.151 52.2331 14.0665C48.3333 13.7211 46.9145 14.5422 44.5465 20.5022C42.1784 26.4622 44.0863 25.7917 44.0863 25.7917C44.0751 25.9189 44.0896 26.0472 44.129 26.1687C44.2064 26.4059 44.3723 26.604 44.5923 26.7216C44.7052 26.7818 44.829 26.8188 44.9564 26.8302C49.5716 27.9708 54.2289 29.1727 57.2203 27.944L57.2196 27.944Z" fill="#2F2E41"/>
<path d="M48.5851 19.0927C48.0124 19.9523 47.7073 20.9623 47.7083 21.9952C47.7092 23.0281 48.0163 24.0375 48.5906 24.896C49.165 25.7545 49.9808 26.4235 50.9352 26.8186C51.8895 27.2136 52.9395 27.317 53.9526 27.1157C54.6232 26.9846 55.2612 26.7217 55.8295 26.3423C56.3978 25.9629 56.8852 25.4745 57.2634 24.9054C57.8349 24.0461 58.1391 23.0368 58.1378 22.0049C58.1365 20.9729 57.8297 19.9644 57.256 19.1066C56.6824 18.2488 55.8676 17.58 54.9144 17.1846C53.9612 16.7892 52.9122 16.6848 51.8998 16.8848C51.2286 17.0151 50.59 17.2774 50.021 17.6565C49.452 18.0355 48.9639 18.5238 48.5851 19.0929L48.5851 19.0927Z" fill="#9E616A"/>
<path d="M60.3498 22.3745C60.4155 21.6262 60.3302 20.8723 60.0989 20.1576C60.0347 18.4061 59.5159 16.8226 57.3796 16.9034C56.7167 16.5485 55.9892 16.3305 55.2403 16.2625L54.1837 16.1652C54.1719 16.1641 54.16 16.163 54.1481 16.162C52.6698 16.0343 51.2012 16.4991 50.0656 17.4542C48.9299 18.4092 48.2202 19.7763 48.0925 21.2547L48.0833 21.3605L50.3187 21.564L51.2665 19.5001L51.2333 21.6478L52.3879 21.7534L52.8658 20.7121L52.8494 21.7949C54.5725 23.2923 57.1708 23.3542 60.3396 22.4804L60.3498 22.3745Z" fill="#2F2E41"/>
<path d="M53.2372 27.4305C53.2573 27.6042 53.2283 27.7802 53.1534 27.9383C53.1157 28.0193 53.0668 28.0946 53.0082 28.162C52.9581 28.2194 52.9013 28.2707 52.8391 28.3148C52.6549 28.4448 52.4304 28.505 52.2058 28.4845C52.1918 28.4831 52.1778 28.4815 52.1639 28.4797C52.1499 28.4778 52.136 28.4756 52.1221 28.4731C52.1081 28.4707 52.0942 28.4679 52.0804 28.4647C52.0665 28.4615 52.0526 28.4581 52.0387 28.4543L51.2576 28.241L50.3676 25.8104L50.1815 27.9497L46.6295 26.9861L47.4193 17.908L53.4662 18.4633L53.3015 18.624C52.7544 19.1636 52.3668 19.8437 52.1813 20.5894C51.9974 21.3451 51.9442 22.1267 52.0242 22.9003C52.0993 23.6826 52.2494 24.4558 52.4723 25.2094C52.6664 25.8768 52.8989 26.5323 53.1684 27.1729C53.2033 27.2551 53.2264 27.3418 53.2372 27.4305Z" fill="#2F2E41"/>
</g>
<path d="M1 6.52775C1 3.53621 3.42512 1.11108 6.41667 1.11108H91.5833C94.5749 1.11108 97 3.53621 97 6.52775V91.6944C97 94.686 94.5749 97.1111 91.5833 97.1111H1V6.52775Z" stroke="#808080"/>
<defs>
<clipPath id="clip0_763_5769">
<rect width="88" height="69.4845" fill="white" transform="translate(4.63892 13.9996)"/>
</clipPath>
</defs>
</svg>
