<svg width="98" height="98" viewBox="0 0 98 98" fill="none" xmlns="http://www.w3.org/2000/svg">
<g clip-path="url(#clip0_763_5828)">
<path d="M90.946 80.551H38.147C37.6024 80.5504 37.0804 80.3338 36.6953 79.9488C36.3102 79.5637 36.0936 79.0416 36.093 78.4971V19.4153C36.0936 18.8707 36.3102 18.3487 36.6953 17.9636C37.0804 17.5785 37.6024 17.3619 38.147 17.3613H90.946C91.4906 17.3619 92.0127 17.5785 92.3977 17.9636C92.7828 18.3487 92.9994 18.8707 93 19.4153V78.4971C92.9994 79.0416 92.7828 79.5637 92.3977 79.9488C92.0127 80.3338 91.4906 80.5504 90.946 80.551ZM38.147 17.603C37.6665 17.6035 37.2058 17.7946 36.8661 18.1344C36.5263 18.4741 36.3352 18.9348 36.3347 19.4153V78.4971C36.3352 78.9776 36.5263 79.4382 36.8661 79.778C37.2058 80.1177 37.6665 80.3089 38.147 80.3094H90.946C91.4265 80.3089 91.8872 80.1177 92.2269 79.778C92.5667 79.4382 92.7578 78.9776 92.7584 78.4971V19.4153C92.7578 18.9348 92.5667 18.4741 92.2269 18.1344C91.8872 17.7946 91.4265 17.6035 90.946 17.603H38.147Z" fill="#3F3D56"/>
<path d="M92.8792 22.3851H36.2139V22.6268H92.8792V22.3851Z" fill="#3F3D56"/>
<path d="M38.9928 20.9851C39.5266 20.9851 39.9594 20.5524 39.9594 20.0186C39.9594 19.4848 39.5266 19.052 38.9928 19.052C38.459 19.052 38.0262 19.4848 38.0262 20.0186C38.0262 20.5524 38.459 20.9851 38.9928 20.9851Z" fill="#219EBC"/>
<path d="M42.0133 20.9851C42.5471 20.9851 42.9799 20.5524 42.9799 20.0186C42.9799 19.4848 42.5471 19.052 42.0133 19.052C41.4795 19.052 41.0468 19.4848 41.0468 20.0186C41.0468 20.5524 41.4795 20.9851 42.0133 20.9851Z" fill="#219EBC"/>
<path d="M45.0341 20.9851C45.5679 20.9851 46.0007 20.5524 46.0007 20.0186C46.0007 19.4848 45.5679 19.052 45.0341 19.052C44.5003 19.052 44.0675 19.4848 44.0675 20.0186C44.0675 20.5524 44.5003 20.9851 45.0341 20.9851Z" fill="#219EBC"/>
<path d="M83.3946 31.2548H45.6982C45.2817 31.2548 44.8822 31.0893 44.5876 30.7947C44.293 30.5002 44.1276 30.1007 44.1276 29.6841C44.1276 29.2675 44.293 28.868 44.5876 28.5734C44.8822 28.2789 45.2817 28.1134 45.6982 28.1134H83.3946C83.8112 28.1134 84.2107 28.2789 84.5052 28.5734C84.7998 28.868 84.9653 29.2675 84.9653 29.6841C84.9653 30.1007 84.7998 30.5002 84.5052 30.7947C84.2107 31.0893 83.8112 31.2548 83.3946 31.2548ZM45.6982 28.355C45.3458 28.355 45.0077 28.4951 44.7585 28.7443C44.5092 28.9936 44.3692 29.3316 44.3692 29.6841C44.3692 30.0366 44.5092 30.3746 44.7585 30.6239C45.0077 30.8731 45.3458 31.0131 45.6982 31.0131H83.3946C83.7471 31.0131 84.0851 30.8731 84.3344 30.6239C84.5836 30.3746 84.7236 30.0366 84.7236 29.6841C84.7236 29.3316 84.5836 28.9936 84.3344 28.7443C84.0851 28.4951 83.7471 28.355 83.3946 28.355H45.6982Z" fill="#3F3D56"/>
<path d="M74.0737 43.6497H56.917C56.6607 43.6497 56.4148 43.5479 56.2335 43.3666C56.0523 43.1853 55.9504 42.9395 55.9504 42.6831C55.9504 42.4268 56.0523 42.1809 56.2335 41.9997C56.4148 41.8184 56.6607 41.7166 56.917 41.7166H74.0737C74.33 41.7166 74.5759 41.8184 74.7571 41.9997C74.9384 42.1809 75.0403 42.4268 75.0403 42.6831C75.0403 42.9395 74.9384 43.1853 74.7571 43.3666C74.5759 43.5479 74.33 43.6497 74.0737 43.6497Z" fill="#CCCCCC"/>
<path d="M83.9811 46.9126H56.917C56.6607 46.9126 56.4148 46.8108 56.2335 46.6295C56.0523 46.4483 55.9504 46.2024 55.9504 45.9461C55.9504 45.6897 56.0523 45.4439 56.2335 45.2626C56.4148 45.0813 56.6607 44.9795 56.917 44.9795H83.9811C84.2374 44.9795 84.4833 45.0813 84.6645 45.2626C84.8458 45.4439 84.9476 45.6897 84.9476 45.9461C84.9476 46.2024 84.8458 46.4483 84.6645 46.6295C84.4833 46.8108 84.2374 46.9126 83.9811 46.9126Z" fill="#CCCCCC"/>
<path d="M50.4884 47.0936H45.2931C44.9888 47.0933 44.697 46.9722 44.4818 46.7571C44.2666 46.5419 44.1456 46.2501 44.1453 45.9458V42.6836C44.1456 42.3793 44.2666 42.0876 44.4818 41.8724C44.697 41.6572 44.9888 41.5362 45.2931 41.5358H50.4884C50.7927 41.5362 51.0845 41.6572 51.2996 41.8724C51.5148 42.0876 51.6359 42.3793 51.6362 42.6836V45.9458C51.6359 46.2501 51.5148 46.5419 51.2996 46.7571C51.0845 46.9722 50.7927 47.0933 50.4884 47.0936ZM45.2931 41.7775C45.0528 41.7777 44.8225 41.8733 44.6526 42.0432C44.4827 42.2131 44.3872 42.4434 44.3869 42.6836V45.9458C44.3872 46.1861 44.4827 46.4164 44.6526 46.5863C44.8225 46.7562 45.0528 46.8517 45.2931 46.852H50.4884C50.7286 46.8517 50.959 46.7562 51.1289 46.5863C51.2987 46.4164 51.3943 46.1861 51.3946 45.9458V42.6836C51.3943 42.4434 51.2987 42.2131 51.1289 42.0432C50.959 41.8733 50.7286 41.7777 50.4884 41.7775H45.2931Z" fill="#CCCCCC"/>
<path d="M74.0737 55.1269H56.917C56.6607 55.1269 56.4148 55.0251 56.2335 54.8438C56.0523 54.6626 55.9504 54.4167 55.9504 54.1604C55.9504 53.904 56.0523 53.6582 56.2335 53.4769C56.4148 53.2956 56.6607 53.1938 56.917 53.1938H74.0737C74.33 53.1938 74.5759 53.2956 74.7571 53.4769C74.9384 53.6582 75.0403 53.904 75.0403 54.1604C75.0403 54.4167 74.9384 54.6626 74.7571 54.8438C74.5759 55.0251 74.33 55.1269 74.0737 55.1269Z" fill="#CCCCCC"/>
<path d="M83.9811 58.391H56.917C56.6607 58.391 56.4148 58.2892 56.2335 58.1079C56.0523 57.9267 55.9504 57.6808 55.9504 57.4245C55.9504 57.1681 56.0523 56.9223 56.2335 56.741C56.4148 56.5597 56.6607 56.4579 56.917 56.4579H83.9811C84.2374 56.4579 84.4833 56.5597 84.6645 56.741C84.8458 56.9223 84.9476 57.1681 84.9476 57.4245C84.9476 57.6808 84.8458 57.9267 84.6645 58.1079C84.4833 58.2892 84.2374 58.391 83.9811 58.391Z" fill="#CCCCCC"/>
<path d="M50.4884 58.572H45.2931C44.9888 58.5717 44.697 58.4506 44.4818 58.2354C44.2666 58.0203 44.1456 57.7285 44.1453 57.4242V54.162C44.1456 53.8577 44.2666 53.566 44.4818 53.3508C44.697 53.1356 44.9888 53.0146 45.2931 53.0142H50.4884C50.7927 53.0146 51.0845 53.1356 51.2996 53.3508C51.5148 53.566 51.6359 53.8577 51.6362 54.162V57.4242C51.6359 57.7285 51.5148 58.0203 51.2996 58.2354C51.0845 58.4506 50.7927 58.5717 50.4884 58.572ZM45.2931 53.2559C45.0528 53.2561 44.8225 53.3517 44.6526 53.5216C44.4827 53.6914 44.3872 53.9218 44.3869 54.162V57.4242C44.3872 57.6645 44.4827 57.8948 44.6526 58.0647C44.8225 58.2345 45.0528 58.3301 45.2931 58.3304H50.4884C50.7286 58.3301 50.959 58.2345 51.1289 58.0647C51.2987 57.8948 51.3943 57.6645 51.3946 57.4242V54.162C51.3943 53.9218 51.2987 53.6914 51.1289 53.5216C50.959 53.3517 50.7286 53.2561 50.4884 53.2559H45.2931Z" fill="#CCCCCC"/>
<path d="M74.0737 66.6065H56.917C56.6607 66.6065 56.4148 66.5047 56.2335 66.3234C56.0523 66.1421 55.9504 65.8963 55.9504 65.6399C55.9504 65.3836 56.0523 65.1377 56.2335 64.9564C56.4148 64.7752 56.6607 64.6733 56.917 64.6733H74.0737C74.33 64.6733 74.5759 64.7752 74.7571 64.9564C74.9384 65.1377 75.0403 65.3836 75.0403 65.6399C75.0403 65.8963 74.9384 66.1421 74.7571 66.3234C74.5759 66.5047 74.33 66.6065 74.0737 66.6065Z" fill="#F2F2F2"/>
<path d="M83.9811 69.8671H56.917C56.6607 69.8671 56.4148 69.7653 56.2335 69.584C56.0523 69.4027 55.9504 69.1569 55.9504 68.9005C55.9504 68.6442 56.0523 68.3983 56.2335 68.2171C56.4148 68.0358 56.6607 67.934 56.917 67.934H83.9811C84.2374 67.934 84.4833 68.0358 84.6645 68.2171C84.8458 68.3983 84.9476 68.6442 84.9476 68.9005C84.9476 69.1569 84.8458 69.4027 84.6645 69.584C84.4833 69.7653 84.2374 69.8671 83.9811 69.8671Z" fill="#F2F2F2"/>
<path d="M50.4884 70.0505H45.2931C44.9888 70.0501 44.697 69.9291 44.4818 69.7139C44.2666 69.4987 44.1456 69.207 44.1453 68.9027V65.6405C44.1456 65.3362 44.2666 65.0444 44.4818 64.8292C44.697 64.6141 44.9888 64.493 45.2931 64.4927H50.4884C50.7927 64.493 51.0845 64.6141 51.2996 64.8292C51.5148 65.0444 51.6359 65.3362 51.6362 65.6405V68.9027C51.6359 69.207 51.5148 69.4987 51.2996 69.7139C51.0845 69.9291 50.7927 70.0501 50.4884 70.0505Z" fill="#F2F2F2"/>
<path d="M47.8907 46.0952L47.6109 45.8428C46.6175 44.9307 45.9616 44.3387 45.9616 43.6012C45.9591 43.4609 45.9848 43.3215 46.0372 43.1913C46.0896 43.0611 46.1675 42.9428 46.2665 42.8432C46.3654 42.7437 46.4833 42.665 46.6132 42.6119C46.743 42.5587 46.8823 42.5321 47.0226 42.5338C47.1882 42.5346 47.3516 42.5716 47.5015 42.6419C47.6514 42.7123 47.7842 42.8145 47.8907 42.9413C47.9971 42.8145 48.1299 42.7123 48.2798 42.6419C48.4298 42.5716 48.5932 42.5346 48.7588 42.5338C48.8991 42.5322 49.0383 42.5587 49.1682 42.6119C49.2981 42.665 49.416 42.7437 49.5149 42.8432C49.6138 42.9428 49.6918 43.0611 49.7442 43.1913C49.7965 43.3215 49.8222 43.4609 49.8198 43.6012C49.8198 44.3387 49.1639 44.9307 48.1704 45.8428L47.8907 46.0952Z" fill="#219EBC"/>
<path d="M47.8907 57.5736L47.6109 57.3212C46.6175 56.4091 45.9616 55.8171 45.9616 55.0796C45.9591 54.9393 45.9848 54.7999 46.0372 54.6697C46.0896 54.5395 46.1675 54.4212 46.2665 54.3216C46.3654 54.2221 46.4833 54.1434 46.6132 54.0903C46.743 54.0371 46.8823 54.0105 47.0226 54.0122C47.1882 54.013 47.3516 54.05 47.5015 54.1203C47.6514 54.1907 47.7842 54.2929 47.8907 54.4197C47.9971 54.2929 48.1299 54.1907 48.2798 54.1203C48.4298 54.0499 48.5932 54.013 48.7588 54.0122C48.8991 54.0105 49.0383 54.0371 49.1682 54.0903C49.2981 54.1434 49.416 54.2221 49.5149 54.3216C49.6138 54.4212 49.6918 54.5395 49.7442 54.6697C49.7965 54.7999 49.8222 54.9393 49.8198 55.0796C49.8198 55.8171 49.1639 56.4091 48.1704 57.3212L47.8907 57.5736Z" fill="#219EBC"/>
<path d="M25.942 55.6417H20.7467C20.4424 55.6414 20.1506 55.5203 19.9354 55.3052C19.7203 55.09 19.5992 54.7982 19.5989 54.4939V51.2317C19.5992 50.9274 19.7203 50.6357 19.9354 50.4205C20.1506 50.2053 20.4424 50.0843 20.7467 50.0839H25.942C26.2463 50.0843 26.5381 50.2053 26.7533 50.4205C26.9684 50.6357 27.0895 50.9274 27.0898 51.2317V54.4939C27.0895 54.7982 26.9684 55.09 26.7533 55.3052C26.5381 55.5203 26.2463 55.6414 25.942 55.6417ZM20.7467 50.3256C20.5064 50.3258 20.2761 50.4214 20.1062 50.5913C19.9363 50.7612 19.8408 50.9915 19.8405 51.2317V54.4939C19.8408 54.7342 19.9363 54.9645 20.1062 55.1344C20.2761 55.3043 20.5064 55.3998 20.7467 55.4001H25.942C26.1823 55.3998 26.4126 55.3043 26.5825 55.1344C26.7524 54.9645 26.8479 54.7342 26.8482 54.4939V51.2317C26.8479 50.9915 26.7524 50.7612 26.5825 50.5913C26.4126 50.4214 26.1823 50.3258 25.942 50.3256H20.7467Z" fill="#3F3D56"/>
<path d="M23.3443 54.6444L23.0645 54.3921C22.0711 53.4799 21.4152 52.8879 21.4152 52.1505C21.4127 52.0102 21.4385 51.8708 21.4908 51.7406C21.5432 51.6104 21.6211 51.492 21.7201 51.3925C21.819 51.2929 21.9369 51.2143 22.0668 51.1611C22.1967 51.108 22.3359 51.0814 22.4762 51.083C22.6418 51.0839 22.8052 51.1208 22.9551 51.1912C23.1051 51.2616 23.2379 51.3637 23.3443 51.4906C23.4508 51.3637 23.5836 51.2616 23.7335 51.1912C23.8834 51.1208 24.0468 51.0839 24.2124 51.083C24.3527 51.0814 24.492 51.108 24.6218 51.1611C24.7517 51.2143 24.8696 51.2929 24.9685 51.3925C25.0675 51.492 25.1454 51.6104 25.1978 51.7406C25.2502 51.8708 25.2759 52.0102 25.2734 52.1505C25.2734 52.8879 24.6175 53.48 23.6241 54.3921L23.3443 54.6444Z" fill="#219EBC"/>
<path d="M20.3403 79.2343L21.6841 78.9146L21.0906 73.5794L19.1073 74.0512L20.3403 79.2343Z" fill="#FFB8B8"/>
<path d="M24.572 79.5459L20.3488 80.5505L19.9606 78.9188L22.5522 78.3023C22.7664 78.2514 22.9887 78.2431 23.2061 78.278C23.4236 78.3129 23.6321 78.3903 23.8196 78.5058C24.0072 78.6213 24.1702 78.7726 24.2993 78.951C24.4284 79.1295 24.521 79.3316 24.572 79.5459Z" fill="#2F2E41"/>
<path d="M19.0213 75.799L16.1028 65.7967L19.7498 64.892L21.8893 75.4852C21.905 75.5628 21.9035 75.6429 21.885 75.7199C21.8665 75.7969 21.8315 75.8689 21.7823 75.9309C21.733 75.9929 21.6709 76.0434 21.6001 76.0789C21.5293 76.1144 21.4517 76.134 21.3725 76.1363L19.5594 76.1902C19.5539 76.1903 19.5485 76.1905 19.543 76.1905C19.4254 76.1904 19.311 76.1522 19.2169 76.0817C19.1229 76.0111 19.0542 75.9119 19.0213 75.799Z" fill="#2F2E41"/>
<path d="M12.0187 79.2675L13.3999 79.2674L14.0568 73.9396L12.0182 73.9399L12.0187 79.2675Z" fill="#FFB8B8"/>
<path d="M16.0638 80.5495L11.7228 80.5499L11.7226 78.8727L14.3865 78.8724C14.8313 78.8724 15.2579 79.049 15.5725 79.3636C15.8871 79.6781 16.0638 80.1047 16.0638 80.5495Z" fill="#2F2E41"/>
<path d="M11.7761 77.1972C11.7253 77.1481 11.6848 77.0894 11.6569 77.0245C11.6291 76.9595 11.6143 76.8897 11.6136 76.8191L10.3552 66.8411C10.3547 66.6971 10.4112 66.5589 10.5123 66.4565C10.6135 66.3541 10.7511 66.2959 10.895 66.2946L13.7039 66.2743H13.7079C13.8505 66.2747 13.9873 66.331 14.0889 66.431C14.1906 66.5311 14.2489 66.6671 14.2515 66.8097L14.4008 76.6391C14.403 76.7825 14.3484 76.921 14.2489 77.0243C14.1494 77.1277 14.0131 77.1875 13.8697 77.1907L12.1645 77.3528C12.1619 77.3528 12.1593 77.3528 12.1567 77.3528C12.0142 77.3532 11.8775 77.2973 11.7761 77.1972Z" fill="#2F2E41"/>
<path d="M12.3779 44.1711C14.0168 44.1711 15.3454 42.8425 15.3454 41.2036C15.3454 39.5647 14.0168 38.2361 12.3779 38.2361C10.739 38.2361 9.4104 39.5647 9.4104 41.2036C9.4104 42.8425 10.739 44.1711 12.3779 44.1711Z" fill="#FFB8B8"/>
<path d="M8.46874 66.3201C6.53795 64.8115 6.55839 63.0515 7.21721 60.7008C7.40281 60.0385 7.60313 59.3674 7.81519 58.6568C8.80049 55.3553 9.91723 51.6134 9.49327 48.5237L9.55312 48.5155L9.49327 48.5237C9.37714 47.6774 9.67314 46.7873 10.3053 46.0816C10.9376 45.3758 11.7885 44.9847 12.6439 45.0068C13.4978 45.0296 14.3281 45.4661 14.9219 46.2045C15.5128 46.9392 15.7948 49.5229 15.8784 49.8932C16.2622 51.5928 16.4938 52.6187 16.66 54.2552C16.8565 56.1899 19.2096 61.9746 19.9595 62.9447C20.1585 63.2008 20.3009 63.4961 20.3775 63.8113C20.4541 64.1264 20.463 64.4542 20.4037 64.7731C20.3484 65.0764 20.2286 65.3643 20.0524 65.6173C19.8761 65.8702 19.6475 66.0823 19.3821 66.2393C18.1652 66.9832 16.828 67.5094 15.4305 67.7944C14.8243 67.9119 14.2083 67.9712 13.5908 67.9714C11.6749 67.9714 9.84429 67.3949 8.46874 66.3201Z" fill="#219EBC"/>
<path d="M20.8088 55.1404C20.7319 54.9937 20.6239 54.8656 20.4921 54.7652C20.3604 54.6648 20.2083 54.5944 20.0465 54.5592C19.8847 54.5239 19.7171 54.5245 19.5555 54.561C19.394 54.5975 19.2424 54.669 19.1114 54.7704L16.8628 53.4873L15.7498 54.6636L18.9507 56.431C19.1357 56.6397 19.3908 56.7733 19.6677 56.8064C19.9445 56.8396 20.224 56.7701 20.453 56.611C20.682 56.4519 20.8447 56.2144 20.9103 55.9433C20.9759 55.6723 20.9398 55.3866 20.8088 55.1404V55.1404Z" fill="#FFB8B8"/>
<path d="M17.3811 56.0097L13.3509 54.7435C12.8098 54.5723 12.3342 54.2392 11.9883 53.7892C11.6424 53.3392 11.4429 52.794 11.4166 52.227L11.2432 48.3111C11.2334 48.0908 11.2682 47.8708 11.3455 47.6643C11.4227 47.4577 11.5408 47.2689 11.6927 47.1091C11.8446 46.9492 12.0272 46.8216 12.2295 46.734C12.4318 46.6463 12.6498 46.6004 12.8703 46.5989C13.0908 46.5974 13.3093 46.6404 13.5128 46.7254C13.7163 46.8103 13.9006 46.9354 14.0546 47.0931C14.2086 47.2509 14.3293 47.4382 14.4093 47.6436C14.4893 47.8491 14.527 48.0686 14.5203 48.289L14.4094 51.8919L18.6988 53.6412C18.7745 53.6721 18.8423 53.7197 18.8971 53.7804C18.9519 53.8412 18.9923 53.9135 19.0153 53.992C19.0382 54.0705 19.0432 54.1532 19.0298 54.2338C19.0164 54.3145 18.9849 54.3912 18.9378 54.458L17.9885 55.8043C17.9222 55.8987 17.8276 55.9694 17.7184 56.0064C17.6092 56.0433 17.491 56.0445 17.3811 56.0097H17.3811Z" fill="#2F2E41"/>
<path d="M7.59547 44.8956C7.73107 44.0823 7.72609 43.2394 7.72125 42.4242C7.71995 42.2029 7.71862 41.9817 7.71998 41.7609C7.72629 40.7346 7.78998 39.6469 8.20952 38.6456C8.66614 37.5559 9.51171 36.7689 10.4714 36.5406C11.5535 36.2829 12.7276 36.8526 13.081 37.7906C13.3147 37.6586 13.5747 37.5801 13.8424 37.5608C14.1101 37.5415 14.3787 37.5819 14.6288 37.679C14.879 37.7761 15.1045 37.9275 15.2891 38.1224C15.4736 38.3172 15.6126 38.5506 15.696 38.8056C15.7795 39.0607 15.8052 39.3311 15.7715 39.5973C15.7378 39.8635 15.6453 40.1189 15.5009 40.3451C15.3565 40.5713 15.1637 40.7626 14.9363 40.9052C14.709 41.0478 14.4529 41.1382 14.1864 41.1698L14.141 41.1739L13.7875 40.255C13.7855 40.2711 13.7835 40.2873 13.7816 40.3037C13.7591 40.4943 13.7358 40.6913 13.5785 40.8051C13.3821 40.9471 13.1375 41.4147 13.209 41.8883C13.2535 42.1307 13.32 42.3685 13.4074 42.5989C13.5046 42.8519 13.5751 43.1142 13.6179 43.3818C13.6628 43.7248 13.5731 44.0718 13.3675 44.35C13.3066 44.4312 13.2297 44.4991 13.1417 44.5497C13.0537 44.6002 12.9562 44.6322 12.8554 44.6439L8.86976 45.056L8.69157 43.7247L7.55786 45.121L7.59547 44.8956Z" fill="#2F2E41"/>
<path d="M28.3185 80.6209H5.1207C5.08866 80.6209 5.05792 80.6081 5.03527 80.5855C5.01261 80.5628 4.99988 80.5321 4.99988 80.5C4.99988 80.468 5.01261 80.4373 5.03527 80.4146C5.05792 80.3919 5.08866 80.3792 5.1207 80.3792H28.3185C28.3505 80.3792 28.3812 80.3919 28.4039 80.4146C28.4265 80.4373 28.4393 80.468 28.4393 80.5C28.4393 80.5321 28.4265 80.5628 28.4039 80.5855C28.3812 80.6081 28.3505 80.6209 28.3185 80.6209Z" fill="#CCCCCC"/>
</g>
<path d="M1.36108 6.52775C1.36108 3.53621 3.78621 1.11108 6.77775 1.11108H91.9444C94.936 1.11108 97.3611 3.53621 97.3611 6.52775V91.6944C97.3611 94.686 94.936 97.1111 91.9444 97.1111H1.36108V6.52775Z" stroke="#808080"/>
<defs>
<clipPath id="clip0_763_5828">
<rect width="88" height="63.2611" fill="white" transform="translate(5 17.3608)"/>
</clipPath>
</defs>
</svg>
