<svg width="98" height="98" viewBox="0 0 98 98" fill="none" xmlns="http://www.w3.org/2000/svg">
<rect x="1" y="1" width="96" height="96" rx="48" fill="white"/>
<path d="M20.9932 23.13C25.3721 13.1455 35.8828 9.38615 44.1759 16.09C47.4143 18.7054 49.4348 22.8678 53.4001 24.538C57.1207 26.1044 61.834 25.6433 65.8574 26.4916C74.425 28.2868 85.9601 35.098 85.0801 45.5929C84.6946 50.19 81.5935 55.2957 80.0606 59.5972C78.3006 64.5463 77.2446 70.738 72.5858 73.6965C64.599 78.7759 54.9647 74.6241 47.7698 70.5285C43.8978 68.3268 41.7665 66.9733 37.597 67.7284C33.7374 68.4324 30.2614 70.8964 26.4897 67.973C23.6578 65.7783 23.4238 61.3308 21.046 58.7189C18.3673 55.7762 15.6516 55.5633 14.2594 51.1404C12.5716 45.7741 15.0585 42.4213 16.7393 37.6271C18.4201 32.8329 18.9305 27.8274 20.9932 23.13Z" fill="#8ECAE6"/>
<g opacity="0.7">
<path d="M20.9932 23.13C25.3721 13.1455 35.8828 9.38615 44.1759 16.09C47.4143 18.7054 49.4348 22.8678 53.4001 24.538C57.1207 26.1044 61.834 25.6433 65.8574 26.4916C74.425 28.2868 85.9601 35.098 85.0801 45.5929C84.6946 50.19 81.5935 55.2957 80.0606 59.5972C78.3006 64.5463 77.2446 70.738 72.5858 73.6965C64.599 78.7759 54.9647 74.6241 47.7698 70.5285C43.8978 68.3268 41.7665 66.9733 37.597 67.7284C33.7374 68.4324 30.2614 70.8964 26.4897 67.973C23.6578 65.7783 23.4238 61.3308 21.046 58.7189C18.3673 55.7762 15.6516 55.5633 14.2594 51.1404C12.5716 45.7741 15.0585 42.4213 16.7393 37.6271C18.4201 32.8329 18.9305 27.8274 20.9932 23.13Z" fill="white"/>
</g>
<path d="M54.3135 82.0326C39.2879 82.0326 27.1074 81.2738 27.1074 80.3377C27.1074 79.4016 39.2879 78.6428 54.3135 78.6428C69.339 78.6428 81.5195 79.4016 81.5195 80.3377C81.5195 81.2738 69.339 82.0326 54.3135 82.0326Z" fill="#8ECAE6"/>
<path opacity="0.8" d="M54.3135 82.0326C39.2879 82.0326 27.1074 81.2738 27.1074 80.3377C27.1074 79.4016 39.2879 78.6428 54.3135 78.6428C69.339 78.6428 81.5195 79.4016 81.5195 80.3377C81.5195 81.2738 69.339 82.0326 54.3135 82.0326Z" fill="white"/>
<path d="M33.869 15.8882H61.2247C63.1134 15.8882 64.6444 17.4192 64.6444 19.3079V77.0605C64.6444 78.9491 63.1134 80.4802 61.2247 80.4802H33.869C31.9804 80.4802 30.4494 78.9491 30.4494 77.0605V19.3079C30.4494 17.4192 31.9804 15.8882 33.869 15.8882Z" fill="#1C282E"/>
<path d="M31.97 22.9805H63.1255V73.3869H31.97V22.9805Z" fill="white" stroke="#1C282E" stroke-width="0.301842" stroke-miterlimit="10"/>
<path d="M42.7716 43.3926C40.1344 40.7553 40.1344 36.4795 42.7716 33.8423C45.4089 31.205 49.6847 31.205 52.322 33.8423C54.9592 36.4795 54.9592 40.7554 52.322 43.3926C49.6847 46.0299 45.4089 46.0299 42.7716 43.3926Z" fill="#8ECAE6"/>
<path d="M38.6812 70.2188H56.4115C56.4514 70.219 56.4909 70.2114 56.5278 70.1962C56.5648 70.1811 56.5984 70.1589 56.6267 70.1307C56.6549 70.1026 56.6774 70.0692 56.6927 70.0323C56.7081 69.9955 56.7159 69.956 56.7159 69.9161C56.7162 69.876 56.7085 69.8363 56.6932 69.7993C56.678 69.7622 56.6556 69.7286 56.6273 69.7002C56.599 69.6719 56.5653 69.6495 56.5283 69.6343C56.4912 69.6191 56.4515 69.6113 56.4115 69.6116H38.6812C38.6413 69.6116 38.6018 69.6195 38.565 69.6348C38.5281 69.6501 38.4947 69.6726 38.4665 69.7009C38.4384 69.7292 38.4161 69.7627 38.401 69.7997C38.3859 69.8366 38.3783 69.8762 38.3785 69.9161C38.3785 69.9963 38.4104 70.0733 38.4672 70.1301C38.5239 70.1869 38.6009 70.2188 38.6812 70.2188Z" fill="#8ECAE6"/>
<path d="M38.1038 49.167H56.9904C57.3802 49.167 57.6962 49.483 57.6962 49.8728V52.0992C57.6962 52.4889 57.3802 52.8049 56.9904 52.8049H38.1038C37.7141 52.8049 37.3981 52.4889 37.3981 52.0992V49.8728C37.3981 49.483 37.7141 49.167 38.1038 49.167Z" fill="#8ECAE6"/>
<path d="M38.1038 55.9714H56.9904C57.3802 55.9714 57.6962 56.2874 57.6962 56.6772V58.9036C57.6962 59.2934 57.3802 59.6094 56.9904 59.6094H38.1038C37.7141 59.6094 37.3981 59.2934 37.3981 58.9036V56.6772C37.3981 56.2874 37.7141 55.9714 38.1038 55.9714Z" fill="#8ECAE6"/>
<path d="M44.1845 41.9859L46.1716 40.8419V39.8967C45.8839 39.5486 45.6755 39.142 45.5609 38.7052C45.4925 38.7295 45.4205 38.742 45.3479 38.7422C45.1015 38.7422 44.9449 37.9783 44.9185 37.4327C44.6316 36.8255 45.0223 36.47 45.0223 36.47C45.0223 36.47 44.8604 36.3081 44.753 35.6587C44.6457 35.0092 45.1314 35.2803 45.5098 34.6854C45.8882 34.0905 46.1593 33.4428 47.4018 33.4428C47.7442 33.4316 48.0821 33.5236 48.3714 33.7069C48.6608 33.8902 48.8884 34.1563 49.0245 34.4707C49.3338 34.4718 49.642 34.5078 49.9433 34.578C50.3234 34.6854 50.4308 35.9297 50.1069 36.4172C49.962 36.6836 49.8846 36.9816 49.8817 37.2849C49.9679 37.1793 50.0577 37.1511 50.1069 37.3905C50.2143 37.9308 49.7813 38.6876 49.7813 38.6876L49.5578 38.6243C49.4452 39.0911 49.228 39.5262 48.9225 39.8967V40.8419L50.9095 41.9859C51.1416 42.1198 51.3343 42.3125 51.4684 42.5445C51.6024 42.7765 51.6731 43.0397 51.6733 43.3076V43.9623C50.4916 44.8753 49.0404 45.3705 47.547 45.3705C46.0537 45.3705 44.6025 44.8753 43.4207 43.9623V43.3076C43.4206 43.0396 43.4911 42.7763 43.6252 42.5442C43.7593 42.3122 43.9522 42.1196 44.1845 41.9859Z" fill="#1C282E"/>
<path d="M55.1246 58.7038C55.1702 58.7031 55.2137 58.6848 55.2461 58.6528C55.2634 58.6373 55.2772 58.6183 55.2866 58.597C55.296 58.5758 55.3008 58.5528 55.3006 58.5296C55.3001 58.4978 55.291 58.4668 55.2742 58.4398L54.9574 57.9329L55.5752 57.9523C55.5985 57.9537 55.6218 57.9503 55.6436 57.9421C55.6655 57.9339 55.6853 57.9212 55.7019 57.9048C55.7306 57.8725 55.7465 57.8309 55.7465 57.7877C55.7465 57.7446 55.7306 57.7029 55.7019 57.6707C55.6857 57.6537 55.6659 57.6404 55.644 57.6319C55.6221 57.6234 55.5986 57.6198 55.5752 57.6214L54.9662 57.6443L55.2795 57.1392C55.2965 57.1117 55.3057 57.08 55.3059 57.0476C55.3061 57.0244 55.3013 57.0014 55.2919 56.9802C55.2825 56.9589 55.2687 56.9399 55.2513 56.9244C55.219 56.8923 55.1755 56.874 55.1299 56.8734C55.0999 56.8736 55.0706 56.8823 55.0454 56.8985C55.0201 56.9147 55 56.9377 54.9873 56.9649L54.6864 57.5088L54.3889 56.9684C54.3748 56.9396 54.3531 56.9152 54.3261 56.8978C54.2991 56.8804 54.2679 56.8708 54.2358 56.8699C54.2136 56.87 54.1916 56.8748 54.1713 56.8839C54.151 56.8929 54.1328 56.9062 54.1179 56.9227C54.0856 56.9562 54.0679 57.0011 54.0686 57.0476C54.0687 57.0779 54.0766 57.1076 54.0915 57.1339L54.4101 57.6443L53.7923 57.6214C53.7689 57.6198 53.7454 57.6234 53.7235 57.6319C53.7016 57.6404 53.6818 57.6537 53.6656 57.6707C53.6356 57.7018 53.6191 57.7436 53.6198 57.7868C53.6199 57.8305 53.6362 57.8725 53.6656 57.9048C53.6822 57.9212 53.702 57.9339 53.7239 57.9421C53.7457 57.9503 53.769 57.9537 53.7923 57.9523L54.4136 57.9329L54.1038 58.4345C54.0865 58.4625 54.0773 58.4948 54.0774 58.5278C54.0774 58.5745 54.096 58.6192 54.129 58.6522C54.162 58.6852 54.2067 58.7038 54.2534 58.7038C54.2836 58.7034 54.313 58.6942 54.338 58.6773C54.363 58.6604 54.3826 58.6366 54.3942 58.6088L54.6881 58.0808L54.9803 58.6088C54.9933 58.6364 55.0136 58.6598 55.0391 58.6766C55.0645 58.6934 55.0941 58.7028 55.1246 58.7038Z" fill="#1C282E"/>
<path d="M52.27 58.7038C52.3155 58.7031 52.3591 58.6848 52.3914 58.6528C52.4087 58.6373 52.4226 58.6183 52.432 58.597C52.4414 58.5758 52.4462 58.5528 52.446 58.5296C52.4454 58.4978 52.4363 58.4668 52.4196 58.4398L52.1028 57.9329L52.7188 57.9523C52.7423 57.9533 52.7658 57.9497 52.7878 57.9415C52.8099 57.9334 52.8301 57.9209 52.8473 57.9048C52.8706 57.8807 52.8862 57.8501 52.8919 57.817C52.8977 57.7839 52.8933 57.7499 52.8795 57.7193C52.8656 57.6888 52.8429 57.6631 52.8142 57.6456C52.7856 57.6281 52.7523 57.6197 52.7188 57.6214L52.1116 57.6443L52.4249 57.1392C52.4419 57.1117 52.451 57.08 52.4513 57.0476C52.4514 57.0244 52.4467 57.0014 52.4372 56.9802C52.4278 56.9589 52.414 56.9399 52.3967 56.9244C52.3644 56.8923 52.3208 56.874 52.2753 56.8734C52.2453 56.8736 52.216 56.8823 52.1907 56.8985C52.1655 56.9147 52.1454 56.9377 52.1327 56.9649L51.8317 57.5088L51.5343 56.9684C51.5202 56.9396 51.4985 56.9152 51.4715 56.8978C51.4445 56.8804 51.4133 56.8708 51.3812 56.8699C51.3589 56.8698 51.3369 56.8744 51.3165 56.8835C51.2962 56.8927 51.278 56.906 51.2633 56.9227C51.247 56.9391 51.234 56.9586 51.2253 56.9801C51.2165 57.0015 51.2121 57.0245 51.2122 57.0476C51.2129 57.078 51.2213 57.1077 51.2369 57.1339L51.5554 57.6443L50.9359 57.6249C50.9127 57.6233 50.8895 57.627 50.8679 57.6355C50.8463 57.644 50.8268 57.6572 50.8109 57.6742C50.7809 57.7053 50.7645 57.7471 50.7652 57.7904C50.7653 57.834 50.7816 57.876 50.8109 57.9083C50.8272 57.9246 50.8467 57.9373 50.8683 57.9455C50.8898 57.9537 50.9129 57.9572 50.9359 57.9558L51.5589 57.9364L51.2492 58.438C51.2318 58.466 51.2227 58.4984 51.2228 58.5313C51.2228 58.578 51.2413 58.6228 51.2743 58.6558C51.3073 58.6888 51.3521 58.7073 51.3988 58.7073C51.429 58.7069 51.4584 58.6977 51.4834 58.6808C51.5084 58.6639 51.5279 58.6401 51.5396 58.6123L51.8335 58.0843L52.1257 58.6123C52.1391 58.6392 52.1597 58.662 52.1851 58.6781C52.2105 58.6942 52.2399 58.7031 52.27 58.7038Z" fill="#1C282E"/>
<path d="M49.4135 58.7038C49.4597 58.7036 49.504 58.6853 49.5367 58.6528C49.5541 58.6373 49.5679 58.6183 49.5773 58.597C49.5867 58.5758 49.5915 58.5528 49.5913 58.5296C49.5908 58.4978 49.5816 58.4668 49.5649 58.4398L49.2481 57.9329L49.8641 57.9523C49.8973 57.9536 49.9301 57.945 49.9584 57.9276C49.9866 57.9102 50.0091 57.8848 50.0229 57.8546C50.0367 57.8244 50.0411 57.7908 50.0357 57.758C50.0303 57.7253 50.0153 57.6949 49.9926 57.6707C49.976 57.6537 49.9559 57.6405 49.9337 57.632C49.9115 57.6235 49.8878 57.6199 49.8641 57.6214L49.2569 57.6443L49.5702 57.1392C49.5872 57.1117 49.5964 57.08 49.5966 57.0476C49.596 57.0245 49.5909 57.0017 49.5816 56.9806C49.5722 56.9595 49.5588 56.9404 49.542 56.9244C49.5092 56.8919 49.465 56.8736 49.4188 56.8734C49.3891 56.8739 49.3602 56.8828 49.3353 56.899C49.3104 56.9151 49.2905 56.938 49.278 56.9649L48.9771 57.5088L48.6796 56.9684C48.6655 56.9396 48.6438 56.9152 48.6168 56.8978C48.5898 56.8804 48.5586 56.8708 48.5265 56.8699C48.5042 56.8698 48.4822 56.8744 48.4618 56.8835C48.4415 56.8927 48.4233 56.906 48.4086 56.9227C48.3923 56.9391 48.3794 56.9586 48.3706 56.9801C48.3618 57.0015 48.3574 57.0245 48.3575 57.0476C48.3582 57.078 48.3667 57.1077 48.3822 57.1339L48.7007 57.6443L48.0812 57.6214C48.0584 57.6191 48.0354 57.6217 48.0138 57.6291C47.9921 57.6365 47.9722 57.6484 47.9556 57.6641C47.9389 57.6797 47.9258 57.6988 47.9171 57.72C47.9084 57.7412 47.9043 57.764 47.9052 57.7868C47.9048 57.8302 47.9205 57.8722 47.9492 57.9048C47.9658 57.9212 47.9857 57.9339 48.0075 57.9421C48.0293 57.9503 48.0527 57.9537 48.0759 57.9523L48.6972 57.9329L48.3892 58.4345C48.3719 58.4625 48.3627 58.4948 48.3628 58.5278C48.3634 58.5509 48.3685 58.5737 48.3778 58.5948C48.3872 58.616 48.4006 58.635 48.4174 58.651C48.4327 58.6675 48.4512 58.6806 48.4718 58.6897C48.4924 58.6988 48.5146 58.7036 48.5371 58.7038C48.567 58.7033 48.5961 58.694 48.6208 58.6771C48.6455 58.6602 48.6647 58.6365 48.6761 58.6088L48.9718 58.0808L49.2639 58.6088C49.2771 58.6373 49.2982 58.6614 49.3248 58.6783C49.3513 58.6951 49.3821 58.704 49.4135 58.7038Z" fill="#1C282E"/>
<path d="M46.5589 58.7038C46.6051 58.7036 46.6493 58.6853 46.6821 58.6528C46.7153 58.6203 46.7342 58.576 46.7349 58.5296C46.7354 58.4979 46.7269 58.4667 46.7103 58.4398L46.3935 57.9329L47.0095 57.9523C47.033 57.9533 47.0564 57.9497 47.0785 57.9415C47.1006 57.9334 47.1208 57.9209 47.1379 57.9048C47.1666 57.8725 47.1825 57.8309 47.1825 57.7877C47.1825 57.7446 47.1666 57.7029 47.1379 57.6707C47.1209 57.6543 47.1008 57.6414 47.0787 57.633C47.0566 57.6245 47.0331 57.6206 47.0095 57.6214L46.4005 57.6443L46.712 57.1392C46.7291 57.1117 46.7382 57.08 46.7384 57.0476C46.7379 57.0245 46.7328 57.0017 46.7234 56.9806C46.714 56.9595 46.7006 56.9404 46.6839 56.9244C46.6511 56.8919 46.6068 56.8736 46.5607 56.8734C46.5307 56.8736 46.5014 56.8823 46.4761 56.8985C46.4509 56.9147 46.4308 56.9377 46.4181 56.9649L46.1189 57.5088L45.8215 56.9684C45.8074 56.9396 45.7856 56.9152 45.7586 56.8978C45.7316 56.8804 45.7004 56.8708 45.6683 56.8699C45.6461 56.8698 45.624 56.8744 45.6037 56.8835C45.5833 56.8927 45.5652 56.906 45.5504 56.9227C45.5341 56.9391 45.5212 56.9586 45.5124 56.9801C45.5037 57.0015 45.4992 57.0245 45.4994 57.0476C45.5 57.078 45.5085 57.1077 45.524 57.1339L45.8426 57.6443L45.2231 57.6214C45.2003 57.6191 45.1773 57.6217 45.1556 57.6291C45.1339 57.6365 45.1141 57.6484 45.0974 57.6641C45.0807 57.6797 45.0676 57.6988 45.0589 57.72C45.0502 57.7412 45.0462 57.764 45.0471 57.7868C45.0467 57.8302 45.0624 57.8722 45.0911 57.9048C45.1076 57.9212 45.1275 57.9339 45.1493 57.9421C45.1712 57.9503 45.1945 57.9537 45.2178 57.9523L45.8391 57.9329L45.5311 58.4345C45.5137 58.4625 45.5046 58.4948 45.5047 58.5278C45.5045 58.551 45.5093 58.574 45.5187 58.5953C45.5281 58.6165 45.5419 58.6355 45.5592 58.651C45.5745 58.6675 45.593 58.6806 45.6136 58.6897C45.6342 58.6988 45.6564 58.7036 45.6789 58.7038C45.7088 58.7033 45.738 58.694 45.7627 58.6771C45.7874 58.6602 45.8066 58.6365 45.8179 58.6088L46.1136 58.0808L46.4058 58.6088C46.4192 58.6378 46.4409 58.6624 46.4681 58.6792C46.4953 58.6961 46.5269 58.7047 46.5589 58.7038Z" fill="#1C282E"/>
<path d="M43.704 58.7038C43.7502 58.7036 43.7945 58.6853 43.8272 58.6528C43.8545 58.6251 43.8719 58.5893 43.8767 58.5508C43.8814 58.5122 43.8733 58.4732 43.8536 58.4398L43.5386 57.9329L44.1546 57.9523C44.1781 57.9533 44.2016 57.9497 44.2237 57.9415C44.2457 57.9334 44.2659 57.9209 44.2831 57.9048C44.3118 57.8725 44.3276 57.8309 44.3276 57.7877C44.3276 57.7446 44.3118 57.7029 44.2831 57.6707C44.2661 57.6543 44.2459 57.6414 44.2239 57.633C44.2018 57.6245 44.1782 57.6206 44.1546 57.6214L43.5456 57.6443L43.8589 57.1392C43.876 57.1117 43.8851 57.08 43.8853 57.0476C43.8847 57.0012 43.8657 56.9569 43.8325 56.9244C43.7997 56.8919 43.7555 56.8736 43.7093 56.8734C43.6793 56.8736 43.65 56.8823 43.6248 56.8985C43.5995 56.9147 43.5794 56.9377 43.5668 56.9649L43.2676 57.5088L42.9701 56.9684C42.956 56.9396 42.9343 56.9152 42.9073 56.8978C42.8803 56.8804 42.8491 56.8708 42.817 56.8699C42.7945 56.8698 42.7722 56.8744 42.7515 56.8835C42.7309 56.8926 42.7124 56.906 42.6973 56.9227C42.665 56.9562 42.6473 57.0011 42.648 57.0476C42.6487 57.078 42.6572 57.1077 42.6727 57.1339L42.9912 57.6443L42.3717 57.6214C42.3489 57.6191 42.3259 57.6217 42.3043 57.6291C42.2826 57.6365 42.2627 57.6484 42.2461 57.6641C42.2294 57.6797 42.2163 57.6988 42.2076 57.72C42.1989 57.7412 42.1949 57.764 42.1957 57.7868C42.1954 57.8302 42.211 57.8722 42.2397 57.9048C42.2563 57.9212 42.2762 57.9339 42.298 57.9421C42.3198 57.9503 42.3432 57.9537 42.3664 57.9523L42.9877 57.9329L42.6797 58.4345C42.6624 58.4625 42.6532 58.4948 42.6533 58.5278C42.6532 58.551 42.6579 58.574 42.6673 58.5953C42.6767 58.6165 42.6906 58.6355 42.7079 58.651C42.7232 58.6675 42.7417 58.6806 42.7623 58.6897C42.7829 58.6988 42.8051 58.7036 42.8276 58.7038C42.8575 58.7033 42.8866 58.694 42.9113 58.6771C42.936 58.6602 42.9553 58.6365 42.9666 58.6088L43.2623 58.0808L43.5544 58.6088C43.5676 58.6373 43.5887 58.6614 43.6153 58.6783C43.6418 58.6951 43.6726 58.704 43.704 58.7038Z" fill="#1C282E"/>
<path d="M40.8493 58.7038C40.8948 58.7031 40.9383 58.6848 40.9707 58.6528C40.988 58.6373 41.0018 58.6183 41.0112 58.597C41.0206 58.5758 41.0254 58.5528 41.0253 58.5296C41.0247 58.4978 41.0156 58.4668 40.9989 58.4398L40.6838 57.9329L41.2998 57.9523C41.3225 57.954 41.3452 57.951 41.3667 57.9434C41.3881 57.9358 41.4077 57.9239 41.4243 57.9083C41.4408 57.8928 41.4539 57.8739 41.4628 57.853C41.4717 57.8321 41.4761 57.8096 41.4758 57.7868C41.4759 57.7653 41.4718 57.744 41.4636 57.724C41.4555 57.7041 41.4435 57.686 41.4283 57.6707C41.4121 57.6537 41.3923 57.6404 41.3704 57.6319C41.3485 57.6234 41.325 57.6198 41.3016 57.6214L40.6926 57.6443L41.0059 57.1392C41.0229 57.1117 41.0321 57.08 41.0323 57.0476C41.0316 57.0012 41.0127 56.9569 40.9795 56.9244C40.9467 56.8919 40.9025 56.8736 40.8563 56.8734C40.8263 56.8736 40.797 56.8823 40.7718 56.8985C40.7465 56.9147 40.7264 56.9377 40.7137 56.9649L40.4145 57.5088L40.1153 56.9684C40.1014 56.9399 40.0799 56.9156 40.0533 56.8983C40.0266 56.8809 39.9958 56.8711 39.964 56.8699C39.9414 56.8698 39.9191 56.8744 39.8985 56.8835C39.8779 56.8926 39.8594 56.906 39.8443 56.9227C39.812 56.9562 39.7943 57.0011 39.795 57.0476C39.7951 57.0779 39.803 57.1076 39.8179 57.1339L40.1365 57.6443L39.5187 57.6214C39.4953 57.6198 39.4717 57.6234 39.4498 57.6319C39.4279 57.6404 39.4082 57.6537 39.392 57.6707C39.362 57.7018 39.3455 57.7436 39.3462 57.7868C39.3463 57.8305 39.3626 57.8725 39.392 57.9048C39.4086 57.9212 39.4284 57.9339 39.4503 57.9421C39.4721 57.9503 39.4954 57.9537 39.5187 57.9523L40.14 57.9329L39.832 58.4345C39.8146 58.4625 39.8055 58.4948 39.8056 58.5278C39.8062 58.5742 39.8252 58.6185 39.8584 58.651C39.8904 58.6837 39.934 58.7027 39.9798 58.7038C40.0097 58.7033 40.0389 58.694 40.0636 58.6771C40.0883 58.6602 40.1075 58.6365 40.1189 58.6088L40.4145 58.0808L40.7067 58.6088C40.7194 58.6362 40.7394 58.6596 40.7645 58.6764C40.7897 58.6932 40.819 58.7027 40.8493 58.7038Z" fill="#1C282E"/>
<g style="mix-blend-mode:multiply">
<path d="M31.97 23.0479H63.1255V24.9997H31.97V23.0479Z" fill="#8ECAE6"/>
</g>
<path d="M44.1599 19.4523H50.9359C51.0582 19.4523 51.1754 19.4037 51.2619 19.3172C51.3484 19.2307 51.397 19.1134 51.397 18.9911C51.397 18.8689 51.3484 18.7516 51.2619 18.6651C51.1754 18.5786 51.0582 18.53 50.9359 18.53H44.1599C44.0376 18.53 43.9203 18.5786 43.8338 18.6651C43.7473 18.7516 43.6987 18.8689 43.6987 18.9911C43.6987 19.1134 43.7473 19.2307 43.8338 19.3172C43.9203 19.4037 44.0376 19.4523 44.1599 19.4523Z" fill="#8ECAE6" stroke="#1C282E" stroke-width="0.301842" stroke-linecap="round" stroke-linejoin="round"/>
<path d="M45.6999 76.2365C45.6995 75.8708 45.8077 75.5133 46.0106 75.2091C46.2135 74.9049 46.5021 74.6678 46.8399 74.5277C47.1776 74.3876 47.5493 74.3509 47.908 74.4221C48.2666 74.4934 48.5961 74.6694 48.8546 74.928C49.1132 75.1865 49.2892 75.516 49.3604 75.8746C49.4317 76.2333 49.395 76.605 49.2549 76.9427C49.1148 77.2805 48.8776 77.5691 48.5735 77.772C48.2693 77.9749 47.9118 78.0831 47.5461 78.0827C47.0566 78.0823 46.5873 77.8876 46.2411 77.5415C45.895 77.1953 45.7003 76.726 45.6999 76.2365Z" fill="#8ECAE6"/>
<path d="M46.6099 75.2991H48.4825V77.1717H46.6099V75.2991Z" fill="#8ECAE6" stroke="#1C282E" stroke-width="0.301842" stroke-linecap="round" stroke-linejoin="round"/>
<path d="M25.2399 54.9844C25.2399 54.9844 27.6933 48.7505 25.5092 48.0095C23.2353 47.2369 23.3356 51.3535 23.4236 53.3599C23.6084 57.6473 24.0818 58.4445 24.4356 57.3973L25.2399 54.9844ZM25.9773 59.8473C25.3033 60.7273 25.1132 59.8156 26.3293 55.6989C26.8996 53.7629 28.1386 49.8469 30.0394 51.3165C31.8645 52.7245 27.5209 57.8285 27.5209 57.8285L25.9773 59.8473ZM27.2797 63.4201C26.6373 63.9903 26.625 63.2705 28.1509 60.2978C28.8673 58.9057 30.3826 56.0879 31.6234 57.4818C32.8149 58.8265 28.7546 62.0948 28.7546 62.0948L27.2797 63.4201ZM28.6877 67.6687C28.0453 68.2407 28.033 67.5191 29.5589 64.5482C30.2753 63.1561 31.7906 60.3365 33.0314 61.7322C34.2159 63.0804 30.1679 66.3487 30.1679 66.3487L28.6877 67.6687ZM24.6221 59.0201C25.65 59.4213 24.8333 59.8578 20.5407 59.8455C18.5273 59.8455 14.4159 59.754 15.2924 57.517C16.1319 55.3681 22.2461 58.1049 22.2461 58.1049L24.6221 59.0201ZM25.7925 61.8783C26.8802 62.0666 26.1657 62.658 21.9557 63.4993C19.9828 63.8953 15.9365 64.6257 16.3501 62.2673C16.7461 59.9933 23.2828 61.4612 23.2828 61.4612L25.7925 61.8783ZM27.102 65.3684C28.0277 65.5021 27.4364 66.0178 23.897 66.8274C22.2373 67.2076 18.8317 67.9204 19.1274 65.9087C19.409 63.9727 24.9706 65.0674 24.9706 65.0674L27.102 65.3684ZM28.0964 68.6015C29.0028 68.8321 28.3604 69.2826 24.7524 69.7121C23.0628 69.9127 19.6009 70.2612 20.106 68.2917C20.5935 66.4015 26.0073 68.0753 26.0073 68.0753L28.0964 68.6015ZM22.7917 55.5124C23.3197 56.6951 22.2233 56.5156 18.4956 53.2631C16.7497 51.7372 13.2473 48.5445 16.021 46.9553C18.6839 45.4276 21.5474 52.7985 21.5474 52.7985L22.7917 55.5124ZM27.9591 72.8132C28.517 73.1388 27.9697 73.2655 25.4106 72.7551C24.2103 72.5175 21.7692 71.9895 22.5946 70.9476C23.3937 69.9444 26.6673 72.0564 26.6673 72.0564L27.9591 72.8132Z" fill="#8ECAE6"/>
<path opacity="0.3" d="M25.2399 54.9844C25.2399 54.9844 27.6933 48.7505 25.5092 48.0095C23.2353 47.2369 23.3356 51.3535 23.4236 53.3599C23.6084 57.6473 24.0818 58.4445 24.4356 57.3973L25.2399 54.9844ZM25.9773 59.8473C25.3033 60.7273 25.1132 59.8156 26.3293 55.6989C26.8996 53.7629 28.1386 49.8469 30.0394 51.3165C31.8645 52.7245 27.5209 57.8285 27.5209 57.8285L25.9773 59.8473ZM27.2797 63.4201C26.6373 63.9903 26.625 63.2705 28.1509 60.2978C28.8673 58.9057 30.3826 56.0879 31.6234 57.4818C32.8149 58.8265 28.7546 62.0948 28.7546 62.0948L27.2797 63.4201ZM28.6877 67.6687C28.0453 68.2407 28.033 67.5191 29.5589 64.5482C30.2753 63.1561 31.7906 60.3365 33.0314 61.7322C34.2159 63.0804 30.1679 66.3487 30.1679 66.3487L28.6877 67.6687ZM24.6221 59.0201C25.65 59.4213 24.8333 59.8578 20.5407 59.8455C18.5273 59.8455 14.4159 59.754 15.2924 57.517C16.1319 55.3681 22.2461 58.1049 22.2461 58.1049L24.6221 59.0201ZM25.7925 61.8783C26.8802 62.0666 26.1657 62.658 21.9557 63.4993C19.9828 63.8953 15.9365 64.6257 16.3501 62.2673C16.7461 59.9933 23.2828 61.4612 23.2828 61.4612L25.7925 61.8783ZM27.102 65.3684C28.0277 65.5021 27.4364 66.0178 23.897 66.8274C22.2373 67.2076 18.8317 67.9204 19.1274 65.9087C19.409 63.9727 24.9706 65.0674 24.9706 65.0674L27.102 65.3684ZM28.0964 68.6015C29.0028 68.8321 28.3604 69.2826 24.7524 69.7121C23.0628 69.9127 19.6009 70.2612 20.106 68.2917C20.5935 66.4015 26.0073 68.0753 26.0073 68.0753L28.0964 68.6015ZM22.7917 55.5124C23.3197 56.6951 22.2233 56.5156 18.4956 53.2631C16.7497 51.7372 13.2473 48.5445 16.021 46.9553C18.6839 45.4276 21.5474 52.7985 21.5474 52.7985L22.7917 55.5124ZM27.9591 72.8132C28.517 73.1388 27.9697 73.2655 25.4106 72.7551C24.2103 72.5175 21.7692 71.9895 22.5946 70.9476C23.3937 69.9444 26.6673 72.0564 26.6673 72.0564L27.9591 72.8132Z" fill="white"/>
<path d="M24.1576 57.886L24.5853 50.7704L24.1576 57.886ZM25.511 60.2339L28.2144 54.1144L25.511 60.2339ZM18.5344 58.4545L25.013 59.3838L18.5344 58.4545ZM26.912 63.5321L30.4197 59.0318L26.912 63.5321ZM26.296 62.1523L21.463 62.3952L26.296 62.1523ZM27.44 65.6036L23.744 65.9697L27.44 65.6036ZM28.3323 67.7966L30.168 65.0352L28.3323 67.7966ZM28.5435 68.7716L24.1981 68.8121L28.5435 68.7716ZM29.4235 76.924C29.3944 76.9217 29.3674 76.9081 29.3482 76.886C29.3291 76.8639 29.3195 76.8352 29.3214 76.806C29.5978 72.656 27.9926 65.8589 25.4178 60.2796C23.7722 56.7139 17.3218 49.7056 17.2531 49.6352C17.2324 49.6144 17.2207 49.5862 17.2207 49.5569C17.2207 49.5275 17.2324 49.4993 17.2531 49.4785C17.2633 49.4683 17.2753 49.4602 17.2886 49.4547C17.3019 49.4491 17.3162 49.4463 17.3306 49.4463C17.345 49.4463 17.3592 49.4491 17.3725 49.4547C17.3858 49.4602 17.3979 49.4683 17.408 49.4785C17.4731 49.5489 23.9499 56.5837 25.6096 60.1811C28.232 65.8958 29.816 72.5697 29.5344 76.8201C29.5322 76.8482 29.5196 76.8743 29.4991 76.8936C29.4786 76.9128 29.4516 76.9236 29.4235 76.924ZM24.1594 57.9952C24.1303 57.9934 24.103 57.9801 24.0836 57.9584C24.0642 57.9367 24.0541 57.9081 24.0555 57.879L24.4762 50.7598C24.4768 50.7453 24.4804 50.7311 24.4866 50.718C24.4928 50.7049 24.5016 50.6932 24.5124 50.6835C24.5233 50.6738 24.5359 50.6664 24.5496 50.6617C24.5633 50.657 24.5778 50.655 24.5923 50.656C24.6214 50.6578 24.6486 50.671 24.6681 50.6927C24.6875 50.7145 24.6976 50.743 24.6962 50.7721L24.2685 57.8878C24.2671 57.9158 24.255 57.9422 24.2347 57.9616C24.2144 57.9809 24.1874 57.9917 24.1594 57.9917V57.9952ZM25.4723 60.3342C25.446 60.3223 25.4253 60.3005 25.4148 60.2735C25.4043 60.2465 25.4047 60.2165 25.416 60.1899L28.1211 54.0704C28.1328 54.0438 28.1546 54.0229 28.1816 54.0123C28.2087 54.0018 28.2388 54.0024 28.2654 54.014C28.292 54.0257 28.3129 54.0475 28.3235 54.0745C28.3341 54.1016 28.3334 54.1318 28.3218 54.1584L25.6184 60.2779C25.6099 60.2975 25.5959 60.3143 25.5781 60.3262C25.5603 60.338 25.5395 60.3445 25.5181 60.3448C25.4999 60.3457 25.4817 60.3421 25.4653 60.3342H25.4723ZM25.0042 59.4894L18.5291 58.5637C18.5135 58.5633 18.4981 58.5597 18.484 58.553C18.4698 58.5463 18.4573 58.5367 18.4471 58.5248C18.437 58.5129 18.4294 58.499 18.425 58.484C18.4206 58.469 18.4194 58.4532 18.4216 58.4377C18.4237 58.4222 18.4291 58.4074 18.4373 58.3941C18.4456 58.3808 18.4566 58.3695 18.4696 58.3607C18.4826 58.352 18.4973 58.3462 18.5127 58.3435C18.5281 58.3409 18.5439 58.3415 18.559 58.3454L25.0341 59.2712C25.063 59.273 25.09 59.2863 25.1092 59.3081C25.1283 59.3299 25.138 59.3584 25.1362 59.3873C25.1343 59.4163 25.121 59.4433 25.0992 59.4624C25.0774 59.4816 25.0489 59.4913 25.02 59.4894H25.0042ZM26.8504 63.6201C26.8274 63.6021 26.8125 63.5757 26.8089 63.5467C26.8052 63.5177 26.8132 63.4884 26.831 63.4653L30.3405 58.9561C30.3585 58.9328 30.385 58.9176 30.4142 58.9138C30.4434 58.91 30.4729 58.9179 30.4962 58.9359C30.5196 58.9539 30.5348 58.9804 30.5386 59.0096C30.5424 59.0388 30.5345 59.0683 30.5165 59.0917L27 63.6078C26.9898 63.621 26.9767 63.6316 26.9618 63.6389C26.9468 63.6462 26.9304 63.6501 26.9138 63.65C26.8875 63.6487 26.8625 63.6381 26.8434 63.6201H26.8504ZM21.3662 62.4005C21.3653 62.3713 21.3758 62.343 21.3956 62.3216C21.4153 62.3002 21.4427 62.2874 21.4718 62.286L26.296 62.0414C26.3231 62.0433 26.3486 62.055 26.3676 62.0744C26.3866 62.0939 26.3978 62.1196 26.3991 62.1467C26.4005 62.1739 26.3917 62.2005 26.3747 62.2217C26.3576 62.2428 26.3334 62.257 26.3066 62.2614L21.4736 62.506C21.4445 62.507 21.4162 62.4965 21.3948 62.4767C21.3733 62.4569 21.3606 62.4296 21.3592 62.4005H21.3662ZM23.6419 65.9803C23.6402 65.9658 23.6414 65.9511 23.6455 65.9371C23.6496 65.9231 23.6564 65.9101 23.6656 65.8988C23.6748 65.8874 23.6861 65.8781 23.699 65.8712C23.7119 65.8644 23.726 65.8602 23.7405 65.8589L27.4365 65.4945C27.4508 65.4931 27.4653 65.4945 27.4791 65.4986C27.4929 65.5028 27.5057 65.5097 27.5169 65.5189C27.528 65.528 27.5372 65.5393 27.5439 65.552C27.5507 65.5648 27.5548 65.5787 27.5562 65.5931C27.5586 65.622 27.5497 65.6507 27.5313 65.673C27.5129 65.6954 27.4864 65.7097 27.4576 65.7128L23.7616 66.0789H23.751C23.7227 66.0808 23.6946 66.0716 23.6729 66.0532C23.6512 66.0348 23.6376 66.0086 23.6349 65.9803H23.6419ZM28.2795 67.8881C28.2551 67.872 28.238 67.8468 28.2321 67.8181C28.2262 67.7894 28.2318 67.7595 28.2478 67.735L30.0747 64.9736C30.0914 64.9498 30.1167 64.9334 30.1453 64.9278C30.1738 64.9222 30.2034 64.9279 30.2278 64.9436C30.2523 64.9598 30.2693 64.985 30.2753 65.0137C30.2812 65.0424 30.2755 65.0722 30.2595 65.0968L28.4326 67.8582C28.4222 67.8733 28.4083 67.8857 28.392 67.8942C28.3758 67.9028 28.3577 67.9074 28.3394 67.9075C28.3155 67.9088 28.2919 67.902 28.2725 67.8881H28.2795ZM24.0872 68.8121C24.0876 68.7832 24.0992 68.7555 24.1195 68.7348C24.1399 68.7142 24.1674 68.7022 24.1963 68.7013L28.5418 68.6608C28.5707 68.6608 28.5985 68.6723 28.6189 68.6927C28.6394 68.7132 28.6509 68.7409 28.6509 68.7699C28.6514 68.7844 28.6489 68.7989 28.6436 68.8125C28.6383 68.826 28.6303 68.8384 28.6201 68.8487C28.6099 68.8591 28.5977 68.8673 28.5842 68.8728C28.5708 68.8783 28.5563 68.881 28.5418 68.8808L24.1963 68.9212C24.1815 68.922 24.1666 68.9197 24.1527 68.9145C24.1387 68.9094 24.126 68.9015 24.1151 68.8913C24.1043 68.8811 24.0956 68.8689 24.0896 68.8553C24.0836 68.8417 24.0804 68.827 24.0802 68.8121H24.0872ZM29.9181 75.31C29.9093 75.2907 29.1683 73.2491 26.9402 72.7616C26.9115 72.7553 26.8864 72.7378 26.8706 72.7131C26.8548 72.6883 26.8494 72.6583 26.8557 72.6296C26.8628 72.6014 26.8805 72.5771 26.9051 72.5617C26.9297 72.5463 26.9593 72.541 26.9877 72.5469C29.3373 73.0608 30.117 75.2168 30.1258 75.2379C30.1348 75.2657 30.1327 75.2959 30.1199 75.3222C30.1071 75.3484 30.0846 75.3687 30.0571 75.3787H30.0219C29.9985 75.3807 29.9751 75.3751 29.9551 75.3628C29.9351 75.3504 29.9197 75.3319 29.911 75.31H29.9181ZM29.4235 76.924C29.3944 76.9217 29.3674 76.9081 29.3482 76.886C29.3291 76.8639 29.3195 76.8352 29.3214 76.806C29.5978 72.656 27.9926 65.8589 25.4178 60.2796C23.7722 56.7139 17.3218 49.7056 17.2531 49.6352C17.2324 49.6144 17.2207 49.5862 17.2207 49.5569C17.2207 49.5275 17.2324 49.4993 17.2531 49.4785C17.2633 49.4683 17.2753 49.4602 17.2886 49.4547C17.3019 49.4491 17.3162 49.4463 17.3306 49.4463C17.345 49.4463 17.3592 49.4491 17.3725 49.4547C17.3858 49.4602 17.3979 49.4683 17.408 49.4785C17.4731 49.5489 23.9499 56.5837 25.6096 60.1811C28.232 65.8958 29.816 72.5697 29.5344 76.8201C29.5322 76.8482 29.5196 76.8743 29.4991 76.8936C29.4786 76.9128 29.4516 76.9236 29.4235 76.924ZM24.1594 57.9952C24.1303 57.9934 24.103 57.9801 24.0836 57.9584C24.0642 57.9367 24.0541 57.9081 24.0555 57.879L24.4762 50.7598C24.4768 50.7453 24.4804 50.7311 24.4866 50.718C24.4928 50.7049 24.5016 50.6932 24.5124 50.6835C24.5233 50.6738 24.5359 50.6664 24.5496 50.6617C24.5633 50.657 24.5778 50.655 24.5923 50.656C24.6214 50.6578 24.6486 50.671 24.6681 50.6927C24.6875 50.7145 24.6976 50.743 24.6962 50.7721L24.2685 57.8878C24.2671 57.9158 24.255 57.9422 24.2347 57.9616C24.2144 57.9809 24.1874 57.9917 24.1594 57.9917V57.9952ZM25.4723 60.3342C25.446 60.3223 25.4253 60.3005 25.4148 60.2735C25.4043 60.2465 25.4047 60.2165 25.416 60.1899L28.1211 54.0704C28.1328 54.0438 28.1546 54.0229 28.1816 54.0123C28.2087 54.0018 28.2388 54.0024 28.2654 54.014C28.292 54.0257 28.3129 54.0475 28.3235 54.0745C28.3341 54.1016 28.3334 54.1318 28.3218 54.1584L25.6184 60.2779C25.6099 60.2975 25.5959 60.3143 25.5781 60.3262C25.5603 60.338 25.5395 60.3445 25.5181 60.3448C25.4999 60.3457 25.4817 60.3421 25.4653 60.3342H25.4723ZM25.0042 59.4894L18.5291 58.5637C18.5135 58.5633 18.4981 58.5597 18.484 58.553C18.4698 58.5463 18.4573 58.5367 18.4471 58.5248C18.437 58.5129 18.4294 58.499 18.425 58.484C18.4206 58.469 18.4194 58.4532 18.4216 58.4377C18.4237 58.4222 18.4291 58.4074 18.4373 58.3941C18.4456 58.3808 18.4566 58.3695 18.4696 58.3607C18.4826 58.352 18.4973 58.3462 18.5127 58.3435C18.5281 58.3409 18.5439 58.3415 18.559 58.3454L25.0341 59.2712C25.063 59.273 25.09 59.2863 25.1092 59.3081C25.1283 59.3299 25.138 59.3584 25.1362 59.3873C25.1343 59.4163 25.121 59.4433 25.0992 59.4624C25.0774 59.4816 25.0489 59.4913 25.02 59.4894H25.0042ZM26.8504 63.6201C26.8274 63.6021 26.8125 63.5757 26.8089 63.5467C26.8052 63.5177 26.8132 63.4884 26.831 63.4653L30.3405 58.9561C30.3494 58.9446 30.3605 58.9349 30.3731 58.9276C30.3858 58.9203 30.3997 58.9156 30.4142 58.9138C30.4286 58.9119 30.4433 58.9129 30.4574 58.9167C30.4715 58.9205 30.4847 58.927 30.4962 58.9359C30.5078 58.9448 30.5175 58.9559 30.5248 58.9685C30.532 58.9812 30.5367 58.9951 30.5386 59.0096C30.5405 59.024 30.5395 59.0387 30.5357 59.0528C30.5319 59.0669 30.5254 59.0801 30.5165 59.0917L27 63.6078C26.9898 63.621 26.9767 63.6316 26.9618 63.6389C26.9468 63.6462 26.9304 63.6501 26.9138 63.65C26.8875 63.6487 26.8625 63.6381 26.8434 63.6201H26.8504ZM21.3662 62.4005C21.3653 62.3713 21.3758 62.343 21.3956 62.3216C21.4153 62.3002 21.4427 62.2874 21.4718 62.286L26.296 62.0414C26.3231 62.0433 26.3486 62.055 26.3676 62.0744C26.3866 62.0939 26.3978 62.1196 26.3991 62.1467C26.4005 62.1739 26.3917 62.2005 26.3747 62.2217C26.3576 62.2428 26.3334 62.257 26.3066 62.2614L21.4736 62.506C21.4445 62.507 21.4162 62.4965 21.3948 62.4767C21.3733 62.4569 21.3606 62.4296 21.3592 62.4005H21.3662ZM23.6419 65.9803C23.6402 65.9658 23.6414 65.9511 23.6455 65.9371C23.6496 65.9231 23.6564 65.9101 23.6656 65.8988C23.6748 65.8874 23.6861 65.8781 23.699 65.8712C23.7119 65.8644 23.726 65.8602 23.7405 65.8589L27.4365 65.4945C27.4508 65.4931 27.4653 65.4945 27.4791 65.4986C27.4929 65.5028 27.5057 65.5097 27.5169 65.5189C27.528 65.528 27.5372 65.5393 27.5439 65.552C27.5507 65.5648 27.5548 65.5787 27.5562 65.5931C27.5586 65.622 27.5497 65.6507 27.5313 65.673C27.5129 65.6954 27.4864 65.7097 27.4576 65.7128L23.7616 66.0789H23.751C23.7227 66.0808 23.6946 66.0716 23.6729 66.0532C23.6512 66.0348 23.6376 66.0086 23.6349 65.9803H23.6419ZM28.2795 67.8881C28.2551 67.872 28.238 67.8468 28.2321 67.8181C28.2262 67.7894 28.2318 67.7595 28.2478 67.735L30.0747 64.9736C30.0914 64.9498 30.1167 64.9334 30.1453 64.9278C30.1738 64.9222 30.2034 64.9279 30.2278 64.9436C30.2523 64.9598 30.2693 64.985 30.2753 65.0137C30.2812 65.0424 30.2755 65.0722 30.2595 65.0968L28.4326 67.8582C28.4222 67.8733 28.4083 67.8857 28.392 67.8942C28.3758 67.9028 28.3577 67.9074 28.3394 67.9075C28.3155 67.9088 28.2919 67.902 28.2725 67.8881H28.2795ZM24.0872 68.8121C24.0876 68.7832 24.0992 68.7555 24.1195 68.7348C24.1399 68.7142 24.1674 68.7022 24.1963 68.7013L28.5418 68.6608C28.5707 68.6608 28.5985 68.6723 28.6189 68.6927C28.6394 68.7132 28.6509 68.7409 28.6509 68.7699C28.6514 68.7844 28.6489 68.7989 28.6436 68.8125C28.6383 68.826 28.6303 68.8384 28.6201 68.8487C28.6099 68.8591 28.5977 68.8673 28.5842 68.8728C28.5708 68.8783 28.5563 68.881 28.5418 68.8808L24.1963 68.9212C24.1815 68.922 24.1666 68.9197 24.1527 68.9145C24.1387 68.9094 24.126 68.9015 24.1151 68.8913C24.1043 68.8811 24.0956 68.8689 24.0896 68.8553C24.0836 68.8417 24.0804 68.827 24.0802 68.8121H24.0872ZM29.9181 75.31C29.9093 75.2907 29.1683 73.2491 26.9402 72.7616C26.9115 72.7553 26.8864 72.7378 26.8706 72.7131C26.8548 72.6883 26.8494 72.6583 26.8557 72.6296C26.8628 72.6014 26.8805 72.5771 26.9051 72.5617C26.9297 72.5463 26.9593 72.541 26.9877 72.5469C29.3373 73.0608 30.117 75.2168 30.1258 75.2379C30.1348 75.2657 30.1327 75.2959 30.1199 75.3222C30.1071 75.3484 30.0846 75.3687 30.0571 75.3787H30.0219C29.9985 75.3807 29.9751 75.3751 29.9551 75.3628C29.9351 75.3504 29.9197 75.3319 29.911 75.31H29.9181Z" fill="#8ECAE6"/>
<path opacity="0.2" d="M24.1576 57.886L24.5853 50.7704L24.1576 57.886ZM25.511 60.2339L28.2144 54.1144L25.511 60.2339ZM18.5344 58.4545L25.013 59.3838L18.5344 58.4545ZM26.912 63.5321L30.4197 59.0318L26.912 63.5321ZM26.296 62.1523L21.463 62.3952L26.296 62.1523ZM27.44 65.6036L23.744 65.9697L27.44 65.6036ZM28.3323 67.7966L30.168 65.0352L28.3323 67.7966ZM28.5435 68.7716L24.1981 68.8121L28.5435 68.7716ZM29.4235 76.924C29.3944 76.9217 29.3674 76.9081 29.3482 76.886C29.3291 76.8639 29.3195 76.8352 29.3214 76.806C29.5978 72.656 27.9926 65.8589 25.4178 60.2796C23.7722 56.7139 17.3218 49.7056 17.2531 49.6352C17.2324 49.6144 17.2207 49.5862 17.2207 49.5569C17.2207 49.5275 17.2324 49.4993 17.2531 49.4785C17.2633 49.4683 17.2753 49.4602 17.2886 49.4547C17.3019 49.4491 17.3162 49.4463 17.3306 49.4463C17.345 49.4463 17.3592 49.4491 17.3725 49.4547C17.3858 49.4602 17.3979 49.4683 17.408 49.4785C17.4731 49.5489 23.9499 56.5837 25.6096 60.1811C28.232 65.8958 29.816 72.5697 29.5344 76.8201C29.5322 76.8482 29.5196 76.8743 29.4991 76.8936C29.4786 76.9128 29.4516 76.9236 29.4235 76.924ZM24.1594 57.9952C24.1303 57.9934 24.103 57.9801 24.0836 57.9584C24.0642 57.9367 24.0541 57.9081 24.0555 57.879L24.4762 50.7598C24.4768 50.7453 24.4804 50.7311 24.4866 50.718C24.4928 50.7049 24.5016 50.6932 24.5124 50.6835C24.5233 50.6738 24.5359 50.6664 24.5496 50.6617C24.5633 50.657 24.5778 50.655 24.5923 50.656C24.6214 50.6578 24.6486 50.671 24.6681 50.6927C24.6875 50.7145 24.6976 50.743 24.6962 50.7721L24.2685 57.8878C24.2671 57.9158 24.255 57.9422 24.2347 57.9616C24.2144 57.9809 24.1874 57.9917 24.1594 57.9917V57.9952ZM25.4723 60.3342C25.446 60.3223 25.4253 60.3005 25.4148 60.2735C25.4043 60.2465 25.4047 60.2165 25.416 60.1899L28.1211 54.0704C28.1328 54.0438 28.1546 54.0229 28.1816 54.0123C28.2087 54.0018 28.2388 54.0024 28.2654 54.014C28.292 54.0257 28.3129 54.0475 28.3235 54.0745C28.3341 54.1016 28.3334 54.1318 28.3218 54.1584L25.6184 60.2779C25.6099 60.2975 25.5959 60.3143 25.5781 60.3262C25.5603 60.338 25.5395 60.3445 25.5181 60.3448C25.4999 60.3457 25.4817 60.3421 25.4653 60.3342H25.4723ZM25.0042 59.4894L18.5291 58.5637C18.5135 58.5633 18.4981 58.5597 18.484 58.553C18.4698 58.5463 18.4573 58.5367 18.4471 58.5248C18.437 58.5129 18.4294 58.499 18.425 58.484C18.4206 58.469 18.4194 58.4532 18.4216 58.4377C18.4237 58.4222 18.4291 58.4074 18.4373 58.3941C18.4456 58.3808 18.4566 58.3695 18.4696 58.3607C18.4826 58.352 18.4973 58.3462 18.5127 58.3435C18.5281 58.3409 18.5439 58.3415 18.559 58.3454L25.0341 59.2712C25.063 59.273 25.09 59.2863 25.1092 59.3081C25.1283 59.3299 25.138 59.3584 25.1362 59.3873C25.1343 59.4163 25.121 59.4433 25.0992 59.4624C25.0774 59.4816 25.0489 59.4913 25.02 59.4894H25.0042ZM26.8504 63.6201C26.8274 63.6021 26.8125 63.5757 26.8089 63.5467C26.8052 63.5177 26.8132 63.4884 26.831 63.4653L30.3405 58.9561C30.3585 58.9328 30.385 58.9176 30.4142 58.9138C30.4434 58.91 30.4729 58.9179 30.4962 58.9359C30.5196 58.9539 30.5348 58.9804 30.5386 59.0096C30.5424 59.0388 30.5345 59.0683 30.5165 59.0917L27 63.6078C26.9898 63.621 26.9767 63.6316 26.9618 63.6389C26.9468 63.6462 26.9304 63.6501 26.9138 63.65C26.8875 63.6487 26.8625 63.6381 26.8434 63.6201H26.8504ZM21.3662 62.4005C21.3653 62.3713 21.3758 62.343 21.3956 62.3216C21.4153 62.3002 21.4427 62.2874 21.4718 62.286L26.296 62.0414C26.3231 62.0433 26.3486 62.055 26.3676 62.0744C26.3866 62.0939 26.3978 62.1196 26.3991 62.1467C26.4005 62.1739 26.3917 62.2005 26.3747 62.2217C26.3576 62.2428 26.3334 62.257 26.3066 62.2614L21.4736 62.506C21.4445 62.507 21.4162 62.4965 21.3948 62.4767C21.3733 62.4569 21.3606 62.4296 21.3592 62.4005H21.3662ZM23.6419 65.9803C23.6402 65.9658 23.6414 65.9511 23.6455 65.9371C23.6496 65.9231 23.6564 65.9101 23.6656 65.8988C23.6748 65.8874 23.6861 65.8781 23.699 65.8712C23.7119 65.8644 23.726 65.8602 23.7405 65.8589L27.4365 65.4945C27.4508 65.4931 27.4653 65.4945 27.4791 65.4986C27.4929 65.5028 27.5057 65.5097 27.5169 65.5189C27.528 65.528 27.5372 65.5393 27.5439 65.552C27.5507 65.5648 27.5548 65.5787 27.5562 65.5931C27.5586 65.622 27.5497 65.6507 27.5313 65.673C27.5129 65.6954 27.4864 65.7097 27.4576 65.7128L23.7616 66.0789H23.751C23.7227 66.0808 23.6946 66.0716 23.6729 66.0532C23.6512 66.0348 23.6376 66.0086 23.6349 65.9803H23.6419ZM28.2795 67.8881C28.2551 67.872 28.238 67.8468 28.2321 67.8181C28.2262 67.7894 28.2318 67.7595 28.2478 67.735L30.0747 64.9736C30.0914 64.9498 30.1167 64.9334 30.1453 64.9278C30.1738 64.9222 30.2034 64.9279 30.2278 64.9436C30.2523 64.9598 30.2693 64.985 30.2753 65.0137C30.2812 65.0424 30.2755 65.0722 30.2595 65.0968L28.4326 67.8582C28.4222 67.8733 28.4083 67.8857 28.392 67.8942C28.3758 67.9028 28.3577 67.9074 28.3394 67.9075C28.3155 67.9088 28.2919 67.902 28.2725 67.8881H28.2795ZM24.0872 68.8121C24.0876 68.7832 24.0992 68.7555 24.1195 68.7348C24.1399 68.7142 24.1674 68.7022 24.1963 68.7013L28.5418 68.6608C28.5707 68.6608 28.5985 68.6723 28.6189 68.6927C28.6394 68.7132 28.6509 68.7409 28.6509 68.7699C28.6514 68.7844 28.6489 68.7989 28.6436 68.8125C28.6383 68.826 28.6303 68.8384 28.6201 68.8487C28.6099 68.8591 28.5977 68.8673 28.5842 68.8728C28.5708 68.8783 28.5563 68.881 28.5418 68.8808L24.1963 68.9212C24.1815 68.922 24.1666 68.9197 24.1527 68.9145C24.1387 68.9094 24.126 68.9015 24.1151 68.8913C24.1043 68.8811 24.0956 68.8689 24.0896 68.8553C24.0836 68.8417 24.0804 68.827 24.0802 68.8121H24.0872ZM29.9181 75.31C29.9093 75.2907 29.1683 73.2491 26.9402 72.7616C26.9115 72.7553 26.8864 72.7378 26.8706 72.7131C26.8548 72.6883 26.8494 72.6583 26.8557 72.6296C26.8628 72.6014 26.8805 72.5771 26.9051 72.5617C26.9297 72.5463 26.9593 72.541 26.9877 72.5469C29.3373 73.0608 30.117 75.2168 30.1258 75.2379C30.1348 75.2657 30.1327 75.2959 30.1199 75.3222C30.1071 75.3484 30.0846 75.3687 30.0571 75.3787H30.0219C29.9985 75.3807 29.9751 75.3751 29.9551 75.3628C29.9351 75.3504 29.9197 75.3319 29.911 75.31H29.9181ZM29.4235 76.924C29.3944 76.9217 29.3674 76.9081 29.3482 76.886C29.3291 76.8639 29.3195 76.8352 29.3214 76.806C29.5978 72.656 27.9926 65.8589 25.4178 60.2796C23.7722 56.7139 17.3218 49.7056 17.2531 49.6352C17.2324 49.6144 17.2207 49.5862 17.2207 49.5569C17.2207 49.5275 17.2324 49.4993 17.2531 49.4785C17.2633 49.4683 17.2753 49.4602 17.2886 49.4547C17.3019 49.4491 17.3162 49.4463 17.3306 49.4463C17.345 49.4463 17.3592 49.4491 17.3725 49.4547C17.3858 49.4602 17.3979 49.4683 17.408 49.4785C17.4731 49.5489 23.9499 56.5837 25.6096 60.1811C28.232 65.8958 29.816 72.5697 29.5344 76.8201C29.5322 76.8482 29.5196 76.8743 29.4991 76.8936C29.4786 76.9128 29.4516 76.9236 29.4235 76.924ZM24.1594 57.9952C24.1303 57.9934 24.103 57.9801 24.0836 57.9584C24.0642 57.9367 24.0541 57.9081 24.0555 57.879L24.4762 50.7598C24.4768 50.7453 24.4804 50.7311 24.4866 50.718C24.4928 50.7049 24.5016 50.6932 24.5124 50.6835C24.5233 50.6738 24.5359 50.6664 24.5496 50.6617C24.5633 50.657 24.5778 50.655 24.5923 50.656C24.6214 50.6578 24.6486 50.671 24.6681 50.6927C24.6875 50.7145 24.6976 50.743 24.6962 50.7721L24.2685 57.8878C24.2671 57.9158 24.255 57.9422 24.2347 57.9616C24.2144 57.9809 24.1874 57.9917 24.1594 57.9917V57.9952ZM25.4723 60.3342C25.446 60.3223 25.4253 60.3005 25.4148 60.2735C25.4043 60.2465 25.4047 60.2165 25.416 60.1899L28.1211 54.0704C28.1328 54.0438 28.1546 54.0229 28.1816 54.0123C28.2087 54.0018 28.2388 54.0024 28.2654 54.014C28.292 54.0257 28.3129 54.0475 28.3235 54.0745C28.3341 54.1016 28.3334 54.1318 28.3218 54.1584L25.6184 60.2779C25.6099 60.2975 25.5959 60.3143 25.5781 60.3262C25.5603 60.338 25.5395 60.3445 25.5181 60.3448C25.4999 60.3457 25.4817 60.3421 25.4653 60.3342H25.4723ZM25.0042 59.4894L18.5291 58.5637C18.5135 58.5633 18.4981 58.5597 18.484 58.553C18.4698 58.5463 18.4573 58.5367 18.4471 58.5248C18.437 58.5129 18.4294 58.499 18.425 58.484C18.4206 58.469 18.4194 58.4532 18.4216 58.4377C18.4237 58.4222 18.4291 58.4074 18.4373 58.3941C18.4456 58.3808 18.4566 58.3695 18.4696 58.3607C18.4826 58.352 18.4973 58.3462 18.5127 58.3435C18.5281 58.3409 18.5439 58.3415 18.559 58.3454L25.0341 59.2712C25.063 59.273 25.09 59.2863 25.1092 59.3081C25.1283 59.3299 25.138 59.3584 25.1362 59.3873C25.1343 59.4163 25.121 59.4433 25.0992 59.4624C25.0774 59.4816 25.0489 59.4913 25.02 59.4894H25.0042ZM26.8504 63.6201C26.8274 63.6021 26.8125 63.5757 26.8089 63.5467C26.8052 63.5177 26.8132 63.4884 26.831 63.4653L30.3405 58.9561C30.3494 58.9446 30.3605 58.9349 30.3731 58.9276C30.3858 58.9203 30.3997 58.9156 30.4142 58.9138C30.4286 58.9119 30.4433 58.9129 30.4574 58.9167C30.4715 58.9205 30.4847 58.927 30.4962 58.9359C30.5078 58.9448 30.5175 58.9559 30.5248 58.9685C30.532 58.9812 30.5367 58.9951 30.5386 59.0096C30.5405 59.024 30.5395 59.0387 30.5357 59.0528C30.5319 59.0669 30.5254 59.0801 30.5165 59.0917L27 63.6078C26.9898 63.621 26.9767 63.6316 26.9618 63.6389C26.9468 63.6462 26.9304 63.6501 26.9138 63.65C26.8875 63.6487 26.8625 63.6381 26.8434 63.6201H26.8504ZM21.3662 62.4005C21.3653 62.3713 21.3758 62.343 21.3956 62.3216C21.4153 62.3002 21.4427 62.2874 21.4718 62.286L26.296 62.0414C26.3231 62.0433 26.3486 62.055 26.3676 62.0744C26.3866 62.0939 26.3978 62.1196 26.3991 62.1467C26.4005 62.1739 26.3917 62.2005 26.3747 62.2217C26.3576 62.2428 26.3334 62.257 26.3066 62.2614L21.4736 62.506C21.4445 62.507 21.4162 62.4965 21.3948 62.4767C21.3733 62.4569 21.3606 62.4296 21.3592 62.4005H21.3662ZM23.6419 65.9803C23.6402 65.9658 23.6414 65.9511 23.6455 65.9371C23.6496 65.9231 23.6564 65.9101 23.6656 65.8988C23.6748 65.8874 23.6861 65.8781 23.699 65.8712C23.7119 65.8644 23.726 65.8602 23.7405 65.8589L27.4365 65.4945C27.4508 65.4931 27.4653 65.4945 27.4791 65.4986C27.4929 65.5028 27.5057 65.5097 27.5169 65.5189C27.528 65.528 27.5372 65.5393 27.5439 65.552C27.5507 65.5648 27.5548 65.5787 27.5562 65.5931C27.5586 65.622 27.5497 65.6507 27.5313 65.673C27.5129 65.6954 27.4864 65.7097 27.4576 65.7128L23.7616 66.0789H23.751C23.7227 66.0808 23.6946 66.0716 23.6729 66.0532C23.6512 66.0348 23.6376 66.0086 23.6349 65.9803H23.6419ZM28.2795 67.8881C28.2551 67.872 28.238 67.8468 28.2321 67.8181C28.2262 67.7894 28.2318 67.7595 28.2478 67.735L30.0747 64.9736C30.0914 64.9498 30.1167 64.9334 30.1453 64.9278C30.1738 64.9222 30.2034 64.9279 30.2278 64.9436C30.2523 64.9598 30.2693 64.985 30.2753 65.0137C30.2812 65.0424 30.2755 65.0722 30.2595 65.0968L28.4326 67.8582C28.4222 67.8733 28.4083 67.8857 28.392 67.8942C28.3758 67.9028 28.3577 67.9074 28.3394 67.9075C28.3155 67.9088 28.2919 67.902 28.2725 67.8881H28.2795ZM24.0872 68.8121C24.0876 68.7832 24.0992 68.7555 24.1195 68.7348C24.1399 68.7142 24.1674 68.7022 24.1963 68.7013L28.5418 68.6608C28.5707 68.6608 28.5985 68.6723 28.6189 68.6927C28.6394 68.7132 28.6509 68.7409 28.6509 68.7699C28.6514 68.7844 28.6489 68.7989 28.6436 68.8125C28.6383 68.826 28.6303 68.8384 28.6201 68.8487C28.6099 68.8591 28.5977 68.8673 28.5842 68.8728C28.5708 68.8783 28.5563 68.881 28.5418 68.8808L24.1963 68.9212C24.1815 68.922 24.1666 68.9197 24.1527 68.9145C24.1387 68.9094 24.126 68.9015 24.1151 68.8913C24.1043 68.8811 24.0956 68.8689 24.0896 68.8553C24.0836 68.8417 24.0804 68.827 24.0802 68.8121H24.0872ZM29.9181 75.31C29.9093 75.2907 29.1683 73.2491 26.9402 72.7616C26.9115 72.7553 26.8864 72.7378 26.8706 72.7131C26.8548 72.6883 26.8494 72.6583 26.8557 72.6296C26.8628 72.6014 26.8805 72.5771 26.9051 72.5617C26.9297 72.5463 26.9593 72.541 26.9877 72.5469C29.3373 73.0608 30.117 75.2168 30.1258 75.2379C30.1348 75.2657 30.1327 75.2959 30.1199 75.3222C30.1071 75.3484 30.0846 75.3687 30.0571 75.3787H30.0219C29.9985 75.3807 29.9751 75.3751 29.9551 75.3628C29.9351 75.3504 29.9197 75.3319 29.911 75.31H29.9181Z" fill="black"/>
<path d="M26.5493 73.8201H31.5319V74.8514H31.0971L30.1978 80.4781H27.8834L26.984 74.8514H26.5493V73.8201Z" fill="#8ECAE6"/>
<path opacity="0.3" d="M26.5493 73.8201H31.5319V74.8514H31.0971L30.1978 80.4781H27.8834L26.984 74.8514H26.5493V73.8201Z" fill="white"/>
<path d="M71.4086 42.6335L77.2043 40.7415L77.72 39.3793L78.8974 39.3423L81.0341 38.9375L80.7771 39.3793L78.0878 41.3311L77.4243 41.662L71.3629 44.8282L71.4086 42.6335Z" fill="white" stroke="#1C282E" stroke-width="0.226588" stroke-miterlimit="10"/>
<path d="M77.7201 39.3787L78.2727 39.0479L79.3762 39.4526L79.1932 39.6726L77.7201 39.3787Z" fill="white" stroke="#1C282E" stroke-width="0.226588" stroke-linejoin="round"/>
<path d="M71.4086 42.6335L77.2043 40.7415L77.72 39.3793L78.8974 39.3423L81.0341 38.9375L80.7771 39.3793L78.0878 41.3311L77.4243 41.662L71.3629 44.8282L71.4086 42.6335Z" fill="white"/>
<path opacity="0.5" d="M71.4086 42.6335L77.2043 40.7415L77.72 39.3793L78.8974 39.3423L81.0341 38.9375L80.7771 39.3793L78.0878 41.3311L77.4243 41.662L71.3629 44.8282L71.4086 42.6335Z" fill="#8ECAE6" stroke="#1C282E" stroke-width="0.226588" stroke-miterlimit="10"/>
<path d="M71.4086 42.6335L77.2043 40.7415L77.72 39.3793L78.8974 39.3423L81.0341 38.9375L80.7771 39.3793L78.0878 41.3311L77.4243 41.662L71.3629 44.8282L71.4086 42.6335Z" stroke="#1C282E" stroke-width="0.226588" stroke-miterlimit="10"/>
<path d="M77.7201 39.3787L78.2727 39.0479L79.3762 39.4526L79.1932 39.6726L77.7201 39.3787Z" fill="white"/>
<path opacity="0.5" d="M77.7201 39.3787L78.2727 39.0479L79.3762 39.4526L79.1932 39.6726L77.7201 39.3787Z" fill="#8ECAE6" stroke="#1C282E" stroke-width="0.226588" stroke-linejoin="round"/>
<path d="M77.7201 39.3787L78.2727 39.0479L79.3762 39.4526L79.1932 39.6726L77.7201 39.3787Z" stroke="#1C282E" stroke-width="0.226588" stroke-linejoin="round"/>
<path d="M70.1782 30.3534C70.1782 30.3534 70.268 31.1454 70.0445 31.654C69.8209 32.1627 68.5801 33.8857 68.5801 33.8857L70.8963 35.7425C70.8963 35.7425 71.8573 33.8065 72.0403 33.4932C72.2233 33.18 72.4433 31.8318 71.8467 30.8656C71.2501 29.8993 70.3912 29.6388 70.1782 30.3534Z" fill="white"/>
<g style="mix-blend-mode:multiply" opacity="0.5">
<path d="M71.368 32.8992L70.363 34.983L70.8981 35.7451L71.9083 33.9411L71.368 32.8992Z" fill="#8ECAE6"/>
</g>
<path d="M70.1782 30.3534C70.1782 30.3534 70.268 31.1454 70.0445 31.654C69.8209 32.1627 68.5801 33.8857 68.5801 33.8857L70.8963 35.7425C70.8963 35.7425 71.8573 33.8065 72.0403 33.4932C72.2233 33.18 72.4433 31.8318 71.8467 30.8656C71.2501 29.8993 70.3912 29.6388 70.1782 30.3534Z" stroke="#1C282E" stroke-width="0.226588" stroke-miterlimit="10"/>
<path d="M69.4602 28.904C69.6027 28.024 70.6112 26.2341 72.2111 26.3027C73.2495 26.3485 73.7352 26.5579 74.1858 26.8131C74.553 27.0295 74.8954 27.2856 75.2066 27.5769C75.988 28.515 76.2626 28.772 76.1112 29.4901C76.1236 29.7765 76.0788 30.0625 75.9792 30.3313C75.7399 30.9702 75.5762 31.3873 75.3685 31.6918C75.4319 31.9893 75.5973 32.7742 75.6061 32.9537C75.6149 33.1333 75.0781 33.0083 74.8071 32.9397C74.3037 34.0661 73.3815 34.8475 73.0946 34.9373C72.5947 35.0939 71.8045 34.272 71.3856 33.6349C70.9667 32.9977 71.2835 32.2814 71.2818 31.9963C71.28 31.7112 70.3402 31.0846 69.9917 30.8857C69.6432 30.6869 69.3194 29.7822 69.4602 28.904Z" fill="white"/>
<g style="mix-blend-mode:multiply" opacity="0.5">
<path d="M76.1043 29.49C76.1167 29.7765 76.0719 30.0625 75.9723 30.3313C75.733 30.9702 75.5693 31.3873 75.3616 31.6918C75.425 31.9892 75.5904 32.7742 75.5992 32.9537C75.608 33.1332 75.0712 33.0083 74.8002 32.9396C74.2968 34.066 73.3746 34.8475 73.0877 34.9372C72.5878 35.0939 71.7976 34.272 71.3787 33.6348C71.2741 33.4758 71.2061 33.2954 71.1798 33.1068C71.2027 33.0241 71.2186 32.9731 71.2186 32.9731C71.2186 32.9731 71.4544 33.8795 71.9226 33.7616C72.3907 33.6436 73.107 32.7056 73.5066 32.3817C73.9061 32.0579 73.7424 31.632 73.8216 31.1497C73.9008 30.6675 75.0835 30.2433 75.1627 29.967C75.2419 29.6907 74.9656 28.5467 74.9656 28.5467C74.9656 28.5467 74.5168 27.9483 74.6136 28.1947C74.682 28.4083 74.7068 28.6335 74.6866 28.857C74.6663 29.0804 74.6014 29.2975 74.4957 29.4953C74.4215 29.6514 74.3038 29.7828 74.1567 29.8737C74.0097 29.9645 73.8395 30.011 73.6667 30.0075L73.2373 27.8796L74.1437 27.1299L75.1997 27.5699C75.9882 28.515 76.2574 28.772 76.1043 29.49Z" fill="#8ECAE6"/>
</g>
<path d="M69.4602 28.904C69.6027 28.024 70.6112 26.2341 72.2111 26.3027C73.2495 26.3485 73.7352 26.5579 74.1858 26.8131C74.553 27.0295 74.8954 27.2856 75.2066 27.5769C75.988 28.515 76.2626 28.772 76.1112 29.4901C76.1236 29.7765 76.0788 30.0625 75.9792 30.3313C75.7399 30.9702 75.5762 31.3873 75.3685 31.6918C75.4319 31.9893 75.5973 32.7742 75.6061 32.9537C75.6149 33.1333 75.0781 33.0083 74.8071 32.9397C74.3037 34.0661 73.3815 34.8475 73.0946 34.9373C72.5947 35.0939 71.8045 34.272 71.3856 33.6349C70.9667 32.9977 71.2835 32.2814 71.2818 31.9963C71.28 31.7112 70.3402 31.0846 69.9917 30.8857C69.6432 30.6869 69.3194 29.7822 69.4602 28.904Z" stroke="#1C282E" stroke-width="0.225694" stroke-miterlimit="10"/>
<path d="M75.1505 31.1599L74.9745 31.6633C74.9745 31.6633 74.5961 31.7882 74.135 31.2849" stroke="#1C282E" stroke-width="0.225694" stroke-miterlimit="10" stroke-linecap="round"/>
<path d="M73.8495 33.5082C73.8495 33.5082 73.4328 33.4662 73.2647 32.8813" stroke="#1C282E" stroke-width="0.225694" stroke-miterlimit="10" stroke-linecap="round"/>
<path d="M75.4442 30.7397C75.4442 30.7397 75.3193 30.3613 74.5642 30.3613" stroke="#1C282E" stroke-width="0.225694" stroke-miterlimit="10" stroke-linecap="round"/>
<path d="M71.5741 25.6017C72.1227 25.5228 72.676 25.4804 73.2302 25.4749C73.2302 25.4749 74.8881 24.5193 76.4809 25.5383C78.0737 26.5573 77.3081 28.342 77.3081 28.7873C77.3081 29.2325 77.8185 29.2343 77.5 29.8081C77.1814 30.3818 76.1043 30.065 76.1043 30.065C76.0929 29.8486 76.0357 29.6371 75.9365 29.4444C75.8373 29.2518 75.6983 29.0824 75.5288 28.9474C74.955 28.5021 74.4974 28.4053 74.3073 28.5338C74.3073 28.5338 74.4341 29.4895 74.244 29.8714C74.244 29.8714 73.6069 30.19 73.415 30.19C73.2232 30.19 73.54 30.4593 72.9046 30.6986C72.7889 30.7402 72.665 30.7544 72.5429 30.74C72.4207 30.7256 72.3036 30.6832 72.2006 30.6159C72.1073 30.2287 71.9032 29.6461 71.523 29.7817C70.9651 29.9805 70.4565 31.3533 71.2115 31.8215C70.3033 31.9869 69.2033 30.3801 69.1382 28.9157C69.0731 27.4514 70.6307 25.7671 71.5741 25.6017Z" fill="#1C282E"/>
<path d="M74.2791 27.9064C74.2791 27.9064 73.8109 27.6547 73.2371 28.1933C72.6634 28.7318 71.5475 29.4517 70.0691 29.0557" stroke="white" stroke-width="0.112847" stroke-linecap="round" stroke-linejoin="round"/>
<path d="M74.3441 27.4746C74.3441 27.4746 74.022 26.9712 73.4835 26.9712C72.9449 26.9712 71.6865 27.7262 70.6816 27.7262" stroke="white" stroke-width="0.112847" stroke-linecap="round" stroke-linejoin="round"/>
<path d="M74.7104 28.4446C74.7104 28.4446 75.3212 27.6913 75.8949 28.3021C76.4687 28.9128 76.1044 29.4901 76.1044 29.4901" stroke="white" stroke-width="0.112847" stroke-linecap="round" stroke-linejoin="round"/>
<path d="M77.1514 28.9472C76.8014 28.6316 76.5838 28.1952 76.5424 27.7257C76.4702 26.9355 75.3914 26.2526 74.7102 26.9003" stroke="white" stroke-width="0.112847" stroke-linecap="round" stroke-linejoin="round"/>
<path d="M76.0391 26.0745C76.0391 26.0745 74.9602 25.0326 74.0626 26.3614" stroke="white" stroke-width="0.112847" stroke-linecap="round" stroke-linejoin="round"/>
<path d="M67.2584 77.3015C67.2584 77.3015 66.5949 78.3329 66.6688 78.9964L66.741 79.6599C66.741 79.6599 69.1751 80.327 69.6908 80.327C70.2064 80.327 72.9362 80.0682 72.9362 80.0682L73.0541 79.6001C73.0624 79.5655 73.0585 79.5291 73.0431 79.4971C73.0277 79.465 73.0018 79.4393 72.9696 79.4241L70.5356 78.2889L69.7682 77.4494L67.2584 77.3015Z" fill="white" stroke="#1C282E" stroke-width="0.226588" stroke-miterlimit="10"/>
<path d="M69.321 79.8082C68.661 79.8592 67.4079 79.4562 66.681 79.1992L66.732 79.6603C66.732 79.6603 69.1749 80.3274 69.6906 80.3274C70.2063 80.3274 72.936 80.0687 72.936 80.0687L73.0205 79.7343C72.584 79.736 70.1939 79.7413 69.321 79.8082Z" fill="#8ECAE6" stroke="#1C282E" stroke-width="0.226588" stroke-miterlimit="10"/>
<path d="M70.5322 78.2897L74.0751 79.8315C74.0751 79.8315 74.3778 80.59 74.0751 80.7414C73.7723 80.8927 67.1723 80.7414 67.1723 80.7414C67.1723 80.7414 66.7165 79.5428 67.4363 78.7385C68.1562 77.9342 70.5322 78.2897 70.5322 78.2897Z" fill="white" stroke="#1C282E" stroke-width="0.226588" stroke-miterlimit="10"/>
<path d="M67.1721 80.7415C67.1721 80.7415 73.7721 80.8928 74.0748 80.7415C74.2209 80.6676 74.2261 80.4546 74.1927 80.2522H67.0559C67.0792 80.4186 67.1181 80.5824 67.1721 80.7415Z" fill="#8ECAE6" stroke="#1C282E" stroke-width="0.226588" stroke-miterlimit="10"/>
<path d="M72.2076 51.5013C72.2076 51.5013 73.1334 55.6039 73.4836 58.17C73.8339 60.736 74.0398 65.877 73.9659 66.4666C73.8919 67.0562 70.2065 76.9351 70.2065 76.9351L69.8387 77.8151L67.2585 77.2994C67.2585 77.2994 68.4377 73.54 68.8795 71.4756C69.3212 69.4111 70.2875 66.0196 70.2875 65.43C70.2875 64.8404 67.9995 53.5799 67.8358 52.8407C67.6721 52.1015 66.9294 50.9663 66.9294 50.9663L71.8697 50.866L72.2076 51.5013Z" fill="#8ECAE6" stroke="#1C282E" stroke-width="0.226588" stroke-miterlimit="10"/>
<path d="M72.2076 51.5005C72.2076 51.5005 72.7497 55.2475 72.5262 57.8523C72.3026 60.4571 71.8222 66.0029 71.8222 66.8283C71.8222 67.6537 70.4898 72.5835 70.4142 74.1323C70.2962 76.3693 70.4617 77.4763 70.4617 77.4763L70.5409 78.2877C70.5409 78.2877 68.9868 78.5094 68.6471 78.6062C68.2548 78.7073 67.8499 78.7512 67.445 78.7365C67.445 78.7365 66.8801 76.2496 66.8801 74.1305C66.8801 72.0115 67.35 67.6502 67.5841 65.8832C67.8182 64.1161 67.0807 57.2997 66.6618 56.0272C66.243 54.7547 65.3278 52.0601 65.9438 50.6838C66.5598 49.3075 72.2076 51.5005 72.2076 51.5005Z" fill="#8ECAE6" stroke="#1C282E" stroke-width="0.226588" stroke-miterlimit="10"/>
<path d="M65.259 49.9937L65.3154 51.6692C65.3154 51.6692 66.3186 51.8681 67.6702 52.1021C68.7861 52.2957 71.588 52.0511 72.5314 51.9596C72.6173 51.952 72.6968 51.9107 72.7525 51.8448C72.8082 51.7789 72.8356 51.6936 72.8288 51.6076L72.7373 50.094L65.259 49.9937Z" fill="#1C282E"/>
<path d="M69.1803 33.2922C69.1803 33.2922 70.7643 35.0047 71.361 36.0695C71.9576 37.1343 72.1934 38.7658 72.417 40.0506C72.6405 41.3354 72.035 44.3521 72.2058 45.7372L72.7461 50.1002C72.7461 50.1002 72.8622 50.3959 72.4733 50.7198C72.0843 51.0436 70.1853 51.1615 68.4693 51.2478C67.8427 51.2794 65.9718 50.8764 65.6656 50.857C65.296 50.8342 65.2837 50.3642 65.2678 49.9946C65.1939 48.2575 64.8806 43.627 64.6747 41.61C64.2506 37.4969 66.572 33.5263 69.1803 33.2922Z" fill="white" stroke="#1C282E" stroke-width="0.226588" stroke-miterlimit="10"/>
<g style="mix-blend-mode:multiply">
<path d="M64.8686 43.9478C64.7982 43.0343 64.7278 42.2054 64.6662 41.6087C64.6486 41.4327 64.638 41.2567 64.6292 41.0807L68.8374 41.7847L72.4524 40.5527C72.452 41.3008 72.4097 42.0482 72.3257 42.7915L68.7793 43.7841L64.8686 43.9478Z" fill="#8ECAE6"/>
</g>
<g style="mix-blend-mode:multiply">
<path d="M69.3369 33.4636C69.5763 33.7294 70.0515 34.2697 70.5038 34.8435L67.8321 37.5591L66.9521 37.2071L69.3369 33.4636Z" fill="#8ECAE6"/>
</g>
<path d="M69.1804 33.2922C69.1804 33.2922 70.7644 35.0047 71.361 36.0695C71.5379 36.3931 71.6812 36.734 71.7887 37.0868L68.6031 33.4066C68.7913 33.3496 68.9847 33.3113 69.1804 33.2922Z" fill="#1C282E"/>
<g style="mix-blend-mode:multiply">
<path d="M72.2937 39.3561L68.8371 40.4931L64.6395 40.0108C64.7053 38.9652 64.9376 37.9367 65.3276 36.9643L68.7121 38.3212L71.7375 36.9502C71.9849 37.7366 72.1709 38.541 72.2937 39.3561Z" fill="#8ECAE6"/>
</g>
<g style="mix-blend-mode:multiply">
<path d="M66.3431 48.2573C68.0963 48.5517 69.8952 48.4047 71.5773 47.8297L72.4204 47.541L72.6826 49.653L71.7217 49.9223C69.8948 50.4331 67.9855 50.5802 66.102 50.3553L65.3258 50.262C65.2854 50.1765 65.2627 50.0837 65.2589 49.9892C65.2378 49.5193 65.2009 48.8364 65.1533 48.0532L66.3431 48.2573Z" fill="#8ECAE6"/>
</g>
<g style="mix-blend-mode:multiply">
<path d="M65.8733 45.381C67.6265 45.6765 69.4259 45.5289 71.1075 44.9516L72.1811 44.5837C72.1545 44.9672 72.1598 45.3522 72.1969 45.7348L72.3219 46.7503L71.2518 47.0495C69.4257 47.5608 67.5169 47.7085 65.6339 47.4842L65.1059 47.4209C65.0619 46.7169 65.0109 45.9671 64.9563 45.2261L65.8733 45.381Z" fill="#8ECAE6"/>
</g>
<path d="M82.3854 37.9375L78.9824 40.6736L78.8357 40.4912L82.2388 37.7551L82.3854 37.9375Z" fill="#1C282E"/>
<path d="M67.5418 35.1902C67.5418 35.1902 66.2939 36.0403 66.2658 38.0484C66.2535 38.9284 66.345 39.7503 66.5474 41.1918C66.7498 42.6332 68.0064 47.3271 68.985 47.8974C69.9635 48.4676 71.4824 47.3905 71.4824 47.3905L78.8287 42.5135L80.6045 41.0791L81.4845 39.4177L81.2082 38.8897L79.0416 40.5511L80.2085 39.4723L79.9797 39.1819L79.5573 39.4758L78.3253 39.9369L78.056 41.6969L77.6759 41.9574L70.6482 44.5252C70.6482 44.5252 70.7362 40.743 70.6711 40.0196C70.6059 39.2963 70.5162 37.4782 69.7418 36.1599" fill="white"/>
<g style="mix-blend-mode:multiply" opacity="0.5">
<path d="M70.6974 41.6674C70.6974 42.9733 70.6534 44.5257 70.6534 44.5257L77.674 41.9684L78.0542 41.7079L78.3235 39.9479L79.5555 39.4868L79.9761 39.1876L80.2049 39.478L79.0415 40.5516L81.2081 38.8901L81.4703 39.4093L80.5903 41.0708L78.8145 42.514L78.3675 42.8114L68.6611 45.9389L70.6974 41.6674Z" fill="#8ECAE6"/>
</g>
<path d="M67.5418 35.1902C67.5418 35.1902 66.2939 36.0403 66.2658 38.0484C66.2535 38.9284 66.345 39.7503 66.5474 41.1918C66.7498 42.6332 68.0064 47.3271 68.985 47.8974C69.9635 48.4676 71.4824 47.3905 71.4824 47.3905L78.8287 42.5135L80.6045 41.0791L81.4845 39.4177L81.2082 38.8897L79.0416 40.5511L80.2085 39.4723L79.9797 39.1819L79.5573 39.4758L78.3253 39.9369L78.056 41.6969L77.6759 41.9574L70.6482 44.5252C70.6482 44.5252 70.7362 40.743 70.6711 40.0196C70.6059 39.2963 70.5162 37.4782 69.7418 36.1599" stroke="#1C282E" stroke-width="0.226588" stroke-miterlimit="10"/>
<path d="M70.6479 44.5255L67.9657 46.4615L67.2705 45.2295C67.2705 45.2295 66.79 44.8511 66.7196 44.566C66.6492 44.2809 66.739 43.818 66.6668 43.5329C66.5946 43.2478 66.2356 42.9802 66.2022 42.2903C66.1687 41.6004 66.2022 41.0249 66.2022 41.0249C66.2022 41.0249 65.6214 38.6366 65.6847 37.5982C65.7481 36.5598 66.7495 34.7241 67.5521 34.6836C68.3546 34.6431 69.3983 34.7646 70.2079 35.9895C71.0175 37.2145 70.8521 40.7908 70.9788 41.0143C71.1055 41.2378 70.9295 42.3414 70.9295 42.3414C70.9999 42.3938 71.0582 42.4607 71.1007 42.5374C71.1432 42.6142 71.1688 42.6992 71.1759 42.7866C71.19 43.0735 70.8802 43.7793 70.8802 43.7793L70.6479 44.5255Z" fill="white" stroke="#1C282E" stroke-width="0.226588" stroke-miterlimit="10"/>
<g style="mix-blend-mode:multiply">
<path d="M70.9087 40.0955C70.9032 40.4026 70.9261 40.7095 70.9773 41.0124C71.09 41.2131 70.9615 42.1195 70.9333 42.3043C69.4247 42.7728 67.8294 42.8932 66.2676 42.6563C66.234 42.5339 66.2139 42.4081 66.2077 42.2814C66.1725 41.5932 66.2077 41.0159 66.2077 41.0159C66.2077 41.0159 66.1567 40.803 66.0863 40.4791C67.7038 40.582 69.3278 40.4528 70.9087 40.0955Z" fill="#8ECAE6"/>
</g>
<g style="mix-blend-mode:multiply">
<path d="M70.3172 36.1853C70.5689 36.6904 70.7097 37.449 70.7906 38.2181C69.1929 38.8279 67.4703 39.0375 65.7729 38.8288C65.7052 38.4218 65.6751 38.0094 65.6831 37.5968C65.7136 37.2707 65.7907 36.9507 65.9119 36.6464C67.394 36.681 68.8744 36.5261 70.3172 36.1853Z" fill="#8ECAE6"/>
</g>
<path d="M70.8804 43.7988L70.6533 44.5257L67.9711 46.4617L67.2759 45.2297C67.2759 45.2297 66.7954 44.8513 66.725 44.5662C66.7125 44.5166 66.7048 44.4659 66.7021 44.4148C68.1156 44.3904 69.52 44.1834 70.8804 43.7988Z" fill="#1C282E"/>
<path d="M68.9392 78.5835C68.9392 78.5835 68.8793 77.0594 68.5872 74.8312C68.295 72.603 68.9972 69.4386 69.1152 68.9106C69.2331 68.3826 69.0553 67.2104 69.1732 66.7986C69.2912 66.3867 69.8614 64.6302 69.5252 62.5922C69.1891 60.5541 68.9163 55.1667 68.9163 55.1667C68.9163 55.1667 69.7628 54.4786 70.011 53.5827C70.2592 52.6869 70.0691 52.4053 70.0691 52.4053" stroke="#1C282E" stroke-width="0.226588" stroke-miterlimit="10"/>
<path d="M68.5467 52.4885L68.8723 54.2908" stroke="#1C282E" stroke-width="0.226588" stroke-miterlimit="10"/>
<rect x="1" y="1" width="96" height="96" rx="48" stroke="#8ECAE6" stroke-width="2"/>
</svg>
