<svg width="32" height="32" viewBox="0 0 32 32" fill="none" xmlns="http://www.w3.org/2000/svg">
<path d="M15.9997 6.66683L15.9997 6.68016M15.9997 16.0002L15.9997 16.0135M15.9997 25.3335L15.9997 25.3468M15.9997 8.00016C15.2633 8.00016 14.6663 7.40321 14.6663 6.66683C14.6663 5.93045 15.2633 5.3335 15.9997 5.3335C16.7361 5.3335 17.333 5.93045 17.333 6.66683C17.333 7.40321 16.7361 8.00016 15.9997 8.00016ZM15.9997 17.3335C15.2633 17.3335 14.6663 16.7365 14.6663 16.0002C14.6663 15.2638 15.2633 14.6668 15.9997 14.6668C16.7361 14.6668 17.333 15.2638 17.333 16.0002C17.333 16.7365 16.7361 17.3335 15.9997 17.3335ZM15.9997 26.6668C15.2633 26.6668 14.6663 26.0699 14.6663 25.3335C14.6663 24.5971 15.2633 24.0002 15.9997 24.0002C16.7361 24.0002 17.333 24.5971 17.333 25.3335C17.333 26.0699 16.7361 26.6668 15.9997 26.6668Z" stroke="#011119" stroke-width="2" stroke-linecap="round" stroke-linejoin="round"/>
</svg>
