<svg width="40" height="40" viewBox="0 0 40 40" fill="none" xmlns="http://www.w3.org/2000/svg">
<g clip-path="url(#clip0_704_2740)">
<path d="M34.25 2.5H6.75C5.75544 2.5 4.80161 2.89509 4.09835 3.59835C3.39509 4.30161 3 5.25544 3 6.25L3 33.75C3 34.7446 3.39509 35.6984 4.09835 36.4017C4.80161 37.1049 5.75544 37.5 6.75 37.5H17.4727V25.6008H12.5508V20H17.4727V15.7313C17.4727 10.8758 20.3633 8.19375 24.7906 8.19375C26.9109 8.19375 29.1281 8.57188 29.1281 8.57188V13.3375H26.6852C24.2781 13.3375 23.5273 14.8312 23.5273 16.3633V20H28.9008L28.0414 25.6008H23.5273V37.5H34.25C35.2446 37.5 36.1984 37.1049 36.9017 36.4017C37.6049 35.6984 38 34.7446 38 33.75V6.25C38 5.25544 37.6049 4.30161 36.9017 3.59835C36.1984 2.89509 35.2446 2.5 34.25 2.5V2.5Z" fill="white"/>
</g>
<defs>
<clipPath id="clip0_704_2740">
<rect width="35" height="40" fill="white" transform="translate(3)"/>
</clipPath>
</defs>
</svg>
