<svg width="98" height="98" viewBox="0 0 98 98" fill="none" xmlns="http://www.w3.org/2000/svg">
<g clip-path="url(#clip0_763_5620)">
<path d="M86.6857 72.9998L86.8361 69.6175C88.4042 68.7793 90.1532 68.3366 91.9312 68.3278C89.4841 70.3284 89.7899 74.1851 88.1309 76.8756C87.607 77.7107 86.9019 78.4173 86.0678 78.9429C85.2337 79.4685 84.2921 79.7997 83.3126 79.9119L81.2648 81.1657C80.9838 79.5992 81.0457 77.9904 81.4464 76.4502C81.847 74.9099 82.5768 73.4748 83.5854 72.2437C84.1581 71.5587 84.8148 70.9486 85.54 70.4276C86.0305 71.7209 86.6857 72.9998 86.6857 72.9998Z" fill="#F2F2F2"/>
<path d="M55.6319 82.0085C54.5889 81.9343 54.3169 82.14 52.7388 82.0085H49.8457L50.2221 75.085L54.7767 76.9101L77.4105 77.4657L77.3973 77.5041C77.387 77.5337 76.3821 80.4731 77.1676 81.5862L77.2002 81.6323L77.1366 81.6329L56.3736 81.8233C56.1469 81.8253 55.8568 82.0245 55.6319 82.0085Z" fill="#F2F2F2"/>
<path d="M56.8058 82.0998C54.7909 81.9565 52.7046 82.7398 50.9633 81.8555L49.5714 81.9398L49.5674 81.9281C49.5567 81.8959 48.8991 76.7223 50.2284 74.7164L50.2869 74.6281L50.3326 75.1032L49.8944 81.548L50.8656 81.2239C53.2245 82.3341 56.0298 81.6009 58.7296 81.5907L77.1027 81.5228C77.4876 81.5215 77.8082 81.7844 77.8185 82.1091L77.8195 82.1408L57.9156 82.1393C57.5444 82.1393 57.1745 82.1261 56.8058 82.0998Z" fill="#CCCCCC"/>
<path d="M76.1345 78.8619L55.4583 78.451L55.4371 78.4431L50.5521 76.6123L50.6444 76.366L55.5084 78.189L76.1397 78.5989L76.1345 78.8619Z" fill="#E6E6E6"/>
<path d="M76.024 79.968L55.3478 79.5571L55.3268 79.5492L50.4417 77.7184L50.534 77.472L55.3981 79.2951L76.0293 79.705L76.024 79.968Z" fill="#E6E6E6"/>
<path d="M75.9138 81.0755L55.2376 80.6644L55.2166 80.6565L50.3314 78.8255L50.4237 78.5792L55.2879 80.4024L75.919 80.8124L75.9138 81.0755Z" fill="#E6E6E6"/>
<path d="M56.9488 77.5368C55.0317 77.4073 53.1626 76.8799 51.4606 75.9882L50.0275 75.2281L50.0649 74.8523C50.0754 74.7972 50.1058 74.7479 50.1504 74.7138C50.1951 74.6798 50.2507 74.6635 50.3066 74.668L50.4332 74.6695L69.7156 74.9533C70.9776 74.969 72.2281 75.1959 73.4151 75.6248L77.6165 77.1501L77.6142 77.1722C77.579 77.5263 77.222 77.7998 76.8015 77.7949L57.8077 77.5724C57.5204 77.569 57.2341 77.5571 56.9488 77.5368Z" fill="#E6E6E6"/>
<path d="M77.5758 77.2309L77.5714 77.2306L54.4483 76.7008L54.4323 76.6934L50.2633 74.7628L50.3056 74.6982L50.4323 74.6998L54.487 76.5785L77.3957 77.1029L77.5793 77.1073L77.5758 77.2309Z" fill="#CCCCCC"/>
<path d="M59.5998 74.8359L59.3063 74.8318L52.6795 74.7338L52.3655 74.7294C53.8796 76.3414 57.2275 76.7447 62.1348 76.1202L59.5998 74.8359Z" fill="#CCCCCC"/>
<path d="M78.2311 36.2804L78.6354 37.2208L77.9747 40.5604L71.2344 39.6232L71.2882 35.5509L71.4235 34.6591L78.2311 36.2804Z" fill="#FFB6B6"/>
<path d="M81.7136 79.5628H80.2266L79.5188 73.827H81.7136V79.5628Z" fill="#FFB6B6"/>
<path d="M77.2905 81.5029C77.2907 81.6713 77.3576 81.8329 77.4768 81.952C77.5959 82.0711 77.7574 82.1381 77.9259 82.1382H80.7549L81.2426 81.1315L81.432 82.1382H82.4983L82.1986 78.5426L81.7139 78.5142L80.0853 78.4173L79.8228 78.4009V79.4195L77.5649 80.9794C77.4803 81.038 77.4111 81.1162 77.3633 81.2074C77.3155 81.2985 77.2905 81.3999 77.2905 81.5029Z" fill="#2F2E41"/>
<path d="M67.9693 72.9866H66.4822L65.6074 64.5422L68.4015 64.3754L67.9693 72.9866Z" fill="#FFB6B6"/>
<path d="M63.5455 74.9287C63.5457 75.0971 63.6127 75.2586 63.7318 75.3778C63.8509 75.4969 64.0124 75.5638 64.1808 75.564H67.0099L67.4976 74.5573L67.687 75.564H68.7533L68.4536 71.9683L68.0211 71.943L66.3642 71.8431L66.0778 71.8267V72.8452L63.8199 74.4052C63.7353 74.4637 63.6661 74.542 63.6183 74.6331C63.5705 74.7243 63.5455 74.8257 63.5455 74.9287Z" fill="#2F2E41"/>
<path d="M82.345 74.6171H82.3392L82.0532 65.2909C82.2383 64.9339 82.3322 64.5367 82.3266 64.1346C82.3211 63.7326 82.2161 63.3381 82.0212 62.9864L81.9803 62.9123L82.0864 62.4202C82.2228 61.7879 82.1602 61.129 81.9073 60.5336L81.6405 51.8341C82.5937 45.6567 78.0512 41.6281 78.0512 41.6281L78.4687 38.3904L71.1214 38.5574L71.2464 41.6281L69.7855 46.6474C69.0167 54.1379 63.8422 58.8461 64.6287 66.0091C64.6303 66.0297 64.6273 66.0503 64.6198 66.0696C64.5399 66.3122 64.5119 66.5689 64.5373 66.8231C64.5627 67.0772 64.6411 67.3233 64.7674 67.5453C64.8002 67.602 64.8227 67.6639 64.834 67.7284C64.996 68.9841 65.0171 67.3957 65.2318 68.6403L65.1901 68.6615C65.0396 68.7134 64.9751 68.9218 65.0459 69.127C65.1167 69.3321 65.2961 69.4564 65.4465 69.4044L69.3742 69.4464C69.5246 69.3945 69.5892 69.1861 69.5183 68.9809C69.4475 68.7757 69.2682 68.6515 69.1177 68.7034L68.8734 68.827L69.2822 67.4895L69.4255 67.3557C69.4941 67.2916 69.5474 67.2128 69.5813 67.1253C69.6152 67.0377 69.6289 66.9435 69.6212 66.8499C69.6136 66.7563 69.5849 66.6656 69.5373 66.5846C69.4897 66.5037 69.4244 66.4345 69.3463 66.3824L69.7535 64.2089L69.6957 62.5651L69.8148 60.7003L74.9684 53.2327L77.0534 63.5477L79.1832 74.7209C79.1335 74.7657 79.0961 74.8225 79.0747 74.8859C79.0534 74.9493 79.0486 75.0171 79.061 75.0829C79.0806 75.1748 79.1315 75.257 79.2051 75.3154C79.2786 75.3738 79.3702 75.4048 79.4642 75.4031H82.3554C82.416 75.403 82.4758 75.389 82.5301 75.362C82.5844 75.3351 82.6317 75.2959 82.6684 75.2477C82.7051 75.1994 82.7302 75.1434 82.7417 75.0839C82.7532 75.0243 82.7507 74.963 82.7346 74.9045C82.7102 74.8205 82.6589 74.7468 82.5885 74.6949C82.518 74.6429 82.4325 74.6156 82.345 74.6171Z" fill="#2F2E41"/>
<path d="M79.7737 20.4109C79.7739 21.0063 79.628 21.5927 79.3487 22.1186C79.0693 22.6445 78.6652 23.0937 78.1717 23.4269C77.6783 23.7602 77.1106 23.9672 76.5184 24.0297C75.9263 24.0923 75.3278 24.0086 74.7756 23.7859C74.2234 23.5632 73.7342 23.2084 73.3512 22.7525C72.9681 22.2967 72.7028 21.7538 72.5785 21.1714C72.4542 20.5891 72.4748 19.9852 72.6384 19.4127C72.8021 18.8401 73.1037 18.3165 73.517 17.8878L73.5344 17.8704C73.5635 17.8398 73.5926 17.8093 73.6232 17.7802C73.6234 17.7802 73.6236 17.7801 73.6237 17.78C73.6239 17.78 73.6241 17.7799 73.6242 17.7797C73.6243 17.7796 73.6245 17.7794 73.6245 17.7793C73.6246 17.7791 73.6246 17.7789 73.6246 17.7787C73.6663 17.7482 73.7049 17.7136 73.7396 17.6754C74.2306 16.9892 74.7874 16.4138 76.1361 16.7733C78.0777 17.2908 79.7737 18.4015 79.7737 20.4109Z" fill="#2F2E41"/>
<path d="M59.7915 18.8534C59.7832 19.048 59.8178 19.2421 59.8926 19.4219C59.9675 19.6018 60.0809 19.763 60.2248 19.8943C60.3687 20.0255 60.5397 20.1237 60.7256 20.1817C60.9116 20.2398 61.108 20.2564 61.301 20.2303L70.6823 27.9295L72.1152 25.4109L62.4432 18.6348C62.3779 18.3134 62.197 18.0271 61.9347 17.8302C61.6725 17.6332 61.3471 17.5394 61.0202 17.5663C60.6934 17.5932 60.3877 17.7392 60.1613 17.9764C59.9348 18.2136 59.8032 18.5257 59.7915 18.8534V18.8534Z" fill="#FFB6B6"/>
<path d="M74.6435 30.2007C74.6435 30.2007 74.6406 29.9234 73.1492 29.9341C71.2981 29.9473 66.1998 27.2896 66.6457 24.7866C66.434 24.8823 66.1965 24.9048 65.9705 24.8506C65.7446 24.7964 65.5431 24.6686 65.3978 24.4873L67.8798 22.0977C68.6586 22.1503 68.6666 22.6714 68.5999 22.9707L70.5946 23.7633L75.7899 26.7481L74.8725 29.7462L74.6435 30.2007Z" fill="#219EBC"/>
<path d="M75.2399 24.3034C76.9245 24.3034 78.2902 22.9377 78.2902 21.2531C78.2902 19.5684 76.9245 18.2028 75.2399 18.2028C73.5553 18.2028 72.1896 19.5684 72.1896 21.2531C72.1896 22.9377 73.5553 24.3034 75.2399 24.3034Z" fill="#FFB7B7"/>
<path d="M71.0477 36.4246C70.8792 36.6495 70.7932 36.9254 70.804 37.2062C70.8149 37.487 70.922 37.7555 71.1073 37.9667C71.1088 38.0561 71.1223 38.1426 71.249 38.4633C71.2656 38.4944 71.2851 38.5238 71.3072 38.5513C71.3113 38.558 71.3158 38.5644 71.3206 38.5707C71.4541 38.7434 71.6398 38.8684 71.85 38.9271L77.4337 40.4856L78.1719 40.6914L78.3016 40.7272L78.3732 39.719C78.5392 39.5814 78.6505 39.3889 78.6869 39.1763C78.7232 38.9638 78.6823 38.7452 78.5715 38.5602L78.4686 38.3902L79.0682 36.7781L79.1263 36.6185L80.655 32.5039L80.6565 32.2294L80.6594 31.9461L80.6744 29.9686C80.6751 29.3453 80.5313 28.7304 80.2545 28.172C79.9776 27.6136 79.5751 27.1269 79.0786 26.7502C78.6264 26.4046 78.105 26.1605 77.55 26.0344L77.538 26.0329L76.934 25.2201L74.4838 25.4647L74.2809 25.8808L74.0349 26.3819L72.2587 27.4392L71.6517 28.85L71.2416 29.8045C70.6062 30.2609 70.2274 30.847 70.1186 31.5449C69.8859 33.0273 70.9239 34.5112 71.0477 34.6812L71.079 36.3829L71.0477 36.4246Z" fill="#219EBC"/>
<path d="M78.4321 22.0519C78.4045 22.0476 78.3769 22.0417 78.3492 22.0374C77.8734 21.953 77.3976 21.87 76.9233 21.7842L76.8796 20.7089L76.3049 21.6721C74.9938 22.1072 73.7672 21.8613 72.6134 21.3186C72.2328 21.1379 71.8635 20.9343 71.5075 20.7089C71.3903 18.8904 72.1256 17.7262 73.4937 17.8483C73.5437 17.8527 73.5795 17.8017 73.6232 17.7799C73.6234 17.7799 73.6236 17.7798 73.6237 17.7798C73.6239 17.7797 73.6241 17.7796 73.6242 17.7794C73.6243 17.7793 73.6245 17.7791 73.6245 17.779C73.6246 17.7788 73.6246 17.7786 73.6246 17.7784C73.6988 17.7435 73.7745 17.71 73.8502 17.6795C74.4425 17.448 75.0884 17.3893 75.7128 17.5104C76.3371 17.6315 76.9143 17.9272 77.3772 18.3633C78.3085 19.2524 78.7275 20.7205 78.4321 22.0519Z" fill="#2F2E41"/>
<path d="M78.3492 22.037C78.3492 22.037 77.4456 18.6642 73.5722 17.8857C73.5679 17.8843 73.5533 17.8785 73.5344 17.8698C73.5228 17.8625 73.5082 17.8552 73.4937 17.8479C73.5373 17.8232 73.5795 17.8014 73.6232 17.7795C73.6233 17.7795 73.6235 17.7795 73.6237 17.7794C73.6239 17.7793 73.6241 17.7792 73.6242 17.7791C73.6243 17.779 73.6244 17.7788 73.6245 17.7786C73.6246 17.7785 73.6246 17.7783 73.6246 17.7781C73.6624 17.7431 73.7003 17.7082 73.7396 17.6748L73.8501 17.6791C73.8501 17.6791 77.7366 17.0636 78.3492 22.037Z" fill="#FD6584"/>
<path d="M79.8395 43.299C79.7677 43.3603 79.6805 43.4007 79.5874 43.4158C79.4942 43.4309 79.3987 43.42 79.3113 43.3845C79.1374 43.3107 78.983 43.1977 78.86 43.0544C78.3583 42.528 77.9998 41.8819 77.8187 41.1777L77.9861 40.88C77.9204 40.5129 77.9822 40.1344 78.1613 39.8072C78.3403 39.4801 78.6259 39.2241 78.9705 39.0816C79.1666 38.9984 79.384 38.9795 79.5915 39.0276C79.6944 39.0531 79.7884 39.106 79.8638 39.1806C79.9391 39.2552 79.9929 39.3488 80.0194 39.4515C80.0839 39.7699 79.8186 40.0574 79.55 40.2402C79.082 40.5579 78.541 40.7514 77.9777 40.8028C78.6667 41.1911 79.2623 41.7257 79.7227 42.3688C79.8291 42.5029 79.9076 42.657 79.9535 42.822C79.9756 42.9047 79.9767 42.9916 79.9568 43.0749C79.9369 43.1582 79.8966 43.2352 79.8395 43.299Z" fill="#2F2E41"/>
<path d="M41.283 82.2473H92.4755C92.519 82.2473 92.5607 82.23 92.5914 82.1993C92.6222 82.1685 92.6395 82.1268 92.6395 82.0833C92.6395 82.0398 92.6222 81.9981 92.5914 81.9673C92.5607 81.9366 92.519 81.9193 92.4755 81.9193H41.283C41.2395 81.9193 41.1978 81.9366 41.167 81.9673C41.1363 81.9981 41.119 82.0398 41.119 82.0833C41.119 82.1268 41.1363 82.1685 41.167 82.1993C41.1978 82.23 41.2395 82.2473 41.283 82.2473Z" fill="#CCCCCC"/>
<path d="M54.8786 40.088V40.1736C54.6942 39.9576 54.5061 39.7434 54.3198 39.5292C54.2416 39.4398 54.1633 39.3504 54.0851 39.261C53.7535 38.8847 53.4201 38.5097 53.0849 38.1359C52.7477 37.7634 52.4106 37.3908 52.0697 37.0202C51.9877 36.9308 51.9058 36.8414 51.822 36.752C51.7549 36.6768 51.682 36.6071 51.604 36.5433C51.5253 36.4779 51.435 36.4279 51.3377 36.3962C51.2257 36.3651 51.1076 36.3639 50.995 36.3925C50.8664 36.4223 50.7435 36.4688 50.6187 36.508C50.4901 36.5508 50.3635 36.5918 50.235 36.6327C49.9779 36.7166 49.7228 36.8004 49.4657 36.8842C49.4626 36.8855 49.4593 36.8861 49.4559 36.8861C49.4526 36.8861 49.4493 36.8854 49.4462 36.8841C49.4431 36.8828 49.4403 36.8809 49.438 36.8785C49.4356 36.8761 49.4338 36.8733 49.4325 36.8702L49.4322 36.8693C49.4307 36.8658 49.43 36.862 49.4302 36.8581C49.4304 36.8543 49.4314 36.8506 49.4332 36.8472C49.4349 36.8438 49.4375 36.8409 49.4405 36.8386C49.4435 36.8363 49.4471 36.8347 49.4508 36.8339C49.5142 36.8134 49.5793 36.7929 49.6445 36.7724C49.9034 36.6868 50.1604 36.603 50.4194 36.5191C50.5479 36.4763 50.6764 36.4353 50.805 36.3943C50.9242 36.3491 51.0501 36.3239 51.1775 36.3198C51.3856 36.3348 51.5807 36.4264 51.7251 36.5769C51.8052 36.6514 51.8779 36.7296 51.9505 36.8097C52.0362 36.9028 52.1218 36.996 52.2076 37.0891C52.5521 37.4654 52.8942 37.8429 53.2338 38.2216C53.5747 38.6016 53.9125 38.9822 54.2472 39.3634C54.2713 39.3913 54.2956 39.4193 54.3198 39.4472C54.5079 39.6595 54.6923 39.8738 54.8786 40.088Z" fill="white"/>
<path d="M51.5752 36.8863C51.5048 36.7956 51.411 36.7259 51.3039 36.6847L51.198 36.6884C52.0293 37.982 53.1185 39.0904 54.3974 39.9442C53.4566 38.9249 52.5159 37.9056 51.5752 36.8863Z" fill="white"/>
<path d="M68.9245 50.3312L64.7047 27.7374C64.6325 27.3649 64.4359 27.0281 64.1472 26.782C63.8584 26.5359 63.4946 26.3953 63.1154 26.3831C63.0813 26.3824 63.0472 26.3824 63.0131 26.3831L60.1385 26.4863L59.8291 26.4976L58.3945 26.5492L58.0851 26.5598L57.1623 26.5932L38.5546 27.2612C38.5266 27.2627 38.4978 27.2627 38.4697 27.2619L34.3 27.1748L32.757 27.1429L32.7077 27.1421L31.5688 27.1179L21.6447 26.9116L19.0135 26.8563L17.7161 26.8297L17.4053 26.8229L15.9259 26.7926L15.6158 26.7858L14.1023 26.7547L13.7922 26.7478L12.1293 26.713L11.8684 26.7077L10.3853 26.6766L10.151 26.672H10.1169C9.72313 26.6736 9.34263 26.8144 9.04263 27.0694C8.74264 27.3245 8.54247 27.6773 8.47752 28.0657L4.6612 51.5111C4.62244 51.7486 4.63578 51.9917 4.7003 52.2235C4.76481 52.4553 4.87895 52.6704 5.03481 52.8537C5.19067 53.0371 5.38453 53.1843 5.60296 53.2853C5.82138 53.3863 6.05915 53.4386 6.29979 53.4386H28.2165C28.5391 53.4395 28.853 53.5431 29.1128 53.7343L29.5283 54.0422C29.8147 54.2529 30.1607 54.3671 30.5163 54.3682C34.7492 53.251 39.1996 53.251 43.4325 54.3682C43.6508 54.3688 43.8669 54.326 44.0686 54.2425C44.2702 54.1589 44.4532 54.0362 44.6071 53.8814C44.8702 53.6184 45.2213 53.462 45.5928 53.4424L67.3791 52.2944C67.6154 52.282 67.8463 52.2193 68.0563 52.1105C68.2664 52.0017 68.4507 51.8492 68.597 51.6633C68.7434 51.4774 68.8483 51.2624 68.9048 51.0327C68.9612 50.8029 68.9679 50.5638 68.9245 50.3312V50.3312Z" fill="#CCCCCC"/>
<path d="M62.9542 46.807C62.9262 47.5726 62.5953 48.2958 62.0343 48.8176C61.4733 49.3394 60.7281 49.6171 59.9624 49.5896C58.6973 49.5449 57.1876 49.5225 55.5491 49.5567C50.1982 49.6711 43.4756 50.4076 39.4318 53.0561C38.9236 53.3897 38.323 53.5544 37.7157 53.5269C37.671 53.5242 37.6276 53.5216 37.5829 53.5177C36.9532 53.4601 36.3599 53.1972 35.8943 52.7694C33.6666 50.7311 28.5577 48.2627 16.8629 48.0891C16.8142 48.0891 16.7669 48.0865 16.7196 48.0839C16.3408 48.06 15.9704 47.9618 15.6296 47.7947C15.2888 47.6277 14.9843 47.3951 14.7335 47.1103C14.4826 46.8255 14.2903 46.494 14.1676 46.1349C14.045 45.7757 13.9943 45.3959 14.0184 45.0172L15.1678 26.7761L15.3401 24.0421L15.6425 19.2592C15.673 18.7776 15.8858 18.3256 16.2375 17.9951C16.5892 17.6646 17.0536 17.4804 17.5362 17.48H17.548L24.5152 17.5207C27.4504 17.6536 29.8815 18.0275 31.8085 18.6425C32.4667 18.8466 33.1071 19.1043 33.7232 19.4131C34.5647 19.8211 35.3207 20.3857 35.9509 21.0767C36.3434 21.5181 36.8788 21.8072 37.4632 21.8933C37.5538 21.9068 37.6451 21.9152 37.7367 21.9183C38.2757 21.9406 38.8074 21.7884 39.253 21.4843C43.8044 18.4347 53.0794 18.2033 58.2016 18.3348C58.9179 18.3515 59.6024 18.6342 60.1216 19.128C60.6409 19.6217 60.9578 20.2911 61.0105 21.0056L61.2183 23.7265L61.4248 26.4394L62.6162 42.1188L62.9476 46.4808C62.9557 46.5893 62.9579 46.6982 62.9542 46.807Z" fill="#F2F2F2"/>
<path d="M18.5964 23.899C22.795 22.5595 27.4791 22.9141 31.4567 24.8013C32.5916 25.337 33.6634 25.9971 34.6524 26.7696C34.9322 26.9892 35.3304 26.5964 35.0476 26.3745C31.3942 23.5409 26.8039 22.1948 22.1989 22.6066C20.9248 22.7206 19.6671 22.9733 18.4479 23.3602C18.1066 23.4691 18.2525 24.0088 18.5964 23.899H18.5964Z" fill="#3F3D56"/>
<path d="M41.6993 26.9861C45.6029 24.9343 50.2773 24.4869 54.5216 25.6515C55.7316 25.9828 56.9009 26.4477 58.008 27.0378C58.3252 27.207 58.6078 26.7248 58.2901 26.5552C54.245 24.3968 49.3893 23.8999 44.972 25.1031C43.7397 25.4394 42.5478 25.909 41.4173 26.5035C41.0988 26.6709 41.381 27.1534 41.6993 26.9861Z" fill="#3F3D56"/>
<path d="M41.6993 30.7118C45.6029 28.66 50.2773 28.2126 54.5216 29.3772C55.7316 29.7085 56.9009 30.1734 58.0081 30.7635C58.3252 30.9327 58.6078 30.4505 58.2901 30.281C54.245 28.1225 49.3893 27.6257 44.972 28.8288C43.7397 29.1651 42.5478 29.6347 41.4173 30.2293C41.0988 30.3966 41.381 30.8791 41.6993 30.7118L41.6993 30.7118Z" fill="#3F3D56"/>
<path d="M58.427 34.2366C58.43 34.1887 58.4184 34.1409 58.3938 34.0996C58.3693 34.0583 58.3329 34.0254 58.2893 34.005C55.0488 32.3082 51.3747 31.62 47.7397 32.029C47.7169 32.0308 47.6959 32.0344 47.6713 32.0363H47.6704C47.648 32.0383 47.6258 32.0416 47.6038 32.0463C45.4418 32.2951 43.3445 32.9415 41.4176 33.9531C41.3756 33.9781 41.3408 34.0136 41.3167 34.0561C41.2925 34.0987 41.2799 34.1467 41.2799 34.1956V41.1451C41.2806 41.1879 41.291 41.2299 41.3104 41.2681C41.3297 41.3062 41.3575 41.3395 41.3915 41.3653C41.4256 41.3911 41.4652 41.4089 41.5071 41.4172C41.5491 41.4255 41.5924 41.4241 41.6337 41.4132C41.7194 41.3886 41.8052 41.3649 41.8927 41.3421C43.8407 40.8148 45.8405 40.502 47.8564 40.4092C47.8993 40.4074 47.9421 40.4056 47.9868 40.4037C49.6288 40.3332 51.2738 40.3924 52.9065 40.5806C52.9407 40.5826 52.9747 40.5862 53.0086 40.5916C53.0925 40.6007 53.1782 40.6107 53.2621 40.6217C53.2958 40.6253 53.3277 40.629 53.3587 40.6344C53.6852 40.6755 54.0089 40.722 54.3335 40.7721C54.8023 40.8469 55.271 40.9302 55.7397 41.022C55.7689 41.0275 55.799 41.0348 55.829 41.0402C56.5813 41.1898 57.33 41.363 58.075 41.5545C58.1165 41.5652 58.1599 41.5664 58.2019 41.5579C58.2439 41.5494 58.2834 41.5315 58.3175 41.5055C58.3515 41.4795 58.3793 41.4461 58.3985 41.4079C58.4178 41.3696 58.4282 41.3275 58.4288 41.2846V34.2476C58.4291 34.2438 58.4285 34.2401 58.427 34.2366Z" fill="#3F3D56"/>
<path d="M48.1776 32.4072C47.9729 32.3069 47.7382 32.2863 47.5191 32.3493C47.4224 32.3856 47.3338 32.4407 47.2585 32.5115C47.1832 32.5823 47.1227 32.6674 47.0806 32.7618C47.0047 32.9427 46.956 33.1339 46.9362 33.3291C46.9247 33.4059 46.9239 33.5028 47.0011 33.5386C47.0291 33.5488 47.0594 33.5511 47.0886 33.5453C47.1179 33.5395 47.145 33.5258 47.167 33.5058C47.2069 33.4665 47.2397 33.4207 47.2641 33.3703C47.3981 33.1618 47.5825 32.9904 47.8003 32.872C48.018 32.7536 48.2621 32.692 48.51 32.6929L48.7163 32.7752C48.5539 32.629 48.3728 32.5052 48.1776 32.4072Z" fill="#FF6582"/>
<path d="M50.4105 34.0088C50.2504 33.7731 50.0607 33.5214 49.7636 33.4445C49.4195 33.3554 49.0661 33.5324 48.7663 33.7071C47.8748 34.2263 47.0115 34.7925 46.1801 35.4032L46.181 35.4124L48.1108 35.2939C48.5756 35.2654 49.0564 35.2329 49.4671 35.0372C49.6146 34.9448 49.7795 34.8834 49.9515 34.8568C50.0583 34.8626 50.1628 34.8895 50.2591 34.9359C50.3554 34.9823 50.4416 35.0473 50.5126 35.1272C51.402 35.9702 51.6594 37.2594 52.6573 38.0001C52.0223 36.6086 51.2707 35.2734 50.4105 34.0088Z" fill="white"/>
<path d="M47.9872 40.4028C47.9425 40.4046 47.8996 40.4065 47.8568 40.4083C47.5457 40.2966 47.2272 40.1979 46.905 40.1122C46.6963 40.0563 46.484 40.006 46.2717 39.9632C46.0314 39.911 45.7893 39.87 45.5471 39.8346C45.0861 39.7676 44.6214 39.7284 44.1557 39.7173C44.1522 39.7177 44.1486 39.7173 44.1452 39.7162C44.1418 39.7152 44.1387 39.7134 44.1361 39.711C44.1334 39.7086 44.1313 39.7057 44.1299 39.7025C44.1284 39.6992 44.1277 39.6957 44.1277 39.6922C44.1277 39.6886 44.1284 39.6851 44.1299 39.6819C44.1313 39.6786 44.1334 39.6757 44.1361 39.6733C44.1387 39.671 44.1418 39.6692 44.1452 39.6681C44.1486 39.667 44.1522 39.6666 44.1557 39.667C44.2153 39.667 44.2749 39.6689 44.3326 39.6726C44.7994 39.6899 45.2646 39.7353 45.7259 39.8086C45.9662 39.8477 46.2065 39.8943 46.4449 39.9464C46.661 39.9949 46.877 40.0489 47.0894 40.1085C47.393 40.1941 47.6922 40.2922 47.9872 40.4028Z" fill="white"/>
<path d="M53.3591 40.6344C53.3274 40.6289 53.2957 40.6251 53.2622 40.6214C53.1337 40.5153 53.0033 40.4147 52.8673 40.3159C52.6978 40.193 52.5227 40.0775 52.3439 39.9695C51.9479 39.7291 51.5345 39.5187 51.1071 39.3399C50.4314 39.0585 49.732 38.8379 49.0172 38.6805C48.2018 38.5019 47.3764 38.3725 46.5455 38.2931C45.7147 38.2074 44.8803 38.1553 44.0458 38.1031C44.0104 38.1012 44.0085 38.0491 44.0458 38.051C44.1501 38.0584 44.2544 38.064 44.3606 38.0714C45.2044 38.1236 46.0481 38.1832 46.8863 38.2782C47.7174 38.3673 48.5419 38.5104 49.3544 38.7066C50.048 38.8775 50.725 39.1101 51.3772 39.4014C51.7524 39.5699 52.1158 39.7635 52.465 39.9807C52.6866 40.1204 52.9009 40.2694 53.1057 40.4277C53.1914 40.4947 53.2771 40.5618 53.3591 40.6344Z" fill="white"/>
<path d="M53.009 40.5933C52.9751 40.5878 52.9409 40.5841 52.9066 40.5821C52.8675 40.5505 52.8264 40.5207 52.7855 40.4909C52.4987 40.2856 52.1995 40.0984 51.8896 39.9302C51.608 39.7772 51.3189 39.6386 51.0234 39.5148C50.348 39.2326 49.6485 39.0119 48.9335 38.8555C48.1181 38.6768 47.2927 38.5474 46.4618 38.468C45.631 38.3823 44.7965 38.3302 43.9621 38.278C43.9267 38.2743 43.9267 38.224 43.9621 38.2259C44.0683 38.2333 44.1725 38.2389 44.2769 38.2464C45.1207 38.2985 45.9644 38.3581 46.8026 38.4531C47.6337 38.5422 48.4582 38.6853 49.2707 38.8815C49.9643 39.0522 50.6413 39.2847 51.2935 39.5763C51.5393 39.6881 51.7796 39.8091 52.0143 39.9414C52.3624 40.1325 52.6949 40.3504 53.009 40.5933Z" fill="white"/>
<path d="M55.8289 41.0402C55.7992 41.0346 55.7693 41.0271 55.7395 41.0215C55.706 40.9861 55.6743 40.9489 55.6427 40.9116C55.4825 40.7272 55.3242 40.541 55.1677 40.3528C54.5512 39.619 53.9663 38.8627 53.4149 38.0916C52.9418 37.4322 52.4929 36.7598 52.0682 36.0743C51.8652 35.7502 51.6696 35.4224 51.4778 35.0908C51.3288 34.8338 51.1835 34.5761 51.0419 34.3178C51.0009 34.2433 50.9618 34.1688 50.9227 34.0943C50.8314 33.9192 50.7401 33.7423 50.6433 33.569C50.538 33.3568 50.3834 33.1729 50.1925 33.0326C50.0971 32.9687 49.9867 32.9308 49.8721 32.9227C49.7106 32.9233 49.5518 32.9643 49.4102 33.0419C48.3681 33.5272 47.3851 34.1303 46.4803 34.8394C45.5966 35.5267 44.7975 36.3164 44.0998 37.1919C44.0775 37.218 44.029 37.1938 44.0495 37.1658C44.1333 37.0615 44.219 36.9572 44.3047 36.8547C44.9752 36.0616 45.7304 35.3439 46.5566 34.7146C46.5585 34.7127 46.5622 34.7108 46.5641 34.709C46.6367 34.6512 46.7094 34.5954 46.7839 34.5414C47.2452 34.2017 47.7253 33.8882 48.2219 33.6026C48.4752 33.4554 48.7341 33.3157 48.9986 33.1835C49.0637 33.15 49.1308 33.1164 49.1979 33.0848C49.2649 33.0512 49.332 33.0196 49.399 32.9879C49.5318 32.9202 49.6769 32.8803 49.8256 32.8706C50.3434 32.8631 50.6098 33.3847 50.7942 33.7367C50.8519 33.8466 50.9115 33.9565 50.9693 34.0664C51.1928 34.4817 51.4256 34.8953 51.6678 35.3032C51.8149 35.5565 51.9676 35.808 52.1223 36.0576C52.3439 36.4133 52.5711 36.7654 52.8077 37.1156C52.8077 37.1158 52.8077 37.116 52.8078 37.1163C52.8079 37.1165 52.808 37.1167 52.8082 37.1169C52.8084 37.117 52.8086 37.1172 52.8088 37.1173C52.809 37.1174 52.8093 37.1174 52.8095 37.1174H52.8096C53.0834 37.5309 53.3684 37.937 53.6627 38.3412C54.1675 39.0322 54.6965 39.7077 55.2497 40.3678C55.4397 40.595 55.6328 40.8191 55.8289 41.0402Z" fill="white"/>
<path d="M49.1837 32.8137L49.1321 32.8363C49.0141 32.637 48.8487 32.4699 48.6505 32.35C48.4524 32.23 48.2277 32.1609 47.9964 32.1487C47.2338 32.0945 46.564 32.6027 46.5031 33.2815C46.4783 33.561 46.5592 33.8396 46.7298 34.0623L46.682 34.0906C46.5043 33.8586 46.4201 33.5685 46.4458 33.2774C46.5092 32.5706 47.2069 32.0413 48.001 32.0977C48.2418 32.1104 48.4758 32.1824 48.6822 32.3074C48.8885 32.4323 49.0608 32.6062 49.1837 32.8137Z" fill="#FF6582"/>
<path d="M45.4153 34.1874C45.2152 34.1003 44.9972 34.0622 44.7794 34.076C44.5616 34.0899 44.3502 34.1554 44.1627 34.2671C44.8472 34.3721 45.5256 34.5131 46.1953 34.6894C45.918 34.5447 45.7011 34.3181 45.4153 34.1874Z" fill="white"/>
<path d="M44.1544 34.2666L44.0835 34.3179C44.1075 34.3 44.1324 34.2831 44.158 34.2672L44.1544 34.2666Z" fill="white"/>
<path d="M46.4285 34.5832C46.3984 34.5534 46.3686 34.5235 46.3383 34.4937C46.1065 34.2414 45.8273 34.0371 45.5166 33.8925C45.3584 33.8258 45.1888 33.7908 45.0171 33.7894C44.8399 33.7935 44.6645 33.8276 44.4986 33.8901C44.4205 33.9178 44.3441 33.9493 44.2689 33.9829C44.183 34.0214 44.0986 34.0624 44.0146 34.1038C43.8569 34.1815 43.7013 34.2626 43.5477 34.3471C43.242 34.5152 42.946 34.6962 42.6595 34.8899C42.511 34.9904 42.3656 35.0942 42.2232 35.2013C42.0908 35.3008 41.9611 35.4029 41.834 35.5078C41.8068 35.5301 41.7662 35.494 41.7934 35.4716C41.8269 35.4439 41.8608 35.4163 41.8946 35.389C41.9903 35.312 42.0875 35.2365 42.1863 35.1625C42.3664 35.0272 42.5511 34.8972 42.7405 34.7724C43.035 34.5782 43.3396 34.3972 43.6544 34.2294C43.8117 34.1456 43.9712 34.0653 44.1329 33.9885C44.1817 33.9654 44.231 33.9427 44.281 33.9212C44.395 33.8701 44.5127 33.8275 44.6331 33.7937C44.8057 33.7442 44.9863 33.7284 45.1649 33.7472C45.3359 33.769 45.5019 33.8201 45.6556 33.8982C45.9601 34.0689 46.2348 34.288 46.4691 34.5469C46.4935 34.5714 46.4531 34.6077 46.4285 34.5832Z" fill="white"/>
<path d="M18.5964 27.6235C22.795 26.284 27.4791 26.6386 31.4567 28.5258C32.5916 29.0614 33.6634 29.7216 34.6524 30.4941C34.9322 30.7137 35.3304 30.3209 35.0476 30.099C31.3942 27.2653 26.8039 25.9192 22.1989 26.3311C20.9248 26.4451 19.6671 26.6978 18.4479 27.0847C18.1066 27.1936 18.2525 27.7333 18.5964 27.6235L18.5964 27.6235Z" fill="#3F3D56"/>
<path d="M18.5964 31.3491C22.795 30.0096 27.4791 30.3642 31.4567 32.2514C32.5916 32.787 33.6634 33.4472 34.6524 34.2197C34.9322 34.4393 35.3304 34.0465 35.0476 33.8246C31.3942 30.9909 26.8039 29.6448 22.1989 30.0567C20.9248 30.1707 19.6671 30.4234 18.4479 30.8103C18.1066 30.9192 18.2525 31.4589 18.5964 31.3491L18.5964 31.3491Z" fill="#3F3D56"/>
<path d="M18.5964 35.0747C22.795 33.7352 27.4791 34.0898 31.4567 35.9769C32.5916 36.5126 33.6634 37.1728 34.6524 37.9453C34.9322 38.1649 35.3304 37.7721 35.0476 37.5501C31.3942 34.7165 26.8039 33.3704 22.1989 33.7823C20.9248 33.8963 19.6671 34.149 18.4479 34.5359C18.1066 34.6448 18.2525 35.1845 18.5964 35.0747L18.5964 35.0747Z" fill="#3F3D56"/>
<path d="M18.5964 38.8004C22.795 37.4609 27.4791 37.8155 31.4567 39.7027C32.5916 40.2383 33.6634 40.8985 34.6524 41.671C34.9322 41.8906 35.3304 41.4978 35.0476 41.2759C31.3942 38.4422 26.8039 37.0961 22.1989 37.508C20.9248 37.622 19.6671 37.8747 18.4479 38.2616C18.1066 38.3705 18.2525 38.9102 18.5964 38.8004L18.5964 38.8004Z" fill="#3F3D56"/>
<path d="M18.5964 42.5249C22.795 41.1854 27.4791 41.54 31.4567 43.4271C32.5916 43.9628 33.6634 44.623 34.6524 45.3955C34.9322 45.615 35.3304 45.2223 35.0476 45.0003C31.3942 42.1667 26.8039 40.8206 22.1989 41.2325C20.9248 41.3465 19.6671 41.5992 18.4479 41.9861C18.1066 42.095 18.2525 42.6347 18.5964 42.5249H18.5964Z" fill="#3F3D56"/>
<path d="M33.7229 19.4131V28.3462C33.7229 28.5238 33.4126 28.6724 32.9944 28.7131C32.9908 28.7129 32.9873 28.7134 32.9839 28.7144C32.9142 28.7197 32.8405 28.7236 32.7656 28.7236C32.535 28.7279 32.3056 28.6905 32.0883 28.6132C32.0686 28.6053 32.0489 28.5961 32.0292 28.5882C32.0107 28.5777 31.991 28.5685 31.9726 28.5579C31.8687 28.4961 31.8082 28.4238 31.8082 28.3462V18.6425C32.4665 18.8466 33.1068 19.1043 33.7229 19.4131Z" fill="#219EBC"/>
<path d="M37.7363 21.4841H37.4628V53.3392H37.7363V21.4841Z" fill="#E6E6E6"/>
<path d="M67.486 43.2924C67.6799 43.2746 67.8677 43.2146 68.0359 43.1164C68.2042 43.0183 68.3489 42.8844 68.4599 42.7243C68.5708 42.5642 68.6453 42.3817 68.6781 42.1897C68.7108 41.9977 68.7011 41.8008 68.6496 41.6129L74.3277 38.9624L77.7461 33.4327L75.0591 32.3479L72.753 36.8039L66.9162 40.6934C66.6064 40.8009 66.3467 41.0183 66.1865 41.3045C66.0262 41.5906 65.9765 41.9256 66.0467 42.246C66.1169 42.5663 66.3022 42.8498 66.5675 43.0426C66.8328 43.2355 67.1596 43.3244 67.486 43.2924V43.2924Z" fill="#FFB6B6"/>
<path d="M79.8545 28.1339C79.8545 28.1339 80.5236 28.3523 79.7892 29.6503C79.2012 30.6894 76.3369 36.675 75.1678 37.8503C75.2908 38.0474 75.3448 38.2798 75.3211 38.5109C75.2975 38.7421 75.1976 38.9588 75.0373 39.1269L72.3384 36.9852C72.2869 36.2063 72.8023 36.129 73.1078 36.1553L73.7287 33.9548L75.8943 28.5264L79.3736 27.9674L79.8545 28.1339Z" fill="#219EBC"/>
<path d="M79.9128 17.9597C80.0404 17.4438 80.9662 17.0628 79.3804 16.3425C78.9956 16.1677 79.0115 15.5657 78.686 15.2961C78.3605 15.0265 77.8837 14.9015 77.5054 15.09C77.1675 15.2583 76.9771 15.6391 76.9365 16.0143C76.9171 16.3921 76.9607 16.7704 77.0656 17.1337L77.0348 17.1786C77.663 17.6593 78.2911 18.14 78.9193 18.6206C79.1501 18.7972 79.4518 18.9822 79.7105 18.8497C80.0033 18.6996 79.8338 18.2791 79.9128 17.9597Z" fill="#2F2E41"/>
</g>
<path d="M1 6.52775C1 3.53621 3.42512 1.11108 6.41667 1.11108H91.5833C94.5749 1.11108 97 3.53621 97 6.52775V91.6944C97 94.686 94.5749 97.1111 91.5833 97.1111H1V6.52775Z" stroke="#808080"/>
<defs>
<clipPath id="clip0_763_5620">
<rect width="88" height="67.2818" fill="white" transform="translate(4.63892 14.9998)"/>
</clipPath>
</defs>
</svg>
