<svg width="30" height="30" viewBox="0 0 30 30" fill="none" xmlns="http://www.w3.org/2000/svg">
<path d="M15 3C10.8579 3 7.5 6.35786 7.5 10.5V13.5C5.84315 13.5 4.5 14.8431 4.5 16.5V24C4.5 25.6569 5.84315 27 7.5 27H22.5C24.1569 27 25.5 25.6569 25.5 24V16.5C25.5 14.8431 24.1569 13.5 22.5 13.5H10.5V10.5C10.5 8.01472 12.5147 6 15 6C17.0948 6 18.8587 7.43268 19.3583 9.37389C19.5648 10.1762 20.3826 10.6591 21.1849 10.4527C21.9871 10.2462 22.4701 9.42839 22.2636 8.62611C21.4311 5.39163 18.4968 3 15 3Z" fill="#011119"/>
</svg>
