<svg width="836" height="836" viewBox="0 0 836 836" fill="none" xmlns="http://www.w3.org/2000/svg">
<path d="M151.934 172.215C193.534 77.3627 293.386 41.6488 372.17 105.335C402.935 130.181 422.13 169.724 459.8 185.591C495.146 200.472 539.922 196.091 578.144 204.15C659.537 221.205 769.12 285.911 760.76 385.613C757.098 429.285 727.637 477.79 713.074 518.654C696.354 565.67 686.322 624.491 642.065 652.597C566.189 700.851 474.664 661.409 406.313 622.502C369.529 601.585 349.281 588.727 309.671 595.9C273.004 602.588 239.982 625.996 204.151 598.224C177.249 577.374 175.025 535.123 152.436 510.31C126.988 482.354 101.189 480.331 87.9637 438.314C71.9292 387.335 95.5546 355.483 111.522 309.938C127.49 264.393 132.339 216.841 151.934 172.215Z" fill="#8ECAE6"/>
<g opacity="0.7">
<path d="M151.934 172.215C193.534 77.3627 293.386 41.6488 372.17 105.335C402.935 130.181 422.13 169.724 459.8 185.591C495.146 200.472 539.922 196.091 578.144 204.15C659.537 221.205 769.12 285.911 760.76 385.613C757.098 429.285 727.637 477.79 713.074 518.654C696.354 565.67 686.322 624.491 642.065 652.597C566.189 700.851 474.664 661.409 406.313 622.502C369.529 601.585 349.281 588.727 309.671 595.9C273.004 602.588 239.982 625.996 204.151 598.224C177.249 577.374 175.025 535.123 152.436 510.31C126.988 482.354 101.189 480.331 87.9637 438.314C71.9292 387.335 95.5546 355.483 111.522 309.938C127.49 264.393 132.339 216.841 151.934 172.215Z" fill="white"/>
</g>
<path d="M468.478 731.8C325.736 731.8 210.02 724.592 210.02 715.699C210.02 706.806 325.736 699.598 468.478 699.598C611.22 699.598 726.936 706.806 726.936 715.699C726.936 724.592 611.22 731.8 468.478 731.8Z" fill="#8ECAE6"/>
<path opacity="0.8" d="M468.478 731.8C325.736 731.8 210.02 724.592 210.02 715.699C210.02 706.806 325.736 699.598 468.478 699.598C611.22 699.598 726.936 706.806 726.936 715.699C726.936 724.592 611.22 731.8 468.478 731.8Z" fill="white"/>
<path d="M274.258 103.43H534.137C552.079 103.43 566.624 117.975 566.624 135.917V684.567C566.624 702.509 552.079 717.054 534.137 717.054H274.258C256.316 717.054 241.771 702.509 241.771 684.567V135.917C241.771 117.975 256.316 103.43 274.258 103.43Z" fill="#1C282E"/>
<path d="M256.217 170.811H552.195V649.671H256.217V170.811Z" fill="white" stroke="#1C282E" stroke-width="1.33739" stroke-miterlimit="10"/>
<path d="M358.834 364.716C333.78 339.662 333.78 299.041 358.834 273.987C383.888 248.933 424.508 248.933 449.562 273.987C474.616 299.041 474.616 339.662 449.562 364.716C424.508 389.77 383.888 389.77 358.834 364.716Z" fill="#8ECAE6"/>
<path d="M319.97 619.559H488.408C488.787 619.562 489.163 619.489 489.513 619.345C489.864 619.202 490.183 618.99 490.452 618.723C490.721 618.456 490.934 618.138 491.08 617.788C491.225 617.438 491.3 617.063 491.3 616.684C491.302 616.303 491.229 615.926 491.085 615.574C490.94 615.222 490.727 614.902 490.458 614.633C490.189 614.364 489.869 614.151 489.517 614.007C489.165 613.862 488.788 613.789 488.408 613.791H319.97C319.591 613.791 319.216 613.866 318.866 614.012C318.516 614.157 318.198 614.37 317.931 614.639C317.664 614.908 317.452 615.227 317.309 615.578C317.165 615.929 317.092 616.305 317.095 616.684C317.095 617.446 317.398 618.178 317.937 618.717C318.476 619.256 319.208 619.559 319.97 619.559Z" fill="#8ECAE6"/>
<path d="M314.486 419.572H493.909C497.611 419.572 500.613 422.574 500.613 426.277V447.428C500.613 451.131 497.611 454.132 493.909 454.132H314.486C310.783 454.132 307.781 451.131 307.781 447.428V426.277C307.781 422.574 310.783 419.572 314.486 419.572Z" fill="#8ECAE6"/>
<path d="M314.486 484.211H493.909C497.611 484.211 500.613 487.213 500.613 490.916V512.066C500.613 515.769 497.611 518.771 493.909 518.771H314.486C310.783 518.771 307.781 515.769 307.781 512.066V490.916C307.781 487.213 310.783 484.211 314.486 484.211Z" fill="#8ECAE6"/>
<path d="M372.254 351.353L391.131 340.485V331.507C388.397 328.2 386.418 324.337 385.329 320.187C384.679 320.418 383.995 320.537 383.306 320.538C380.965 320.538 379.477 313.282 379.226 308.099C376.501 302.33 380.213 298.953 380.213 298.953C380.213 298.953 378.674 297.414 377.654 291.245C376.634 285.075 381.249 287.65 384.844 281.999C388.439 276.347 391.014 270.194 402.818 270.194C406.071 270.087 409.28 270.961 412.03 272.703C414.779 274.444 416.941 276.972 418.234 279.959C421.172 279.969 424.1 280.312 426.962 280.979C430.573 281.999 431.593 293.82 428.517 298.451C427.139 300.982 426.405 303.813 426.376 306.694C427.196 305.691 428.048 305.423 428.517 307.697C429.537 312.83 425.423 320.02 425.423 320.02L423.3 319.418C422.23 323.853 420.166 327.987 417.264 331.507V340.485L436.141 351.353C438.345 352.626 440.176 354.456 441.45 356.66C442.724 358.864 443.395 361.364 443.397 363.91V370.13C432.171 378.803 418.384 383.508 404.197 383.508C390.011 383.508 376.224 378.803 364.997 370.13V363.91C364.996 361.364 365.666 358.862 366.94 356.658C368.214 354.453 370.047 352.623 372.254 351.353Z" fill="#1C282E"/>
<path d="M476.185 510.176C476.618 510.17 477.032 509.996 477.339 509.691C477.504 509.544 477.635 509.364 477.724 509.162C477.814 508.96 477.859 508.742 477.857 508.521C477.852 508.219 477.766 507.925 477.607 507.668L474.597 502.853L480.466 503.037C480.687 503.051 480.908 503.018 481.116 502.94C481.323 502.862 481.512 502.741 481.669 502.585C481.942 502.279 482.093 501.883 482.093 501.473C482.093 501.063 481.942 500.668 481.669 500.362C481.515 500.2 481.328 500.074 481.12 499.993C480.912 499.912 480.688 499.878 480.466 499.893L474.681 500.111L477.657 495.312C477.819 495.051 477.905 494.75 477.907 494.443C477.909 494.222 477.864 494.003 477.774 493.802C477.685 493.6 477.554 493.419 477.389 493.272C477.082 492.967 476.668 492.794 476.235 492.787C475.951 492.789 475.672 492.872 475.432 493.026C475.193 493.18 475.001 493.399 474.881 493.657L472.022 498.823L469.196 493.69C469.062 493.416 468.856 493.184 468.6 493.019C468.343 492.854 468.047 492.763 467.742 492.754C467.53 492.755 467.322 492.8 467.129 492.887C466.936 492.973 466.763 493.099 466.621 493.256C466.315 493.574 466.146 494.001 466.153 494.443C466.154 494.73 466.229 495.012 466.371 495.262L469.397 500.111L463.528 499.893C463.306 499.878 463.082 499.912 462.874 499.993C462.666 500.074 462.478 500.2 462.324 500.362C462.039 500.657 461.883 501.054 461.89 501.465C461.891 501.879 462.046 502.279 462.324 502.585C462.482 502.741 462.671 502.862 462.878 502.94C463.086 503.018 463.307 503.051 463.528 503.037L469.43 502.853L466.488 507.618C466.323 507.884 466.236 508.191 466.237 508.504C466.237 508.948 466.413 509.373 466.727 509.686C467.04 510 467.465 510.176 467.909 510.176C468.196 510.172 468.475 510.085 468.713 509.924C468.95 509.764 469.136 509.538 469.247 509.273L472.039 504.257L474.814 509.273C474.937 509.536 475.131 509.759 475.373 509.918C475.614 510.077 475.896 510.167 476.185 510.176Z" fill="#1C282E"/>
<path d="M449.066 510.176C449.498 510.17 449.912 509.996 450.219 509.691C450.384 509.544 450.515 509.364 450.604 509.162C450.694 508.96 450.739 508.742 450.738 508.521C450.732 508.219 450.646 507.925 450.487 507.668L447.477 502.853L453.329 503.037C453.552 503.047 453.775 503.012 453.985 502.935C454.195 502.857 454.387 502.738 454.55 502.585C454.772 502.356 454.92 502.066 454.974 501.752C455.029 501.438 454.987 501.114 454.856 500.824C454.724 500.533 454.508 500.289 454.236 500.123C453.964 499.957 453.648 499.877 453.329 499.893L447.561 500.111L450.537 495.312C450.699 495.051 450.786 494.75 450.788 494.443C450.789 494.222 450.744 494.003 450.655 493.802C450.565 493.6 450.434 493.419 450.269 493.272C449.962 492.967 449.549 492.794 449.116 492.787C448.831 492.789 448.552 492.872 448.313 493.026C448.073 493.18 447.882 493.399 447.761 493.657L444.902 498.823L442.077 493.69C441.943 493.416 441.736 493.184 441.48 493.019C441.223 492.854 440.927 492.763 440.622 492.754C440.41 492.753 440.201 492.797 440.008 492.884C439.814 492.97 439.642 493.097 439.502 493.256C439.347 493.412 439.224 493.597 439.141 493.801C439.058 494.004 439.016 494.223 439.017 494.443C439.023 494.731 439.103 495.014 439.251 495.262L442.277 500.111L436.392 499.927C436.172 499.912 435.951 499.946 435.745 500.027C435.54 500.108 435.355 500.234 435.205 500.395C434.92 500.691 434.763 501.088 434.77 501.498C434.771 501.913 434.926 502.312 435.205 502.619C435.359 502.774 435.545 502.895 435.749 502.973C435.954 503.051 436.173 503.084 436.392 503.07L442.311 502.886L439.368 507.651C439.203 507.918 439.116 508.225 439.117 508.538C439.117 508.981 439.293 509.406 439.607 509.72C439.92 510.033 440.346 510.21 440.789 510.21C441.076 510.206 441.355 510.118 441.593 509.958C441.83 509.797 442.016 509.571 442.127 509.307L444.919 504.291L447.694 509.307C447.822 509.563 448.017 509.779 448.259 509.932C448.501 510.085 448.779 510.17 449.066 510.176Z" fill="#1C282E"/>
<path d="M421.929 510.176C422.368 510.174 422.788 510 423.1 509.691C423.264 509.544 423.395 509.364 423.485 509.162C423.574 508.96 423.62 508.742 423.618 508.521C423.613 508.219 423.526 507.925 423.367 507.668L420.358 502.853L426.21 503.037C426.525 503.049 426.836 502.968 427.105 502.803C427.374 502.637 427.587 502.396 427.718 502.109C427.849 501.822 427.891 501.503 427.84 501.191C427.789 500.88 427.646 500.591 427.43 500.362C427.272 500.2 427.081 500.075 426.871 499.995C426.66 499.914 426.435 499.879 426.21 499.893L420.441 500.111L423.417 495.312C423.579 495.051 423.666 494.75 423.668 494.443C423.663 494.223 423.614 494.007 423.525 493.806C423.436 493.605 423.309 493.424 423.15 493.272C422.838 492.963 422.418 492.789 421.979 492.787C421.697 492.792 421.422 492.877 421.186 493.03C420.949 493.184 420.761 493.401 420.642 493.657L417.783 498.823L414.957 493.69C414.823 493.416 414.617 493.184 414.36 493.019C414.104 492.854 413.807 492.763 413.502 492.754C413.291 492.753 413.081 492.797 412.888 492.884C412.695 492.97 412.522 493.097 412.382 493.256C412.227 493.412 412.105 493.597 412.021 493.801C411.938 494.004 411.896 494.223 411.897 494.443C411.903 494.731 411.984 495.014 412.131 495.262L415.158 500.111L409.272 499.893C409.056 499.872 408.837 499.897 408.631 499.967C408.426 500.037 408.237 500.15 408.079 500.299C407.92 500.448 407.795 500.629 407.713 500.83C407.63 501.031 407.592 501.248 407.6 501.465C407.597 501.877 407.746 502.276 408.018 502.585C408.176 502.741 408.364 502.862 408.572 502.94C408.779 503.018 409.001 503.051 409.222 503.037L415.124 502.853L412.198 507.618C412.033 507.884 411.946 508.191 411.947 508.504C411.953 508.724 412.001 508.94 412.09 509.141C412.179 509.342 412.307 509.523 412.466 509.675C412.611 509.831 412.787 509.956 412.983 510.042C413.178 510.129 413.389 510.174 413.603 510.176C413.887 510.171 414.164 510.083 414.398 509.923C414.633 509.762 414.816 509.536 414.924 509.273L417.733 504.257L420.508 509.273C420.633 509.544 420.834 509.774 421.086 509.934C421.338 510.094 421.631 510.178 421.929 510.176Z" fill="#1C282E"/>
<path d="M394.809 510.176C395.248 510.174 395.668 510 395.98 509.691C396.295 509.383 396.475 508.962 396.481 508.521C396.486 508.22 396.405 507.924 396.247 507.668L393.238 502.853L399.09 503.037C399.313 503.047 399.536 503.012 399.746 502.935C399.955 502.857 400.147 502.738 400.31 502.585C400.583 502.279 400.733 501.883 400.733 501.473C400.733 501.063 400.583 500.668 400.31 500.362C400.149 500.206 399.957 500.084 399.747 500.003C399.538 499.923 399.314 499.885 399.09 499.893L393.304 500.111L396.264 495.312C396.426 495.051 396.513 494.75 396.515 494.443C396.509 494.223 396.461 494.007 396.372 493.806C396.283 493.605 396.155 493.424 395.996 493.272C395.685 492.963 395.265 492.789 394.826 492.787C394.541 492.789 394.263 492.872 394.023 493.026C393.783 493.18 393.592 493.399 393.472 493.657L390.629 498.823L387.804 493.69C387.67 493.416 387.463 493.184 387.207 493.019C386.95 492.854 386.654 492.763 386.349 492.754C386.137 492.753 385.928 492.797 385.735 492.884C385.542 492.97 385.369 493.097 385.229 493.256C385.074 493.412 384.951 493.597 384.868 493.801C384.785 494.004 384.743 494.223 384.744 494.443C384.75 494.731 384.83 495.014 384.978 495.262L388.004 500.111L382.119 499.893C381.902 499.872 381.684 499.897 381.478 499.967C381.272 500.037 381.084 500.15 380.925 500.299C380.767 500.448 380.642 500.629 380.559 500.83C380.477 501.031 380.439 501.248 380.447 501.465C380.443 501.877 380.592 502.276 380.865 502.585C381.022 502.741 381.211 502.862 381.418 502.94C381.626 503.018 381.847 503.051 382.069 503.037L387.971 502.853L385.045 507.618C384.88 507.884 384.793 508.191 384.794 508.504C384.792 508.725 384.838 508.943 384.927 509.145C385.016 509.347 385.148 509.527 385.312 509.675C385.458 509.831 385.634 509.956 385.829 510.042C386.025 510.129 386.236 510.174 386.449 510.176C386.734 510.171 387.01 510.083 387.245 509.923C387.48 509.762 387.662 509.536 387.77 509.273L390.579 504.257L393.355 509.273C393.482 509.55 393.688 509.782 393.946 509.943C394.205 510.103 394.505 510.185 394.809 510.176Z" fill="#1C282E"/>
<path d="M367.69 510.176C368.128 510.174 368.549 510 368.86 509.691C369.119 509.429 369.284 509.088 369.329 508.722C369.375 508.356 369.298 507.986 369.111 507.668L366.118 502.853L371.97 503.037C372.193 503.047 372.416 503.012 372.626 502.935C372.836 502.857 373.028 502.738 373.191 502.585C373.463 502.279 373.614 501.883 373.614 501.473C373.614 501.063 373.463 500.668 373.191 500.362C373.029 500.206 372.838 500.084 372.628 500.003C372.418 499.923 372.194 499.885 371.97 499.893L366.185 500.111L369.161 495.312C369.323 495.051 369.41 494.75 369.412 494.443C369.405 494.002 369.225 493.581 368.91 493.272C368.599 492.963 368.178 492.789 367.74 492.787C367.455 492.789 367.176 492.872 366.937 493.026C366.697 493.18 366.506 493.399 366.385 493.657L363.543 498.823L360.717 493.69C360.583 493.416 360.377 493.184 360.121 493.019C359.864 492.854 359.568 492.763 359.263 492.754C359.049 492.753 358.837 492.797 358.641 492.883C358.445 492.97 358.269 493.097 358.126 493.256C357.819 493.574 357.651 494.001 357.658 494.443C357.664 494.731 357.744 495.014 357.892 495.262L360.918 500.111L355.033 499.893C354.816 499.872 354.598 499.897 354.392 499.967C354.186 500.037 353.997 500.15 353.839 500.299C353.68 500.448 353.556 500.629 353.473 500.83C353.391 501.031 353.352 501.248 353.361 501.465C353.357 501.877 353.506 502.276 353.779 502.585C353.936 502.741 354.125 502.862 354.332 502.94C354.54 503.018 354.761 503.051 354.982 503.037L360.885 502.853L357.959 507.618C357.794 507.884 357.707 508.191 357.708 508.504C357.706 508.725 357.752 508.943 357.841 509.145C357.93 509.347 358.062 509.527 358.226 509.675C358.372 509.831 358.547 509.956 358.743 510.043C358.938 510.129 359.149 510.174 359.363 510.176C359.647 510.171 359.924 510.083 360.159 509.923C360.394 509.762 360.576 509.536 360.684 509.273L363.493 504.257L366.268 509.273C366.394 509.544 366.594 509.774 366.846 509.934C367.098 510.094 367.391 510.178 367.69 510.176Z" fill="#1C282E"/>
<path d="M340.57 510.176C341.002 510.17 341.416 509.996 341.723 509.691C341.888 509.544 342.019 509.364 342.108 509.162C342.198 508.96 342.243 508.742 342.242 508.521C342.236 508.219 342.15 507.925 341.991 507.668L338.998 502.853L344.85 503.037C345.065 503.053 345.281 503.024 345.485 502.952C345.688 502.88 345.875 502.767 346.032 502.619C346.189 502.471 346.314 502.292 346.398 502.094C346.483 501.895 346.525 501.681 346.522 501.465C346.523 501.26 346.484 501.058 346.406 500.868C346.329 500.679 346.215 500.507 346.07 500.362C345.916 500.2 345.729 500.074 345.521 499.993C345.313 499.912 345.089 499.878 344.867 499.893L339.081 500.111L342.058 495.312C342.219 495.051 342.306 494.75 342.308 494.443C342.302 494.002 342.122 493.581 341.807 493.272C341.495 492.963 341.075 492.789 340.636 492.787C340.352 492.789 340.073 492.872 339.833 493.026C339.593 493.18 339.402 493.399 339.282 493.657L336.44 498.823L333.597 493.69C333.465 493.419 333.261 493.188 333.008 493.024C332.754 492.859 332.461 492.766 332.159 492.754C331.945 492.753 331.733 492.797 331.537 492.883C331.341 492.97 331.166 493.097 331.022 493.256C330.716 493.574 330.547 494.001 330.554 494.443C330.555 494.73 330.63 495.012 330.772 495.262L333.798 500.111L327.929 499.893C327.706 499.878 327.483 499.912 327.275 499.993C327.067 500.074 326.879 500.2 326.725 500.362C326.44 500.658 326.284 501.054 326.291 501.465C326.292 501.879 326.447 502.279 326.725 502.585C326.883 502.741 327.072 502.862 327.279 502.94C327.486 503.018 327.708 503.051 327.929 503.037L333.831 502.853L330.905 507.618C330.74 507.884 330.654 508.191 330.655 508.504C330.661 508.945 330.841 509.366 331.156 509.675C331.461 509.986 331.875 510.166 332.31 510.176C332.594 510.171 332.871 510.083 333.106 509.923C333.34 509.762 333.523 509.536 333.631 509.273L336.44 504.257L339.215 509.273C339.335 509.534 339.526 509.757 339.765 509.916C340.004 510.075 340.282 510.166 340.57 510.176Z" fill="#1C282E"/>
<g style="mix-blend-mode:multiply">
<path d="M256.217 171.447H552.195V189.99H256.217V171.447Z" fill="#8ECAE6"/>
</g>
<path d="M372.02 137.289H436.392C437.554 137.289 438.668 136.827 439.489 136.006C440.311 135.184 440.772 134.07 440.772 132.908C440.772 131.746 440.311 130.632 439.489 129.81C438.668 128.989 437.554 128.527 436.392 128.527H372.02C370.858 128.527 369.744 128.989 368.922 129.81C368.101 130.632 367.639 131.746 367.639 132.908C367.639 134.07 368.101 135.184 368.922 136.006C369.744 136.827 370.858 137.289 372.02 137.289Z" fill="#8ECAE6" stroke="#1C282E" stroke-width="1.33739" stroke-linecap="round" stroke-linejoin="round"/>
<path d="M386.65 676.725C386.646 673.251 387.674 669.855 389.601 666.965C391.529 664.076 394.271 661.823 397.48 660.492C400.688 659.161 404.22 658.812 407.627 659.489C411.034 660.166 414.163 661.838 416.62 664.294C419.076 666.751 420.748 669.88 421.425 673.287C422.102 676.695 421.753 680.226 420.422 683.434C419.091 686.643 416.839 689.385 413.949 691.313C411.059 693.24 407.663 694.268 404.189 694.264C399.539 694.26 395.08 692.411 391.792 689.122C388.503 685.834 386.654 681.375 386.65 676.725Z" fill="#8ECAE6"/>
<path d="M395.294 667.83H413.084V685.62H395.294V667.83Z" fill="#8ECAE6" stroke="#1C282E" stroke-width="1.33739" stroke-linecap="round" stroke-linejoin="round"/>
<path d="M192.28 474.849C192.28 474.849 215.588 415.626 194.838 408.587C173.236 401.247 174.189 440.355 175.025 459.416C176.781 500.146 181.278 507.72 184.639 497.772L192.28 474.849ZM199.286 521.046C192.882 529.406 191.076 520.745 202.63 481.637C208.047 463.245 219.818 426.043 237.876 440.004C255.214 453.38 213.949 501.868 213.949 501.868L199.286 521.046ZM211.659 554.988C205.556 560.405 205.439 553.566 219.935 525.326C226.74 512.101 241.136 485.332 252.924 498.574C264.243 511.348 225.67 542.397 225.67 542.397L211.659 554.988ZM225.035 595.35C218.932 600.784 218.815 593.928 233.311 565.705C240.116 552.48 254.512 525.694 266.3 538.953C277.552 551.761 239.096 582.81 239.096 582.81L225.035 595.35ZM186.412 513.188C196.176 517 188.418 521.146 147.638 521.029C128.51 521.029 89.4523 520.16 97.7788 498.909C105.754 478.494 163.84 504.493 163.84 504.493L186.412 513.188ZM197.53 540.341C207.863 542.13 201.075 547.748 161.081 555.74C142.338 559.502 103.898 566.441 107.828 544.036C111.59 522.434 173.688 536.378 173.688 536.378L197.53 540.341ZM209.97 573.497C218.765 574.767 213.147 579.666 179.523 587.357C163.756 590.969 131.403 597.741 134.212 578.63C136.887 560.238 189.722 570.637 189.722 570.637L209.97 573.497ZM219.417 604.211C228.028 606.402 221.925 610.682 187.649 614.762C171.598 616.668 138.709 619.978 143.508 601.268C148.139 583.311 199.57 599.212 199.57 599.212L219.417 604.211ZM169.023 479.865C174.039 491.1 163.622 489.395 128.209 458.496C111.623 444 78.3502 413.67 104.701 398.572C129.998 384.059 157.202 454.082 157.202 454.082L169.023 479.865ZM218.113 644.222C223.413 647.315 218.213 648.519 193.902 643.67C182.499 641.413 159.308 636.397 167.15 626.499C174.741 616.969 205.84 637.033 205.84 637.033L218.113 644.222Z" fill="#8ECAE6"/>
<path opacity="0.3" d="M192.28 474.849C192.28 474.849 215.588 415.626 194.838 408.587C173.236 401.247 174.189 440.355 175.025 459.416C176.781 500.146 181.278 507.72 184.639 497.772L192.28 474.849ZM199.286 521.046C192.882 529.406 191.076 520.745 202.63 481.637C208.047 463.245 219.818 426.043 237.876 440.004C255.214 453.38 213.949 501.868 213.949 501.868L199.286 521.046ZM211.659 554.988C205.556 560.405 205.439 553.566 219.935 525.326C226.74 512.101 241.136 485.332 252.924 498.574C264.243 511.348 225.67 542.397 225.67 542.397L211.659 554.988ZM225.035 595.35C218.932 600.784 218.815 593.928 233.311 565.705C240.116 552.48 254.512 525.694 266.3 538.953C277.552 551.761 239.096 582.81 239.096 582.81L225.035 595.35ZM186.412 513.188C196.176 517 188.418 521.146 147.638 521.029C128.51 521.029 89.4523 520.16 97.7788 498.909C105.754 478.494 163.84 504.493 163.84 504.493L186.412 513.188ZM197.53 540.341C207.863 542.13 201.075 547.748 161.081 555.74C142.338 559.502 103.898 566.441 107.828 544.036C111.59 522.434 173.688 536.378 173.688 536.378L197.53 540.341ZM209.97 573.497C218.765 574.767 213.147 579.666 179.523 587.357C163.756 590.969 131.403 597.741 134.212 578.63C136.887 560.238 189.722 570.637 189.722 570.637L209.97 573.497ZM219.417 604.211C228.028 606.402 221.925 610.682 187.649 614.762C171.598 616.668 138.709 619.978 143.508 601.268C148.139 583.311 199.57 599.212 199.57 599.212L219.417 604.211ZM169.023 479.865C174.039 491.1 163.622 489.395 128.209 458.496C111.623 444 78.3502 413.67 104.701 398.572C129.998 384.059 157.202 454.082 157.202 454.082L169.023 479.865ZM218.113 644.222C223.413 647.315 218.213 648.519 193.902 643.67C182.499 641.413 159.308 636.397 167.15 626.499C174.741 616.969 205.84 637.033 205.84 637.033L218.113 644.222Z" fill="white"/>
<path d="M181.997 502.42L186.06 434.821L181.997 502.42ZM194.855 524.724L220.537 466.589L194.855 524.724ZM128.577 507.82L190.123 516.649L128.577 507.82ZM208.164 556.058L241.487 513.305L208.164 556.058ZM202.312 542.949L156.399 545.257L202.312 542.949ZM213.18 575.737L178.068 579.215L213.18 575.737ZM221.657 596.57L239.096 570.337L221.657 596.57ZM223.664 605.833L182.382 606.218L223.664 605.833ZM232.024 683.28C231.747 683.259 231.49 683.129 231.309 682.919C231.127 682.71 231.036 682.437 231.054 682.16C233.679 642.734 218.43 578.162 193.969 525.159C178.336 491.284 117.057 424.705 116.405 424.037C116.208 423.839 116.097 423.571 116.097 423.293C116.097 423.014 116.208 422.746 116.405 422.548C116.501 422.451 116.616 422.374 116.742 422.322C116.868 422.269 117.004 422.242 117.141 422.242C117.277 422.242 117.413 422.269 117.539 422.322C117.665 422.374 117.78 422.451 117.876 422.548C118.495 423.217 180.025 490.047 195.791 524.223C220.704 578.513 235.752 641.915 233.077 682.294C233.056 682.56 232.937 682.809 232.742 682.991C232.547 683.174 232.291 683.277 232.024 683.28ZM182.014 503.457C181.738 503.439 181.479 503.314 181.294 503.107C181.11 502.901 181.014 502.63 181.028 502.353L185.024 434.721C185.03 434.583 185.064 434.448 185.123 434.323C185.182 434.199 185.266 434.088 185.368 433.996C185.471 433.904 185.591 433.833 185.722 433.789C185.852 433.744 185.99 433.725 186.127 433.734C186.404 433.751 186.662 433.877 186.847 434.083C187.032 434.29 187.128 434.561 187.114 434.838L183.051 502.437C183.038 502.703 182.923 502.954 182.73 503.137C182.537 503.321 182.281 503.423 182.014 503.423V503.457ZM194.487 525.677C194.237 525.564 194.041 525.357 193.941 525.101C193.841 524.845 193.845 524.56 193.952 524.306L219.651 466.171C219.762 465.918 219.968 465.72 220.226 465.619C220.483 465.519 220.769 465.525 221.022 465.636C221.275 465.747 221.473 465.954 221.573 466.211C221.674 466.468 221.668 466.754 221.557 467.007L195.875 525.142C195.794 525.329 195.662 525.488 195.492 525.601C195.323 525.714 195.125 525.775 194.922 525.778C194.749 525.787 194.577 525.752 194.42 525.677H194.487ZM190.04 517.652L128.527 508.857C128.378 508.854 128.232 508.82 128.098 508.756C127.964 508.692 127.844 508.601 127.748 508.488C127.651 508.375 127.58 508.243 127.538 508.101C127.496 507.958 127.485 507.808 127.505 507.661C127.525 507.514 127.576 507.372 127.655 507.246C127.734 507.12 127.838 507.012 127.961 506.93C128.085 506.847 128.224 506.791 128.371 506.766C128.517 506.741 128.667 506.747 128.811 506.784L190.324 515.579C190.599 515.596 190.856 515.723 191.037 515.93C191.219 516.136 191.312 516.407 191.294 516.682C191.276 516.957 191.15 517.214 190.943 517.396C190.736 517.577 190.465 517.67 190.19 517.652H190.04ZM207.579 556.894C207.361 556.722 207.219 556.471 207.184 556.196C207.15 555.92 207.226 555.642 207.395 555.422L240.735 512.586C240.906 512.364 241.157 512.219 241.435 512.183C241.712 512.147 241.993 512.223 242.215 512.393C242.436 512.564 242.581 512.816 242.617 513.093C242.653 513.371 242.578 513.651 242.407 513.873L209 556.777C208.903 556.902 208.779 557.003 208.637 557.072C208.495 557.142 208.339 557.178 208.181 557.178C207.931 557.166 207.694 557.065 207.512 556.894H207.579ZM155.48 545.307C155.47 545.03 155.571 544.761 155.758 544.558C155.946 544.354 156.206 544.233 156.483 544.22L202.312 541.896C202.57 541.914 202.812 542.025 202.992 542.21C203.173 542.394 203.28 542.638 203.292 542.896C203.305 543.154 203.222 543.408 203.06 543.608C202.897 543.809 202.667 543.944 202.413 543.986L156.499 546.31C156.223 546.319 155.954 546.219 155.75 546.031C155.547 545.843 155.426 545.583 155.413 545.307H155.48ZM177.099 579.315C177.082 579.178 177.094 579.038 177.132 578.905C177.171 578.772 177.236 578.648 177.323 578.541C177.41 578.433 177.518 578.344 177.641 578.279C177.763 578.214 177.897 578.174 178.035 578.162L213.147 574.701C213.283 574.687 213.421 574.7 213.552 574.74C213.683 574.779 213.805 574.845 213.91 574.932C214.016 575.019 214.104 575.126 214.168 575.247C214.232 575.368 214.271 575.5 214.284 575.637C214.307 575.911 214.222 576.184 214.047 576.396C213.872 576.609 213.621 576.744 213.347 576.774L178.235 580.252H178.135C177.865 580.27 177.599 580.183 177.393 580.008C177.187 579.833 177.057 579.584 177.032 579.315H177.099ZM221.156 597.44C220.924 597.286 220.762 597.047 220.705 596.774C220.649 596.502 220.703 596.218 220.855 595.985L238.21 569.751C238.369 569.525 238.609 569.37 238.88 569.317C239.151 569.264 239.432 569.318 239.665 569.467C239.897 569.621 240.059 569.86 240.115 570.132C240.172 570.405 240.118 570.689 239.966 570.922L222.61 597.155C222.511 597.299 222.379 597.416 222.224 597.498C222.07 597.579 221.899 597.622 221.724 597.624C221.498 597.636 221.274 597.571 221.089 597.44H221.156ZM181.329 606.218C181.333 605.943 181.443 605.679 181.636 605.483C181.829 605.287 182.09 605.173 182.365 605.164L223.647 604.78C223.922 604.78 224.186 604.889 224.38 605.083C224.574 605.278 224.684 605.541 224.684 605.816C224.688 605.955 224.665 606.092 224.614 606.221C224.564 606.35 224.488 606.467 224.391 606.565C224.294 606.664 224.178 606.742 224.05 606.794C223.922 606.846 223.785 606.872 223.647 606.87L182.365 607.254C182.224 607.261 182.083 607.239 181.951 607.191C181.818 607.142 181.697 607.067 181.594 606.97C181.491 606.873 181.408 606.757 181.351 606.628C181.294 606.498 181.264 606.359 181.262 606.218H181.329ZM236.722 667.948C236.638 667.764 229.599 648.369 208.432 643.737C208.159 643.677 207.921 643.512 207.771 643.276C207.621 643.041 207.57 642.756 207.629 642.483C207.697 642.216 207.865 641.985 208.098 641.839C208.332 641.692 208.613 641.642 208.883 641.698C231.204 646.58 238.611 667.062 238.695 667.262C238.781 667.526 238.761 667.814 238.64 668.063C238.518 668.313 238.304 668.505 238.043 668.6H237.709C237.486 668.619 237.264 668.566 237.074 668.449C236.884 668.331 236.737 668.156 236.655 667.948H236.722ZM232.024 683.28C231.747 683.259 231.49 683.129 231.309 682.919C231.127 682.71 231.036 682.437 231.054 682.16C233.679 642.734 218.43 578.162 193.969 525.159C178.336 491.284 117.057 424.705 116.405 424.037C116.208 423.839 116.097 423.571 116.097 423.293C116.097 423.014 116.208 422.746 116.405 422.548C116.501 422.451 116.616 422.374 116.742 422.322C116.868 422.269 117.004 422.242 117.141 422.242C117.277 422.242 117.413 422.269 117.539 422.322C117.665 422.374 117.78 422.451 117.876 422.548C118.495 423.217 180.025 490.047 195.791 524.223C220.704 578.513 235.752 641.915 233.077 682.294C233.056 682.56 232.937 682.809 232.742 682.991C232.547 683.174 232.291 683.277 232.024 683.28ZM182.014 503.457C181.738 503.439 181.479 503.314 181.294 503.107C181.11 502.901 181.014 502.63 181.028 502.353L185.024 434.721C185.03 434.583 185.064 434.448 185.123 434.323C185.182 434.199 185.266 434.088 185.368 433.996C185.471 433.904 185.591 433.833 185.722 433.789C185.852 433.744 185.99 433.725 186.127 433.734C186.404 433.751 186.662 433.877 186.847 434.083C187.032 434.29 187.128 434.561 187.114 434.838L183.051 502.437C183.038 502.703 182.923 502.954 182.73 503.137C182.537 503.321 182.281 503.423 182.014 503.423V503.457ZM194.487 525.677C194.237 525.564 194.041 525.357 193.941 525.101C193.841 524.845 193.845 524.56 193.952 524.306L219.651 466.171C219.762 465.918 219.968 465.72 220.226 465.619C220.483 465.519 220.769 465.525 221.022 465.636C221.275 465.747 221.473 465.954 221.573 466.211C221.674 466.468 221.668 466.754 221.557 467.007L195.875 525.142C195.794 525.329 195.662 525.488 195.492 525.601C195.323 525.714 195.125 525.775 194.922 525.778C194.749 525.787 194.577 525.752 194.42 525.677H194.487ZM190.04 517.652L128.527 508.857C128.378 508.854 128.232 508.82 128.098 508.756C127.964 508.692 127.844 508.601 127.748 508.488C127.651 508.375 127.58 508.243 127.538 508.101C127.496 507.958 127.485 507.808 127.505 507.661C127.525 507.514 127.576 507.372 127.655 507.246C127.734 507.12 127.838 507.012 127.961 506.93C128.085 506.847 128.224 506.791 128.371 506.766C128.517 506.741 128.667 506.747 128.811 506.784L190.324 515.579C190.599 515.596 190.856 515.723 191.037 515.93C191.219 516.136 191.312 516.407 191.294 516.682C191.276 516.957 191.15 517.214 190.943 517.396C190.736 517.577 190.465 517.67 190.19 517.652H190.04ZM207.579 556.894C207.361 556.722 207.219 556.471 207.184 556.196C207.15 555.92 207.226 555.642 207.395 555.422L240.735 512.586C240.819 512.476 240.925 512.384 241.045 512.315C241.165 512.246 241.297 512.201 241.435 512.183C241.572 512.165 241.712 512.175 241.846 512.211C241.979 512.247 242.105 512.309 242.215 512.393C242.324 512.478 242.416 512.583 242.485 512.703C242.555 512.823 242.599 512.956 242.617 513.093C242.635 513.231 242.626 513.37 242.59 513.504C242.553 513.638 242.491 513.763 242.407 513.873L209 556.777C208.903 556.902 208.779 557.003 208.637 557.072C208.495 557.142 208.339 557.178 208.181 557.178C207.931 557.166 207.694 557.065 207.512 556.894H207.579ZM155.48 545.307C155.47 545.03 155.571 544.761 155.758 544.558C155.946 544.354 156.206 544.233 156.483 544.22L202.312 541.896C202.57 541.914 202.812 542.025 202.992 542.21C203.173 542.394 203.28 542.638 203.292 542.896C203.305 543.154 203.222 543.408 203.06 543.608C202.897 543.809 202.667 543.944 202.413 543.986L156.499 546.31C156.223 546.319 155.954 546.219 155.75 546.031C155.547 545.843 155.426 545.583 155.413 545.307H155.48ZM177.099 579.315C177.082 579.178 177.094 579.038 177.132 578.905C177.171 578.772 177.236 578.648 177.323 578.541C177.41 578.433 177.518 578.344 177.641 578.279C177.763 578.214 177.897 578.174 178.035 578.162L213.147 574.701C213.283 574.687 213.421 574.7 213.552 574.74C213.683 574.779 213.805 574.845 213.91 574.932C214.016 575.019 214.104 575.126 214.168 575.247C214.232 575.368 214.271 575.5 214.284 575.637C214.307 575.911 214.222 576.184 214.047 576.396C213.872 576.609 213.621 576.744 213.347 576.774L178.235 580.252H178.135C177.865 580.27 177.599 580.183 177.393 580.008C177.187 579.833 177.057 579.584 177.032 579.315H177.099ZM221.156 597.44C220.924 597.286 220.762 597.047 220.705 596.774C220.649 596.502 220.703 596.218 220.855 595.985L238.21 569.751C238.369 569.525 238.609 569.37 238.88 569.317C239.151 569.264 239.432 569.318 239.665 569.467C239.897 569.621 240.059 569.86 240.115 570.132C240.172 570.405 240.118 570.689 239.966 570.922L222.61 597.155C222.511 597.299 222.379 597.416 222.224 597.498C222.07 597.579 221.899 597.622 221.724 597.624C221.498 597.636 221.274 597.571 221.089 597.44H221.156ZM181.329 606.218C181.333 605.943 181.443 605.679 181.636 605.483C181.829 605.287 182.09 605.173 182.365 605.164L223.647 604.78C223.922 604.78 224.186 604.889 224.38 605.083C224.574 605.278 224.684 605.541 224.684 605.816C224.688 605.955 224.665 606.092 224.614 606.221C224.564 606.35 224.488 606.467 224.391 606.565C224.294 606.664 224.178 606.742 224.05 606.794C223.922 606.846 223.785 606.872 223.647 606.87L182.365 607.254C182.224 607.261 182.083 607.239 181.951 607.191C181.818 607.142 181.697 607.067 181.594 606.97C181.491 606.873 181.408 606.757 181.351 606.628C181.294 606.498 181.264 606.359 181.262 606.218H181.329ZM236.722 667.948C236.638 667.764 229.599 648.369 208.432 643.737C208.159 643.677 207.921 643.512 207.771 643.276C207.621 643.041 207.57 642.756 207.629 642.483C207.697 642.216 207.865 641.985 208.098 641.839C208.332 641.692 208.613 641.642 208.883 641.698C231.204 646.58 238.611 667.062 238.695 667.262C238.781 667.526 238.761 667.814 238.64 668.063C238.518 668.313 238.304 668.505 238.043 668.6H237.709C237.486 668.619 237.264 668.566 237.074 668.449C236.884 668.331 236.737 668.156 236.655 667.948H236.722Z" fill="#8ECAE6"/>
<path opacity="0.2" d="M181.997 502.42L186.06 434.821L181.997 502.42ZM194.855 524.724L220.537 466.589L194.855 524.724ZM128.577 507.82L190.123 516.649L128.577 507.82ZM208.164 556.058L241.487 513.305L208.164 556.058ZM202.312 542.949L156.399 545.257L202.312 542.949ZM213.18 575.737L178.068 579.215L213.18 575.737ZM221.657 596.57L239.096 570.337L221.657 596.57ZM223.664 605.833L182.382 606.218L223.664 605.833ZM232.024 683.28C231.747 683.259 231.49 683.129 231.309 682.919C231.127 682.71 231.036 682.437 231.054 682.16C233.679 642.734 218.43 578.162 193.969 525.159C178.336 491.284 117.057 424.705 116.405 424.037C116.208 423.839 116.097 423.571 116.097 423.293C116.097 423.014 116.208 422.746 116.405 422.548C116.501 422.451 116.616 422.374 116.742 422.322C116.868 422.269 117.004 422.242 117.141 422.242C117.277 422.242 117.413 422.269 117.539 422.322C117.665 422.374 117.78 422.451 117.876 422.548C118.495 423.217 180.025 490.047 195.791 524.223C220.704 578.513 235.752 641.915 233.077 682.294C233.056 682.56 232.937 682.809 232.742 682.991C232.547 683.174 232.291 683.277 232.024 683.28ZM182.014 503.457C181.738 503.439 181.479 503.314 181.294 503.107C181.11 502.901 181.014 502.63 181.028 502.353L185.024 434.721C185.03 434.583 185.064 434.448 185.123 434.323C185.182 434.199 185.266 434.088 185.368 433.996C185.471 433.904 185.591 433.833 185.722 433.789C185.852 433.744 185.99 433.725 186.127 433.734C186.404 433.751 186.662 433.877 186.847 434.083C187.032 434.29 187.128 434.561 187.114 434.838L183.051 502.437C183.038 502.703 182.923 502.954 182.73 503.137C182.537 503.321 182.281 503.423 182.014 503.423V503.457ZM194.487 525.677C194.237 525.564 194.041 525.357 193.941 525.101C193.841 524.845 193.845 524.56 193.952 524.306L219.651 466.171C219.762 465.918 219.968 465.72 220.226 465.619C220.483 465.519 220.769 465.525 221.022 465.636C221.275 465.747 221.473 465.954 221.573 466.211C221.674 466.468 221.668 466.754 221.557 467.007L195.875 525.142C195.794 525.329 195.662 525.488 195.492 525.601C195.323 525.714 195.125 525.775 194.922 525.778C194.749 525.787 194.577 525.752 194.42 525.677H194.487ZM190.04 517.652L128.527 508.857C128.378 508.854 128.232 508.82 128.098 508.756C127.964 508.692 127.844 508.601 127.748 508.488C127.651 508.375 127.58 508.243 127.538 508.101C127.496 507.958 127.485 507.808 127.505 507.661C127.525 507.514 127.576 507.372 127.655 507.246C127.734 507.12 127.838 507.012 127.961 506.93C128.085 506.847 128.224 506.791 128.371 506.766C128.517 506.741 128.667 506.747 128.811 506.784L190.324 515.579C190.599 515.596 190.856 515.723 191.037 515.93C191.219 516.136 191.312 516.407 191.294 516.682C191.276 516.957 191.15 517.214 190.943 517.396C190.736 517.577 190.465 517.67 190.19 517.652H190.04ZM207.579 556.894C207.361 556.722 207.219 556.471 207.184 556.196C207.15 555.92 207.226 555.642 207.395 555.422L240.735 512.586C240.906 512.364 241.157 512.219 241.435 512.183C241.712 512.147 241.993 512.223 242.215 512.393C242.436 512.564 242.581 512.816 242.617 513.093C242.653 513.371 242.578 513.651 242.407 513.873L209 556.777C208.903 556.902 208.779 557.003 208.637 557.072C208.495 557.142 208.339 557.178 208.181 557.178C207.931 557.166 207.694 557.065 207.512 556.894H207.579ZM155.48 545.307C155.47 545.03 155.571 544.761 155.758 544.558C155.946 544.354 156.206 544.233 156.483 544.22L202.312 541.896C202.57 541.914 202.812 542.025 202.992 542.21C203.173 542.394 203.28 542.638 203.292 542.896C203.305 543.154 203.222 543.408 203.06 543.608C202.897 543.809 202.667 543.944 202.413 543.986L156.499 546.31C156.223 546.319 155.954 546.219 155.75 546.031C155.547 545.843 155.426 545.583 155.413 545.307H155.48ZM177.099 579.315C177.082 579.178 177.094 579.038 177.132 578.905C177.171 578.772 177.236 578.648 177.323 578.541C177.41 578.433 177.518 578.344 177.641 578.279C177.763 578.214 177.897 578.174 178.035 578.162L213.147 574.701C213.283 574.687 213.421 574.7 213.552 574.74C213.683 574.779 213.805 574.845 213.91 574.932C214.016 575.019 214.104 575.126 214.168 575.247C214.232 575.368 214.271 575.5 214.284 575.637C214.307 575.911 214.222 576.184 214.047 576.396C213.872 576.609 213.621 576.744 213.347 576.774L178.235 580.252H178.135C177.865 580.27 177.599 580.183 177.393 580.008C177.187 579.833 177.057 579.584 177.032 579.315H177.099ZM221.156 597.44C220.924 597.286 220.762 597.047 220.705 596.774C220.649 596.502 220.703 596.218 220.855 595.985L238.21 569.751C238.369 569.525 238.609 569.37 238.88 569.317C239.151 569.264 239.432 569.318 239.665 569.467C239.897 569.621 240.059 569.86 240.115 570.132C240.172 570.405 240.118 570.689 239.966 570.922L222.61 597.155C222.511 597.299 222.379 597.416 222.224 597.498C222.07 597.579 221.899 597.622 221.724 597.624C221.498 597.636 221.274 597.571 221.089 597.44H221.156ZM181.329 606.218C181.333 605.943 181.443 605.679 181.636 605.483C181.829 605.287 182.09 605.173 182.365 605.164L223.647 604.78C223.922 604.78 224.186 604.889 224.38 605.083C224.574 605.278 224.684 605.541 224.684 605.816C224.688 605.955 224.665 606.092 224.614 606.221C224.564 606.35 224.488 606.467 224.391 606.565C224.294 606.664 224.178 606.742 224.05 606.794C223.922 606.846 223.785 606.872 223.647 606.87L182.365 607.254C182.224 607.261 182.083 607.239 181.951 607.191C181.818 607.142 181.697 607.067 181.594 606.97C181.491 606.873 181.408 606.757 181.351 606.628C181.294 606.498 181.264 606.359 181.262 606.218H181.329ZM236.722 667.948C236.638 667.764 229.599 648.369 208.432 643.737C208.159 643.677 207.921 643.512 207.771 643.276C207.621 643.041 207.57 642.756 207.629 642.483C207.697 642.216 207.865 641.985 208.098 641.839C208.332 641.692 208.613 641.642 208.883 641.698C231.204 646.58 238.611 667.062 238.695 667.262C238.781 667.526 238.761 667.814 238.64 668.063C238.518 668.313 238.304 668.505 238.043 668.6H237.709C237.486 668.619 237.264 668.566 237.074 668.449C236.884 668.331 236.737 668.156 236.655 667.948H236.722ZM232.024 683.28C231.747 683.259 231.49 683.129 231.309 682.919C231.127 682.71 231.036 682.437 231.054 682.16C233.679 642.734 218.43 578.162 193.969 525.159C178.336 491.284 117.057 424.705 116.405 424.037C116.208 423.839 116.097 423.571 116.097 423.293C116.097 423.014 116.208 422.746 116.405 422.548C116.501 422.451 116.616 422.374 116.742 422.322C116.868 422.269 117.004 422.242 117.141 422.242C117.277 422.242 117.413 422.269 117.539 422.322C117.665 422.374 117.78 422.451 117.876 422.548C118.495 423.217 180.025 490.047 195.791 524.223C220.704 578.513 235.752 641.915 233.077 682.294C233.056 682.56 232.937 682.809 232.742 682.991C232.547 683.174 232.291 683.277 232.024 683.28ZM182.014 503.457C181.738 503.439 181.479 503.314 181.294 503.107C181.11 502.901 181.014 502.63 181.028 502.353L185.024 434.721C185.03 434.583 185.064 434.448 185.123 434.323C185.182 434.199 185.266 434.088 185.368 433.996C185.471 433.904 185.591 433.833 185.722 433.789C185.852 433.744 185.99 433.725 186.127 433.734C186.404 433.751 186.662 433.877 186.847 434.083C187.032 434.29 187.128 434.561 187.114 434.838L183.051 502.437C183.038 502.703 182.923 502.954 182.73 503.137C182.537 503.321 182.281 503.423 182.014 503.423V503.457ZM194.487 525.677C194.237 525.564 194.041 525.357 193.941 525.101C193.841 524.845 193.845 524.56 193.952 524.306L219.651 466.171C219.762 465.918 219.968 465.72 220.226 465.619C220.483 465.519 220.769 465.525 221.022 465.636C221.275 465.747 221.473 465.954 221.573 466.211C221.674 466.468 221.668 466.754 221.557 467.007L195.875 525.142C195.794 525.329 195.662 525.488 195.492 525.601C195.323 525.714 195.125 525.775 194.922 525.778C194.749 525.787 194.577 525.752 194.42 525.677H194.487ZM190.04 517.652L128.527 508.857C128.378 508.854 128.232 508.82 128.098 508.756C127.964 508.692 127.844 508.601 127.748 508.488C127.651 508.375 127.58 508.243 127.538 508.101C127.496 507.958 127.485 507.808 127.505 507.661C127.525 507.514 127.576 507.372 127.655 507.246C127.734 507.12 127.838 507.012 127.961 506.93C128.085 506.847 128.224 506.791 128.371 506.766C128.517 506.741 128.667 506.747 128.811 506.784L190.324 515.579C190.599 515.596 190.856 515.723 191.037 515.93C191.219 516.136 191.312 516.407 191.294 516.682C191.276 516.957 191.15 517.214 190.943 517.396C190.736 517.577 190.465 517.67 190.19 517.652H190.04ZM207.579 556.894C207.361 556.722 207.219 556.471 207.184 556.196C207.15 555.92 207.226 555.642 207.395 555.422L240.735 512.586C240.819 512.476 240.925 512.384 241.045 512.315C241.165 512.246 241.297 512.201 241.435 512.183C241.572 512.165 241.712 512.175 241.846 512.211C241.979 512.247 242.105 512.309 242.215 512.393C242.324 512.478 242.416 512.583 242.485 512.703C242.555 512.823 242.599 512.956 242.617 513.093C242.635 513.231 242.626 513.37 242.59 513.504C242.553 513.638 242.491 513.763 242.407 513.873L209 556.777C208.903 556.902 208.779 557.003 208.637 557.072C208.495 557.142 208.339 557.178 208.181 557.178C207.931 557.166 207.694 557.065 207.512 556.894H207.579ZM155.48 545.307C155.47 545.03 155.571 544.761 155.758 544.558C155.946 544.354 156.206 544.233 156.483 544.22L202.312 541.896C202.57 541.914 202.812 542.025 202.992 542.21C203.173 542.394 203.28 542.638 203.292 542.896C203.305 543.154 203.222 543.408 203.06 543.608C202.897 543.809 202.667 543.944 202.413 543.986L156.499 546.31C156.223 546.319 155.954 546.219 155.75 546.031C155.547 545.843 155.426 545.583 155.413 545.307H155.48ZM177.099 579.315C177.082 579.178 177.094 579.038 177.132 578.905C177.171 578.772 177.236 578.648 177.323 578.541C177.41 578.433 177.518 578.344 177.641 578.279C177.763 578.214 177.897 578.174 178.035 578.162L213.147 574.701C213.283 574.687 213.421 574.7 213.552 574.74C213.683 574.779 213.805 574.845 213.91 574.932C214.016 575.019 214.104 575.126 214.168 575.247C214.232 575.368 214.271 575.5 214.284 575.637C214.307 575.911 214.222 576.184 214.047 576.396C213.872 576.609 213.621 576.744 213.347 576.774L178.235 580.252H178.135C177.865 580.27 177.599 580.183 177.393 580.008C177.187 579.833 177.057 579.584 177.032 579.315H177.099ZM221.156 597.44C220.924 597.286 220.762 597.047 220.705 596.774C220.649 596.502 220.703 596.218 220.855 595.985L238.21 569.751C238.369 569.525 238.609 569.37 238.88 569.317C239.151 569.264 239.432 569.318 239.665 569.467C239.897 569.621 240.059 569.86 240.115 570.132C240.172 570.405 240.118 570.689 239.966 570.922L222.61 597.155C222.511 597.299 222.379 597.416 222.224 597.498C222.07 597.579 221.899 597.622 221.724 597.624C221.498 597.636 221.274 597.571 221.089 597.44H221.156ZM181.329 606.218C181.333 605.943 181.443 605.679 181.636 605.483C181.829 605.287 182.09 605.173 182.365 605.164L223.647 604.78C223.922 604.78 224.186 604.889 224.38 605.083C224.574 605.278 224.684 605.541 224.684 605.816C224.688 605.955 224.665 606.092 224.614 606.221C224.564 606.35 224.488 606.467 224.391 606.565C224.294 606.664 224.178 606.742 224.05 606.794C223.922 606.846 223.785 606.872 223.647 606.87L182.365 607.254C182.224 607.261 182.083 607.239 181.951 607.191C181.818 607.142 181.697 607.067 181.594 606.97C181.491 606.873 181.408 606.757 181.351 606.628C181.294 606.498 181.264 606.359 181.262 606.218H181.329ZM236.722 667.948C236.638 667.764 229.599 648.369 208.432 643.737C208.159 643.677 207.921 643.512 207.771 643.276C207.621 643.041 207.57 642.756 207.629 642.483C207.697 642.216 207.865 641.985 208.098 641.839C208.332 641.692 208.613 641.642 208.883 641.698C231.204 646.58 238.611 667.062 238.695 667.262C238.781 667.526 238.761 667.814 238.64 668.063C238.518 668.313 238.304 668.505 238.043 668.6H237.709C237.486 668.619 237.264 668.566 237.074 668.449C236.884 668.331 236.737 668.156 236.655 667.948H236.722Z" fill="black"/>
<path d="M204.72 653.803H252.054V663.601H247.924L239.38 717.054H217.394L208.85 663.601H204.72V653.803Z" fill="#8ECAE6"/>
<path opacity="0.3" d="M204.72 653.803H252.054V663.601H247.924L239.38 717.054H217.394L208.85 663.601H204.72V653.803Z" fill="white"/>
<path d="M630.879 357.524L685.938 339.55L690.837 326.609L702.023 326.258L722.321 322.412L719.88 326.609L694.332 345.151L688.028 348.295L630.444 378.374L630.879 357.524Z" fill="white" stroke="#1C282E" stroke-width="1.00396" stroke-miterlimit="10"/>
<path d="M690.837 326.608L696.087 323.465L706.57 327.31L704.831 329.4L690.837 326.608Z" fill="white" stroke="#1C282E" stroke-width="1.00396" stroke-linejoin="round"/>
<path d="M630.879 357.524L685.938 339.55L690.837 326.609L702.023 326.258L722.321 322.412L719.88 326.609L694.332 345.151L688.028 348.295L630.444 378.374L630.879 357.524Z" fill="white"/>
<path opacity="0.5" d="M630.879 357.524L685.938 339.55L690.837 326.609L702.023 326.258L722.321 322.412L719.88 326.609L694.332 345.151L688.028 348.295L630.444 378.374L630.879 357.524Z" fill="#8ECAE6" stroke="#1C282E" stroke-width="1.00396" stroke-miterlimit="10"/>
<path d="M630.879 357.524L685.938 339.55L690.837 326.609L702.023 326.258L722.321 322.412L719.88 326.609L694.332 345.151L688.028 348.295L630.444 378.374L630.879 357.524Z" stroke="#1C282E" stroke-width="1.00396" stroke-miterlimit="10"/>
<path d="M690.837 326.608L696.087 323.465L706.57 327.31L704.831 329.4L690.837 326.608Z" fill="white"/>
<path opacity="0.5" d="M690.837 326.608L696.087 323.465L706.57 327.31L704.831 329.4L690.837 326.608Z" fill="#8ECAE6" stroke="#1C282E" stroke-width="1.00396" stroke-linejoin="round"/>
<path d="M690.837 326.608L696.087 323.465L706.57 327.31L704.831 329.4L690.837 326.608Z" stroke="#1C282E" stroke-width="1.00396" stroke-linejoin="round"/>
<path d="M619.192 240.868C619.192 240.868 620.044 248.392 617.921 253.224C615.798 258.056 604.01 274.425 604.01 274.425L626.013 292.064C626.013 292.064 635.143 273.672 636.881 270.696C638.62 267.72 640.71 254.912 635.042 245.733C629.374 236.554 621.215 234.079 619.192 240.868Z" fill="white"/>
<g style="mix-blend-mode:multiply" opacity="0.5">
<path d="M630.494 265.045L620.947 284.841L626.03 292.081L635.627 274.943L630.494 265.045Z" fill="#8ECAE6"/>
</g>
<path d="M619.192 240.868C619.192 240.868 620.044 248.392 617.921 253.224C615.798 258.056 604.01 274.425 604.01 274.425L626.013 292.064C626.013 292.064 635.143 273.672 636.881 270.696C638.62 267.72 640.71 254.912 635.042 245.733C629.374 236.554 621.215 234.079 619.192 240.868Z" stroke="#1C282E" stroke-width="1.00396" stroke-miterlimit="10"/>
<path d="M612.37 227.092C613.724 218.732 623.305 201.727 638.504 202.38C648.368 202.814 652.983 204.804 657.263 207.228C660.752 209.284 664.005 211.717 666.961 214.485C674.385 223.397 676.993 225.838 675.555 232.659C675.673 235.38 675.247 238.098 674.301 240.652C672.027 246.721 670.472 250.684 668.499 253.576C669.101 256.402 670.673 263.859 670.756 265.564C670.84 267.27 665.74 266.083 663.166 265.431C658.384 276.131 649.622 283.555 646.897 284.408C642.148 285.896 634.641 278.088 630.662 272.035C626.682 265.982 629.692 259.177 629.675 256.469C629.659 253.76 620.73 247.808 617.42 245.918C614.109 244.029 611.033 235.435 612.37 227.092Z" fill="white"/>
<g style="mix-blend-mode:multiply" opacity="0.5">
<path d="M675.488 232.66C675.606 235.381 675.18 238.098 674.234 240.652C671.96 246.721 670.405 250.684 668.432 253.577C669.034 256.402 670.606 263.859 670.69 265.565C670.773 267.27 665.674 266.083 663.099 265.431C658.317 276.132 649.556 283.555 646.83 284.408C642.082 285.896 634.574 278.088 630.595 272.035C629.601 270.524 628.955 268.811 628.706 267.019C628.923 266.234 629.074 265.749 629.074 265.749C629.074 265.749 631.314 274.359 635.762 273.239C640.209 272.119 647.014 263.207 650.81 260.131C654.605 257.054 653.05 253.008 653.802 248.427C654.555 243.845 665.791 239.816 666.543 237.191C667.295 234.566 664.67 223.698 664.67 223.698C664.67 223.698 660.407 218.013 661.326 220.354C661.976 222.384 662.212 224.523 662.02 226.646C661.827 228.768 661.211 230.83 660.206 232.71C659.501 234.193 658.383 235.441 656.986 236.304C655.589 237.167 653.973 237.609 652.331 237.575L648.251 217.361L656.862 210.238L666.894 214.418C674.385 223.397 676.943 225.838 675.488 232.66Z" fill="#8ECAE6"/>
</g>
<path d="M612.37 227.092C613.724 218.732 623.305 201.727 638.504 202.38C648.368 202.814 652.983 204.804 657.263 207.228C660.752 209.284 664.005 211.717 666.961 214.485C674.385 223.397 676.993 225.838 675.555 232.659C675.673 235.38 675.247 238.098 674.301 240.652C672.027 246.721 670.472 250.684 668.499 253.576C669.101 256.402 670.673 263.859 670.756 265.564C670.84 267.27 665.74 266.083 663.166 265.431C658.384 276.131 649.622 283.555 646.897 284.408C642.148 285.896 634.641 278.088 630.662 272.035C626.682 265.982 629.692 259.177 629.675 256.469C629.659 253.76 620.73 247.808 617.42 245.918C614.109 244.029 611.033 235.435 612.37 227.092Z" stroke="#1C282E" stroke-miterlimit="10"/>
<path d="M666.426 248.525L664.754 253.307C664.754 253.307 661.159 254.494 656.778 249.713" stroke="#1C282E" stroke-miterlimit="10" stroke-linecap="round"/>
<path d="M654.07 270.865C654.07 270.865 650.09 270.463 648.485 264.879" stroke="#1C282E" stroke-miterlimit="10" stroke-linecap="round"/>
<path d="M669.218 244.53C669.218 244.53 668.031 240.936 660.858 240.936" stroke="#1C282E" stroke-miterlimit="10" stroke-linecap="round"/>
<path d="M632.451 195.725C637.663 194.975 642.919 194.573 648.184 194.521C648.184 194.521 663.935 185.442 679.066 195.123C694.198 204.803 686.925 221.758 686.925 225.988C686.925 230.218 691.773 230.235 688.747 235.685C685.721 241.136 675.488 238.126 675.488 238.126C675.38 236.071 674.837 234.061 673.894 232.231C672.952 230.401 671.631 228.791 670.021 227.509C664.57 223.279 660.223 222.36 658.417 223.58C658.417 223.58 659.621 232.659 657.815 236.287C657.815 236.287 651.762 239.314 649.94 239.314C648.118 239.314 651.127 241.872 645.091 244.146C643.992 244.541 642.815 244.675 641.655 244.539C640.494 244.402 639.381 243.999 638.403 243.36C637.517 239.681 635.578 234.147 631.966 235.435C626.666 237.324 621.834 250.365 629.007 254.813C620.379 256.385 609.929 241.119 609.31 227.208C608.692 213.297 623.489 197.296 632.451 195.725Z" fill="#1C282E"/>
<path d="M658.149 217.611C658.149 217.611 653.702 215.22 648.251 220.336C642.8 225.452 632.2 232.291 618.155 228.529" stroke="white" stroke-width="0.5" stroke-linecap="round" stroke-linejoin="round"/>
<path d="M658.768 213.514C658.768 213.514 655.708 208.732 650.592 208.732C645.476 208.732 633.521 215.905 623.974 215.905" stroke="white" stroke-width="0.5" stroke-linecap="round" stroke-linejoin="round"/>
<path d="M662.246 222.727C662.246 222.727 668.048 215.571 673.498 221.372C678.949 227.174 675.488 232.658 675.488 232.658" stroke="white" stroke-width="0.5" stroke-linecap="round" stroke-linejoin="round"/>
<path d="M685.437 227.509C682.112 224.511 680.045 220.365 679.651 215.906C678.966 208.398 668.717 201.911 662.246 208.064" stroke="white" stroke-width="0.5" stroke-linecap="round" stroke-linejoin="round"/>
<path d="M674.87 200.206C674.87 200.206 664.62 190.308 656.093 202.932" stroke="white" stroke-width="0.5" stroke-linecap="round" stroke-linejoin="round"/>
<path d="M591.454 686.875C591.454 686.875 585.15 696.673 585.852 702.976L586.538 709.28C586.538 709.28 609.662 715.617 614.561 715.617C619.46 715.617 645.392 713.159 645.392 713.159L646.513 708.711C646.591 708.383 646.554 708.037 646.408 707.733C646.262 707.429 646.015 707.184 645.71 707.039L622.586 696.255L615.296 688.279L591.454 686.875Z" fill="white" stroke="#1C282E" stroke-width="1.00396" stroke-miterlimit="10"/>
<path d="M611.049 710.684C604.779 711.168 592.875 707.34 585.969 704.898L586.454 709.279C586.454 709.279 609.662 715.616 614.561 715.616C619.46 715.616 645.392 713.158 645.392 713.158L646.195 709.981C642.048 709.998 619.343 710.048 611.049 710.684Z" fill="#8ECAE6" stroke="#1C282E" stroke-width="1.00396" stroke-miterlimit="10"/>
<path d="M622.553 696.255L656.21 710.902C656.21 710.902 659.086 718.108 656.21 719.546C653.334 720.984 590.634 719.546 590.634 719.546C590.634 719.546 586.304 708.16 593.142 700.519C599.981 692.878 622.553 696.255 622.553 696.255Z" fill="white" stroke="#1C282E" stroke-width="1.00396" stroke-miterlimit="10"/>
<path d="M590.634 719.545C590.634 719.545 653.334 720.983 656.21 719.545C657.598 718.842 657.648 716.819 657.33 714.896H589.531C589.752 716.477 590.122 718.033 590.634 719.545Z" fill="#8ECAE6" stroke="#1C282E" stroke-width="1.00396" stroke-miterlimit="10"/>
<path d="M638.47 441.759C638.47 441.759 647.265 480.733 650.592 505.111C653.919 529.488 655.875 578.327 655.173 583.929C654.471 589.53 619.459 683.379 619.459 683.379L615.965 691.739L591.453 686.84C591.453 686.84 602.656 651.126 606.852 631.514C611.049 611.901 620.228 579.682 620.228 574.081C620.228 568.479 598.492 461.505 596.937 454.482C595.382 447.46 588.327 436.676 588.327 436.676L635.26 435.723L638.47 441.759Z" fill="#8ECAE6" stroke="#1C282E" stroke-width="1.00396" stroke-miterlimit="10"/>
<path d="M638.47 441.759C638.47 441.759 643.62 477.356 641.496 502.102C639.373 526.847 634.808 579.532 634.808 587.374C634.808 595.215 622.151 642.048 621.432 656.762C620.312 678.013 621.884 688.53 621.884 688.53L622.636 696.237C622.636 696.237 607.872 698.344 604.645 699.264C600.918 700.224 597.072 700.641 593.226 700.501C593.226 700.501 587.859 676.876 587.859 656.745C587.859 636.614 592.323 595.182 594.547 578.395C596.77 561.608 589.765 496.851 585.785 484.763C581.806 472.674 573.112 447.076 578.964 434.001C584.816 420.926 638.47 441.759 638.47 441.759Z" fill="#8ECAE6" stroke="#1C282E" stroke-width="1.00396" stroke-miterlimit="10"/>
<path d="M572.459 427.447L572.994 443.365C572.994 443.365 582.525 445.254 595.366 447.478C605.966 449.317 632.584 446.993 641.546 446.124C642.363 446.051 643.118 445.659 643.647 445.033C644.177 444.407 644.437 443.597 644.372 442.78L643.503 428.4L572.459 427.447Z" fill="#1C282E"/>
<path d="M609.712 268.773C609.712 268.773 624.76 285.042 630.428 295.158C636.096 305.273 638.336 320.773 640.46 332.978C642.583 345.184 636.832 373.842 638.453 387.001L643.586 428.449C643.586 428.449 644.69 431.258 640.995 434.335C637.3 437.411 619.259 438.532 602.957 439.351C597.004 439.652 579.231 435.823 576.322 435.639C572.811 435.422 572.694 430.957 572.543 427.446C571.841 410.944 568.865 366.953 566.909 347.792C562.879 308.718 584.933 270.997 609.712 268.773Z" fill="white" stroke="#1C282E" stroke-width="1.00396" stroke-miterlimit="10"/>
<g style="mix-blend-mode:multiply">
<path d="M568.747 370.015C568.079 361.337 567.41 353.462 566.825 347.794C566.657 346.122 566.557 344.45 566.474 342.778L606.451 349.466L640.794 337.762C640.79 344.868 640.388 351.968 639.59 359.03L605.899 368.46L568.747 370.015Z" fill="#8ECAE6"/>
</g>
<g style="mix-blend-mode:multiply">
<path d="M611.2 270.412C613.474 272.937 617.988 278.07 622.285 283.521L596.904 309.32L588.544 305.976L611.2 270.412Z" fill="#8ECAE6"/>
</g>
<path d="M609.712 268.773C609.712 268.773 624.76 285.042 630.428 295.158C632.108 298.232 633.47 301.47 634.491 304.822L604.228 269.86C606.015 269.319 607.852 268.955 609.712 268.773Z" fill="#1C282E"/>
<g style="mix-blend-mode:multiply">
<path d="M639.289 326.391L606.451 337.193L566.574 332.611C567.199 322.677 569.406 312.907 573.111 303.669L605.264 316.56L634.006 303.535C636.356 311.006 638.122 318.647 639.289 326.391Z" fill="#8ECAE6"/>
</g>
<g style="mix-blend-mode:multiply">
<path d="M582.759 410.944C599.414 413.74 616.504 412.344 632.484 406.881L640.493 404.139L642.984 424.203L633.855 426.761C616.5 431.613 598.362 433.011 580.468 430.874L573.095 429.988C572.711 429.175 572.495 428.294 572.459 427.396C572.259 422.932 571.908 416.445 571.456 409.004L582.759 410.944Z" fill="#8ECAE6"/>
</g>
<g style="mix-blend-mode:multiply">
<path d="M578.295 383.623C594.951 386.43 612.044 385.028 628.02 379.543L638.219 376.049C637.966 379.692 638.016 383.349 638.37 386.984L639.557 396.631L629.391 399.474C612.043 404.331 593.91 405.734 576.021 403.603L571.005 403.001C570.587 396.313 570.102 389.191 569.583 382.152L578.295 383.623Z" fill="#8ECAE6"/>
</g>
<path d="M735.16 312.919L702.831 338.912L701.438 337.179L733.766 311.186L735.16 312.919Z" fill="#1C282E"/>
<path d="M594.145 286.814C594.145 286.814 582.291 294.89 582.023 313.968C581.906 322.328 582.776 330.136 584.698 343.83C586.621 357.523 598.559 402.116 607.856 407.533C617.152 412.95 631.581 402.717 631.581 402.717L701.371 356.386L718.241 342.76L726.601 326.976L723.976 321.96L703.394 337.744L714.479 327.494L712.305 324.735L708.293 327.528L696.589 331.908L694.031 348.628L690.419 351.103L623.656 375.497C623.656 375.497 624.492 339.566 623.873 332.694C623.255 325.822 622.402 308.55 615.045 296.027" fill="white"/>
<g style="mix-blend-mode:multiply" opacity="0.5">
<path d="M624.124 348.345C624.124 360.751 623.706 375.498 623.706 375.498L690.402 351.204L694.014 348.73L696.572 332.01L708.276 327.629L712.272 324.787L714.446 327.545L703.394 337.745L723.976 321.961L726.467 326.893L718.107 342.677L701.237 356.387L696.99 359.213L604.779 388.925L624.124 348.345Z" fill="#8ECAE6"/>
</g>
<path d="M594.145 286.814C594.145 286.814 582.291 294.89 582.023 313.968C581.906 322.328 582.776 330.136 584.698 343.83C586.621 357.523 598.559 402.116 607.856 407.533C617.152 412.95 631.581 402.718 631.581 402.718L701.371 356.386L718.241 342.76L726.601 326.976L723.976 321.96L703.394 337.744L714.479 327.494L712.305 324.735L708.293 327.528L696.589 331.908L694.031 348.628L690.419 351.103L623.656 375.497C623.656 375.497 624.492 339.566 623.873 332.694C623.255 325.822 622.402 308.55 615.045 296.027" stroke="#1C282E" stroke-width="1.00396" stroke-miterlimit="10"/>
<path d="M623.656 375.498L598.175 393.89L591.57 382.186C591.57 382.186 587.006 378.591 586.337 375.883C585.668 373.174 586.521 368.777 585.835 366.068C585.15 363.359 581.739 360.818 581.421 354.264C581.103 347.709 581.421 342.242 581.421 342.242C581.421 342.242 575.904 319.553 576.505 309.688C577.107 299.823 586.621 282.384 594.245 282C601.87 281.615 611.785 282.769 619.476 294.406C627.167 306.043 625.595 340.018 626.799 342.142C628.003 344.265 626.331 354.748 626.331 354.748C626.999 355.247 627.554 355.882 627.957 356.611C628.361 357.341 628.604 358.148 628.672 358.979C628.806 361.704 625.863 368.409 625.863 368.409L623.656 375.498Z" fill="white" stroke="#1C282E" stroke-width="1.00396" stroke-miterlimit="10"/>
<g style="mix-blend-mode:multiply">
<path d="M626.13 333.414C626.078 336.332 626.296 339.248 626.783 342.125C627.853 344.031 626.632 352.642 626.365 354.398C612.033 358.849 596.878 359.992 582.04 357.742C581.721 356.579 581.53 355.385 581.471 354.18C581.137 347.643 581.471 342.159 581.471 342.159C581.471 342.159 580.986 340.135 580.318 337.059C595.684 338.036 611.112 336.808 626.13 333.414Z" fill="#8ECAE6"/>
</g>
<g style="mix-blend-mode:multiply">
<path d="M620.513 296.262C622.904 301.06 624.241 308.267 625.01 315.573C609.832 321.366 593.466 323.358 577.342 321.375C576.698 317.508 576.413 313.59 576.489 309.671C576.778 306.573 577.51 303.533 578.662 300.642C592.742 300.971 606.806 299.499 620.513 296.262Z" fill="#8ECAE6"/>
</g>
<path d="M625.863 368.592L623.706 375.497L598.225 393.889L591.621 382.185C591.621 382.185 587.056 378.59 586.387 375.882C586.268 375.411 586.195 374.929 586.17 374.444C599.598 374.212 612.94 372.245 625.863 368.592Z" fill="#1C282E"/>
<path d="M607.421 699.047C607.421 699.047 606.853 684.567 604.077 663.4C601.302 642.232 607.973 612.17 609.093 607.154C610.213 602.138 608.525 591.002 609.645 587.09C610.765 583.177 616.182 566.491 612.989 547.129C609.795 527.767 607.204 476.587 607.204 476.587C607.204 476.587 615.246 470.05 617.604 461.539C619.961 453.029 618.155 450.354 618.155 450.354" stroke="#1C282E" stroke-width="1.00396" stroke-miterlimit="10"/>
<path d="M603.692 451.139L606.786 468.26" stroke="#1C282E" stroke-width="1.00396" stroke-miterlimit="10"/>
</svg>
