<svg width="170" height="170" viewBox="0 0 170 170" fill="none" xmlns="http://www.w3.org/2000/svg">
<path d="M84.9997 169.167C38.5144 169.167 0.833008 131.485 0.833008 85.0002C0.833008 38.5149 38.5144 0.833496 84.9997 0.833496C131.485 0.833496 169.166 38.5149 169.166 85.0002C169.116 131.46 131.46 169.116 84.9997 169.167ZM17.6663 86.4478C17.8576 104.242 25.0852 121.237 37.7693 133.718C50.4535 146.199 67.5628 153.152 85.3577 153.056C103.153 152.961 120.186 145.825 132.735 133.208C145.285 120.591 152.329 103.519 152.329 85.724C152.329 67.9288 145.285 50.8572 132.735 38.2403C120.186 25.6234 103.153 18.4873 85.3577 18.3916C67.5628 18.296 50.4535 25.2486 37.7693 37.7298C25.0852 50.2111 17.8576 67.206 17.6663 85.0002V86.4478ZM68.1663 122.875V47.1252L118.666 85.0002L68.1663 122.875Z" fill="#F2F2F2"/>
</svg>
