<svg width="98" height="98" viewBox="0 0 98 98" fill="none" xmlns="http://www.w3.org/2000/svg">
<g clip-path="url(#clip0_763_5800)">
<path d="M75.6887 31.8661L74.1895 25.9706L72.0811 17.6815L71.9615 17.2136V17.2124L71.128 13.9347C70.9908 13.3981 70.6464 12.9378 70.1703 12.6548C69.6942 12.3718 69.1253 12.2892 68.5884 12.4252L63.0492 13.8335L28.4396 22.6366C27.903 22.7737 27.4427 23.1181 27.1597 23.5942C26.8767 24.0703 26.7941 24.6393 26.9301 25.1762L28.1246 29.8737L31.1597 41.8061L32.3014 46.2956L32.36 46.5255H32.6129L32.5542 46.2956L31.4632 42.0027V42.0016L28.297 29.5553L27.168 25.1164C27.0481 24.6424 27.121 24.1403 27.3708 23.72C27.6206 23.2997 28.0269 22.9957 28.5005 22.8745L63.0377 14.0899L68.6482 12.6632C69.1221 12.5432 69.6243 12.6162 70.0446 12.8659C70.4648 13.1157 70.7689 13.522 70.89 13.9956L71.7752 17.4745L71.8948 17.9471L73.9435 26.0028L75.4346 31.8661L75.4967 32.1121H75.752L75.6887 31.8661Z" fill="#CCCCCC"/>
<path d="M38.4417 40.0542C41.7153 40.0542 44.3691 37.4004 44.3691 34.1267C44.3691 30.8531 41.7153 28.1993 38.4417 28.1993C35.1681 28.1993 32.5143 30.8531 32.5143 34.1267C32.5143 37.4004 35.1681 40.0542 38.4417 40.0542Z" fill="#F2F2F2"/>
<path d="M51.888 31.8673L52.172 32.1133H47.6583C47.1694 32.1138 46.7007 32.3083 46.355 32.654C46.0093 32.9997 45.8148 33.4684 45.8143 33.9574V48.0247L45.7488 51.3553L42.8642 48.7755L42.5941 48.8444L40.4557 46.9578C40.1409 46.6797 39.7352 46.5264 39.3152 46.5267H33.6887L33.7749 46.2968L34.8993 43.2927L41.2742 26.2488L41.9296 24.4979C41.9699 24.3902 42.0356 24.294 42.1211 24.2172C42.2067 24.1405 42.3096 24.0856 42.4209 24.0573C42.5323 24.0289 42.6489 24.028 42.7607 24.0544C42.8725 24.0809 42.9763 24.134 43.0631 24.2093L47.3526 27.9308L49.8772 30.1221L51.888 31.8673Z" fill="#E6E6E6"/>
<path d="M70.6551 31.8665L70.9402 32.1126H57.1281L57.2212 31.8665L60.1632 24.1005C60.2035 23.9932 60.2692 23.8973 60.3546 23.8209C60.44 23.7444 60.5426 23.6897 60.6536 23.6614C60.7647 23.633 60.8809 23.6319 60.9925 23.6582C61.1041 23.6844 61.2077 23.7371 61.2945 23.8119L67.1428 28.8452L67.4797 29.1338L70.6551 31.8665Z" fill="#E6E6E6"/>
<path d="M76.0094 34.2798C75.4706 34.2794 74.9392 34.4041 74.4568 34.6439C73.9744 34.8838 73.5543 35.2324 73.2295 35.6621C72.8808 35.5121 72.5004 35.451 72.1223 35.4843C71.7442 35.5176 71.3803 35.6443 71.0632 35.853C70.7462 36.0616 70.4859 36.3458 70.3058 36.6798C70.1257 37.0139 70.0313 37.3875 70.0312 37.7671H79.4966C79.4966 37.3091 79.4064 36.8557 79.2312 36.4326C79.0559 36.0095 78.799 35.6251 78.4752 35.3012C78.1514 34.9774 77.767 34.7205 77.3439 34.5453C76.9208 34.37 76.4673 34.2798 76.0094 34.2798Z" fill="#E6E6E6"/>
<path d="M89.0844 31.8663H47.6583C47.1922 31.8671 46.7397 32.0233 46.3724 32.3103C46.005 32.5972 45.7439 32.9985 45.6303 33.4505V33.4517C45.5891 33.6167 45.5683 33.7862 45.5682 33.9564V51.4658L45.7027 51.5843L45.8142 51.6831V33.9564C45.8148 33.4675 46.0092 32.9987 46.3549 32.653C46.7006 32.3073 47.1694 32.1128 47.6583 32.1123H89.0844C89.5733 32.1126 90.0422 32.307 90.3879 32.6528C90.7337 32.9985 90.9281 33.4674 90.9284 33.9564V55.2632H91.0457C91.0887 55.2628 91.1317 55.2647 91.1745 55.2689V33.9564C91.1737 33.4023 90.9532 32.8711 90.5614 32.4793C90.1696 32.0875 89.6384 31.8671 89.0844 31.8663Z" fill="#3F3D56"/>
<path d="M55.2735 47.9295C58.375 47.9295 60.8892 45.4153 60.8892 42.3138C60.8892 39.2123 58.375 36.698 55.2735 36.698C52.172 36.698 49.6577 39.2123 49.6577 42.3138C49.6577 45.4153 52.172 47.9295 55.2735 47.9295Z" fill="#219EBC"/>
<path d="M89.1305 55.2643H50.6131C50.1372 55.2629 49.6778 55.0893 49.3198 54.7757L48.4552 54.0135L48.5874 53.8226L48.8265 53.4777L59.208 38.5309L60.2738 36.996C60.3394 36.9016 60.4269 36.8244 60.5288 36.7711C60.6307 36.7178 60.744 36.6899 60.859 36.6899C60.974 36.6899 61.0873 36.7178 61.1892 36.7711C61.2911 36.8244 61.3786 36.9016 61.4442 36.996L64.684 41.6603V41.6614L66.5901 44.4057L71.1405 50.9565L78.042 41.105C78.1076 41.011 78.195 40.9342 78.2967 40.8812C78.3984 40.8283 78.5113 40.8006 78.626 40.8006C78.7406 40.8006 78.8536 40.8283 78.9553 40.8812C79.0569 40.9342 79.1443 41.011 79.21 41.105L83.6374 47.4235L83.8915 47.7868L88.9696 55.0344L89.1305 55.2643Z" fill="#3F3D56"/>
<path d="M68.556 40.1025C67.8914 40.102 67.2357 40.2558 66.6405 40.5517C66.0454 40.8476 65.527 41.2777 65.1263 41.8079C64.6961 41.6228 64.2267 41.5474 63.7603 41.5885C63.2938 41.6296 62.8448 41.7859 62.4537 42.0433C62.0625 42.3008 61.7414 42.6513 61.5192 43.0635C61.2969 43.4757 61.1805 43.9366 61.1804 44.4049H72.8585C72.8585 43.8399 72.7472 43.2804 72.531 42.7584C72.3147 42.2364 71.9978 41.7622 71.5983 41.3626C71.1988 40.9631 70.7245 40.6462 70.2025 40.43C69.6805 40.2138 69.121 40.1025 68.556 40.1025Z" fill="#CCCCCC"/>
<path d="M48.4473 53.6974L47.0171 52.4373L47.0136 52.435L47.009 52.4316L47.0056 52.4281C46.9607 52.3959 46.9159 52.3626 46.8722 52.3281C46.8607 52.3201 46.8504 52.312 46.8401 52.304C46.8343 52.2994 46.8297 52.2959 46.8239 52.2913C46.8216 52.2902 46.8205 52.2879 46.8182 52.2867C46.786 52.2614 46.7526 52.235 46.7205 52.2085C46.7044 52.197 46.6894 52.1844 46.6733 52.1717C46.6297 52.1361 46.586 52.0993 46.5422 52.0625C46.4963 52.0234 46.4503 51.9843 46.4043 51.9441C46.4031 51.943 46.4008 51.9418 46.3997 51.9407C46.3905 51.9326 46.3824 51.9246 46.3733 51.9177C46.3295 51.8786 46.2859 51.8395 46.2422 51.7981C46.2054 51.7648 46.1686 51.7303 46.133 51.6969C46.0996 51.6659 46.0663 51.6348 46.0341 51.6015L46.0272 51.5946C46.0031 51.5716 45.9789 51.5475 45.9537 51.5222C45.9295 51.4992 45.9065 51.475 45.8835 51.4509C45.8593 51.4279 45.8363 51.4038 45.8145 51.3796L45.7961 51.3612L45.7904 51.3555L45.5685 51.1589V51.4658L45.703 51.5843L45.8145 51.6831L48.1771 53.7663L48.399 53.9629L48.4553 54.0124L48.5082 53.9353L48.5875 53.8215L48.4473 53.6974ZM82.7833 55.0333C82.7868 55.1091 82.7925 55.1862 82.7982 55.2632H90.9287V55.0333H82.7833ZM48.4473 53.6974L47.0171 52.4373L47.0136 52.435L47.009 52.4316L47.0056 52.4281C46.9607 52.3959 46.9159 52.3626 46.8722 52.3281C46.8607 52.3201 46.8504 52.312 46.8401 52.304C46.8343 52.2994 46.8297 52.2959 46.8239 52.2913C46.8216 52.2902 46.8205 52.2879 46.8182 52.2867C46.786 52.2614 46.7526 52.235 46.7205 52.2085C46.7044 52.197 46.6894 52.1844 46.6733 52.1717C46.6297 52.1361 46.586 52.0993 46.5422 52.0625C46.4963 52.0234 46.4503 51.9843 46.4043 51.9441C46.4031 51.943 46.4008 51.9418 46.3997 51.9407C46.3905 51.9326 46.3824 51.9246 46.3733 51.9177C46.3295 51.8786 46.2859 51.8395 46.2422 51.7981C46.2054 51.7648 46.1686 51.7303 46.133 51.6969C46.0996 51.6659 46.0663 51.6348 46.0341 51.6015L46.0272 51.5946C46.0031 51.5716 45.9789 51.5475 45.9537 51.5222C45.9295 51.4992 45.9065 51.475 45.8835 51.4509C45.8593 51.4279 45.8363 51.4038 45.8145 51.3796L45.7961 51.3612L45.7904 51.3555L45.5685 51.1589V51.4658L45.703 51.5843L45.8145 51.6831L48.1771 53.7663L48.399 53.9629L48.4553 54.0124L48.5082 53.9353L48.5875 53.8215L48.4473 53.6974ZM88.9697 55.0333H82.7833C82.7868 55.1091 82.7925 55.1862 82.7982 55.2632H89.1306L88.9697 55.0333ZM48.4473 53.6974L47.0171 52.4373L47.0136 52.435L47.009 52.4316L47.0056 52.4281C46.9607 52.3959 46.9159 52.3626 46.8722 52.3281C46.8607 52.3201 46.8504 52.312 46.8401 52.304C46.8343 52.2994 46.8297 52.2959 46.8239 52.2913C46.8216 52.2902 46.8205 52.2879 46.8182 52.2867C46.786 52.2614 46.7526 52.235 46.7205 52.2085C46.7044 52.197 46.6894 52.1844 46.6733 52.1717C46.6297 52.1361 46.586 52.0993 46.5422 52.0625C46.4963 52.0234 46.4503 51.9843 46.4043 51.9441C46.4031 51.943 46.4008 51.9418 46.3997 51.9407C46.3905 51.9326 46.3824 51.9246 46.3733 51.9177C46.3295 51.8786 46.2859 51.8395 46.2422 51.7981C46.2054 51.7648 46.1686 51.7303 46.133 51.6969C46.0996 51.6659 46.0663 51.6348 46.0341 51.6015L46.0272 51.5946C46.0031 51.5716 45.9789 51.5475 45.9537 51.5222C45.9295 51.4992 45.9065 51.475 45.8835 51.4509C45.8593 51.4279 45.8363 51.4038 45.8145 51.3796L45.7961 51.3612L45.7904 51.3555L45.5685 51.1589V51.4658L45.703 51.5843L45.8145 51.6831L48.1771 53.7663L48.399 53.9629L48.4553 54.0124L48.5082 53.9353L48.5875 53.8215L48.4473 53.6974ZM42.8645 48.7745L40.6077 46.7844C40.2509 46.4694 39.7914 46.2956 39.3154 46.2958H32.5542L32.6129 46.5257H39.3154C39.7355 46.5254 40.1411 46.6787 40.4559 46.9568L42.5943 48.8434L45.5685 51.4658V51.1589L42.8645 48.7745ZM91.1748 55.0379C91.1322 55.0344 91.0897 55.0333 91.046 55.0333H50.6132C50.2246 55.0337 49.8473 54.9024 49.5429 54.6608C49.5187 54.6424 49.4957 54.6228 49.4728 54.6021L48.6703 53.8939L48.5875 53.8215L48.4473 53.6974L47.0171 52.4373L47.0136 52.435L47.009 52.4316L47.0056 52.4281L46.0502 51.5843L45.8145 51.3762L45.7961 51.3612L45.7904 51.3555L45.5685 51.1589L42.8645 48.7745L40.6077 46.7844C40.2509 46.4694 39.7914 46.2956 39.3154 46.2958H29.4237C28.9056 46.2965 28.4089 46.5027 28.0425 46.869C27.6761 47.2354 27.47 47.7321 27.4692 48.2502V84.8097C27.47 85.3279 27.6761 85.8245 28.0425 86.1909C28.4089 86.5573 28.9056 86.7634 29.4237 86.7642H91.046C91.5641 86.7634 92.0608 86.5573 92.4272 86.1909C92.7935 85.8245 92.9997 85.3279 93.0004 84.8097V56.9877C92.9996 56.4919 92.8107 56.0149 92.4718 55.653C92.1329 55.2911 91.6694 55.0713 91.1747 55.0379L91.1748 55.0379ZM92.7705 84.8097C92.7699 85.2669 92.5881 85.7052 92.2648 86.0285C91.9415 86.3518 91.5032 86.5337 91.046 86.5342H29.4237C28.9665 86.5337 28.5282 86.3518 28.2049 86.0285C27.8816 85.7052 27.6997 85.2669 27.6992 84.8097V48.2502C27.6997 47.793 27.8816 47.3547 28.2049 47.0314C28.5282 46.7081 28.9665 46.5263 29.4237 46.5257H39.3154C39.7355 46.5254 40.1411 46.6787 40.4559 46.9568L42.5943 48.8434L45.5685 51.4658L45.703 51.5843L45.8145 51.6831L48.1771 53.7663L48.3989 53.9629L48.4553 54.0124L49.3199 54.7746C49.6779 55.0883 50.1373 55.2618 50.6132 55.2632H91.046C91.089 55.2628 91.132 55.2647 91.1747 55.269C91.6083 55.3017 92.0136 55.497 92.3094 55.8156C92.6053 56.1343 92.7699 56.5529 92.7705 56.9877L92.7705 84.8097ZM48.4473 53.6974L47.0171 52.4373L47.0136 52.435L47.009 52.4316L47.0056 52.4281C46.9607 52.3959 46.9159 52.3626 46.8722 52.3281C46.8607 52.3201 46.8504 52.312 46.8401 52.304C46.8343 52.2994 46.8297 52.2959 46.8239 52.2913C46.8216 52.2902 46.8205 52.2879 46.8182 52.2867C46.786 52.2614 46.7526 52.235 46.7205 52.2085C46.7044 52.197 46.6894 52.1844 46.6733 52.1717C46.6297 52.1361 46.586 52.0993 46.5422 52.0625C46.4963 52.0234 46.4503 51.9843 46.4043 51.9441C46.4031 51.943 46.4008 51.9418 46.3997 51.9407C46.3905 51.9326 46.3824 51.9246 46.3733 51.9177C46.3296 51.8786 46.2859 51.8395 46.2422 51.7981C46.2054 51.7648 46.1686 51.7303 46.133 51.6969C46.0996 51.6659 46.0663 51.6348 46.0341 51.6015L46.0272 51.5946C46.0031 51.5716 45.9789 51.5475 45.9537 51.5222C45.9295 51.4992 45.9065 51.475 45.8835 51.4509C45.8594 51.4279 45.8363 51.4038 45.8145 51.3796L45.7962 51.3612L45.7904 51.3555L45.5685 51.1589V51.4658L45.703 51.5843L45.8145 51.6831L48.1771 53.7663L48.399 53.9629L48.4553 54.0124L48.5082 53.9353L48.5875 53.8215L48.4473 53.6974ZM82.7833 55.0333C82.7868 55.1091 82.7925 55.1862 82.7982 55.2632H90.9287V55.0333H82.7833ZM48.4473 53.6974L47.0171 52.4373L47.0136 52.435L47.009 52.4316L47.0056 52.4281C46.9607 52.3959 46.9159 52.3626 46.8722 52.3281C46.8607 52.3201 46.8504 52.312 46.8401 52.304C46.8343 52.2994 46.8297 52.2959 46.8239 52.2913C46.8216 52.2902 46.8205 52.2879 46.8182 52.2867C46.786 52.2614 46.7526 52.235 46.7205 52.2085C46.7044 52.197 46.6894 52.1844 46.6733 52.1717C46.6297 52.1361 46.586 52.0993 46.5422 52.0625C46.4963 52.0234 46.4503 51.9843 46.4043 51.9441C46.4031 51.943 46.4008 51.9418 46.3997 51.9407C46.3905 51.9326 46.3824 51.9246 46.3733 51.9177C46.3296 51.8786 46.2859 51.8395 46.2422 51.7981C46.2054 51.7648 46.1686 51.7303 46.133 51.6969C46.0996 51.6659 46.0663 51.6348 46.0341 51.6015L46.0272 51.5946C46.0031 51.5716 45.9789 51.5475 45.9537 51.5222C45.9295 51.4992 45.9065 51.475 45.8835 51.4509C45.8594 51.4279 45.8363 51.4038 45.8145 51.3796L45.7962 51.3612L45.7904 51.3555L45.5685 51.1589V51.4658L45.703 51.5843L45.8145 51.6831L48.1771 53.7663L48.399 53.9629L48.4553 54.0124L48.5082 53.9353L48.5875 53.8215L48.4473 53.6974ZM48.4473 53.6974L47.0171 52.4373L47.0136 52.435L47.009 52.4316L47.0056 52.4281C46.9607 52.3959 46.9159 52.3626 46.8722 52.3281C46.8607 52.3201 46.8504 52.312 46.8401 52.304C46.8343 52.2994 46.8297 52.2959 46.8239 52.2913C46.8216 52.2902 46.8205 52.2879 46.8182 52.2867C46.786 52.2614 46.7526 52.235 46.7205 52.2085C46.7044 52.197 46.6894 52.1844 46.6733 52.1717C46.6297 52.1361 46.586 52.0993 46.5422 52.0625C46.4963 52.0234 46.4503 51.9843 46.4043 51.9441C46.4031 51.943 46.4008 51.9418 46.3997 51.9407C46.3905 51.9326 46.3824 51.9246 46.3733 51.9177C46.3296 51.8786 46.2859 51.8395 46.2422 51.7981C46.2054 51.7648 46.1686 51.7303 46.133 51.6969C46.0996 51.6659 46.0663 51.6348 46.0341 51.6015L46.0272 51.5946C46.0031 51.5716 45.9789 51.5475 45.9537 51.5222C45.9295 51.4992 45.9065 51.475 45.8835 51.4509C45.8594 51.4279 45.8363 51.4038 45.8145 51.3796L45.7962 51.3612L45.7904 51.3555L45.5685 51.1589V51.4658L45.703 51.5843L45.8145 51.6831L48.1771 53.7663L48.399 53.9629L48.4553 54.0124L48.5082 53.9353L48.5875 53.8215L48.4473 53.6974ZM88.9697 55.0333H82.7833C82.7868 55.1091 82.7925 55.1862 82.7982 55.2632H89.1306L88.9697 55.0333Z" fill="#3F3D56"/>
<path d="M11.0863 48.3184V45.6053C11.0863 44.5228 11.5163 43.4847 12.2817 42.7193C13.0471 41.9539 14.0852 41.5239 15.1676 41.5239C16.2501 41.5239 17.2882 41.9539 18.0536 42.7193C18.819 43.4847 19.249 44.5228 19.249 45.6053V48.3184C19.2489 48.3764 19.2259 48.4319 19.1849 48.4728C19.1439 48.5138 19.0884 48.5368 19.0305 48.5369H18.7852C18.7429 48.5369 18.7016 48.5246 18.6661 48.5016C18.6307 48.4785 18.6027 48.4457 18.5855 48.4071L18.5274 48.2763C18.5177 48.2547 18.5009 48.237 18.4798 48.2262C18.4586 48.2154 18.4344 48.2122 18.4112 48.2172C18.388 48.2221 18.3672 48.2348 18.3523 48.2533C18.3374 48.2717 18.3292 48.2947 18.3292 48.3184C18.3292 48.3764 18.3061 48.4319 18.2652 48.4728C18.2242 48.5138 18.1687 48.5368 18.1107 48.5369H11.3048C11.2469 48.5368 11.1913 48.5138 11.1504 48.4728C11.1094 48.4319 11.0864 48.3764 11.0863 48.3184Z" fill="#2F2E41"/>
<path d="M19.6572 85.1904H21.0667L21.7372 79.7538L19.657 79.754L19.6572 85.1904Z" fill="#FFB8B8"/>
<path d="M23.7848 86.4984L19.355 86.4986L19.3549 84.7871L22.0732 84.787C22.5271 84.787 22.9625 84.9673 23.2834 85.2882C23.6044 85.6092 23.7848 86.0445 23.7848 86.4984Z" fill="#2F2E41"/>
<path d="M9.1953 85.1904H10.6048L11.2753 79.7538L9.19507 79.754L9.1953 85.1904Z" fill="#FFB8B8"/>
<path d="M13.3229 86.4984L8.89311 86.4986L8.89303 84.7871L11.6113 84.787C12.0652 84.787 12.5006 84.9673 12.8215 85.2882C13.1425 85.6092 13.3229 86.0445 13.3229 86.4984Z" fill="#2F2E41"/>
<path d="M17.3638 80.3154L14.6385 69.2383C14.6154 69.1447 14.5596 69.0625 14.481 69.0066C14.4025 68.9507 14.3065 68.9249 14.2105 68.9338C14.1145 68.9428 14.0249 68.9859 13.958 69.0553C13.8911 69.1247 13.8514 69.2158 13.846 69.3121L13.2394 80.1454C13.2355 80.2143 13.2179 80.2817 13.1876 80.3436C13.1573 80.4056 13.1149 80.4609 13.0629 80.5062C13.011 80.5515 12.9504 80.586 12.8849 80.6076C12.8195 80.6292 12.7503 80.6375 12.6816 80.632L7.83596 80.2445C7.704 80.234 7.58108 80.1733 7.49253 80.0749C7.40398 79.9765 7.35656 79.8479 7.36004 79.7156C7.42384 77.332 8.64388 60.7031 12.1237 57.0682C12.1849 57.0056 12.2612 56.9596 12.3451 56.9346C12.4291 56.9097 12.518 56.9065 12.6036 56.9255L17.2506 58.1902C17.3465 58.2113 17.4344 58.2592 17.5042 58.3283C17.574 58.3974 17.6227 58.4849 17.6447 58.5806L22.7647 79.2183C22.7799 79.2858 22.7815 79.3557 22.7692 79.4238C22.757 79.4919 22.7312 79.5568 22.6934 79.6148C22.6556 79.6728 22.6066 79.7226 22.5492 79.7612C22.4918 79.7999 22.4273 79.8267 22.3594 79.84L17.9656 80.6995C17.8351 80.7252 17.6998 80.6997 17.5877 80.6281C17.4756 80.5566 17.3954 80.4446 17.3638 80.3154H17.3638Z" fill="#2F2E41"/>
<path d="M15.7251 48.4777C17.2846 48.4777 18.5488 47.2135 18.5488 45.654C18.5488 44.0945 17.2846 42.8303 15.7251 42.8303C14.1656 42.8303 12.9014 44.0945 12.9014 45.654C12.9014 47.2135 14.1656 48.4777 15.7251 48.4777Z" fill="#FFB8B8"/>
<path d="M17.192 58.498L12.3167 57.4036C12.2107 57.3799 12.1148 57.3233 12.0428 57.242C11.9707 57.1607 11.9261 57.0588 11.9153 56.9506L11.5762 53.5907C11.4845 52.6938 11.7253 51.7944 12.2528 51.0633C12.7802 50.3321 13.5577 49.82 14.4378 49.6241C14.4769 49.6154 14.516 49.607 14.555 49.5989H14.555C15.1609 49.4718 15.7892 49.5023 16.3799 49.6875C16.9705 49.8727 17.5038 50.2063 17.9286 50.6565C18.3649 51.1104 18.6774 51.6686 18.8362 52.2778C18.9951 52.8869 18.995 53.5266 18.8359 54.1357L17.8062 58.1225C17.7781 58.2335 17.7137 58.332 17.6233 58.4023C17.533 58.4726 17.4217 58.5108 17.3072 58.5108C17.2685 58.5108 17.2298 58.5065 17.192 58.498Z" fill="#219EBC"/>
<path d="M5.10471 63.5914C5.03755 63.4544 5.00125 63.3044 4.99836 63.1518C4.99547 62.9993 5.02606 62.848 5.08797 62.7085C5.14989 62.5691 5.24163 62.4449 5.35673 62.3448C5.47183 62.2446 5.60749 62.1709 5.75415 62.1288L9.28284 54.9175L11.1032 56.273L7.07542 62.9138C7.12973 63.1649 7.09007 63.4271 6.96393 63.6509C6.8378 63.8747 6.63396 64.0444 6.39104 64.128C6.14813 64.2115 5.88301 64.203 5.64593 64.1041C5.40885 64.0052 5.21627 63.8228 5.1047 63.5914H5.10471Z" fill="#FFB8B8"/>
<path d="M29.1094 59.7121C29.1094 59.5595 29.0759 59.4088 29.0114 59.2705C28.9468 59.1323 28.8527 59.0099 28.7357 58.9119C28.6188 58.814 28.4817 58.7429 28.3343 58.7036C28.1868 58.6644 28.0326 58.6579 27.8824 58.6847L21.5394 53.7631L20.5017 55.7816L27.0416 59.9712C27.1033 60.2205 27.2544 60.4386 27.4662 60.584C27.678 60.7294 27.9357 60.792 28.1906 60.7601C28.4455 60.7281 28.6798 60.6038 28.8491 60.4107C29.0185 60.2175 29.1111 59.9689 29.1094 59.7121H29.1094Z" fill="#FFB8B8"/>
<path d="M10.947 56.85C10.8752 56.8499 10.8046 56.8318 10.7417 56.7972L8.83087 55.7469C8.73489 55.6941 8.66279 55.6066 8.62939 55.5023C8.596 55.398 8.60386 55.2849 8.65135 55.1862L10.5761 51.1864C10.7509 50.8109 11.0571 50.5124 11.4369 50.3472C11.71 50.2317 12.0092 50.192 12.303 50.2323C12.5967 50.2726 12.8742 50.3914 13.1061 50.5762C13.286 50.717 13.433 50.8953 13.5369 51.0987C13.664 51.3403 13.7289 51.6097 13.7256 51.8827C13.7223 52.1557 13.6511 52.4235 13.5182 52.662L11.3224 56.6293C11.2852 56.6963 11.2308 56.752 11.1648 56.7908C11.0988 56.8296 11.0236 56.85 10.947 56.85Z" fill="#219EBC"/>
<path d="M20.5649 56.1474L16.8468 53.5518C16.6225 53.3961 16.4406 53.187 16.3175 52.9434C16.1944 52.6997 16.134 52.4292 16.1418 52.1564C16.1456 51.928 16.1991 51.7031 16.2986 51.4975C16.4255 51.2296 16.6223 51.0008 16.8683 50.8353C17.1144 50.6698 17.4005 50.5737 17.6965 50.5572C18.1103 50.5382 18.5166 50.6715 18.8388 50.9317L22.3279 53.6758C22.414 53.7435 22.4708 53.8416 22.4867 53.9499C22.5027 54.0583 22.4765 54.1686 22.4135 54.2582L21.1601 56.0425C21.0949 56.1351 20.9957 56.1981 20.8841 56.2178C20.7726 56.2375 20.6578 56.2122 20.5649 56.1474Z" fill="#219EBC"/>
<path d="M12.4661 44.6869C12.4661 43.9094 12.7749 43.1637 13.3247 42.6139C13.8745 42.0641 14.6202 41.7552 15.3977 41.7552C16.1752 41.7552 16.9209 42.0641 17.4707 42.6139C18.0205 43.1637 18.3294 43.9094 18.3294 44.6869V44.8594H17.5704C17.5395 44.8593 17.509 44.8519 17.4815 44.8378C17.454 44.8237 17.4303 44.8032 17.4123 44.7781L17.2745 44.5852C17.2642 44.5708 17.2495 44.5603 17.2326 44.5552C17.2157 44.5502 17.1976 44.5509 17.1812 44.5573C17.1647 44.5637 17.1509 44.5755 17.1419 44.5906C17.1328 44.6058 17.1291 44.6235 17.1313 44.641C17.1347 44.6683 17.1323 44.6961 17.1242 44.7224C17.1161 44.7487 17.1024 44.773 17.0842 44.7937C17.066 44.8143 17.0436 44.8309 17.0184 44.8422C16.9933 44.8535 16.9661 44.8594 16.9385 44.8594H12.4661V44.6869Z" fill="#2F2E41"/>
<path d="M87.8937 85.3272H32.0012C31.516 85.3266 31.0508 85.1336 30.7077 84.7905C30.3646 84.4474 30.1716 83.9822 30.171 83.497V50.3369C30.1716 49.8517 30.3646 49.3865 30.7077 49.0434C31.0508 48.7003 31.516 48.5073 32.0012 48.5067C32.4304 48.5072 32.8419 48.6779 33.1454 48.9814C33.4488 49.2849 33.6195 49.6963 33.62 50.1255V81.3126C33.6205 81.7674 33.8014 82.2033 34.123 82.5249C34.4445 82.8465 34.8805 83.0273 35.3353 83.0279H87.705C87.9651 83.0249 88.2187 83.1093 88.4254 83.2674C88.632 83.4255 88.7797 83.6483 88.8449 83.9002C88.9179 84.139 88.9088 84.3954 88.8191 84.6285C88.7293 84.8615 88.5641 85.0578 88.3497 85.186C88.2138 85.2745 88.0559 85.3234 87.8937 85.3272Z" fill="#F2F2F2"/>
</g>
<path d="M1.36108 6.52775C1.36108 3.53621 3.78621 1.11108 6.77775 1.11108H91.9444C94.936 1.11108 97.3611 3.53621 97.3611 6.52775V91.6944C97.3611 94.686 94.936 97.1111 91.9444 97.1111H1.36108V6.52775Z" stroke="#808080"/>
<defs>
<clipPath id="clip0_763_5800">
<rect width="88" height="74.4035" fill="white" transform="translate(5 12.361)"/>
</clipPath>
</defs>
</svg>
