<svg width="98" height="98" viewBox="0 0 98 98" fill="none" xmlns="http://www.w3.org/2000/svg">
<rect x="1" y="1" width="96" height="96" rx="48" fill="white"/>
<g clip-path="url(#clip0_1125_22000)">
<path d="M16.0628 86.2042H17.4714L18.1417 80.0312L16.0625 80.0314L16.0628 86.2042Z" fill="#FFB8B8"/>
<path d="M15.7031 85.6779L18.4773 85.6777H18.4774C18.7096 85.6777 18.9395 85.7297 19.154 85.8306C19.3685 85.9315 19.5634 86.0795 19.7276 86.266C19.8917 86.4525 20.022 86.6739 20.1108 86.9176C20.1996 87.1613 20.2454 87.4225 20.2454 87.6862V87.7515L15.7032 87.7517L15.7031 85.6779Z" fill="#2F2E41"/>
<path d="M10.3168 86.2042H11.7253L12.3956 80.0312L10.3164 80.0314L10.3168 86.2042Z" fill="#FFB8B8"/>
<path d="M9.95703 85.6779L12.7312 85.6777H12.7313C12.9635 85.6777 13.1934 85.7297 13.4079 85.8306C13.6224 85.9315 13.8173 86.0795 13.9815 86.266C14.1456 86.4525 14.2759 86.6739 14.3647 86.9176C14.4536 87.1613 14.4993 87.4225 14.4993 87.6862V87.7515L9.95712 87.7517L9.95703 85.6779Z" fill="#2F2E41"/>
<path d="M10.5882 83.5509C10.4567 83.5505 10.3302 83.4932 10.2345 83.3907C10.1388 83.2882 10.0811 83.1482 10.073 82.999L8.82422 59.7988L17.228 60.829L18.4672 81.6254C18.4753 81.7671 18.4381 81.9073 18.3625 82.0203C18.2869 82.1332 18.178 82.2115 18.0557 82.2405L16.3883 82.6307C16.3208 82.6465 16.2512 82.6468 16.1837 82.6316C16.1161 82.6165 16.0519 82.5861 15.9948 82.5423C15.9377 82.4985 15.8888 82.4422 15.8511 82.3767C15.8134 82.3112 15.7877 82.2378 15.7753 82.1608L13.738 69.4726C13.7362 69.4568 13.7291 69.4423 13.7182 69.4324C13.7072 69.4224 13.6933 69.4177 13.6793 69.4192C13.6653 69.4192 13.6519 69.4252 13.6417 69.4361C13.6315 69.4469 13.6253 69.4617 13.6243 69.4776L12.408 82.574C12.3974 82.6888 12.3573 82.7975 12.2925 82.8865C12.2278 82.9755 12.1415 83.0409 12.0442 83.0744L10.7396 83.5253C10.6905 83.5422 10.6395 83.5509 10.5882 83.5509Z" fill="#2F2E41"/>
<path d="M10.7479 42.719C12.3065 42.719 13.57 41.2835 13.57 39.5128C13.57 37.7421 12.3065 36.3066 10.7479 36.3066C9.18929 36.3066 7.92578 37.7421 7.92578 39.5128C7.92578 41.2835 9.18929 42.719 10.7479 42.719Z" fill="#FFB8B8"/>
<path d="M8.75515 61.2361L6.8488 49.5957C6.64852 48.3911 6.85074 47.1449 7.41594 46.1006C7.98115 45.0563 8.86874 44.2889 9.90533 43.9483C10.4982 43.7515 11.1212 43.7004 11.7328 43.7984C12.3444 43.8964 12.9306 44.1413 13.4524 44.5167C13.9743 44.8921 14.4197 45.3895 14.7592 45.9757C15.0987 46.562 15.3244 47.2236 15.4213 47.9166L17.2434 60.951L8.75515 61.2361Z" fill="#219EBC"/>
<path d="M9.96751 63.2833C9.82655 63.1776 9.70772 63.038 9.61937 62.8744C9.53103 62.7109 9.47532 62.5273 9.45618 62.3366C9.43705 62.1459 9.45494 61.9528 9.5086 61.7709C9.56227 61.5889 9.65039 61.4225 9.76678 61.2834L7.88281 57.1387L10.0045 57.3959L11.4682 61.2924C11.6609 61.53 11.7702 61.8397 11.7754 62.1627C11.7806 62.4858 11.6812 62.7997 11.4963 63.0451C11.3113 63.2905 11.0535 63.4503 10.7717 63.4942C10.49 63.5381 10.2038 63.4631 9.96752 63.2833L9.96751 63.2833Z" fill="#FFB8B8"/>
<path d="M9.44389 60.5574C9.37158 60.5497 9.30152 60.5247 9.23827 60.4841C9.17502 60.4435 9.11999 60.3883 9.07676 60.322L6.83018 56.8715C6.06193 55.6919 5.69698 54.2354 5.80322 52.773L6.15264 47.9546C6.12285 47.7082 6.1361 47.4576 6.19161 47.2171C6.24712 46.9766 6.34382 46.7508 6.47616 46.5528C6.60851 46.3547 6.77392 46.1883 6.96293 46.0629C7.15194 45.9375 7.36084 45.8557 7.5777 45.8221C7.79457 45.7884 8.01514 45.8037 8.2268 45.867C8.43846 45.9303 8.63707 46.0404 8.81127 46.1909C8.98547 46.3414 9.13185 46.5295 9.24204 46.7444C9.35223 46.9592 9.42407 47.1966 9.45345 47.443L9.24908 55.1082L10.6897 58.9876C10.7308 59.0989 10.7408 59.2219 10.7183 59.3399C10.6959 59.4579 10.6421 59.5652 10.5642 59.6474L9.84341 60.4041C9.76607 60.4852 9.66881 60.5376 9.5646 60.5543C9.52461 60.5607 9.4841 60.5618 9.44389 60.5574Z" fill="#219EBC"/>
<path d="M27.0013 37.7657C26.9706 37.9544 26.9038 38.1331 26.8057 38.2893C26.7075 38.4455 26.5804 38.5754 26.4334 38.6697C26.2863 38.7641 26.1228 38.8207 25.9544 38.8355C25.7859 38.8503 25.6167 38.823 25.4586 38.7554L22.8336 42.3424L22.2148 40.0225L24.8025 36.9719C24.9199 36.6777 25.1283 36.4426 25.3882 36.3113C25.648 36.1799 25.9412 36.1614 26.2123 36.2592C26.4833 36.3571 26.7133 36.5645 26.8588 36.8421C27.0042 37.1198 27.0549 37.4484 27.0013 37.7657Z" fill="#FFB8B8"/>
<path d="M24.9936 39.3787C25.0155 39.4574 25.0226 39.5404 25.0144 39.6224C25.0061 39.7044 24.9828 39.7835 24.9459 39.8546L23.0251 43.5502C22.3685 44.8138 21.3302 45.7635 20.1034 46.2225L16.0615 47.7357C15.8734 47.863 15.6651 47.947 15.4484 47.9828C15.2318 48.0186 15.011 48.0056 14.7988 47.9444C14.5866 47.8832 14.3871 47.775 14.2117 47.6262C14.0363 47.4773 13.8885 47.2906 13.7766 47.0767C13.6648 46.8629 13.5912 46.6261 13.56 46.3799C13.5288 46.1337 13.5406 45.8829 13.5948 45.6419C13.6489 45.4009 13.7444 45.1744 13.8757 44.9754C14.007 44.7763 14.1715 44.6086 14.3599 44.4819L20.6527 41.7071L23.2355 38.6875C23.3097 38.6011 23.4055 38.5427 23.5099 38.5201C23.6143 38.4976 23.7222 38.512 23.8192 38.5615L24.7135 39.0205C24.8094 39.0698 24.8898 39.1511 24.944 39.2536C24.9648 39.293 24.9815 39.3349 24.9936 39.3787Z" fill="#219EBC"/>
<path opacity="0.1" d="M8.46094 50.6328L8.57584 54.8101L10.6925 58.9887L8.92503 54.3319L8.46094 50.6328Z" fill="black"/>
<path d="M11.0722 40.116C11.2495 40.1422 11.429 40.0944 11.5776 39.9815C11.7262 39.8686 11.8336 39.6983 11.88 39.5022C11.9248 39.2765 12.0227 39.0689 12.1634 38.9016C12.3041 38.7343 12.4823 38.6137 12.6787 38.5527C13.1964 38.4183 13.8291 38.6952 14.2085 38.2495C14.2897 38.1478 14.3484 38.0256 14.3799 37.893C14.4114 37.7604 14.4147 37.6212 14.3895 37.4869C14.3196 37.0539 14.0469 36.7267 13.7502 36.4651C13.1258 35.9171 12.3702 35.5962 11.5825 35.5447C11.1747 35.5313 10.7667 35.5544 10.3621 35.6137C9.93851 35.6441 9.51953 35.731 9.11385 35.8729C8.65168 36.071 8.24093 36.3983 7.91956 36.8245C7.5982 37.2507 7.37658 37.7621 7.27521 38.3114C7.18249 38.8623 7.19673 39.4296 7.31693 39.9737C7.43714 40.5177 7.66042 41.0254 7.97118 41.4613C8.34321 41.9876 8.82291 42.4025 9.36847 42.6699C9.49842 42.7396 9.64734 42.7482 9.78283 42.6938C10.1226 42.5403 10.0671 42.0621 9.91218 41.7431C9.74637 41.4018 9.49125 41.0713 9.62459 40.6559C9.69142 40.4633 9.81973 40.3064 9.98391 40.2165C10.3217 40.0208 10.6995 40.0671 11.0627 40.1148L11.0722 40.116Z" fill="#2F2E41"/>
<path d="M90.5447 84.6238H40.3322C39.8144 84.6231 39.3179 84.3891 38.9517 83.9731C38.5855 83.5571 38.3795 82.993 38.3789 82.4047V13.2192C38.3795 12.6308 38.5855 12.0667 38.9517 11.6507C39.3179 11.2347 39.8144 11.0007 40.3322 11H90.5447C91.0626 11.0007 91.5591 11.2347 91.9253 11.6507C92.2915 12.0667 92.4974 12.6308 92.498 13.2192V82.4047C92.4974 82.993 92.2915 83.5571 91.9253 83.9731C91.5591 84.3891 91.0626 84.6231 90.5447 84.6238ZM40.3322 11.2611C39.8753 11.2617 39.4372 11.4682 39.1141 11.8352C38.791 12.2023 38.6092 12.7 38.6087 13.2192V82.4047C38.6092 82.9238 38.791 83.4215 39.1141 83.7886C39.4372 84.1557 39.8753 84.3621 40.3322 84.3627H90.5447C91.0016 84.3621 91.4397 84.1557 91.7628 83.7886C92.086 83.4215 92.2677 82.9238 92.2682 82.4047V13.2192C92.2677 12.7 92.086 12.2023 91.7628 11.8352C91.4397 11.4682 91.0016 11.2617 90.5447 11.2611H40.3322Z" fill="#3F3D56"/>
<path d="M92.3854 16.4297H38.4961V16.6908H92.3854V16.4297Z" fill="#3F3D56"/>
<path d="M41.138 14.9167C41.6456 14.9167 42.0572 14.4492 42.0572 13.8724C42.0572 13.2957 41.6456 12.8281 41.138 12.8281C40.6303 12.8281 40.2188 13.2957 40.2188 13.8724C40.2188 14.4492 40.6303 14.9167 41.138 14.9167Z" fill="#219EBC"/>
<path d="M44.0091 14.9167C44.5167 14.9167 44.9283 14.4492 44.9283 13.8724C44.9283 13.2957 44.5167 12.8281 44.0091 12.8281C43.5014 12.8281 43.0898 13.2957 43.0898 13.8724C43.0898 14.4492 43.5014 14.9167 44.0091 14.9167Z" fill="#219EBC"/>
<path d="M46.8841 14.9167C47.3917 14.9167 47.8033 14.4492 47.8033 13.8724C47.8033 13.2957 47.3917 12.8281 46.8841 12.8281C46.3764 12.8281 45.9648 13.2957 45.9648 13.8724C45.9648 14.4492 46.3764 14.9167 46.8841 14.9167Z" fill="#219EBC"/>
<path d="M82.7613 26.0131H46.9117C46.5155 26.0131 46.1356 25.8344 45.8555 25.5161C45.5753 25.1979 45.418 24.7662 45.418 24.3161C45.418 23.8661 45.5753 23.4344 45.8555 23.1162C46.1356 22.7979 46.5155 22.6191 46.9117 22.6191H82.7613C83.1575 22.6191 83.5374 22.7979 83.8175 23.1162C84.0977 23.4344 84.255 23.8661 84.255 24.3161C84.255 24.7662 84.0977 25.1979 83.8175 25.5161C83.5374 25.8344 83.1575 26.0131 82.7613 26.0131ZM46.9117 22.8802C46.5765 22.8802 46.255 23.0315 46.018 23.3008C45.7809 23.5701 45.6478 23.9353 45.6478 24.3161C45.6478 24.697 45.7809 25.0622 46.018 25.3315C46.255 25.6008 46.5765 25.7521 46.9117 25.7521H82.7613C83.0965 25.7521 83.418 25.6008 83.655 25.3315C83.8921 25.0622 84.0252 24.697 84.0252 24.3161C84.0252 23.9353 83.8921 23.5701 83.655 23.3008C83.418 23.0315 83.0965 22.8802 82.7613 22.8802H46.9117Z" fill="#3F3D56"/>
<path d="M82.1935 45.3201H47.2631C46.7604 45.3195 46.2785 45.0924 45.9231 44.6886C45.5677 44.2848 45.3678 43.7373 45.3672 43.1662V34.6812C45.3678 34.1102 45.5677 33.5627 45.9231 33.1589C46.2785 32.7551 46.7604 32.528 47.2631 32.5273H82.1935C82.6961 32.528 83.178 32.7551 83.5334 33.1589C83.8889 33.5627 84.0888 34.1102 84.0894 34.6812V43.1662C84.0888 43.7373 83.8889 44.2848 83.5334 44.6885C83.178 45.0923 82.6961 45.3195 82.1935 45.3201Z" fill="#E6E6E6"/>
<path d="M82.1935 61.7694H47.2631C46.7604 61.7688 46.2785 61.5416 45.9231 61.1378C45.5677 60.734 45.3678 60.1866 45.3672 59.6155V51.1305C45.3677 50.5595 45.5677 50.012 45.9231 49.6082C46.2785 49.2044 46.7604 48.9772 47.2631 48.9766H82.1935C82.6961 48.9772 83.178 49.2044 83.5335 49.6082C83.8889 50.012 84.0888 50.5595 84.0894 51.1305V59.6155C84.0888 60.1866 83.8888 60.734 83.5334 61.1378C83.178 61.5416 82.6961 61.7688 82.1935 61.7694Z" fill="#E6E6E6"/>
<path d="M82.1935 78.2166H47.2631C46.7604 78.216 46.2785 77.9888 45.9231 77.585C45.5677 77.1812 45.3678 76.6338 45.3672 76.0627V67.5777C45.3678 67.0067 45.5677 66.4592 45.9231 66.0554C46.2785 65.6516 46.7604 65.4245 47.2631 65.4238H82.1935C82.6961 65.4245 83.178 65.6516 83.5334 66.0554C83.8888 66.4592 84.0888 67.0067 84.0894 67.5777V76.0627C84.0888 76.6338 83.8888 77.1812 83.5334 77.585C83.178 77.9888 82.6961 78.216 82.1935 78.2166Z" fill="#E6E6E6"/>
<path d="M62.2013 44.2752H27.2709C26.7682 44.2746 26.2863 44.0474 25.9309 43.6436C25.5755 43.2398 25.3756 42.6924 25.375 42.1213V33.6363C25.3756 33.0653 25.5755 32.5178 25.9309 32.114C26.2863 31.7102 26.7682 31.4831 27.2709 31.4824H62.2013C62.7039 31.4831 63.1858 31.7102 63.5412 32.114C63.8967 32.5178 64.0966 33.0653 64.0972 33.6363V42.1213C64.0966 42.6924 63.8967 43.2398 63.5412 43.6436C63.1858 44.0474 62.7039 44.2746 62.2013 44.2752Z" fill="white"/>
<path d="M62.2001 44.3433H27.2698C26.7519 44.3426 26.2554 44.1086 25.8892 43.6925C25.523 43.2765 25.317 42.7124 25.3164 42.1241V33.6391C25.317 33.0507 25.523 32.4867 25.8892 32.0706C26.2554 31.6546 26.7519 31.4206 27.2698 31.4199H62.2001C62.718 31.4206 63.2145 31.6546 63.5807 32.0706C63.9469 32.4867 64.1529 33.0507 64.1535 33.6391V42.1241C64.1529 42.7124 63.9469 43.2765 63.5807 43.6925C63.2145 44.1086 62.718 44.3426 62.2001 44.3433ZM27.2698 31.681C26.8128 31.6816 26.3747 31.8881 26.0516 32.2552C25.7285 32.6222 25.5467 33.1199 25.5462 33.6391V42.1241C25.5467 42.6432 25.7285 43.1409 26.0516 43.508C26.3747 43.8751 26.8128 44.0816 27.2698 44.0822H62.2001C62.6571 44.0816 63.0952 43.8751 63.4183 43.508C63.7414 43.1409 63.9232 42.6432 63.9237 42.1241V33.6391C63.9232 33.1199 63.7414 32.6222 63.4183 32.2552C63.0952 31.8881 62.6571 31.6816 62.2001 31.681H27.2698Z" fill="#3F3D56"/>
<path d="M57.9485 42.1875H31.5209C31.0182 42.1869 30.5363 41.9597 30.1809 41.5559C29.8255 41.1521 29.6256 40.6047 29.625 40.0336V35.5953C29.6256 35.0242 29.8255 34.4768 30.1809 34.073C30.5363 33.6692 31.0182 33.4421 31.5209 33.4414H57.9485C58.4511 33.4421 58.933 33.6692 59.2885 34.073C59.6439 34.4768 59.8438 35.0242 59.8444 35.5953V40.0336C59.8438 40.6047 59.6439 41.1521 59.2885 41.5559C58.933 41.9597 58.4511 42.1869 57.9485 42.1875Z" fill="#F2F2F2"/>
<path d="M37.2087 39.7962C38.4609 39.7962 39.476 38.6429 39.476 37.2204C39.476 35.7978 38.4609 34.6445 37.2087 34.6445C35.9565 34.6445 34.9414 35.7978 34.9414 37.2204C34.9414 38.6429 35.9565 39.7962 37.2087 39.7962Z" fill="#FF6584"/>
<path d="M56.3052 41.9288L53.1048 38.8794L49.9598 35.8827C49.8768 35.8037 49.7718 35.7604 49.6635 35.7607C49.5552 35.7609 49.4504 35.8046 49.3677 35.884L46.2328 38.8945L45.4671 39.6299L44.3125 38.5298L40.8037 35.1865C40.7207 35.1075 40.6158 35.0642 40.5075 35.0645C40.3992 35.0647 40.2944 35.1084 40.2117 35.1878L36.7143 38.5464L33.1618 41.9578C33.1438 41.9751 33.1309 41.9982 33.1249 42.0241C33.1189 42.05 33.12 42.0773 33.1281 42.1025C33.1363 42.1276 33.151 42.1493 33.1703 42.1646C33.1896 42.1799 33.2127 42.1881 33.2362 42.188L40.5195 42.1721L42.8249 42.167L42.8024 42.1887L49.6744 42.1737L56.2316 42.1593C56.2551 42.1593 56.2781 42.151 56.2974 42.1356C56.3167 42.1202 56.3313 42.0985 56.3393 42.0733C56.3474 42.0481 56.3484 42.0208 56.3423 41.9949C56.3362 41.9691 56.3232 41.946 56.3052 41.9288Z" fill="#3F3D56"/>
<path d="M26.6762 87.9408H4.6149C4.58443 87.9408 4.5552 87.927 4.53365 87.9025C4.51211 87.878 4.5 87.8448 4.5 87.8102C4.5 87.7756 4.51211 87.7424 4.53365 87.7179C4.5552 87.6934 4.58443 87.6797 4.6149 87.6797H26.6762C26.7067 87.6797 26.7359 87.6934 26.7575 87.7179C26.779 87.7424 26.7911 87.7756 26.7911 87.8102C26.7911 87.8448 26.779 87.878 26.7575 87.9025C26.7359 87.927 26.7067 87.9408 26.6762 87.9408Z" fill="#3F3D56"/>
</g>
<rect x="1" y="1" width="96" height="96" rx="48" stroke="#8ECAE6" stroke-width="2"/>
<defs>
<clipPath id="clip0_1125_22000">
<rect width="88" height="76.9407" fill="white" transform="translate(4.5 11)"/>
</clipPath>
</defs>
</svg>
