<svg width="98" height="98" viewBox="0 0 98 98" fill="none" xmlns="http://www.w3.org/2000/svg">
<rect x="1" y="1" width="96" height="96" rx="48" fill="white"/>
<g clip-path="url(#clip0_778_7029)">
<path d="M16.0632 86.2037H17.4718L18.142 80.0308L16.0629 80.0309L16.0632 86.2037Z" fill="#FFB8B8"/>
<path d="M15.7039 85.6784L18.478 85.6782H18.4782C18.7103 85.6782 18.9402 85.7302 19.1547 85.8311C19.3692 85.932 19.5641 86.08 19.7283 86.2665C19.8925 86.453 20.0227 86.6744 20.1115 86.9181C20.2004 87.1618 20.2461 87.423 20.2461 87.6867V87.752L15.7039 87.7522L15.7039 85.6784Z" fill="#2F2E41"/>
<path d="M10.3183 86.2037H11.7269L12.3972 80.0308L10.318 80.0309L10.3183 86.2037Z" fill="#FFB8B8"/>
<path d="M9.95874 85.6784L12.7329 85.6782H12.733C12.9652 85.6782 13.1951 85.7302 13.4096 85.8311C13.6241 85.932 13.819 86.08 13.9832 86.2665C14.1473 86.453 14.2776 86.6744 14.3664 86.9181C14.4553 87.1618 14.501 87.423 14.501 87.6867V87.752L9.95883 87.7522L9.95874 85.6784Z" fill="#2F2E41"/>
<path d="M10.589 83.5509C10.4574 83.5505 10.331 83.4932 10.2353 83.3907C10.1396 83.2882 10.0818 83.1482 10.0737 82.999L8.82495 59.7988L17.2287 60.829L18.468 81.6254C18.476 81.7671 18.4388 81.9073 18.3632 82.0203C18.2876 82.1332 18.1787 82.2115 18.0564 82.2405L16.389 82.6307C16.3215 82.6465 16.252 82.6468 16.1844 82.6316C16.1168 82.6165 16.0526 82.5861 15.9955 82.5423C15.9384 82.4985 15.8896 82.4422 15.8519 82.3767C15.8142 82.3112 15.7884 82.2378 15.776 82.1608L13.7387 69.4726C13.737 69.4568 13.7299 69.4423 13.7189 69.4324C13.7079 69.4224 13.694 69.4177 13.68 69.4192C13.6661 69.4192 13.6526 69.4252 13.6424 69.4361C13.6322 69.4469 13.626 69.4617 13.625 69.4776L12.4087 82.574C12.3981 82.6888 12.358 82.7975 12.2933 82.8865C12.2286 82.9755 12.1422 83.0409 12.0449 83.0744L10.7403 83.5253C10.6912 83.5422 10.6402 83.5509 10.589 83.5509Z" fill="#2F2E41"/>
<path d="M10.7485 42.7192C12.3071 42.7192 13.5706 41.2838 13.5706 39.513C13.5706 37.7423 12.3071 36.3069 10.7485 36.3069C9.1899 36.3069 7.92639 37.7423 7.92639 39.513C7.92639 41.2838 9.1899 42.7192 10.7485 42.7192Z" fill="#FFB8B8"/>
<path d="M8.75356 61.2371L6.84721 49.5967C6.64694 48.3921 6.84915 47.1459 7.41436 46.1016C7.97956 45.0573 8.86715 44.2899 9.90374 43.9493C10.4966 43.7525 11.1196 43.7014 11.7312 43.7994C12.3428 43.8974 12.929 44.1423 13.4508 44.5177C13.9727 44.8931 14.4181 45.3905 14.7576 45.9767C15.0971 46.5629 15.3228 47.2246 15.4197 47.9176L17.2418 60.952L8.75356 61.2371Z" fill="#219EBC"/>
<path d="M9.96947 63.2838C9.82851 63.178 9.70967 63.0385 9.62132 62.8749C9.53298 62.7113 9.47727 62.5278 9.45814 62.3371C9.439 62.1464 9.45689 61.9533 9.51056 61.7714C9.56422 61.5894 9.65234 61.423 9.76873 61.2839L7.88477 57.1392L10.0064 57.3964L11.4702 61.2929C11.6629 61.5305 11.7722 61.8402 11.7774 62.1632C11.7825 62.4863 11.6832 62.8002 11.4982 63.0456C11.3132 63.291 11.0554 63.4508 10.7737 63.4947C10.4919 63.5386 10.2058 63.4636 9.96947 63.2838L9.96947 63.2838Z" fill="#FFB8B8"/>
<path d="M9.44524 60.5567C9.37292 60.5489 9.30287 60.5239 9.23962 60.4834C9.17636 60.4428 9.12133 60.3876 9.07811 60.3212L6.83153 56.8708C6.06328 55.6912 5.69833 54.2347 5.80456 52.7723L6.15398 47.9538C6.1242 47.7075 6.13744 47.4569 6.19295 47.2164C6.24846 46.9758 6.34516 46.7501 6.47751 46.552C6.60985 46.354 6.77526 46.1875 6.96427 46.0621C7.15328 45.9368 7.36218 45.8549 7.57905 45.8213C7.79591 45.7877 8.01648 45.803 8.22814 45.8663C8.4398 45.9296 8.63841 46.0396 8.81261 46.1902C8.98682 46.3407 9.13319 46.5288 9.24338 46.7436C9.35357 46.9585 9.42541 47.1959 9.45479 47.4423L9.25042 55.1075L10.691 58.9869C10.7321 59.0982 10.7421 59.2212 10.7197 59.3392C10.6972 59.4572 10.6434 59.5645 10.5656 59.6466L9.84475 60.4033C9.76741 60.4844 9.67016 60.5368 9.56594 60.5535C9.52596 60.56 9.48544 60.5611 9.44524 60.5567Z" fill="#219EBC"/>
<path d="M27.0004 37.7655C26.9696 37.9542 26.9028 38.1329 26.8047 38.2891C26.7066 38.4453 26.5795 38.5751 26.4324 38.6695C26.2853 38.7639 26.1218 38.8204 25.9534 38.8352C25.785 38.8501 25.6157 38.8227 25.4576 38.7552L22.8326 42.3422L22.2139 40.0222L24.8015 36.9717C24.919 36.6774 25.1274 36.4424 25.3872 36.311C25.647 36.1797 25.9402 36.1612 26.2113 36.259C26.4823 36.3568 26.7123 36.5642 26.8578 36.8419C27.0032 37.1195 27.0539 37.4482 27.0004 37.7655Z" fill="#FFB8B8"/>
<path d="M24.9934 39.3792C25.0153 39.4579 25.0223 39.5409 25.0141 39.6229C25.0059 39.7049 24.9826 39.784 24.9457 39.8551L23.0248 43.5507C22.3682 44.8143 21.3299 45.764 20.1031 46.223L16.0613 47.7362C15.8732 47.8635 15.6649 47.9475 15.4482 47.9833C15.2315 48.0191 15.0108 48.006 14.7986 47.9448C14.5864 47.8836 14.3869 47.7755 14.2115 47.6266C14.0361 47.4778 13.8882 47.2911 13.7764 47.0772C13.6646 46.8634 13.5909 46.6266 13.5597 46.3804C13.5285 46.1342 13.5403 45.8834 13.5945 45.6424C13.6487 45.4014 13.7442 45.1749 13.8754 44.9759C14.0067 44.7768 14.1713 44.6091 14.3597 44.4824L20.6525 41.7076L23.2352 38.6879C23.3095 38.6016 23.4052 38.5431 23.5096 38.5206C23.614 38.4981 23.722 38.5125 23.8189 38.562L24.7133 39.021C24.8092 39.0703 24.8896 39.1516 24.9438 39.2541C24.9646 39.2934 24.9813 39.3354 24.9934 39.3792Z" fill="#219EBC"/>
<path opacity="0.1" d="M8.45947 50.6328L8.57438 54.8101L10.691 58.9887L8.92356 54.3319L8.45947 50.6328Z" fill="black"/>
<path d="M11.0718 40.1158C11.2491 40.1419 11.4287 40.0941 11.5772 39.9812C11.7258 39.8683 11.8333 39.698 11.8797 39.5019C11.9244 39.2762 12.0224 39.0686 12.1631 38.9013C12.3038 38.7341 12.4819 38.6135 12.6783 38.5525C13.196 38.4181 13.8288 38.6949 14.2081 38.2493C14.2893 38.1476 14.3481 38.0254 14.3795 37.8928C14.411 37.7602 14.4143 37.621 14.3891 37.4866C14.3192 37.0536 14.0466 36.7265 13.7499 36.4649C13.1255 35.9168 12.3698 35.596 11.5821 35.5445C11.1744 35.5311 10.7663 35.5541 10.3617 35.6134C9.93814 35.6438 9.51916 35.7308 9.11348 35.8726C8.65131 36.0708 8.24056 36.3981 7.91919 36.8243C7.59783 37.2505 7.37622 37.7618 7.27484 38.3111C7.18212 38.8621 7.19636 39.4294 7.31657 39.9734C7.43678 40.5175 7.66005 41.0252 7.97082 41.461C8.34285 41.9874 8.82255 42.4023 9.3681 42.6697C9.49805 42.7394 9.64697 42.7479 9.78246 42.6935C10.1223 42.5401 10.0667 42.0618 9.91181 41.7429C9.74601 41.4016 9.49088 41.0711 9.62422 40.6557C9.69106 40.4631 9.81936 40.3062 9.98354 40.2163C10.3213 40.0206 10.6992 40.0669 11.0623 40.1145L11.0718 40.1158Z" fill="#2F2E41"/>
<path d="M90.5464 84.6241H40.334C39.8161 84.6234 39.3196 84.3894 38.9534 83.9733C38.5872 83.5573 38.3812 82.9932 38.3806 82.4049V13.2194C38.3812 12.631 38.5872 12.067 38.9534 11.651C39.3196 11.2349 39.8161 11.0009 40.334 11.0002H90.5464C91.0643 11.0009 91.5608 11.2349 91.927 11.651C92.2932 12.067 92.4992 12.631 92.4997 13.2194V82.4049C92.4992 82.9932 92.2932 83.5573 91.927 83.9733C91.5608 84.3894 91.0643 84.6234 90.5464 84.6241ZM40.334 11.2613C39.877 11.2619 39.4389 11.4684 39.1158 11.8355C38.7927 12.2026 38.6109 12.7003 38.6104 13.2194V82.4049C38.6109 82.924 38.7927 83.4217 39.1158 83.7888C39.4389 84.1559 39.877 84.3624 40.334 84.363H90.5464C91.0033 84.3624 91.4414 84.1559 91.7646 83.7888C92.0877 83.4217 92.2694 82.924 92.2699 82.4049V13.2194C92.2694 12.7003 92.0877 12.2026 91.7646 11.8355C91.4414 11.4684 91.0033 11.2619 90.5464 11.2613H40.334Z" fill="#3F3D56"/>
<path d="M92.3849 16.4292H38.4956V16.6903H92.3849V16.4292Z" fill="#3F3D56"/>
<path d="M41.1386 14.9167C41.6463 14.9167 42.0578 14.4492 42.0578 13.8724C42.0578 13.2957 41.6463 12.8281 41.1386 12.8281C40.6309 12.8281 40.2194 13.2957 40.2194 13.8724C40.2194 14.4492 40.6309 14.9167 41.1386 14.9167Z" fill="#219EBC"/>
<path d="M44.011 14.9167C44.5187 14.9167 44.9302 14.4492 44.9302 13.8724C44.9302 13.2957 44.5187 12.8281 44.011 12.8281C43.5033 12.8281 43.0918 13.2957 43.0918 13.8724C43.0918 14.4492 43.5033 14.9167 44.011 14.9167Z" fill="#219EBC"/>
<path d="M46.8835 14.9167C47.3911 14.9167 47.8027 14.4492 47.8027 13.8724C47.8027 13.2957 47.3911 12.8281 46.8835 12.8281C46.3758 12.8281 45.9642 13.2957 45.9642 13.8724C45.9642 14.4492 46.3758 14.9167 46.8835 14.9167Z" fill="#219EBC"/>
<path d="M82.7631 26.0134H46.9135C46.5174 26.0134 46.1374 25.8346 45.8573 25.5164C45.5772 25.1981 45.4198 24.7665 45.4198 24.3164C45.4198 23.8663 45.5772 23.4347 45.8573 23.1164C46.1374 22.7982 46.5174 22.6194 46.9135 22.6194H82.7631C83.1593 22.6194 83.5392 22.7982 83.8194 23.1164C84.0995 23.4347 84.2569 23.8663 84.2569 24.3164C84.2569 24.7665 84.0995 25.1981 83.8194 25.5164C83.5392 25.8346 83.1593 26.0134 82.7631 26.0134ZM46.9135 22.8805C46.5783 22.8805 46.2568 23.0317 46.0198 23.301C45.7828 23.5703 45.6496 23.9356 45.6496 24.3164C45.6496 24.6972 45.7828 25.0625 46.0198 25.3317C46.2568 25.601 46.5783 25.7523 46.9135 25.7523H82.7631C83.0984 25.7523 83.4198 25.601 83.6569 25.3317C83.8939 25.0625 84.0271 24.6972 84.0271 24.3164C84.0271 23.9356 83.8939 23.5703 83.6569 23.301C83.4198 23.0317 83.0984 22.8805 82.7631 22.8805H46.9135Z" fill="#3F3D56"/>
<path d="M82.1929 45.3196H47.2625C46.7598 45.319 46.2779 45.0919 45.9225 44.6881C45.5671 44.2843 45.3671 43.7368 45.3666 43.1658V34.6807C45.3671 34.1097 45.5671 33.5622 45.9225 33.1584C46.2779 32.7546 46.7598 32.5275 47.2625 32.5269H82.1929C82.6955 32.5275 83.1774 32.7546 83.5328 33.1584C83.8882 33.5622 84.0882 34.1097 84.0888 34.6807V43.1658C84.0882 43.7368 83.8882 44.2843 83.5328 44.6881C83.1774 45.0919 82.6955 45.319 82.1929 45.3196Z" fill="#E6E6E6"/>
<path d="M82.1929 61.7689H47.2625C46.7598 61.7683 46.2779 61.5411 45.9225 61.1373C45.5671 60.7336 45.3672 60.1861 45.3666 59.615V51.13C45.3671 50.559 45.5671 50.0115 45.9225 49.6077C46.2779 49.2039 46.7598 48.9767 47.2625 48.9761H82.1929C82.6955 48.9767 83.1774 49.2039 83.5328 49.6077C83.8883 50.0115 84.0882 50.559 84.0888 51.13V59.615C84.0882 60.1861 83.8882 60.7335 83.5328 61.1373C83.1774 61.5411 82.6955 61.7683 82.1929 61.7689Z" fill="#E6E6E6"/>
<path d="M82.1929 78.2166H47.2625C46.7598 78.216 46.2779 77.9888 45.9225 77.585C45.5671 77.1812 45.3672 76.6338 45.3666 76.0627V67.5777C45.3672 67.0067 45.5671 66.4592 45.9225 66.0554C46.2779 65.6516 46.7598 65.4245 47.2625 65.4238H82.1929C82.6955 65.4245 83.1774 65.6516 83.5328 66.0554C83.8882 66.4592 84.0882 67.0067 84.0888 67.5777V76.0627C84.0882 76.6338 83.8882 77.1812 83.5328 77.585C83.1774 77.9888 82.6955 78.216 82.1929 78.2166Z" fill="#E6E6E6"/>
<path d="M62.1996 44.2762H27.2692C26.7665 44.2755 26.2846 44.0484 25.9292 43.6446C25.5738 43.2408 25.3739 42.6933 25.3733 42.1223V33.6373C25.3739 33.0662 25.5738 32.5188 25.9292 32.115C26.2846 31.7112 26.7665 31.484 27.2692 31.4834H62.1996C62.7022 31.4841 63.1841 31.7112 63.5395 32.115C63.895 32.5188 64.0949 33.0662 64.0955 33.6373V42.1223C64.0949 42.6933 63.895 43.2408 63.5395 43.6446C63.1841 44.0484 62.7022 44.2755 62.1996 44.2762Z" fill="white"/>
<path d="M62.1996 44.3425H27.2693C26.7514 44.3419 26.2549 44.1078 25.8887 43.6918C25.5225 43.2758 25.3165 42.7117 25.3159 42.1234V33.6383C25.3165 33.05 25.5225 32.4859 25.8887 32.0699C26.2549 31.6539 26.7514 31.4199 27.2693 31.4192H62.1996C62.7175 31.4199 63.214 31.6539 63.5802 32.0699C63.9464 32.4859 64.1524 33.05 64.153 33.6383V42.1234C64.1524 42.7117 63.9464 43.2758 63.5802 43.6918C63.214 44.1078 62.7175 44.3419 62.1996 44.3425ZM27.2693 31.6803C26.8123 31.6809 26.3742 31.8873 26.0511 32.2544C25.728 32.6215 25.5462 33.1192 25.5457 33.6383V42.1234C25.5462 42.6425 25.728 43.1402 26.0511 43.5073C26.3742 43.8744 26.8123 44.0809 27.2693 44.0814H62.1996C62.6566 44.0809 63.0947 43.8744 63.4178 43.5073C63.7409 43.1402 63.9227 42.6425 63.9232 42.1234V33.6383C63.9227 33.1192 63.7409 32.6215 63.4178 32.2544C63.0947 31.8873 62.6566 31.6809 62.1996 31.6803H27.2693Z" fill="#3F3D56"/>
<path d="M57.9482 42.1868H31.5206C31.018 42.1861 30.5361 41.959 30.1807 41.5552C29.8252 41.1514 29.6253 40.6039 29.6248 40.0329V35.5946C29.6253 35.0235 29.8253 34.476 30.1807 34.0722C30.5361 33.6685 31.018 33.4413 31.5206 33.4407H57.9482C58.4509 33.4413 58.9328 33.6685 59.2882 34.0722C59.6436 34.476 59.8436 35.0235 59.8441 35.5946V40.0329C59.8436 40.6039 59.6436 41.1514 59.2882 41.5552C58.9328 41.959 58.4509 42.1861 57.9482 42.1868Z" fill="#F2F2F2"/>
<path d="M37.2077 39.7954C38.4599 39.7954 39.475 38.6422 39.475 37.2196C39.475 35.797 38.4599 34.6438 37.2077 34.6438C35.9555 34.6438 34.9404 35.797 34.9404 37.2196C34.9404 38.6422 35.9555 39.7954 37.2077 39.7954Z" fill="#FF6584"/>
<path d="M56.3059 41.929L53.1056 38.8797L49.9605 35.883C49.8775 35.8039 49.7726 35.7607 49.6643 35.7609C49.5559 35.7612 49.4512 35.8048 49.3684 35.8843L46.2335 38.8947L45.4678 39.6301L44.3132 38.53L40.8044 35.1868C40.7214 35.1077 40.6165 35.0645 40.5082 35.0647C40.3999 35.0649 40.2951 35.1086 40.2124 35.1881L36.715 38.5466L33.1626 41.958C33.1446 41.9753 33.1317 41.9985 33.1256 42.0244C33.1196 42.0502 33.1207 42.0776 33.1289 42.1027C33.137 42.1279 33.1517 42.1495 33.171 42.1648C33.1904 42.1802 33.2134 42.1883 33.237 42.1883L40.5202 42.1723L42.8257 42.1673L42.8031 42.189L49.6751 42.1739L56.2323 42.1596C56.2558 42.1595 56.2788 42.1512 56.2981 42.1359C56.3174 42.1205 56.332 42.0987 56.3401 42.0736C56.3481 42.0484 56.3491 42.021 56.343 41.9952C56.3369 41.9693 56.3239 41.9462 56.3059 41.929Z" fill="#3F3D56"/>
<path d="M26.6761 87.9413H4.61478C4.58431 87.9413 4.55508 87.9275 4.53353 87.903C4.51198 87.8785 4.49988 87.8453 4.49988 87.8107C4.49988 87.7761 4.51198 87.7429 4.53353 87.7184C4.55508 87.6939 4.58431 87.6802 4.61478 87.6802H26.6761C26.7066 87.6802 26.7358 87.6939 26.7573 87.7184C26.7789 87.7429 26.791 87.7761 26.791 87.8107C26.791 87.8453 26.7789 87.8785 26.7573 87.903C26.7358 87.9275 26.7066 87.9413 26.6761 87.9413Z" fill="#3F3D56"/>
</g>
<rect x="1" y="1" width="96" height="96" rx="48" stroke="#8ECAE6" stroke-width="2"/>
<defs>
<clipPath id="clip0_778_7029">
<rect width="88" height="76.9407" fill="white" transform="translate(4.5 11)"/>
</clipPath>
</defs>
</svg>
