<svg width="98" height="98" viewBox="0 0 98 98" fill="none" xmlns="http://www.w3.org/2000/svg">
<rect x="1" y="1" width="96" height="96" rx="48" fill="white"/>
<g clip-path="url(#clip0_1125_22032)">
<path d="M39.5908 77.2277C37.9935 75.7124 35.6787 74.8434 33.24 74.8434L33.1459 74.8436C31.5396 74.8442 29.9619 74.4523 28.5743 73.708L28.4299 73.6306L28.5462 73.5203C29.1758 72.9212 29.7016 72.2365 30.105 71.4903C29.8185 71.7361 29.4767 71.9208 29.104 72.0316C28.7312 72.1424 28.3365 72.1764 27.9479 72.1313C27.5375 72.0863 27.1436 71.9565 26.7957 71.7514C26.4477 71.5464 26.1547 71.2716 25.9387 70.9476C25.0863 69.6755 24.0703 67.8704 24.0703 66.4954C24.0716 65.3331 24.3362 64.1838 24.8472 63.1208C25.3581 62.0578 26.1042 61.1043 27.0379 60.3212C27.6291 59.831 28.1012 59.2316 28.4236 58.5622C28.7461 57.8928 28.9115 57.1684 28.9091 56.4363L28.9086 56.3321C28.9085 55.3682 29.0365 54.4079 29.29 53.4726L29.3157 53.3781L29.4213 53.3815C30.1026 53.4028 30.7842 53.3503 31.4521 53.225C30.8256 53.1543 30.2127 53.0044 29.6309 52.7794L29.5172 52.7371L29.5558 52.63C32.2145 51.1158 38.2161 51.8999 41.6995 44.5688C44.5241 38.6243 54.4904 49.8458 54.4904 56.3321C54.4904 56.9939 53.7783 57.8685 54.3113 58.306C60.0738 63.0348 56.0978 66.0714 54.8442 69.1269C54.5468 69.8519 55.1917 70.6478 55.1917 71.4321C55.1917 71.5652 55.188 71.7026 55.1807 71.8404L55.1696 72.0523L54.9775 71.9347C54.5974 71.7057 54.2451 71.4399 53.9265 71.1418C54.257 71.8413 54.4127 72.6001 54.3823 73.3623C54.3518 74.1245 54.136 74.8707 53.7506 75.546C53.1467 76.5944 52.5625 77.345 52.0142 77.7768C50.2576 79.1594 47.9933 79.8727 45.684 79.7706C43.3748 79.6685 41.1952 78.7589 39.5908 77.2277H39.5908Z" fill="#E6E6E6"/>
<path d="M49.2421 92.9985C49.2813 92.9984 49.3193 92.9853 49.3489 92.9617C49.3785 92.938 49.3979 92.9052 49.4034 92.8695C49.4104 92.8247 50.0896 88.3188 49.4796 82.3303C48.9162 76.7998 47.1071 68.8339 41.6877 62.2917C41.6747 62.276 41.6585 62.2628 41.64 62.2529C41.6214 62.2429 41.6009 62.2364 41.5797 62.2338C41.5584 62.2311 41.5368 62.2324 41.5161 62.2374C41.4953 62.2424 41.4759 62.2512 41.4588 62.2631C41.4418 62.2751 41.4274 62.29 41.4166 62.3071C41.4059 62.3242 41.3988 62.343 41.396 62.3626C41.3931 62.3821 41.3945 62.402 41.4 62.4211C41.4055 62.4401 41.415 62.458 41.428 62.4737C46.8007 68.9594 48.5952 76.8669 49.1546 82.3583C49.761 88.312 49.0871 92.7827 49.0803 92.8272C49.077 92.8485 49.0787 92.8702 49.0853 92.8908C49.092 92.9114 49.1033 92.9305 49.1187 92.9467C49.134 92.963 49.153 92.976 49.1743 92.9849C49.1955 92.9938 49.2187 92.9985 49.2421 92.9985V92.9985Z" fill="#3F3D56"/>
<path d="M44.8166 71.52C44.8511 71.52 44.8847 71.51 44.9126 71.4914C44.9405 71.4728 44.9612 71.4465 44.9719 71.4163C44.9826 71.3862 44.9826 71.3537 44.9719 71.3235C44.9613 71.2934 44.9405 71.2671 44.9127 71.2484C43.3684 70.287 41.7003 69.5058 39.9465 68.923C37.2066 68.0003 33.0401 67.1639 28.7508 68.4196C28.7303 68.4255 28.7113 68.4351 28.6949 68.4478C28.6785 68.4605 28.6649 68.4761 28.655 68.4936C28.6452 68.5111 28.6391 68.5303 28.6373 68.5499C28.6355 68.5696 28.6379 68.5894 28.6444 68.6082C28.6509 68.627 28.6614 68.6445 28.6752 68.6596C28.6891 68.6747 28.706 68.6871 28.7251 68.6961C28.7442 68.7052 28.765 68.7107 28.7864 68.7123C28.8078 68.7139 28.8293 68.7117 28.8498 68.7057C33.0512 67.4757 37.1421 68.2984 39.8342 69.205C41.5598 69.7778 43.2013 70.5458 44.7208 71.4913C44.7486 71.51 44.7821 71.52 44.8166 71.52Z" fill="#3F3D56"/>
<path d="M52.2892 54.4052C52.2917 54.3736 52.2833 54.342 52.2651 54.3151C52.2469 54.2881 52.2199 54.2672 52.188 54.2552C52.156 54.2433 52.1208 54.2409 52.0873 54.2485C52.0539 54.2561 52.0239 54.2732 52.0016 54.2975C50.8479 55.645 49.8808 57.1192 49.1225 58.6863C47.9247 61.1336 46.7176 64.8959 47.7703 68.9215C47.7753 68.9407 47.7844 68.9588 47.797 68.9748C47.8096 68.9907 47.8255 69.0043 47.8437 69.0146C47.862 69.0249 47.8823 69.0318 47.9035 69.0349C47.9247 69.038 47.9464 69.0372 47.9672 69.0326C47.9881 69.028 48.0077 69.0196 48.0251 69.008C48.0424 68.9964 48.0571 68.9817 48.0683 68.9649C48.0795 68.9481 48.0869 68.9294 48.0903 68.9099C48.0936 68.8904 48.0927 68.8705 48.0877 68.8513C47.0566 64.9081 48.2433 61.2141 49.4202 58.8095C50.1656 57.2677 51.1165 55.817 52.2512 54.4911C52.2734 54.4669 52.2867 54.4368 52.2892 54.4052Z" fill="#3F3D56"/>
<path d="M83.7692 92.8412H70.7761L70.7203 92.748C70.5542 92.4709 70.3938 92.1772 70.2439 91.8755C68.9056 89.2399 68.3399 86.2255 67.8407 83.566L67.4649 81.5614C67.4194 81.3186 67.4537 81.0688 67.5634 80.8441C67.673 80.6193 67.8532 80.4298 68.0806 80.2998C68.3081 80.1697 68.5726 80.1051 68.8403 80.1141C69.1079 80.1232 69.3666 80.2055 69.5831 80.3505C71.5577 81.6721 73.533 82.9925 75.5091 84.3116C76.2574 84.8124 77.1119 85.392 77.9303 86.0184C78.0093 85.6656 78.0919 85.3118 78.1744 84.9629C78.2314 84.7221 78.3652 84.5023 78.5587 84.3317C78.7522 84.1612 78.9967 84.0477 79.2608 84.0057C79.5249 83.9637 79.7966 83.9951 80.0411 84.096C80.2856 84.1969 80.4919 84.3625 80.6335 84.5719L82.1537 86.8185C83.2624 88.4591 84.241 90.0758 84.0417 91.8195C84.0426 91.8408 84.0409 91.862 84.0365 91.8828C83.9966 92.1693 83.9226 92.4508 83.8159 92.7223L83.7692 92.8412Z" fill="#F0F0F0"/>
<path d="M77.7164 45.8539L75.2088 37.3167C75.1014 36.9552 74.8439 36.6472 74.4917 36.4589C74.1395 36.2707 73.721 36.2173 73.3265 36.3104C73.1224 36.3585 72.9311 36.4444 72.7642 36.5628C72.5974 36.6812 72.4585 36.8295 72.356 36.9989C72.2535 37.1683 72.1896 37.3551 72.1682 37.5479C72.1468 37.7407 72.1683 37.9355 72.2314 38.1204L75.1317 46.9151L76.6491 52.3274C76.4281 52.4827 76.2644 52.6967 76.1803 52.9405C76.0961 53.1843 76.0956 53.446 76.1787 53.69C76.2619 53.9341 76.4248 54.1487 76.6451 54.3047C76.8655 54.4606 77.1328 54.5504 77.4106 54.5618C77.6883 54.5732 77.9632 54.5057 78.1978 54.3684C78.4324 54.2311 78.6154 54.0307 78.7219 53.7944C78.8283 53.5581 78.8532 53.2974 78.793 53.0477C78.7327 52.798 78.5904 52.5714 78.3853 52.3987L77.7164 45.8539Z" fill="#A0616A"/>
<path d="M56.6142 44.0159L64.2332 38.6224C64.5553 38.393 64.7664 38.0564 64.8209 37.6851C64.8755 37.3138 64.7692 36.9377 64.525 36.6378C64.3986 36.4827 64.2392 36.3529 64.0565 36.2563C63.8739 36.1597 63.6717 36.0984 63.4624 36.076C63.2531 36.0536 63.041 36.0706 62.8391 36.1261C62.6372 36.1815 62.4497 36.2742 62.288 36.3985L54.5605 42.2242L49.7028 45.5821C49.4624 45.4535 49.1848 45.3962 48.9077 45.4178C48.6306 45.4394 48.3675 45.5389 48.1541 45.7029C47.9407 45.8668 47.7873 46.0873 47.7148 46.3342C47.6423 46.5811 47.6542 46.8426 47.7489 47.0831C47.8436 47.3236 48.0164 47.5314 48.244 47.6784C48.4716 47.8254 48.7428 47.9043 49.0209 47.9046C49.299 47.9048 49.5704 47.8263 49.7982 47.6797C50.0261 47.5331 50.1994 47.3255 50.2945 47.0852L56.6142 44.0159Z" fill="#A0616A"/>
<path d="M62.8241 45.2544L62.4883 52.1537L73.0331 50.0455C72.1356 47.2733 71.5253 46.8004 72.1997 44.8711L62.8241 45.2544Z" fill="#A0616A"/>
<path d="M69.3105 32.6074H65.7969L64.288 34.9825L63.569 34.946C63.2174 34.9281 62.8654 34.9764 62.5348 35.0879C62.2041 35.1994 61.9016 35.3717 61.6458 35.5944C61.39 35.8171 61.1863 36.0854 61.047 36.3829C60.9078 36.6805 60.8359 37.0011 60.8359 37.325L61.7218 38.588C61.7218 38.588 60.1375 41.1278 62.4197 42.3772C62.4197 42.3772 62.0126 44.7314 62.4197 44.7061C62.8267 44.6808 63.7643 44.2016 62.8267 44.6808C61.8891 45.1599 61.9591 45.2242 62.0804 45.3358L62.2017 45.4473L72.0602 46.97C72.0602 46.97 72.3486 45.2121 72.3796 44.8985C72.4107 44.5849 72.2024 45.3515 72.4107 44.5849C72.6191 43.8183 72.9316 44.1058 72.6191 43.8183C72.3065 43.5309 74.644 39.9694 73.6836 38.588L75.2234 37.2065C75.2234 35.8814 72.9096 34.8072 71.469 34.8072H71.2845L69.3105 32.6074Z" fill="#E6E6E6"/>
<path d="M60.8448 90.1804H59.4226L58.7461 85.1348L60.845 85.1349L60.8448 90.1804Z" fill="#A0616A"/>
<path d="M56.551 92.1112C56.5517 92.2578 56.6152 92.3982 56.7278 92.5019C56.8403 92.6056 56.9928 92.6643 57.1521 92.6652H59.8292L59.9121 92.5071L60.2908 91.7884L60.4374 92.5071L60.4699 92.6652H61.4797L61.4652 92.506L61.196 89.536L60.8437 89.5161L59.3219 89.4331L58.948 89.4121V90.2989C58.6643 90.5765 56.438 91.6258 56.551 92.1112Z" fill="#2F2E41"/>
<path d="M81.9788 86.7532L80.7828 87.4609L77.2461 83.5541L79.0114 82.5098L81.9788 86.7532Z" fill="#A0616A"/>
<path d="M79.5053 90.5126C79.592 90.6355 79.728 90.7219 79.8837 90.7532C80.0393 90.7844 80.2021 90.7579 80.3366 90.6794L82.588 89.3471L82.5648 89.1728L82.4605 88.3799L83.0066 88.9114L83.1269 89.0282L83.9761 88.5257L83.8703 88.399L81.8969 86.0352L81.589 86.1937L80.2604 86.8813L79.9336 87.0497L80.4552 87.7955C80.3799 88.1701 79.1247 90.1606 79.5053 90.5126Z" fill="#2F2E41"/>
<path d="M88.6112 92.9328L44.5756 92.9723C44.5316 92.9721 44.4896 92.9559 44.4586 92.9272C44.4276 92.8986 44.4102 92.8598 44.4102 92.8194C44.4102 92.7789 44.4276 92.7402 44.4586 92.7115C44.4896 92.6828 44.5316 92.6666 44.5756 92.6664L88.6112 92.627C88.6552 92.6272 88.6973 92.6434 88.7283 92.672C88.7593 92.7007 88.7767 92.7395 88.7767 92.7799C88.7767 92.8203 88.7593 92.8591 88.7283 92.8878C88.6973 92.9164 88.6552 92.9326 88.6112 92.9328Z" fill="#CACACA"/>
<path d="M72.8707 49.2676C72.8707 49.2676 66.1302 52.5472 62.565 50.3096C62.565 50.3096 61.7852 53.7841 61.4726 54.0715C61.1601 54.359 60.6622 54.4842 61.0153 54.8049C61.3685 55.1256 61.565 55.5587 60.8938 56.1087C60.2226 56.6587 59.5532 56.4842 60.2004 57.0506C60.8476 57.617 58.2433 71.5113 58.2433 71.5113C58.2433 71.5113 58.6599 84.4325 58.2433 84.8233C57.8266 85.2141 57.2696 85.3016 57.8085 85.7848C58.3474 86.2681 58.3474 85.8933 58.3474 86.5598V87.2264L58.594 87.8888H61.9764C61.9764 87.8888 62.7927 87.0166 61.9764 86.2591C61.1601 85.5015 62.2248 85.2942 62.4738 84.5834C62.7227 83.8725 63.1394 84.6391 62.7227 83.8725C62.306 83.1059 62.1059 83.2518 62.1018 82.7477C62.0977 82.2435 68.2439 62.504 68.2439 62.504L68.9883 73.4296L77.9426 85.3949L80.5782 83.5766C80.5782 83.5766 78.6593 81.0919 79.108 80.7502C79.5568 80.4086 77.7855 79.9802 78.344 79.5949C78.9026 79.2095 77.558 78.8212 78.0648 78.3104C78.5715 77.7996 77.3666 76.5122 76.6684 76.5122C75.9702 76.5122 74.9904 74.3661 74.9904 74.3661L76.4531 57.4125L72.8707 49.2676Z" fill="#2F2E41"/>
<path d="M65.7235 25.6333C65.6758 25.6909 65.2958 25.6599 64.8387 25.5985C63.9351 25.4771 63.812 25.6214 63.1365 26.1866C62.158 27.0053 62.7143 31.999 62.2335 33.081L62.0781 33.1863C62.3863 33.1322 62.6889 33.0543 62.9828 32.9534C63.1488 32.4716 63.3153 31.9882 63.4829 31.5067C63.6411 31.8813 63.7406 32.2747 63.7783 32.6751C64.0109 32.5908 64.2422 32.3845 65.2141 32.1078C65.7035 31.8024 69.2442 31.4954 69.6994 31.361C70.8547 27.7455 68.993 26.2834 65.7235 25.6333Z" fill="#2F2E41"/>
<path d="M66.9187 31.2091C68.7874 31.2091 70.3023 29.8156 70.3023 28.0967C70.3023 26.3778 68.7874 24.9844 66.9187 24.9844C65.05 24.9844 63.5352 26.3778 63.5352 28.0967C63.5352 29.8156 65.05 31.2091 66.9187 31.2091Z" fill="#A0616A"/>
<path d="M69.0508 25.3595C68.8601 25.3336 68.6766 25.2744 68.51 25.1851C68.4275 25.1393 68.3606 25.073 68.3171 24.9938C68.2736 24.9147 68.2551 24.8259 68.2638 24.7376C68.3055 24.5164 68.5773 24.3844 68.8209 24.3978C69.0634 24.43 69.2938 24.5157 69.4923 24.6478C69.4705 24.4341 69.3712 24.2333 69.2105 24.0777C69.0497 23.9221 68.8367 23.8208 68.6058 23.7899C68.9262 23.774 69.2592 23.76 69.5554 23.8734C69.8516 23.9867 70.0984 24.2673 70.045 24.5583C70.543 24.4993 71.0341 24.8184 71.2397 25.2398C71.4453 25.6612 71.4046 26.156 71.2403 26.5925C71.2241 26.6593 71.1925 26.7222 71.1476 26.7768C71.1026 26.8314 71.0455 26.8765 70.98 26.909C70.8123 26.9675 70.632 26.8694 70.4868 26.7727C69.7282 26.2674 69.0378 25.6809 68.43 25.0254" fill="#2F2E41"/>
<path d="M70.5272 31.4031C70.3837 31.4652 70.4584 31.6963 70.3469 31.7998C70.2986 31.8436 70.2402 31.877 70.1761 31.8975C70.1593 31.7046 70.1105 31.5152 70.0313 31.336C70.0167 31.3034 69.9928 31.267 69.9553 31.2699C69.9115 31.2747 69.9 31.3274 69.899 31.3666C69.8902 31.5615 69.8432 31.7534 69.7604 31.933C69.7594 31.9349 69.7584 31.9378 69.7573 31.9397C69.725 31.9387 69.6917 31.9378 69.6604 31.9368C69.4188 31.9282 68.8833 31.3571 68.7645 31.5506C69.1833 30.8674 69.6938 29.8402 69.7719 29.0592C69.799 28.8957 69.7858 28.7287 69.7334 28.5705C69.706 28.4918 69.6546 28.422 69.5854 28.3694C69.5161 28.3167 69.4319 28.2834 69.3427 28.2735C69.2987 28.2716 69.2548 28.2788 69.2142 28.2943C69.1735 28.3099 69.1371 28.3336 69.1075 28.3636C69.078 28.3936 69.056 28.4293 69.0432 28.4681C69.0303 28.5068 69.027 28.5477 69.0333 28.5878L68.9729 28.5801C68.4124 28.1604 68.8958 27.4312 68.2437 27.1428C68.0228 27.045 66.6707 27.3718 66.4321 27.3143C66.427 27.0831 66.3758 26.8548 66.281 26.6407C66.2665 26.6081 66.2425 26.5717 66.205 26.5745C66.1612 26.5793 66.1498 26.632 66.1487 26.6713C66.1399 26.8662 66.093 27.058 66.0102 27.2376C65.6797 27.1945 65.3433 27.2108 65.0195 27.2855C64.7341 27.3545 64.4632 27.4734 64.1767 27.5366C64.0351 27.5765 63.8862 27.5895 63.7389 27.5746C63.5917 27.5598 63.4493 27.5175 63.3204 27.4504C62.9569 27.2261 62.8933 26.7298 63.0746 26.3637C63.2058 26.1288 63.3831 25.9183 63.5975 25.7428C63.7611 25.5971 63.9309 25.4572 64.1007 25.3173C64.2528 25.1918 64.4049 25.0663 64.557 24.9407C64.7484 24.775 64.9524 24.6219 65.1674 24.4827C65.5107 24.2757 65.8963 24.1355 66.3006 24.0706C66.705 24.0056 67.1194 24.0174 67.5186 24.1052C67.9978 24.2106 68.6385 24.062 69.0771 24.2681C69.3062 24.3763 69.8136 24.7913 70.0146 24.9388C70.5293 25.3154 70.181 25.0086 70.7439 25.2263C72.086 25.7455 71.4925 30.985 70.5272 31.4031Z" fill="#2F2E41"/>
<path d="M33.0618 54.1227C44.6507 54.1227 54.0454 45.4811 54.0454 34.8211C54.0454 24.1612 44.6507 15.5195 33.0618 15.5195C21.4728 15.5195 12.0781 24.1612 12.0781 34.8211C12.0781 45.4811 21.4728 54.1227 33.0618 54.1227Z" fill="white"/>
<path d="M33.0603 54.3147C21.3744 54.3147 11.8672 45.5696 11.8672 34.8204C11.8672 24.0713 21.3744 15.3262 33.0603 15.3262C44.7462 15.3262 54.2534 24.0713 54.2534 34.8204C54.2534 45.5696 44.7462 54.3147 33.0603 54.3147ZM33.0603 15.7115C21.6054 15.7115 12.2861 24.2838 12.2861 34.8204C12.2861 45.3571 21.6054 53.9294 33.0603 53.9294C44.5152 53.9294 53.8345 45.3571 53.8345 34.8204C53.8345 24.2838 44.5152 15.7115 33.0603 15.7115Z" fill="#219EBC"/>
<path d="M30.1992 44.8658C29.8368 44.8658 29.4794 44.7882 29.1554 44.6391C28.8313 44.49 28.5494 44.2735 28.3321 44.0068L22.6074 36.9857C22.4235 36.7601 22.2897 36.5034 22.2136 36.2303C22.1376 35.9572 22.1207 35.673 22.1641 35.3938C22.2075 35.1147 22.3102 34.8462 22.4663 34.6036C22.6225 34.361 22.8291 34.1491 23.0743 33.9799C23.3195 33.8108 23.5986 33.6877 23.8955 33.6177C24.1924 33.5477 24.5014 33.5323 24.8049 33.5721C25.1083 33.612 25.4002 33.7065 25.664 33.8502C25.9277 33.9938 26.1581 34.1838 26.342 34.4094L30.0873 39.0025L39.7065 25.7304C40.0501 25.257 40.584 24.9284 41.1908 24.817C41.7977 24.7055 42.4278 24.8203 42.9427 25.136C43.4576 25.4517 43.8151 25.9426 43.9366 26.5008C44.0582 27.0589 43.9338 27.6386 43.5909 28.1124L32.1415 43.9097C31.9344 44.1954 31.6559 44.4312 31.3292 44.5975C31.0025 44.7637 30.6373 44.8555 30.2641 44.8651C30.2425 44.8655 30.2208 44.8658 30.1992 44.8658Z" fill="#219EBC"/>
<path d="M54.6824 16.7246C54.7407 16.3556 54.3205 15.9939 53.7439 15.9167C53.1672 15.8395 52.6523 16.0761 52.594 16.4451C52.5356 16.8141 52.9558 17.1758 53.5325 17.253C54.1092 17.3302 54.624 17.0936 54.6824 16.7246Z" fill="#E6E6E6"/>
<path d="M61.5456 16.1074C61.604 15.7384 61.1838 15.3767 60.6071 15.2995C60.0304 15.2223 59.5156 15.4589 59.4572 15.8279C59.3989 16.1969 59.8191 16.5587 60.3958 16.6358C60.9725 16.713 61.4873 16.4764 61.5456 16.1074Z" fill="#3F3D56"/>
<path d="M52.7996 11.6113C52.8579 11.2423 52.4377 10.8806 51.861 10.8034C51.2843 10.7262 50.7695 10.9628 50.7112 11.3318C50.6528 11.7008 51.073 12.0626 51.6497 12.1397C52.2264 12.2169 52.7412 11.9803 52.7996 11.6113Z" fill="#FF6584"/>
<path d="M49.8196 9.51805C49.8224 9.17927 49.6169 8.90319 49.3607 8.90141C49.1045 8.89963 48.8945 9.17282 48.8918 9.51159C48.889 9.85037 49.0944 10.1264 49.3506 10.1282C49.6068 10.13 49.8168 9.85682 49.8196 9.51805Z" fill="#E6E6E6"/>
<path d="M48.8079 5.6157C48.8106 5.27693 48.6052 5.00085 48.349 4.99907C48.0928 4.99729 47.8828 5.27047 47.88 5.60925C47.8773 5.94802 48.0827 6.2241 48.3389 6.22588C48.5951 6.22767 48.8051 5.95448 48.8079 5.6157Z" fill="#3F3D56"/>
<path d="M56.675 12.4829C56.6778 12.1441 56.4724 11.868 56.2162 11.8663C55.96 11.8645 55.75 12.1377 55.7472 12.4764C55.7444 12.8152 55.9499 13.0913 56.2061 13.0931C56.4623 13.0949 56.6723 12.8217 56.675 12.4829Z" fill="#E6E6E6"/>
<path d="M53.3547 14.0044C53.3575 13.6656 53.1521 13.3895 52.8959 13.3877C52.6397 13.386 52.4297 13.6592 52.4269 13.9979C52.4241 14.3367 52.6296 14.6128 52.8858 14.6146C53.142 14.6163 53.3519 14.3432 53.3547 14.0044Z" fill="#FF6584"/>
<path d="M57.9758 16.8227C57.9786 16.484 57.7732 16.2079 57.517 16.2061C57.2608 16.2043 57.0508 16.4775 57.048 16.8163C57.0452 17.1551 57.2507 17.4311 57.5069 17.4329C57.7631 17.4347 57.973 17.1615 57.9758 16.8227Z" fill="#3F3D56"/>
<path d="M15.3035 62.4492C15.3618 62.0802 14.9416 61.7185 14.3649 61.6413C13.7883 61.5641 13.2734 61.8007 13.2151 62.1697C13.1567 62.5387 13.5769 62.9005 14.1536 62.9776C14.7303 63.0548 15.2451 62.8182 15.3035 62.4492Z" fill="#E6E6E6"/>
<path d="M22.1706 61.834C22.229 61.465 21.8088 61.1032 21.2321 61.0261C20.6554 60.9489 20.1406 61.1855 20.0823 61.5545C20.0239 61.9235 20.4441 62.2852 21.0208 62.3624C21.5975 62.4396 22.1123 62.203 22.1706 61.834Z" fill="#3F3D56"/>
<path d="M13.4245 57.3379C13.4829 56.9689 13.0627 56.6072 12.486 56.53C11.9094 56.4528 11.3945 56.6894 11.3362 57.0584C11.2778 57.4274 11.698 57.7891 12.2747 57.8663C12.8514 57.9435 13.3662 57.7069 13.4245 57.3379Z" fill="#FF6584"/>
<path d="M10.4407 55.2427C10.4435 54.9039 10.238 54.6278 9.98181 54.626C9.7256 54.6242 9.51564 54.8974 9.51286 55.2362C9.51007 55.575 9.71551 55.8511 9.97172 55.8528C10.2279 55.8546 10.4379 55.5814 10.4407 55.2427Z" fill="#E6E6E6"/>
<path d="M9.42894 51.3423C9.43173 51.0035 9.22629 50.7274 8.97008 50.7256C8.71388 50.7239 8.50392 50.997 8.50114 51.3358C8.49835 51.6746 8.70379 51.9507 8.96 51.9524C9.2162 51.9542 9.42616 51.681 9.42894 51.3423Z" fill="#3F3D56"/>
<path d="M17.2961 58.2075C17.2989 57.8687 17.0935 57.5926 16.8373 57.5909C16.5811 57.5891 16.3711 57.8623 16.3683 58.201C16.3655 58.5398 16.571 58.8159 16.8272 58.8177C17.0834 58.8195 17.2933 58.5463 17.2961 58.2075Z" fill="#E6E6E6"/>
<path d="M13.9797 59.7309C13.9825 59.3922 13.7771 59.1161 13.5209 59.1143C13.2647 59.1125 13.0547 59.3857 13.0519 59.7245C13.0491 60.0633 13.2546 60.3393 13.5108 60.3411C13.767 60.3429 13.9769 60.0697 13.9797 59.7309Z" fill="#FF6584"/>
<path d="M18.5969 62.5473C18.5997 62.2086 18.3943 61.9325 18.138 61.9307C17.8818 61.9289 17.6719 62.2021 17.6691 62.5409C17.6663 62.8797 17.8718 63.1557 18.128 63.1575C18.3842 63.1593 18.5941 62.8861 18.5969 62.5473Z" fill="#3F3D56"/>
</g>
<rect x="1" y="1" width="96" height="96" rx="48" stroke="#8ECAE6" stroke-width="2"/>
<defs>
<clipPath id="clip0_1125_22032">
<rect width="80.2779" height="88" fill="white" transform="translate(8.5 5)"/>
</clipPath>
</defs>
</svg>
