<svg width="40" height="40" viewBox="0 0 40 40" fill="none" xmlns="http://www.w3.org/2000/svg">
<path d="M14.9 31.1749C17.0114 31.1882 19.1045 30.7821 21.0577 29.9802C23.011 29.1783 24.7856 27.9966 26.2787 26.5036C27.7717 25.0105 28.9534 23.2359 29.7553 21.2826C30.5572 19.3294 30.9633 17.2363 30.95 15.1249V14.3874C32.0445 13.5855 32.9918 12.6001 33.75 11.4749C32.7194 11.9256 31.6289 12.2246 30.5125 12.3624C31.6961 11.6571 32.5843 10.547 33.0125 9.2374C31.9094 9.8992 30.6998 10.3644 29.4375 10.6124C28.5874 9.70661 27.4625 9.10622 26.2368 8.90413C25.0112 8.70204 23.7531 8.90952 22.6572 9.49447C21.5613 10.0794 20.6887 11.0092 20.1745 12.14C19.6603 13.2708 19.533 14.5395 19.8125 15.7499C17.57 15.6398 15.3759 15.0587 13.3729 14.0443C11.37 13.0299 9.60317 11.605 8.1875 9.8624C7.47365 11.1014 7.25728 12.5653 7.5822 13.9578C7.90712 15.3503 8.74904 16.5673 9.9375 17.3624C9.06077 17.3286 8.20432 17.0888 7.4375 16.6624V16.7249C7.42971 18.0197 7.8659 19.278 8.67338 20.2902C9.48086 21.3024 10.6108 22.0073 11.875 22.2874C11.0595 22.5067 10.2054 22.5409 9.375 22.3874C9.74098 23.4916 10.4396 24.4556 11.3751 25.1471C12.3105 25.8386 13.437 26.2238 14.6 26.2499C12.6115 27.8506 10.1401 28.7316 7.5875 28.7499C7.13994 28.7369 6.69343 28.6994 6.25 28.6374C8.83369 30.2835 11.8365 31.1514 14.9 31.1374" fill="white"/>
</svg>
