<svg width="98" height="98" viewBox="0 0 98 98" fill="none" xmlns="http://www.w3.org/2000/svg">
<rect x="1" y="1" width="96" height="96" rx="48" fill="white"/>
<g clip-path="url(#clip0_778_6992)">
<path d="M72.6584 60.7834C72.5838 60.6469 72.5383 60.4947 72.5252 60.3375C72.5121 60.1803 72.5316 60.022 72.5825 59.8738C72.6333 59.7255 72.7142 59.5908 72.8195 59.4793C72.9247 59.3677 73.0518 59.282 73.1916 59.2281L73.1392 55.3933L74.7235 56.4663L74.5304 59.9434C74.6002 60.1985 74.5793 60.4719 74.4716 60.7117C74.364 60.9516 74.1771 61.1413 73.9463 61.2448C73.7156 61.3484 73.457 61.3586 73.2196 61.2736C72.9823 61.1885 72.7825 61.0141 72.6584 60.7834Z" fill="#A0616A"/>
<path d="M70.7489 39.9636C70.2793 40.0516 69.853 40.3094 69.5425 40.6932C69.2321 41.0769 69.0567 41.5629 69.0462 42.0683C69.0233 43.1906 69.3766 43.6091 69.8758 43.7603C70.7987 44.0399 72.2686 49.6934 72.2686 49.6934C72.2686 49.6934 72.4246 54.9664 72.6762 54.706C72.9278 54.4456 72.6431 55.0532 72.7195 55.2386C72.796 55.424 72.3571 55.7017 72.7743 55.9123C73.1915 56.1229 72.9278 57.8002 72.9278 57.8002L74.7737 57.6604C74.7737 57.6604 74.4672 56.294 74.8841 56.2085C75.301 56.1229 75.1116 55.734 74.9426 55.4393C74.7737 55.1445 75.2416 54.7244 75.0076 54.585C74.7737 54.4456 75.4329 48.9945 75.4329 48.9945L72.8555 40.9549C72.6373 40.5861 72.3203 40.2948 71.945 40.1182C71.5697 39.9416 71.1532 39.8878 70.7489 39.9636Z" fill="#219EBC"/>
<path d="M65.149 40.2805L66.4769 37.8132H68.2708L69.6163 40.4203L65.149 40.2805Z" fill="#219EBC"/>
<path d="M61.5776 18.092C60.5166 14.3245 57.5193 11.865 53.8974 11.3255C53.8576 11.3195 53.8197 11.3274 53.7801 11.3247C53.7288 11.3081 53.6765 11.2953 53.6235 11.2865C48.6426 10.604 43.2053 11.8262 38.8777 14.6967C34.7296 17.4482 29.9632 19.0007 25.0701 18.9662C24.9181 18.9651 24.7656 18.9686 24.6124 18.9767C20.8468 19.1759 17.5236 22.0818 16.5056 25.9039C16.372 26.4053 16.6048 26.8534 16.9791 27.1376C17.637 27.6371 18.0863 27.9871 18.8957 28.1689C20.3398 28.4932 21.7889 28.7915 23.243 29.0636V22.9236C23.2436 22.3423 23.4617 21.785 23.8494 21.374C24.2371 20.963 24.7628 20.7318 25.3111 20.7311H53.7199C54.2682 20.7318 54.7939 20.963 55.1816 21.374C55.5693 21.785 55.7874 22.3423 55.788 22.9236V30.5701C56.1777 30.441 56.5581 30.2823 56.9262 30.0952C58.2966 29.3776 59.4675 28.2945 60.3237 26.9521C61.9684 24.4222 62.4028 21.0221 61.5776 18.092Z" fill="#F2F2F2"/>
<path d="M49.6162 54.0261H24.5026C23.9231 54.0254 23.3675 53.7811 22.9577 53.3466C22.5479 52.9122 22.3174 52.3232 22.3167 51.7089V41.3783C19.2579 40.3856 16.0363 40.0862 12.8612 40.4997C12.8082 40.5085 12.7559 40.5213 12.7046 40.5379C12.6649 40.5406 12.6271 40.5327 12.5873 40.5387C8.96541 41.0782 5.96805 43.5378 4.90709 47.3052C4.08188 50.2353 4.51629 53.6354 6.16101 56.1653C7.01721 57.5077 8.18803 58.5908 9.55849 59.3084C11.4422 60.2703 13.4249 60.3427 15.4809 60.4106C21.6539 60.6148 27.8329 60.3672 33.9738 59.6696C36.9959 59.326 40.0054 58.8769 43.0024 58.3224C44.5363 58.0378 46.0652 57.7244 47.5891 57.3821C48.3984 57.2003 48.8478 56.8503 49.5056 56.3508C49.8799 56.0666 50.1127 55.6185 49.9791 55.1171C49.8799 54.7457 49.7587 54.3814 49.6162 54.0261Z" fill="#F2F2F2"/>
<path d="M51.8388 50.9606H27.1921C26.7164 50.96 26.2603 50.7594 25.924 50.4028C25.5876 50.0463 25.3984 49.5628 25.3978 49.0585V24.7769C25.3984 24.2726 25.5876 23.7891 25.924 23.4325C26.2603 23.0759 26.7164 22.8753 27.1921 22.8748H51.8388C52.3145 22.8753 52.7706 23.0759 53.107 23.4325C53.4433 23.7891 53.6326 24.2726 53.6331 24.7769V49.0585C53.6326 49.5628 53.4433 50.0463 53.107 50.4028C52.7706 50.7594 52.3145 50.96 51.8388 50.9606Z" fill="#E6E6E6"/>
<path d="M46.6517 49.6787H28.4029C27.9272 49.6781 27.4712 49.4775 27.1348 49.1209C26.7984 48.7643 26.6092 48.2809 26.6086 47.7765V26.0621C26.6092 25.5578 26.7984 25.0743 27.1348 24.7177C27.4712 24.3611 27.9272 24.1605 28.4029 24.1599H50.6288C51.1045 24.1605 51.5606 24.3611 51.897 24.7177C52.2333 25.0743 52.4225 25.5578 52.4231 26.0621V43.5603C52.4214 45.1825 51.8128 46.7376 50.7308 47.8847C49.6488 49.0317 48.1818 49.6769 46.6517 49.6787Z" fill="white"/>
<path d="M39.5156 45.445C43.9574 45.445 47.5582 41.6277 47.5582 36.9189C47.5582 32.2101 43.9574 28.3928 39.5156 28.3928C35.0738 28.3928 31.473 32.2101 31.473 36.9189C31.473 41.6277 35.0738 45.445 39.5156 45.445Z" fill="#219EBC"/>
<path d="M42.9037 36.4897L40.2198 33.0298C40.147 32.936 40.0558 32.86 39.9526 32.8072C39.8493 32.7544 39.7365 32.726 39.6219 32.724C39.5073 32.722 39.3936 32.7464 39.2888 32.7955C39.184 32.8447 39.0905 32.9174 39.0147 33.0087L36.1446 36.4686C36.0064 36.6356 35.9363 36.8541 35.9499 37.0758C35.9635 37.2976 36.0595 37.5046 36.2169 37.6514C36.3744 37.7982 36.5803 37.8727 36.7895 37.8586C36.9988 37.8445 37.1942 37.7429 37.3328 37.5762L38.8178 35.7861V40.2749C38.8178 40.4973 38.9011 40.7106 39.0495 40.8679C39.1978 41.0251 39.399 41.1135 39.6088 41.1135C39.8186 41.1135 40.0199 41.0251 40.1682 40.8679C40.3166 40.7106 40.3999 40.4973 40.3999 40.2749V35.9027L41.6817 37.5551C41.8149 37.7269 42.0071 37.8355 42.2159 37.8571C42.4248 37.8787 42.6331 37.8114 42.7952 37.6701C42.9572 37.5289 43.0597 37.3251 43.08 37.1038C43.1004 36.8824 43.037 36.6615 42.9037 36.4897L42.9037 36.4897Z" fill="white"/>
<path d="M74.1742 88.8332L72.9812 88.8331L72.4136 83.9541L74.1746 83.9542L74.1742 88.8332Z" fill="#A0616A"/>
<path d="M74.2164 90.1529L70.5472 90.1527V90.1036C70.5473 89.702 70.6977 89.3169 70.9656 89.033C71.2334 88.7491 71.5966 88.5896 71.9754 88.5896H71.9755L72.6457 88.0505L73.8962 88.5897L74.2165 88.5897L74.2164 90.1529Z" fill="#2F2E41"/>
<path d="M65.2087 88.8332L64.0156 88.8331L63.448 83.9541L65.2091 83.9542L65.2087 88.8332Z" fill="#A0616A"/>
<path d="M65.2509 90.1529L61.5817 90.1527V90.1036C61.5817 89.702 61.7322 89.3169 62 89.033C62.2678 88.7491 62.6311 88.5896 63.0098 88.5896H63.0099L63.6801 88.0505L64.9306 88.5897L65.2509 88.5897L65.2509 90.1529Z" fill="#2F2E41"/>
<path d="M74.5548 84.7966C74.9901 84.495 74.7379 84.5146 74.7379 84.5146C74.7379 84.5146 73.7645 76.1479 73.0239 73.6124L72.1669 61.2655C72.1669 61.2655 72.1125 61.5118 72.1669 60.9132C72.2214 60.3145 72.6169 60.7339 72.2214 60.3145C71.8258 59.8952 71.5621 59.6816 71.8258 59.3691C72.0895 59.0566 72.8169 58.4244 72.3873 58.0416C71.9577 57.6589 71.1122 55.1626 71.1122 55.1626L62.8718 55.2324L63.2014 55.1626C63.2014 55.1626 62.1728 54.758 62.644 55.2849C63.1152 55.8117 62.3803 57.1019 62.1166 58.3598C61.8982 59.4017 61.2498 59.6782 62.1166 59.8973C62.9833 60.1165 62.1989 60.7375 62.1989 60.7375C62.1989 60.7375 60.8941 67.3227 61.883 71.6556C61.883 71.6556 62.5651 82.3722 62.9105 83.2938C63.2558 84.2155 63.3877 83.6564 63.2558 84.2155C63.124 84.7746 62.8603 83.7962 63.124 84.7746C63.2679 85.2857 63.3818 85.8057 63.4651 86.3317L65.2532 86.1919C65.2532 86.1919 65.6685 84.8043 65.2532 84.44C64.838 84.0757 65.1247 85.1389 65.5746 84.3278C66.0246 83.5166 65.4972 83.7962 65.3654 82.678C65.2335 81.5598 66.4432 76.3509 65.5746 73.1548L67.1796 64.1867L69.7278 73.4727C69.7278 73.4727 71.0794 84.8138 71.5185 85.2135C71.9577 85.6132 71.7803 84.6429 71.9577 85.6132C72.1369 86.5937 72.5439 86.3338 72.5324 86.454C72.4096 87.736 74.5548 86.4714 74.5548 86.4714C74.5338 86.1457 74.5338 85.8188 74.5548 85.493C74.5946 85.1939 74.1195 85.0982 74.5548 84.7966Z" fill="#2F2E41"/>
<path d="M63.699 58.0795C63.1716 58.0795 61.7213 57.3223 61.985 57.0021C62.2487 56.6818 62.2487 55.6187 62.2487 55.3116C62.2487 55.0045 63.4353 43.683 63.4353 43.683L63.3451 40.911C63.3397 40.7448 63.3659 40.5792 63.4222 40.424C63.4784 40.2688 63.5636 40.1272 63.6725 40.0077C63.7815 39.8881 63.9121 39.793 64.0565 39.7281C64.2008 39.6631 64.356 39.6296 64.5129 39.6296L65.6767 39.2103L68.9728 39.0706L70.6165 39.6296C70.7796 39.6296 70.9399 39.674 71.0822 39.7585C71.2245 39.843 71.3439 39.9648 71.4291 40.1122C71.5142 40.2597 71.5623 40.4278 71.5686 40.6006C71.5749 40.7733 71.5393 40.9449 71.4652 41.0989C72.3374 42.6084 72.7751 44.3549 72.7247 46.1243C72.6869 47.4481 72.0542 49.0648 71.9018 50.5604C71.8884 50.6917 71.8787 50.822 71.8734 50.9512C71.872 50.9872 71.6021 51.1666 71.8696 51.0589C72.1371 50.9512 71.7262 51.3314 71.8658 51.5606C72.0053 51.7898 72.2757 51.6493 71.8768 51.9292C71.4779 52.2091 72.3558 54.9126 72.269 55.0045C72.0053 55.2841 71.4779 55.4239 71.8734 55.8432C72.269 56.2625 72.6645 55.9829 72.1371 56.542C71.6098 57.1011 70.0297 58.0795 70.0297 58.0795L63.699 58.0795Z" fill="#3F3D56"/>
<path d="M67.2235 37.4478C68.7907 37.4478 70.0612 36.1009 70.0612 34.4395C70.0612 32.778 68.7907 31.4312 67.2235 31.4312C65.6562 31.4312 64.3857 32.778 64.3857 34.4395C64.3857 36.1009 65.6562 37.4478 67.2235 37.4478Z" fill="#A0616A"/>
<path d="M49.9399 43.7728C50.076 43.709 50.2237 43.6776 50.3725 43.6809C50.5212 43.6841 50.6676 43.7219 50.8011 43.7916C50.9346 43.8613 51.0521 43.9612 51.1453 44.0842C51.2385 44.2072 51.3051 44.3504 51.3404 44.5037L54.942 44.8649L53.7639 46.4179L50.5243 45.8368C50.2775 45.8827 50.0234 45.831 49.8102 45.6915C49.5969 45.552 49.4394 45.3344 49.3673 45.08C49.2953 44.8256 49.3138 44.552 49.4193 44.3111C49.5248 44.0701 49.71 43.8786 49.9399 43.7728V43.7728Z" fill="#A0616A"/>
<path d="M67.0166 41.5325C66.9336 41.0346 66.6904 40.5827 66.3284 40.2536C65.9664 39.9245 65.508 39.7385 65.0313 39.7274C63.9726 39.7031 63.5778 40.0776 63.4352 40.6069C63.1715 41.5853 58.9265 45.0246 58.9265 45.0246L55.2808 44.6063C55.0615 44.5308 55.1655 44.3191 54.3413 44.4985C53.9352 44.2166 53.6727 44.2644 53.4467 44.3959L52.0964 44.241L52.2283 46.4773C52.2283 46.4773 53.6738 46.1128 53.9423 46.7569C54.2108 47.4009 54.1493 47.4934 54.7334 47.0364C55.3174 46.5794 55.2607 47.0364 55.2607 47.0364L59.4798 48.1546L66.0815 43.7657C66.4294 43.5344 66.7042 43.1983 66.8708 42.8005C67.0374 42.4026 67.0881 41.9611 67.0166 41.5325H67.0166Z" fill="#219EBC"/>
<path d="M68.3253 37.1255L68.5112 37.1884C67.9297 37.2401 66.8934 37.5839 66.9949 37.3939C67.0965 37.2038 66.7128 36.4867 66.9 36.3959C67.0946 36.3235 67.2682 36.1988 67.4037 36.0339C67.5223 35.8578 67.5197 35.567 67.3417 35.4594C67.169 35.3532 66.9554 35.4678 66.784 35.5754C66.6113 35.6816 66.2922 34.119 66.374 33.6312C65.8927 33.3517 65.31 33.887 64.7694 33.7821C64.4385 33.7179 64.1998 33.4299 64.0495 33.1029C64.2951 32.8559 64.4778 32.5473 64.5808 32.2055C64.3514 32.3281 64.1062 32.4143 63.8531 32.4613C63.8077 32.2075 63.814 31.9464 63.8715 31.6954C63.9157 31.495 64.0058 31.3093 64.1339 31.1547C64.262 31.0001 64.4241 30.8814 64.6059 30.8092C64.7903 30.7444 64.99 30.7481 65.1722 30.8198C65.3543 30.8914 65.508 31.0267 65.6079 31.2034C65.6191 31.0131 65.573 30.824 65.4764 30.6632C65.3797 30.5025 65.2374 30.3784 65.07 30.3088C65.1922 30.2416 65.3273 30.2052 65.465 30.2026C65.6026 30.1999 65.7389 30.2309 65.8634 30.2933C65.9878 30.3557 66.097 30.4477 66.1823 30.5621C66.2677 30.6766 66.327 30.8104 66.3555 30.9532C66.9509 30.6368 67.6341 30.5594 68.2791 30.7351C68.9173 30.9126 69.7637 31.6632 69.7637 31.6632C71.2035 32.0001 71.1349 37.8034 68.3253 37.1255Z" fill="#2F2E41"/>
<path d="M83.3592 88.9535C83.392 88.9551 83.4245 88.9459 83.4523 88.9273C83.4801 88.9086 83.5018 88.8814 83.5145 88.8492C83.5272 88.8171 83.5302 88.7815 83.5232 88.7475C83.5162 88.7134 83.4995 88.6825 83.4754 88.6588L83.4644 88.6125L83.4688 88.6014C83.5019 88.5185 83.5573 88.4478 83.6282 88.3983C83.699 88.3487 83.7821 88.3225 83.867 88.3228C83.9519 88.3231 84.0348 88.35 84.1053 88.4002C84.1758 88.4503 84.2307 88.5214 84.2632 88.6045C84.3931 88.9362 84.5586 89.2686 84.5993 89.6193C84.6173 89.7744 84.6097 89.9316 84.577 90.0839C84.8821 89.3781 85.0406 88.6111 85.0416 87.8347C85.0417 87.6399 85.0315 87.4452 85.011 87.2516C84.9941 87.0929 84.9707 86.9353 84.9407 86.7789C84.7772 85.9299 84.426 85.1342 83.916 84.4571C83.6692 84.3144 83.4696 84.0948 83.3441 83.8281C83.2986 83.7322 83.2665 83.6298 83.2487 83.5242C83.3027 83.3729 83.3312 83.2127 83.3326 83.0509C83.3714 82.9885 83.4409 82.9575 83.4833 82.8966C83.694 82.5936 83.9844 82.6465 84.136 83.0582C84.4598 83.2315 84.463 83.5188 84.2643 83.7952C84.1379 83.971 84.1205 84.2089 84.0096 84.3971C84.021 84.4126 84.0329 84.4276 84.0443 84.4431C84.2529 84.7275 84.4347 85.0328 84.5871 85.3548C84.55 84.9941 84.5943 84.6292 84.7162 84.2902C84.8397 83.9742 85.0713 83.7081 85.2752 83.435C85.3292 83.3616 85.4024 83.3068 85.4857 83.2776C85.569 83.2483 85.6586 83.2459 85.7432 83.2706C85.8278 83.2953 85.9036 83.3461 85.9609 83.4165C86.0183 83.4868 86.0548 83.5737 86.0656 83.666L86.0668 83.6781C86.0365 83.6962 86.0069 83.7154 85.9779 83.7357C85.9414 83.7616 85.9132 83.7984 85.8969 83.8416C85.8805 83.8847 85.8769 83.932 85.8863 83.9774C85.8958 84.0227 85.918 84.064 85.95 84.0958C85.982 84.1276 86.0223 84.1483 86.0656 84.1554L86.07 84.1561C86.0592 84.2719 86.0402 84.3866 86.013 84.4992C86.2746 85.5718 85.7098 85.9624 84.9033 85.98C84.8855 85.9896 84.8682 85.9993 84.8504 86.0085C85.0035 86.4686 85.0996 86.9478 85.1361 87.4341C85.1568 87.721 85.1556 88.0092 85.1325 88.2959L85.1338 88.2857C85.1923 87.9669 85.3527 87.6793 85.588 87.4713C85.9375 87.167 86.4313 87.0549 86.8084 86.8102C86.8484 86.7829 86.895 86.7684 86.9427 86.7683C86.9903 86.7681 87.0369 86.7825 87.0771 86.8095C87.1173 86.8366 87.1494 86.8753 87.1695 86.921C87.1897 86.9668 87.197 87.0177 87.1908 87.0677L87.1892 87.0784C87.133 87.1027 87.0783 87.1306 87.0254 87.1621C86.9951 87.1802 86.9654 87.1995 86.9364 87.2198C86.9 87.2456 86.8717 87.2825 86.8554 87.3256C86.8391 87.3687 86.8354 87.4161 86.8449 87.4614C86.8544 87.5068 86.8766 87.5481 86.9086 87.5798C86.9405 87.6116 86.9808 87.6324 87.0241 87.6395L87.0286 87.6402L87.0377 87.6417C86.9417 87.8848 86.8069 88.1085 86.6392 88.3031C86.4756 89.2394 85.7731 89.3283 85.0215 89.0556H85.0211C84.9386 89.4355 84.8191 89.8052 84.6646 90.1589H83.3911C83.3865 90.1439 83.3824 90.1284 83.3783 90.1134C83.4962 90.1213 83.6145 90.1138 83.7307 90.0911C83.6362 89.9682 83.5417 89.8443 83.4472 89.7214C83.4451 89.7191 83.4431 89.7167 83.4413 89.7142C83.3933 89.6513 83.345 89.5889 83.297 89.526L83.297 89.5259C83.2945 89.3331 83.3153 89.1407 83.3591 88.9535L83.3592 88.9535Z" fill="#F2F2F2"/>
<path d="M40.9592 90.3507L92.343 90.3936C92.3846 90.3936 92.4246 90.3761 92.454 90.3449C92.4834 90.3137 92.5 90.2713 92.5 90.2272C92.5 90.1831 92.4834 90.1407 92.454 90.1095C92.4246 90.0783 92.3846 90.0608 92.343 90.0608L40.9592 90.0178C40.9176 90.0178 40.8777 90.0353 40.8482 90.0666C40.8188 90.0978 40.8022 90.1401 40.8022 90.1842C40.8022 90.2284 40.8188 90.2707 40.8482 90.3019C40.8777 90.3331 40.9176 90.3507 40.9592 90.3507Z" fill="#CACACA"/>
<path d="M38.3343 67.0244C37.9654 67.0244 37.6048 66.9084 37.2981 66.6911C36.9914 66.4739 36.7524 66.1651 36.6112 65.8038C36.47 65.4426 36.4331 65.045 36.5051 64.6615C36.577 64.278 36.7547 63.9257 37.0155 63.6492C37.2763 63.3727 37.6086 63.1843 37.9704 63.1081C38.3322 63.0318 38.7072 63.0709 39.048 63.2206C39.3888 63.3702 39.68 63.6236 39.885 63.9488C40.0899 64.2739 40.1993 64.6562 40.1993 65.0472C40.1987 65.5714 40.0021 66.074 39.6524 66.4446C39.3028 66.8153 38.8287 67.0238 38.3343 67.0244ZM38.3343 63.3496C38.0176 63.3496 37.708 63.4492 37.4446 63.6357C37.1813 63.8222 36.976 64.0874 36.8548 64.3976C36.7336 64.7078 36.7019 65.0491 36.7637 65.3784C36.8255 65.7077 36.978 66.0102 37.202 66.2476C37.4259 66.485 37.7112 66.6467 38.0219 66.7122C38.3325 66.7777 38.6545 66.7441 38.9471 66.6156C39.2397 66.4871 39.4898 66.2695 39.6657 65.9903C39.8417 65.7112 39.9356 65.383 39.9356 65.0472C39.9351 64.5971 39.7663 64.1656 39.4661 63.8474C39.1659 63.5291 38.7588 63.3501 38.3343 63.3496Z" fill="#F2F2F2"/>
<path d="M39.0642 64.9551L38.4858 64.2095C38.4702 64.1893 38.4505 64.1729 38.4283 64.1615C38.406 64.1501 38.3817 64.144 38.357 64.1436C38.3323 64.1431 38.3078 64.1484 38.2852 64.159C38.2626 64.1696 38.2425 64.1853 38.2261 64.2049L37.6076 64.9505C37.5781 64.9866 37.5632 65.0336 37.5662 65.0812C37.5692 65.1289 37.5899 65.1733 37.6237 65.2049C37.6575 65.2364 37.7018 65.2525 37.7467 65.2495C37.7917 65.2466 37.8337 65.2249 37.8637 65.1892L38.1837 64.8035V65.7708C38.1837 65.8188 38.2016 65.8647 38.2336 65.8986C38.2656 65.9325 38.3089 65.9515 38.3542 65.9515C38.3994 65.9515 38.4427 65.9325 38.4747 65.8986C38.5067 65.8647 38.5246 65.8188 38.5246 65.7708V64.8286L38.8009 65.1847C38.8296 65.2217 38.871 65.2451 38.916 65.2498C38.961 65.2544 39.0059 65.2399 39.0408 65.2095C39.0757 65.179 39.0978 65.1351 39.1022 65.0874C39.1066 65.0397 39.0929 64.9921 39.0642 64.9551H39.0642Z" fill="#F2F2F2"/>
<path d="M59.5612 37.8132C59.1923 37.8132 58.8317 37.6972 58.525 37.48C58.2183 37.2627 57.9793 36.9539 57.8381 36.5927C57.697 36.2314 57.66 35.8338 57.732 35.4503C57.804 35.0668 57.9816 34.7145 58.2424 34.438C58.5033 34.1615 58.8356 33.9732 59.1974 33.8969C59.5591 33.8206 59.9341 33.8597 60.2749 34.0094C60.6157 34.159 60.907 34.4124 61.1119 34.7376C61.3168 35.0627 61.4262 35.445 61.4262 35.836C61.4257 36.3602 61.229 36.8628 60.8794 37.2334C60.5297 37.6041 60.0557 37.8126 59.5612 37.8132ZM59.5612 34.1384C59.2445 34.1384 58.9349 34.238 58.6715 34.4245C58.4082 34.6111 58.203 34.8762 58.0818 35.1864C57.9606 35.4966 57.9288 35.8379 57.9906 36.1672C58.0524 36.4965 58.2049 36.799 58.4289 37.0364C58.6528 37.2738 58.9382 37.4355 59.2488 37.501C59.5594 37.5665 59.8814 37.5329 60.174 37.4044C60.4666 37.2759 60.7167 37.0583 60.8927 36.7792C61.0686 36.5 61.1625 36.1718 61.1625 35.836C61.1621 35.3859 60.9932 34.9545 60.693 34.6362C60.3928 34.3179 59.9858 34.1389 59.5612 34.1384V34.1384Z" fill="#F2F2F2"/>
<path d="M60.2914 35.7429L59.713 34.9973C59.6973 34.9771 59.6777 34.9607 59.6554 34.9494C59.6332 34.938 59.6089 34.9319 59.5842 34.9314C59.5595 34.931 59.535 34.9362 59.5124 34.9468C59.4898 34.9574 59.4696 34.9731 59.4533 34.9928L58.8348 35.7384C58.8052 35.7744 58.7903 35.8214 58.7934 35.8691C58.7964 35.9167 58.817 35.9612 58.8509 35.9927C58.8847 36.0242 58.9289 36.0403 58.9739 36.0374C59.0189 36.0345 59.0609 36.0128 59.0908 35.9771L59.4109 35.5913V36.5587C59.4109 36.6066 59.4288 36.6526 59.4608 36.6865C59.4928 36.7203 59.5361 36.7394 59.5813 36.7394C59.6265 36.7394 59.6699 36.7203 59.7019 36.6865C59.7339 36.6526 59.7518 36.6066 59.7518 36.5587V35.6164L60.028 35.9725C60.0568 36.0096 60.0982 36.033 60.1432 36.0376C60.1882 36.0423 60.2331 36.0278 60.268 35.9973C60.3029 35.9669 60.325 35.923 60.3294 35.8753C60.3338 35.8276 60.3201 35.78 60.2914 35.7429L60.2914 35.7429Z" fill="#F2F2F2"/>
<path d="M17.5025 36.1349C17.1336 36.1349 16.773 36.019 16.4663 35.8017C16.1596 35.5845 15.9206 35.2757 15.7794 34.9144C15.6383 34.5532 15.6013 34.1556 15.6733 33.7721C15.7453 33.3886 15.9229 33.0363 16.1837 32.7598C16.4445 32.4832 16.7769 32.2949 17.1386 32.2187C17.5004 32.1424 17.8754 32.1815 18.2162 32.3312C18.557 32.4808 18.8483 32.7342 19.0532 33.0594C19.2581 33.3845 19.3675 33.7668 19.3675 34.1578C19.3669 34.682 19.1703 35.1845 18.8206 35.5552C18.471 35.9259 17.9969 36.1344 17.5025 36.1349ZM17.5025 32.4602C17.1858 32.4602 16.8762 32.5598 16.6128 32.7463C16.3495 32.9328 16.1442 33.198 16.023 33.5082C15.9018 33.8184 15.8701 34.1597 15.9319 34.489C15.9937 34.8183 16.1462 35.1208 16.3702 35.3582C16.5941 35.5956 16.8794 35.7573 17.1901 35.8228C17.5007 35.8883 17.8227 35.8547 18.1153 35.7262C18.4079 35.5977 18.658 35.3801 18.8339 35.1009C19.0099 34.8218 19.1038 34.4936 19.1038 34.1578C19.1033 33.7077 18.9345 33.2762 18.6343 32.958C18.3341 32.6397 17.927 32.4607 17.5025 32.4602V32.4602Z" fill="#F2F2F2"/>
<path d="M18.2323 34.0655L17.6539 33.3198C17.6382 33.2996 17.6186 33.2832 17.5963 33.2719C17.5741 33.2605 17.5498 33.2544 17.5251 33.2539C17.5004 33.2535 17.4759 33.2588 17.4533 33.2694C17.4307 33.2799 17.4106 33.2956 17.3942 33.3153L16.7757 34.0609C16.7462 34.0969 16.7313 34.1439 16.7343 34.1916C16.7373 34.2392 16.758 34.2837 16.7918 34.3152C16.8256 34.3467 16.8699 34.3628 16.9148 34.3599C16.9598 34.357 17.0018 34.3353 17.0318 34.2996L17.3518 33.9138V34.8812C17.3518 34.9291 17.3697 34.9751 17.4017 35.009C17.4337 35.0429 17.477 35.0619 17.5223 35.0619C17.5675 35.0619 17.6108 35.0429 17.6428 35.009C17.6748 34.9751 17.6927 34.9291 17.6927 34.8812V33.939L17.969 34.295C17.9977 34.3321 18.0391 34.3555 18.0841 34.3601C18.1291 34.3648 18.174 34.3503 18.2089 34.3198C18.2438 34.2894 18.2659 34.2455 18.2703 34.1978C18.2747 34.1501 18.261 34.1025 18.2323 34.0655L18.2323 34.0655Z" fill="#F2F2F2"/>
<path d="M32.4009 11.9545C32.0321 11.9545 31.6715 11.8386 31.3648 11.6213C31.0581 11.4041 30.819 11.0953 30.6779 10.734C30.5367 10.3727 30.4998 9.9752 30.5717 9.59167C30.6437 9.20814 30.8213 8.85585 31.0821 8.57934C31.343 8.30283 31.6753 8.11452 32.0371 8.03824C32.3988 7.96195 32.7738 8.0011 33.1146 8.15074C33.4554 8.30039 33.7467 8.55381 33.9516 8.87895C34.1566 9.20409 34.2659 9.58635 34.2659 9.97739C34.2654 10.5016 34.0687 11.0041 33.7191 11.3748C33.3694 11.7454 32.8954 11.9539 32.4009 11.9545ZM32.4009 8.27979C32.0842 8.27979 31.7746 8.37935 31.5113 8.56589C31.2479 8.75242 31.0427 9.01755 30.9215 9.32775C30.8003 9.63794 30.7686 9.97927 30.8304 10.3086C30.8921 10.6379 31.0446 10.9404 31.2686 11.1778C31.4926 11.4152 31.7779 11.5769 32.0885 11.6424C32.3991 11.7079 32.7211 11.6743 33.0137 11.5458C33.3063 11.4173 33.5564 11.1997 33.7324 10.9205C33.9083 10.6414 34.0023 10.3131 34.0023 9.97739C34.0018 9.52731 33.8329 9.09581 33.5327 8.77756C33.2325 8.4593 32.8255 8.28029 32.4009 8.27979V8.27979Z" fill="#F2F2F2"/>
<path d="M33.1312 9.88528L32.5529 9.13966C32.5372 9.11943 32.5175 9.10306 32.4953 9.09169C32.473 9.08031 32.4487 9.07419 32.424 9.07376C32.3993 9.07332 32.3748 9.07858 32.3522 9.08918C32.3296 9.09977 32.3095 9.11544 32.2932 9.1351L31.6746 9.88072C31.6451 9.91676 31.6302 9.96374 31.6332 10.0114C31.6362 10.059 31.6569 10.1035 31.6907 10.135C31.7245 10.1666 31.7688 10.1826 31.8137 10.1797C31.8587 10.1768 31.9008 10.1551 31.9307 10.1194L32.2507 9.73365V10.701C32.2507 10.7489 32.2687 10.7949 32.3006 10.8288C32.3326 10.8627 32.376 10.8817 32.4212 10.8817C32.4664 10.8817 32.5098 10.8627 32.5417 10.8288C32.5737 10.7949 32.5917 10.7489 32.5917 10.701V9.75878L32.8679 10.1149C32.8966 10.1519 32.938 10.1753 32.983 10.18C33.028 10.1846 33.0729 10.1701 33.1078 10.1397C33.1428 10.1092 33.1648 10.0653 33.1692 10.0176C33.1736 9.9699 33.1599 9.9223 33.1312 9.88528L33.1312 9.88528Z" fill="#F2F2F2"/>
<path d="M12.4922 50.811C12.1233 50.811 11.7627 50.6951 11.456 50.4778C11.1493 50.2606 10.9102 49.9518 10.7691 49.5905C10.6279 49.2292 10.5909 48.8317 10.6629 48.4481C10.7349 48.0646 10.9125 47.7123 11.1733 47.4358C11.4342 47.1593 11.7665 46.971 12.1283 46.8947C12.4901 46.8184 12.8651 46.8575 13.2059 47.0072C13.5467 47.1569 13.838 47.4103 14.0429 47.7354C14.2478 48.0606 14.3572 48.4428 14.3572 48.8339C14.3566 49.3581 14.16 49.8606 13.8103 50.2313C13.4607 50.6019 12.9866 50.8104 12.4922 50.811ZM12.4922 47.1362C12.1754 47.1362 11.8658 47.2358 11.6025 47.4223C11.3391 47.6089 11.1339 47.874 11.0127 48.1842C10.8915 48.4944 10.8598 48.8357 10.9215 49.165C10.9833 49.4943 11.1358 49.7968 11.3598 50.0343C11.5837 50.2717 11.8691 50.4334 12.1797 50.4989C12.4903 50.5644 12.8123 50.5308 13.1049 50.4023C13.3975 50.2738 13.6476 50.0562 13.8236 49.7771C13.9996 49.4979 14.0935 49.1697 14.0935 48.8339C14.093 48.3838 13.9242 47.9523 13.624 47.634C13.3238 47.3158 12.9167 47.1367 12.4922 47.1362Z" fill="white"/>
<path d="M13.2223 48.7417L12.6439 47.9961C12.6282 47.9759 12.6086 47.9595 12.5863 47.9481C12.5641 47.9368 12.5398 47.9306 12.5151 47.9302C12.4904 47.9298 12.4659 47.935 12.4433 47.9456C12.4207 47.9562 12.4005 47.9719 12.3842 47.9915L11.7657 48.7372C11.7362 48.7732 11.7212 48.8202 11.7243 48.8678C11.7273 48.9155 11.748 48.9599 11.7818 48.9915C11.8156 49.023 11.8598 49.0391 11.9048 49.0362C11.9498 49.0332 11.9918 49.0116 12.0218 48.9759L12.3418 48.5901V49.5574C12.3418 49.6054 12.3597 49.6513 12.3917 49.6852C12.4237 49.7191 12.467 49.7382 12.5122 49.7382C12.5575 49.7382 12.6008 49.7191 12.6328 49.6852C12.6648 49.6513 12.6827 49.6054 12.6827 49.5574V48.6152L12.9589 48.9713C12.9877 49.0083 13.0291 49.0317 13.0741 49.0364C13.1191 49.041 13.164 49.0266 13.1989 48.9961C13.2338 48.9657 13.2559 48.9218 13.2603 48.8741C13.2647 48.8264 13.251 48.7787 13.2223 48.7417L13.2223 48.7417Z" fill="white"/>
<path d="M52.8371 17.6853C52.4683 17.6853 52.1077 17.5694 51.801 17.3521C51.4942 17.1349 51.2552 16.8261 51.114 16.4648C50.9729 16.1035 50.9359 15.706 51.0079 15.3224C51.0798 14.9389 51.2575 14.5866 51.5183 14.3101C51.7791 14.0335 52.1115 13.8452 52.4733 13.7689C52.835 13.6927 53.2101 13.7318 53.5508 13.8815C53.8916 14.0311 54.1829 14.2845 54.3879 14.6097C54.5928 14.9348 54.7022 15.3171 54.7022 15.7082C54.7016 16.2324 54.5049 16.7349 54.1553 17.1056C53.8057 17.4762 53.3316 17.6847 52.8371 17.6853ZM52.8371 14.0105C52.5204 14.0105 52.2108 14.1101 51.9475 14.2966C51.6841 14.4831 51.4789 14.7482 51.3576 15.0584C51.2364 15.3686 51.2047 15.71 51.2665 16.0393C51.3283 16.3686 51.4808 16.6711 51.7047 16.9085C51.9287 17.1459 52.214 17.3076 52.5247 17.3731C52.8353 17.4387 53.1573 17.405 53.4499 17.2766C53.7425 17.1481 53.9926 16.9305 54.1686 16.6513C54.3445 16.3721 54.4385 16.0439 54.4385 15.7082C54.438 15.2581 54.2691 14.8266 53.9689 14.5083C53.6687 14.19 53.2617 14.011 52.8371 14.0105Z" fill="white"/>
<path d="M53.5673 15.617L52.9889 14.8713C52.9732 14.8511 52.9536 14.8348 52.9313 14.8234C52.9091 14.812 52.8847 14.8059 52.86 14.8054C52.8353 14.805 52.8109 14.8103 52.7883 14.8209C52.7657 14.8315 52.7455 14.8471 52.7292 14.8668L52.1107 15.6124C52.0811 15.6484 52.0662 15.6954 52.0692 15.7431C52.0722 15.7907 52.0929 15.8352 52.1268 15.8667C52.1606 15.8983 52.2048 15.9143 52.2498 15.9114C52.2947 15.9085 52.3368 15.8868 52.3667 15.8511L52.6867 15.4653V16.4327C52.6867 16.4806 52.7047 16.5266 52.7367 16.5605C52.7686 16.5944 52.812 16.6134 52.8572 16.6134C52.9024 16.6134 52.9458 16.5944 52.9778 16.5605C53.0097 16.5266 53.0277 16.4806 53.0277 16.4327V15.4905L53.3039 15.8466C53.3326 15.8836 53.374 15.907 53.419 15.9116C53.464 15.9163 53.5089 15.9018 53.5439 15.8714C53.5788 15.8409 53.6009 15.797 53.6053 15.7493C53.6096 15.7016 53.596 15.654 53.5673 15.617L53.5673 15.617Z" fill="white"/>
</g>
<rect x="1" y="1" width="96" height="96" rx="48" stroke="#8ECAE6" stroke-width="2"/>
<defs>
<clipPath id="clip0_778_6992">
<rect width="88" height="82.3935" fill="white" transform="translate(4.5 8)"/>
</clipPath>
</defs>
</svg>
