<svg width="565" height="421" viewBox="0 0 565 421" fill="none" xmlns="http://www.w3.org/2000/svg">
<path d="M565 369.963H0V370.245H565V369.963Z" fill="#EBEBEB"/>
<path d="M267.81 319.564H49.6187C47.9094 319.561 46.2712 318.88 45.0636 317.67C43.856 316.46 43.1777 314.821 43.1777 313.112V6.3958C43.1926 4.69631 43.8774 3.07132 45.0834 1.87379C46.2894 0.676258 47.9192 0.00291132 49.6187 0H267.81C269.522 0 271.163 0.679794 272.373 1.88984C273.583 3.09988 274.263 4.74104 274.263 6.4523V313.112C274.263 314.823 273.583 316.464 272.373 317.674C271.163 318.884 269.522 319.564 267.81 319.564ZM49.6187 0.226001C47.9844 0.228994 46.418 0.880344 45.2633 2.03708C44.1087 3.19382 43.4602 4.76142 43.4602 6.3958V313.112C43.4602 314.746 44.1087 316.314 45.2633 317.47C46.418 318.627 47.9844 319.279 49.6187 319.281H267.81C269.446 319.279 271.013 318.628 272.17 317.471C273.326 316.315 273.977 314.747 273.98 313.112V6.3958C273.977 4.76038 273.326 3.19281 272.17 2.03639C271.013 0.879977 269.446 0.228988 267.81 0.226001H49.6187Z" fill="#EBEBEB"/>
<path d="M512.241 319.564H294.038C292.328 319.561 290.688 318.88 289.479 317.671C288.27 316.461 287.589 314.822 287.586 313.112V6.3958C287.604 4.69528 288.291 3.0703 289.499 1.87308C290.707 0.675863 292.338 0.00287957 294.038 0H512.241C513.939 0.00588108 515.566 0.680542 516.769 1.87775C517.973 3.07496 518.656 4.69826 518.671 6.3958V313.112C518.671 314.819 517.994 316.457 516.789 317.666C515.584 318.876 513.949 319.558 512.241 319.564ZM294.038 0.226001C292.403 0.228988 290.835 0.879977 289.679 2.03639C288.522 3.19281 287.871 4.76038 287.868 6.3958V313.112C287.871 314.747 288.522 316.315 289.679 317.471C290.835 318.628 292.403 319.279 294.038 319.281H512.241C513.877 319.279 515.444 318.628 516.601 317.471C517.757 316.315 518.408 314.747 518.411 313.112V6.3958C518.408 4.76038 517.757 3.19281 516.601 2.03639C515.444 0.879977 513.877 0.228988 512.241 0.226001H294.038Z" fill="#EBEBEB"/>
<path d="M508.386 388.145H479.006V388.427H508.386V388.145Z" fill="#EBEBEB"/>
<path d="M402.314 391.217H351.43V391.499H402.314V391.217Z" fill="#EBEBEB"/>
<path d="M477.876 377.658H409.184V377.941H477.876V377.658Z" fill="#EBEBEB"/>
<path d="M81.0092 379.557H59.2793V379.839H81.0092V379.557Z" fill="#EBEBEB"/>
<path d="M153.556 379.557H91.0781V379.839H153.556V379.557Z" fill="#EBEBEB"/>
<path d="M275.878 384.324H191.727V384.607H275.878V384.324Z" fill="#EBEBEB"/>
<path d="M427.806 364.176H436.846V196.879H427.806V364.176Z" fill="#F0F0F0"/>
<path d="M384.425 369.939H434.473V364.165H384.425V369.939Z" fill="#F0F0F0"/>
<path d="M427.819 196.869H382.031V364.166H427.819V196.869Z" fill="#F5F5F5"/>
<path d="M422.937 283.992H386.912V313.869H422.937V283.992Z" fill="#F0F0F0"/>
<path d="M422.937 323.09H386.912V352.967H422.937V323.09Z" fill="#F0F0F0"/>
<path d="M400.122 300.977H409.715C410.452 300.977 411.049 300.38 411.049 299.643V298.208C411.049 297.472 410.452 296.875 409.715 296.875H400.122C399.385 296.875 398.788 297.472 398.788 298.208V299.643C398.788 300.38 399.385 300.977 400.122 300.977Z" fill="#F5F5F5"/>
<path d="M400.122 340.074H409.715C410.452 340.074 411.049 339.477 411.049 338.741V337.306C411.049 336.569 410.452 335.972 409.715 335.972H400.122C399.385 335.972 398.788 336.569 398.788 337.306V338.741C398.788 339.477 399.385 340.074 400.122 340.074Z" fill="#F5F5F5"/>
<path d="M422.937 206.102H386.912V235.979H422.937V206.102Z" fill="#F0F0F0"/>
<path d="M422.937 244.883H386.912V274.76H422.937V244.883Z" fill="#F0F0F0"/>
<path d="M400.122 223.084H409.715C410.452 223.084 411.049 222.487 411.049 221.751V220.315C411.049 219.579 410.452 218.982 409.715 218.982H400.122C399.385 218.982 398.788 219.579 398.788 220.315V221.751C398.788 222.487 399.385 223.084 400.122 223.084Z" fill="#F5F5F5"/>
<path d="M400.122 261.877H409.715C410.452 261.877 411.049 261.28 411.049 260.544V259.108C411.049 258.372 410.452 257.775 409.715 257.775H400.122C399.385 257.775 398.788 258.372 398.788 259.108V260.544C398.788 261.28 399.385 261.877 400.122 261.877Z" fill="#F5F5F5"/>
<path d="M477.921 364.176H505.041V196.879H477.921V364.176Z" fill="#F0F0F0"/>
<path d="M434.508 369.939H502.252V364.165H434.508V369.939Z" fill="#F0F0F0"/>
<path d="M477.922 196.869H432.135V364.166H477.922V196.869Z" fill="#F5F5F5"/>
<path d="M473.04 283.992H437.016V313.869H473.04V283.992Z" fill="#F0F0F0"/>
<path d="M473.04 323.09H437.016V352.967H473.04V323.09Z" fill="#F0F0F0"/>
<path d="M450.225 300.977H459.819C460.555 300.977 461.152 300.38 461.152 299.643V298.208C461.152 297.472 460.555 296.875 459.819 296.875H450.225C449.489 296.875 448.892 297.472 448.892 298.208V299.643C448.892 300.38 449.489 300.977 450.225 300.977Z" fill="#F5F5F5"/>
<path d="M450.225 340.074H459.819C460.555 340.074 461.152 339.477 461.152 338.741V337.306C461.152 336.569 460.555 335.972 459.819 335.972H450.225C449.489 335.972 448.892 336.569 448.892 337.306V338.741C448.892 339.477 449.489 340.074 450.225 340.074Z" fill="#F5F5F5"/>
<path d="M473.04 206.102H437.016V235.979H473.04V206.102Z" fill="#F0F0F0"/>
<path d="M473.04 244.883H437.016V274.76H473.04V244.883Z" fill="#F0F0F0"/>
<path d="M450.225 223.084H459.819C460.555 223.084 461.152 222.487 461.152 221.751V220.315C461.152 219.579 460.555 218.982 459.819 218.982H450.225C449.489 218.982 448.892 219.579 448.892 220.315V221.751C448.892 222.487 449.489 223.084 450.225 223.084Z" fill="#F5F5F5"/>
<path d="M450.225 261.877H459.819C460.555 261.877 461.152 261.28 461.152 260.544V259.108C461.152 258.372 460.555 257.775 459.819 257.775H450.225C449.489 257.775 448.892 258.372 448.892 259.108V260.544C448.892 261.28 449.489 261.877 450.225 261.877Z" fill="#F5F5F5"/>
<path d="M330.672 161.951L482.895 161.951V28.3174L330.672 28.3174V161.951Z" fill="#E6E6E6"/>
<path d="M314.354 23.1191H492.748C493.149 23.1191 493.534 23.2787 493.818 23.5626C494.102 23.8466 494.262 24.2318 494.262 24.6333C494.259 25.033 494.098 25.4152 493.814 25.6967C493.531 25.9783 493.147 26.1362 492.748 26.1362H314.354C313.957 26.1333 313.576 25.974 313.295 25.6928C313.014 25.4116 312.855 25.031 312.852 24.6333C312.852 24.2337 313.01 23.8503 313.291 23.5666C313.573 23.283 313.955 23.1221 314.354 23.1191Z" fill="#E6E6E6"/>
<path d="M324.22 161.951L479.889 161.951V28.3174L324.22 28.3174V161.951Z" fill="#F0F0F0"/>
<path d="M330.673 161.951H482.895V166.234H326.221L330.673 161.951Z" fill="#E6E6E6"/>
<path d="M313.452 161.951H469.121L464.669 166.234H309L313.452 161.951Z" fill="#F0F0F0"/>
<path d="M470.838 152.911V37.3574L333.26 37.3574V152.911H470.838Z" fill="#FAFAFA"/>
<path d="M439.605 152.911L386.529 37.3574H361.477L414.553 152.911H439.605Z" fill="white"/>
<path d="M409.173 152.911L356.097 37.3574H346.322L399.398 152.911H409.173Z" fill="white"/>
<path d="M334.4 152.911V37.3574H333.248V152.911H334.4Z" fill="#E6E6E6"/>
<g opacity="0.4">
<path d="M470.725 130.686H486.285V20.4089H470.725V130.686Z" fill="#F0F0F0"/>
<path d="M464.668 130.686H476.793V20.4089H464.668V130.686Z" fill="#E6E6E6"/>
<path d="M455.176 130.686H470.736V20.4089H455.176V130.686Z" fill="#F0F0F0"/>
<path d="M449.108 130.686H461.232V20.4089H449.108V130.686Z" fill="#E6E6E6"/>
<path d="M439.606 130.686H455.166V20.4089H439.606V130.686Z" fill="#F0F0F0"/>
</g>
<g opacity="0.4">
<path d="M339.043 130.686H348.016V20.4089H339.043V130.686Z" fill="#F0F0F0"/>
<path d="M335.552 130.686H342.535V20.4089H335.552V130.686Z" fill="#E6E6E6"/>
<path d="M330.073 130.686H339.045V20.4089H330.073V130.686Z" fill="#F0F0F0"/>
<path d="M326.593 130.686H333.576V20.4089H326.593V130.686Z" fill="#E6E6E6"/>
<path d="M321.1 130.686H330.072V20.4089H321.1V130.686Z" fill="#F0F0F0"/>
</g>
<path d="M185.568 109.271H207.106L204.564 54.6465H185.568V109.271Z" fill="#F5F5F5"/>
<path d="M219.276 112.221L223.921 136.482H219.276L190.789 112.221H219.276Z" fill="#F5F5F5"/>
<path d="M223.921 112.221V136.482L195.434 112.221H223.921Z" fill="#E6E6E6"/>
<path d="M107.554 112.221L112.198 136.482H107.554L79.0664 112.221H107.554Z" fill="#F5F5F5"/>
<path d="M112.198 112.221V136.482L83.7109 112.221H112.198Z" fill="#E6E6E6"/>
<path d="M244.836 109.35H213.852V112.853H244.836V109.35Z" fill="#E6E6E6"/>
<path d="M59.81 112.854L213.852 112.854V109.351L59.81 109.351V112.854Z" fill="#F5F5F5"/>
<path d="M153.918 109.272H200.158L205.875 43.0762H159.636L153.918 109.272Z" fill="#E6E6E6"/>
<path d="M151.521 109.272H197.761L203.479 43.0762H157.239L151.521 109.272Z" fill="#F0F0F0"/>
<path d="M193.885 101.938L199.117 50.3984H161.126L155.895 101.938H193.885Z" fill="white"/>
<path d="M133.215 109.272H148.052L146.3 71.6543H133.215V109.272Z" fill="#E0E0E0"/>
<path d="M111.43 109.272H143.262L147.205 63.6875H115.362L111.43 109.272Z" fill="#F0F0F0"/>
<path d="M109.779 109.272H141.623L145.555 63.6875H113.712L109.779 109.272Z" fill="#F5F5F5"/>
<path d="M138.945 104.22L142.538 68.7383H116.39L112.785 104.22H138.945Z" fill="#E0E0E0"/>
<path d="M296.468 205.028C296.573 206.291 296.301 207.557 295.687 208.666C295.072 209.775 294.143 210.677 293.015 211.257C291.888 211.837 290.614 212.07 289.355 211.926C288.095 211.782 286.907 211.267 285.94 210.447C284.973 209.628 284.271 208.539 283.922 207.32C283.574 206.101 283.595 204.806 283.983 203.6C284.371 202.393 285.109 201.328 286.102 200.54C287.095 199.752 288.3 199.277 289.564 199.174C290.401 199.105 291.245 199.201 292.045 199.458C292.846 199.714 293.588 200.126 294.229 200.67C294.87 201.213 295.398 201.878 295.782 202.626C296.166 203.374 296.399 204.19 296.468 205.028Z" fill="#E0E0E0"/>
<path d="M308.366 208.373C308.472 209.636 308.2 210.902 307.585 212.011C306.971 213.12 306.041 214.022 304.914 214.602C303.787 215.182 302.513 215.415 301.253 215.271C299.994 215.127 298.805 214.612 297.838 213.792C296.871 212.972 296.169 211.884 295.821 210.665C295.472 209.446 295.494 208.151 295.882 206.944C296.27 205.737 297.007 204.673 298 203.885C298.994 203.097 300.198 202.622 301.462 202.519C303.153 202.382 304.83 202.921 306.125 204.018C307.419 205.115 308.225 206.681 308.366 208.373Z" fill="#E0E0E0"/>
<path d="M316.965 204.529C317.068 205.793 316.794 207.058 316.178 208.165C315.562 209.273 314.631 210.173 313.504 210.751C312.376 211.33 311.102 211.561 309.843 211.416C308.584 211.27 307.397 210.754 306.431 209.934C305.465 209.114 304.764 208.025 304.417 206.806C304.07 205.587 304.092 204.293 304.48 203.087C304.869 201.88 305.606 200.816 306.6 200.029C307.593 199.242 308.797 198.767 310.061 198.665C311.753 198.53 313.43 199.072 314.724 200.171C316.018 201.27 316.824 202.837 316.965 204.529Z" fill="#E0E0E0"/>
<path d="M326.039 206.926C326.14 208.186 325.864 209.447 325.249 210.551C324.633 211.655 323.703 212.552 322.578 213.128C321.453 213.704 320.182 213.934 318.926 213.788C317.671 213.642 316.486 213.128 315.523 212.309C314.559 211.491 313.86 210.406 313.513 209.19C313.166 207.974 313.187 206.683 313.574 205.48C313.96 204.276 314.695 203.214 315.684 202.427C316.674 201.641 317.875 201.165 319.135 201.061C319.973 200.991 320.817 201.088 321.619 201.345C322.42 201.603 323.163 202.015 323.804 202.56C324.445 203.105 324.973 203.771 325.356 204.52C325.74 205.269 325.972 206.087 326.039 206.926Z" fill="#E0E0E0"/>
<path d="M334.186 207.92C334.186 207.92 333.441 225.706 304.874 225.706C276.308 225.706 275.494 207.92 275.494 207.92H334.186Z" fill="#F0F0F0"/>
<path d="M67.6641 369.963H78.0488L78.0488 225.741H67.6641L67.6641 369.963Z" fill="#E6E6E6"/>
<path d="M64.8965 369.963H71.0098L71.0098 225.741H64.8965L64.8965 369.963Z" fill="#F0F0F0"/>
<path d="M210.418 225.74H62.998V236.554H210.418V225.74Z" fill="#F0F0F0"/>
<path d="M350.027 369.963H360.412V225.741H350.027V369.963Z" fill="#E6E6E6"/>
<path d="M348.086 369.963H354.199V225.741H348.086V369.963Z" fill="#F0F0F0"/>
<path d="M362.265 225.74H214.846V236.554H362.265V225.74Z" fill="#E6E6E6"/>
<path d="M211.287 369.963H221.672L221.672 225.741H211.287L211.287 369.963Z" fill="#E6E6E6"/>
<path d="M208.52 369.963H214.633L214.633 225.741H208.52L208.52 369.963Z" fill="#F0F0F0"/>
<path d="M245.368 177.771H168.404L154.686 223.22H231.661L245.368 177.771Z" fill="#E6E6E6"/>
<path d="M231.662 223.221L231.356 225.741H154.381L154.686 223.221H231.662Z" fill="#E6E6E6"/>
<path d="M243.007 177.771H166.031L152.324 223.22H229.289L243.007 177.771Z" fill="#F0F0F0"/>
<path d="M227.786 221.153L240.239 179.852H167.546L155.082 221.153H227.786Z" fill="white"/>
<path d="M209.242 223.221L208.925 225.741H124.164L124.469 223.221H209.242Z" fill="#F0F0F0"/>
<path d="M282.5 420.993C403.503 420.993 501.596 415.266 501.596 408.202C501.596 401.137 403.503 395.41 282.5 395.41C161.497 395.41 63.4043 401.137 63.4043 408.202C63.4043 415.266 161.497 420.993 282.5 420.993Z" fill="#F5F5F5"/>
<path d="M426.632 61.1904H296.58C292.12 61.2637 287.847 62.997 284.596 66.0518C281.344 69.1067 279.348 73.2636 278.998 77.711L258.771 389.094C258.606 391.214 258.884 393.345 259.588 395.352C260.292 397.359 261.406 399.197 262.859 400.75C264.312 402.303 266.072 403.537 268.028 404.372C269.983 405.208 272.091 405.627 274.218 405.603H404.315C408.774 405.533 413.047 403.802 416.299 400.749C419.55 397.696 421.547 393.54 421.897 389.094L436.407 165.286C437.023 165.071 437.564 164.682 437.965 164.167C438.366 163.652 438.61 163.032 438.667 162.382L441.266 122.335C441.311 121.713 441.153 121.093 440.814 120.569C440.476 120.045 439.976 119.645 439.39 119.431L442.091 77.711C442.255 75.5893 441.977 73.4565 441.272 71.4483C440.568 69.4401 439.453 67.6006 437.999 66.0466C436.545 64.4927 434.784 63.2584 432.827 62.4224C430.87 61.5863 428.76 61.1668 426.632 61.1904Z" fill="#1882CD"/>
<path d="M268.465 141.816H271.019C271.809 141.802 272.566 141.494 273.142 140.953C273.718 140.413 274.073 139.677 274.137 138.889L275.267 122.165C275.296 121.789 275.245 121.411 275.12 121.055C274.994 120.699 274.796 120.373 274.538 120.098C274.28 119.823 273.967 119.605 273.62 119.457C273.273 119.309 272.899 119.234 272.522 119.238H269.979C269.188 119.25 268.43 119.557 267.853 120.098C267.276 120.639 266.922 121.376 266.86 122.165L265.73 138.889C265.702 139.264 265.752 139.642 265.877 139.997C266.002 140.352 266.199 140.677 266.456 140.952C266.713 141.227 267.024 141.446 267.37 141.594C267.716 141.743 268.089 141.818 268.465 141.816Z" fill="#1882CD"/>
<path d="M266.533 171.671H269.075C269.868 171.657 270.628 171.349 271.207 170.806C271.785 170.263 272.141 169.524 272.205 168.733L273.335 152.021C273.364 151.644 273.313 151.266 273.188 150.911C273.062 150.555 272.864 150.229 272.606 149.954C272.347 149.679 272.035 149.46 271.688 149.312C271.341 149.164 270.967 149.09 270.589 149.094H268.047C267.255 149.105 266.495 149.411 265.916 149.953C265.338 150.494 264.981 151.231 264.917 152.021L263.787 168.733C263.755 169.111 263.803 169.491 263.927 169.849C264.051 170.207 264.249 170.535 264.508 170.811C264.767 171.088 265.081 171.308 265.429 171.456C265.778 171.604 266.154 171.677 266.533 171.671Z" fill="#1882CD"/>
<path d="M397.398 405.603H267.347C265.22 405.627 263.112 405.207 261.156 404.372C259.201 403.536 257.44 402.303 255.988 400.75C254.535 399.197 253.421 397.359 252.717 395.352C252.013 393.345 251.735 391.214 251.9 389.094L272.081 77.7109C272.435 73.2625 274.433 69.1054 277.686 66.0509C280.939 62.9963 285.214 61.2634 289.676 61.1903H419.716C421.843 61.1682 423.951 61.5889 425.907 62.4257C427.863 63.2625 429.623 64.497 431.076 66.0507C432.528 67.6045 433.642 69.4435 434.346 71.4509C435.049 73.4583 435.328 75.5901 435.163 77.7109L414.981 389.094C414.63 393.54 412.634 397.696 409.382 400.749C406.131 403.802 401.858 405.533 397.398 405.603Z" fill="#263238"/>
<path opacity="0.2" d="M341.212 392.362C345.767 387.952 346.11 380.916 341.978 376.647C337.846 372.379 330.803 372.493 326.247 376.903C321.691 381.314 321.348 388.349 325.48 392.618C329.613 396.887 336.656 396.772 341.212 392.362Z" fill="white"/>
<path d="M409.149 365.183H261.311C260.808 365.182 260.31 365.079 259.848 364.878C259.386 364.678 258.97 364.385 258.626 364.017C258.282 363.65 258.017 363.216 257.847 362.742C257.677 362.268 257.606 361.764 257.639 361.262L274.939 94.2201C275.015 93.2978 275.435 92.4377 276.115 91.81C276.795 91.1823 277.686 90.8326 278.611 90.8301H426.461C426.964 90.8306 427.462 90.9343 427.924 91.1347C428.386 91.3352 428.801 91.6282 429.146 91.9956C429.49 92.3631 429.755 92.7972 429.925 93.2711C430.095 93.7451 430.165 94.2488 430.133 94.7512L412.821 361.736C412.761 362.67 412.348 363.545 411.666 364.185C410.984 364.825 410.084 365.182 409.149 365.183Z" fill="white"/>
<path opacity="0.2" d="M367.901 259.931C384.438 243.922 385.682 218.382 370.681 202.886C355.679 187.389 330.112 187.804 313.575 203.813C297.039 219.821 295.794 245.361 310.795 260.858C325.797 276.354 351.364 275.939 367.901 259.931Z" fill="#1882CD"/>
<path opacity="0.2" d="M336.739 294.094C302.421 294.094 276.307 266.172 278.533 231.854C280.759 197.536 310.478 169.613 344.807 169.613C379.137 169.613 405.24 197.536 403.014 231.854C400.787 266.172 371.023 294.094 336.739 294.094ZM344.649 170.743C310.952 170.743 281.765 198.157 279.584 231.854C277.403 265.55 303.031 292.964 336.728 292.964C370.424 292.964 399.612 265.55 401.804 231.854C403.997 198.157 378.391 170.743 344.649 170.743Z" fill="#1882CD"/>
<path d="M331.09 251.415L327.7 244.872C320.355 230.623 303.439 217.888 297.529 214.181L303.111 205.83C310.106 210.215 324.084 221.074 332.853 233.979C349.069 214.769 371.985 194.982 402.665 173.637L407.896 181.547C375.126 204.35 351.543 225.199 335.859 245.29L331.09 251.415Z" fill="#1882CD"/>
<path opacity="0.2" d="M329.488 78.9653C331.331 77.1813 331.467 74.3319 329.792 72.6011C328.116 70.8703 325.264 70.9134 323.421 72.6975C321.578 74.4815 321.442 77.3308 323.118 79.0616C324.793 80.7925 327.646 80.7493 329.488 78.9653Z" fill="white"/>
<path opacity="0.2" d="M342.288 71.3265H379.68C380.261 71.3197 380.837 71.4345 381.372 71.6635C381.906 71.8925 382.386 72.2306 382.782 72.6563C383.178 73.0819 383.48 73.5855 383.67 74.1349C383.86 74.6843 383.933 75.2673 383.884 75.8465C383.791 77.0611 383.249 78.1975 382.363 79.0334C381.476 79.8693 380.31 80.3447 379.093 80.3665H341.712C341.131 80.3714 340.555 80.2554 340.021 80.0259C339.487 79.7964 339.007 79.4584 338.611 79.0334C338.214 78.6084 337.911 78.1056 337.719 77.557C337.527 77.0083 337.452 76.4258 337.497 75.8465C337.59 74.6318 338.132 73.4954 339.018 72.6595C339.904 71.8236 341.07 71.3482 342.288 71.3265Z" fill="white"/>
<path d="M203.104 154.81C201.194 156.765 199.149 158.924 197.262 161.071C195.375 163.218 193.488 165.421 191.713 167.681C189.939 169.941 188.323 172.201 186.651 174.585L185.521 176.36L184.391 178.156C184.018 178.755 183.679 179.365 183.351 179.987L182.447 181.648C182.079 182.598 181.869 183.602 181.826 184.62C181.735 185.929 181.735 187.243 181.826 188.552C182.047 191.377 182.425 194.187 182.956 196.971C183.453 199.818 184.086 202.677 184.753 205.525C185.419 208.372 186.154 211.254 186.9 214.056L182.719 215.627C180.149 210.1 177.997 204.389 176.278 198.541C175.405 195.528 174.737 192.458 174.278 189.355C174.049 187.699 173.932 186.031 173.927 184.36C173.901 182.391 174.234 180.434 174.91 178.586C175.17 177.953 175.306 177.704 175.487 177.32L176.006 176.247C176.345 175.535 176.696 174.823 177.136 174.133L178.266 172.054L179.464 170.032C181.06 167.367 182.799 164.791 184.674 162.314C186.527 159.839 188.448 157.432 190.47 155.104C192.493 152.776 194.538 150.584 196.889 148.324L203.104 154.81Z" fill="#B55B52"/>
<path d="M203.589 141.251C197.464 141.522 191.645 151.692 191.645 151.692L199.735 168.202C199.735 168.202 210.696 159.071 210.832 150.122C210.922 144.257 209.612 140.969 203.589 141.251Z" fill="#1882CD"/>
<path opacity="0.7" d="M203.589 141.251C197.464 141.522 191.645 151.692 191.645 151.692L199.735 168.202C199.735 168.202 210.696 159.071 210.832 150.122C210.922 144.257 209.612 140.969 203.589 141.251Z" fill="white"/>
<path opacity="0.2" d="M205.048 153.116C203.263 155.816 202.404 162.822 202.133 165.941C204.829 163.319 207.115 160.306 208.913 157.003C207.704 153.986 206.223 151.341 205.048 153.116Z" fill="black"/>
<path d="M185.69 212.338L193.137 214.598L188.176 219.615C188.176 219.615 182.808 217.954 182.062 214.304L185.69 212.338Z" fill="#B55B52"/>
<path d="M197.647 220.282L196.393 225.084L188.178 219.57L193.138 214.553L197.647 220.282Z" fill="#B55B52"/>
<path d="M246.643 121.645C246.405 122.312 246.575 122.99 247.016 123.148C247.456 123.306 247.999 122.911 248.225 122.244C248.451 121.578 248.292 120.888 247.852 120.73C247.411 120.572 246.88 120.967 246.643 121.645Z" fill="#263238"/>
<path d="M247.648 120.695L249.423 120.842C249.423 120.842 248.157 121.78 247.648 120.695Z" fill="#263238"/>
<path d="M246.982 122.504C247.049 124.262 247.353 126.003 247.886 127.679C247.455 127.792 247.004 127.81 246.565 127.732C246.127 127.654 245.71 127.482 245.344 127.227L246.982 122.504Z" fill="#A02724"/>
<path d="M248.835 119.035C248.754 119.024 248.679 118.989 248.618 118.934C248.558 118.88 248.515 118.809 248.496 118.73C248.372 118.219 248.134 117.743 247.799 117.338C247.464 116.933 247.042 116.609 246.563 116.391C246.461 116.353 246.377 116.275 246.33 116.176C246.284 116.077 246.278 115.963 246.315 115.86C246.333 115.808 246.36 115.76 246.397 115.719C246.434 115.679 246.478 115.646 246.528 115.622C246.577 115.599 246.631 115.586 246.686 115.584C246.74 115.582 246.795 115.591 246.846 115.611C247.461 115.878 248.005 116.287 248.433 116.803C248.86 117.319 249.161 117.929 249.309 118.583C249.323 118.636 249.326 118.692 249.318 118.747C249.31 118.801 249.291 118.853 249.263 118.901C249.234 118.948 249.197 118.989 249.152 119.022C249.108 119.055 249.058 119.078 249.004 119.091L248.835 119.035Z" fill="#263238"/>
<path d="M223.432 124.48C223.59 129.825 223.048 139.442 218.912 142.165C218.912 142.165 219.466 147.657 229.082 149.521C239.648 151.567 234.992 145.284 234.992 145.284C229.455 142.798 230.303 138.572 231.964 134.775L223.432 124.48Z" fill="#B55B52"/>
<path d="M254.836 161.059C255.786 163.646 256.87 166.449 258.023 169.104C259.176 171.76 260.283 174.449 261.628 177.014C262.972 179.579 264.283 182.156 265.707 184.653C266.442 185.885 267.176 187.116 267.967 188.292C268.351 188.902 268.747 189.489 269.165 190.043L269.775 190.902L270.08 191.343L270.238 191.557L270.34 191.67C271.075 192.506 271.919 193.24 272.849 193.851C273.969 194.616 275.131 195.318 276.329 195.953C278.804 197.286 281.459 198.495 284.16 199.637C286.861 200.778 289.618 201.897 292.409 202.88C295.2 203.863 298.059 204.903 300.805 205.863L299.754 210.214C293.698 209.201 287.715 207.793 281.843 205.999C278.837 205.082 275.887 203.992 273.007 202.733C271.497 202.063 270.025 201.308 268.6 200.473C266.946 199.53 265.448 198.337 264.159 196.936L263.888 196.631L263.696 196.394L263.323 195.93L262.577 194.981C262.068 194.36 261.583 193.727 261.131 193.083C260.17 191.806 259.289 190.495 258.419 189.173C256.704 186.55 255.124 183.842 253.684 181.06C252.249 178.291 250.893 175.5 249.65 172.652C248.407 169.805 247.288 167.002 246.26 163.884L254.836 161.059Z" fill="#B55B52"/>
<path d="M299.313 205.842L305.98 203.266L305.652 210.961C305.652 210.961 300.251 212.396 297.742 209.673L299.313 205.842Z" fill="#B55B52"/>
<path d="M311.009 205.91L313.291 210.825L305.652 210.961L305.98 203.266L311.009 205.91Z" fill="#B55B52"/>
<path d="M200.438 398.767L209.263 399.422L211.884 379.161L203.059 378.506L200.438 398.767Z" fill="#B55B52"/>
<path d="M130.535 352.932L136.298 359.78L153.406 348.785L147.643 341.938L130.535 352.932Z" fill="#B55B52"/>
<path d="M138.988 358.9L134.344 349.973C134.27 349.818 134.142 349.696 133.983 349.629C133.825 349.562 133.648 349.556 133.485 349.612L126.106 352.166C125.921 352.24 125.754 352.353 125.615 352.497C125.477 352.641 125.371 352.812 125.303 353C125.236 353.188 125.209 353.388 125.225 353.587C125.241 353.786 125.298 353.979 125.394 354.154C127.067 357.239 128.027 358.674 130.061 362.573C131.327 364.98 132.92 368.641 134.649 371.974C136.378 375.308 139.677 373.828 139.248 372.28C137.304 365.375 138.593 363.466 139.248 360.471C139.341 359.933 139.25 359.38 138.988 358.9Z" fill="#263238"/>
<path d="M209.816 398.168H199.895C199.724 398.166 199.558 398.225 199.427 398.335C199.297 398.445 199.21 398.598 199.183 398.767L197.849 406.609C197.822 406.805 197.837 407.004 197.893 407.193C197.949 407.382 198.045 407.557 198.175 407.706C198.304 407.855 198.464 407.975 198.644 408.056C198.824 408.138 199.019 408.18 199.217 408.18C202.686 408.123 204.347 407.92 208.709 407.92C211.398 407.92 216.935 408.202 220.641 408.202C224.348 408.202 224.642 404.541 223.105 404.202C216.223 402.722 213.556 400.665 211.274 398.71C210.871 398.357 210.352 398.164 209.816 398.168Z" fill="#263238"/>
<path opacity="0.2" d="M211.884 379.16L210.426 390.426L201.635 389.544L203.059 378.516L211.884 379.16Z" fill="black"/>
<path opacity="0.2" d="M147.644 341.938L153.407 348.785L146.321 353.339L140.344 346.627L147.644 341.938Z" fill="black"/>
<path d="M201.137 194.982L236.528 201.841C253.252 152.607 249.252 150.991 249.252 150.991C246.652 149.586 243.969 148.341 241.218 147.262L240.732 147.081C238.472 146.256 237.997 146.132 234.969 145.25C229.748 144.019 224.901 142.99 218.9 142.143L217.77 141.985C216.64 141.849 215.601 141.736 214.561 141.634C213.861 141.555 213.16 141.51 212.493 141.465L210.233 141.341C206.369 141.149 203.6 141.205 203.6 141.205C205.544 171.952 204.063 180.8 201.137 194.982Z" fill="#1882CD"/>
<path opacity="0.7" d="M201.137 194.982L236.528 201.841C253.252 152.607 249.252 150.991 249.252 150.991C246.652 149.586 243.969 148.341 241.218 147.262L240.732 147.081C238.472 146.256 237.997 146.132 234.969 145.25C229.748 144.019 224.901 142.99 218.9 142.143L217.77 141.985C216.64 141.849 215.601 141.736 214.561 141.634C213.861 141.555 213.16 141.51 212.493 141.465L210.233 141.341C206.369 141.149 203.6 141.205 203.6 141.205C205.544 171.952 204.063 180.8 201.137 194.982Z" fill="white"/>
<path opacity="0.2" d="M244.169 162.483L240.971 161.963C240.971 166.178 242.575 173.41 244.135 178.009C245.457 173.489 246.485 169.771 247.265 166.641L244.169 162.483Z" fill="black"/>
<path d="M248.022 150.392C253.254 152.064 257.062 162.415 258.486 166.879L248.316 178.823C248.316 178.823 237.897 163.85 239.558 159.206C241.186 154.369 245.491 149.567 248.022 150.392Z" fill="#1882CD"/>
<path opacity="0.7" d="M248.022 150.392C253.254 152.064 257.062 162.415 258.486 166.879L248.316 178.823C248.316 178.823 237.897 163.85 239.558 159.206C241.186 154.369 245.491 149.567 248.022 150.392Z" fill="white"/>
<path d="M251.411 112.174C250.36 115.259 245.761 116.491 241.185 114.943C236.608 113.395 233.716 109.609 234.766 106.524C235.817 103.44 240.416 102.208 244.936 103.767C249.456 105.327 252.451 109.09 251.411 112.174Z" fill="#263238"/>
<path d="M224.869 111.327C222.519 119.734 221.343 123.237 224.033 129.023C228.078 137.735 238.904 139.103 243.717 131.633C248.045 124.921 251.164 112.299 244.249 105.982C242.789 104.572 240.987 103.566 239.02 103.065C237.053 102.563 234.99 102.584 233.033 103.123C231.077 103.663 229.295 104.703 227.863 106.142C226.431 107.581 225.399 109.368 224.869 111.327Z" fill="#B55B52"/>
<path d="M237.999 101.508C234.609 103.452 227.41 91.2816 218.472 101.508C212.076 108.842 216.156 119.588 216.156 119.588C216.156 119.588 211.059 110.627 206.991 115C201.68 120.65 207.172 140.866 224.687 139.476C242.202 138.086 240.507 123.871 240.507 123.871C240.507 123.871 248.711 115.531 248.304 108.051C247.999 102.446 243.649 98.3102 237.999 101.508Z" fill="#263238"/>
<path d="M240.124 118.548C239.687 120.113 239.742 121.774 240.282 123.306C241.005 125.464 242.666 125.475 243.548 123.984C244.429 122.492 244.915 119.904 243.661 118.164C242.406 116.424 240.689 116.819 240.124 118.548Z" fill="#B55B52"/>
<path d="M227.127 200.011C227.127 200.011 223.353 213.096 218.505 230.363C215.285 241.866 211.579 255.223 208.2 267.8C206.268 274.998 204.448 281.936 202.878 288.14C193.996 323.226 149.7 353.386 149.7 353.386L141.123 343.95C141.123 343.95 170.887 318.887 179.543 286.151C197.024 219.696 187.193 208.486 201.126 194.982L227.127 200.011Z" fill="#263238"/>
<path opacity="0.2" d="M223.309 211.74C221.998 216.813 220.348 223.221 218.529 230.385C215.308 241.888 211.602 255.245 208.223 267.822C206.777 251.776 205.963 222.271 217.772 213.096C220.1 211.31 221.941 210.937 223.309 211.74Z" fill="black"/>
<path d="M150.435 354.741L139.723 342.956L142.966 339.701L156.108 352.086L150.435 354.741Z" fill="#1882CD"/>
<path opacity="0.7" d="M150.435 354.741L139.723 342.956L142.966 339.701L156.108 352.086L150.435 354.741Z" fill="white"/>
<path d="M140.605 363.692C140.497 363.689 140.39 363.67 140.289 363.635C139.238 363.251 138.571 361.24 138.266 360.076C138.256 360.036 138.258 359.994 138.272 359.956C138.286 359.918 138.312 359.885 138.345 359.861C138.378 359.837 138.417 359.824 138.458 359.824C138.499 359.824 138.538 359.837 138.571 359.861C138.887 360.042 141.667 361.669 141.724 362.81C141.733 362.934 141.709 363.059 141.653 363.17C141.597 363.282 141.512 363.376 141.407 363.443C141.176 363.616 140.893 363.703 140.605 363.692ZM138.808 360.471C139.272 361.997 139.859 363.025 140.435 363.228C140.559 363.267 140.689 363.273 140.816 363.247C140.942 363.222 141.06 363.165 141.159 363.081C141.306 362.98 141.317 362.878 141.306 362.81C141.249 362.223 139.904 361.16 138.808 360.471Z" fill="#1882CD"/>
<path d="M235.965 201.842C235.965 201.842 238.225 271.698 233.231 298.016C228.1 325.441 212.439 387.591 212.439 387.591L199.715 385.953C199.715 385.953 207.76 323.057 211.184 295.869C214.902 266.218 210.054 196.779 210.054 196.779L235.965 201.842Z" fill="#263238"/>
<path d="M215.174 388.371L197.037 386.031L197.252 381.715L216.993 382.574L215.174 388.371Z" fill="#1882CD"/>
<path opacity="0.7" d="M215.174 388.371L197.037 386.031L197.252 381.715L216.993 382.574L215.174 388.371Z" fill="white"/>
<path d="M141.034 360.957C140.095 360.912 139.179 360.653 138.356 360.2C138.325 360.181 138.299 360.154 138.281 360.123C138.264 360.091 138.254 360.055 138.254 360.019C138.259 359.983 138.272 359.948 138.291 359.917C138.31 359.885 138.336 359.859 138.367 359.838C138.469 359.838 140.627 358.652 141.87 359.115C142.026 359.172 142.167 359.262 142.284 359.379C142.402 359.496 142.492 359.637 142.548 359.793C142.622 359.943 142.644 360.114 142.609 360.278C142.574 360.443 142.485 360.59 142.356 360.697C141.954 360.923 141.491 361.015 141.034 360.957ZM138.921 360.042C139.904 360.494 141.621 360.742 142.096 360.369C142.175 360.302 142.254 360.2 142.096 359.94C142.063 359.84 142.007 359.749 141.932 359.675C141.857 359.6 141.767 359.544 141.667 359.511C140.718 359.404 139.761 359.59 138.921 360.042Z" fill="#1882CD"/>
<path d="M213.093 399.703C212.162 399.684 211.235 399.578 210.324 399.387C210.281 399.382 210.241 399.363 210.21 399.332C210.179 399.301 210.16 399.261 210.155 399.218C210.148 399.174 210.155 399.13 210.176 399.092C210.196 399.053 210.228 399.022 210.268 399.003C210.675 398.788 214.245 396.991 215.308 397.59C215.409 397.646 215.494 397.728 215.553 397.827C215.613 397.926 215.645 398.04 215.647 398.155C215.669 398.344 215.643 398.534 215.572 398.71C215.501 398.886 215.386 399.041 215.24 399.161C214.605 399.577 213.849 399.768 213.093 399.703ZM211.025 399.093C212.968 399.421 214.415 399.331 214.969 398.856C215.064 398.773 215.137 398.667 215.182 398.549C215.228 398.431 215.243 398.304 215.228 398.178C215.232 398.132 215.222 398.087 215.2 398.047C215.178 398.006 215.144 397.974 215.104 397.952C214.528 397.636 212.494 398.393 211.025 399.093Z" fill="#1882CD"/>
<path d="M210.372 399.399C210.331 399.41 210.288 399.41 210.247 399.399C210.217 399.377 210.193 399.348 210.177 399.315C210.161 399.281 210.154 399.244 210.157 399.207C210.157 399.048 210.598 395.229 212.733 395.455C213.298 395.511 213.468 395.794 213.502 396.031C213.66 397.026 211.524 398.947 210.451 399.421L210.372 399.399ZM212.564 395.817C211.298 395.817 210.79 397.907 210.631 398.811C211.761 398.156 213.185 396.653 213.095 396.054C213.095 396.054 213.095 395.862 212.688 395.828L212.564 395.817Z" fill="#1882CD"/>
<path d="M200.913 192.823L198.8 195.659C198.642 195.885 198.891 196.191 199.297 196.27L236.418 203.456C236.734 203.456 237.028 203.456 237.073 203.219L237.921 200.123C237.921 199.92 237.729 199.671 237.378 199.603L201.535 192.665C201.426 192.636 201.312 192.635 201.203 192.663C201.094 192.691 200.995 192.746 200.913 192.823Z" fill="#1882CD"/>
<path d="M205.071 197.75L204.11 197.557C203.918 197.557 203.794 197.399 203.828 197.286L204.958 193.275C204.958 193.162 205.184 193.094 205.365 193.128L206.325 193.32C206.517 193.32 206.653 193.478 206.619 193.591L205.489 197.603C205.444 197.75 205.263 197.75 205.071 197.75Z" fill="#263238"/>
<path d="M229.309 202.486L228.349 202.305C228.157 202.305 228.032 202.135 228.066 202.022L229.196 198.022C229.196 197.898 229.411 197.83 229.603 197.875L230.563 198.056C230.744 198.056 230.88 198.226 230.846 198.339L229.716 202.339C229.682 202.463 229.501 202.531 229.309 202.486Z" fill="#263238"/>
</svg>
